<?xml version="1.0" encoding="utf-8"?>
<!-- Generator: Adobe Illustrator 26.0.2, SVG Export Plug-In . SVG Version: 6.00 Build 0)  -->
<svg version="1.1" xmlns="http://www.w3.org/2000/svg" xmlns:xlink="http://www.w3.org/1999/xlink" x="0px" y="0px"
	 viewBox="0 0 800 800" style="enable-background:new 0 0 800 800;" xml:space="preserve">
<style type="text/css">
	.st0{display:none;}
	.st1{display:inline;}
	.st2{fill:#2D2D2D;}
	.st3{fill:#3C3D3D;}
	.st4{fill:#131313;}
	.st5{fill:#FFFFFF;}
	.st6{fill:#FCFCFC;}
	.st7{fill:#2A2A2A;}
	.st8{fill:#565454;}
	.st9{fill:#767373;}
	.st10{fill:#959292;}
	.st11{fill:#C6C4C4;}
</style>
<g id="back" class="st0">
	<rect class="st1" width="800" height="800"/>
</g>
<g id="Front">
	<g>
		<path class="st2" d="M306.66,451.83c1.3-0.17,1.57,0.45,0.84,1.37c-1.16,1.45-2.42,2.83-3.73,4.15c-2.55,2.56-5.37,4.86-7.94,7.38
			c-2.58,2.53-5.46,4.56-8.36,6.62c-0.37,0.26-0.5,0.4-0.33,0.83c1.25,3.1,2.98,5.95,4.57,8.87c0.92,1.69,2.3,3.12,2.64,5.16
			c0.11,0.67,0.96,1.18,1.33,1.85c3.15,5.71,6.76,11.1,10.92,16.12c0.86,1.04,1.19,2.43,2.23,3.41c2.1,1.99,3.98,4.23,6.17,6.1
			c2.57,2.2,4.6,4.89,7.08,7.15c4.1,3.75,7.45,8.28,12.14,11.4c5.76,3.83,11.2,8.08,17.2,11.6c4.25,2.5,8.46,5.04,12.89,7.18
			c4.91,2.36,9.93,4.47,15.38,5.4c3.09,0.52,5.86,2.15,8.83,3.14c3.39,1.13,6.75,2.34,10.26,2.99c2.65,0.49,4.89,2.02,7.47,2.71
			c3.26,0.87,6.52,1.86,9.85,2.2c2.36,0.24,4.82,0.41,7.25-0.06c1.35-0.26,2.79-0.1,4.19-0.08c2.96,0.04,5.87-0.2,8.74-1.06
			c1.62-0.49,3.39-0.22,5.09-0.4c3.76-0.39,7.63-0.44,11.23-1.44c3.91-1.08,7.92-1.2,11.8-2.09c2.47-0.56,4.91-1.46,7.41-1.97
			c5.83-1.18,11.46-3.05,17.01-5.11c3.47-1.29,6.81-3.01,10.23-4.4c2.45-1,4.45-2.62,6.81-3.71c3.03-1.38,5.89-3.2,8.19-5.71
			c0.33-0.36,0.73-0.56,1.15-0.73c1.47-0.62,1.77-1.87,1.39-3.17c-0.49-1.64-0.02-3.2,0.25-4.73c0.19-1.1,0.43-2.19,0.52-3.31
			c0.75,0.16,0.43,0.77,0.52,1.21c0.23,1.57-0.35,3.07-0.42,4.62c-0.01,0.23-0.06,0.42-0.01,0.68c0.51,2.65,0.52,2.69,2.73,1.06
			c2.11-1.56,4.1-3.52,6.38-4.57c3.46-1.59,5.46-4.58,8.11-6.9c4.33-3.77,8.39-7.89,12.13-12.25c2.18-2.55,3.94-5.47,6.04-8.11
			c1.41-1.77,3.14-3.24,4.35-5.21c2.1-3.42,4.57-6.6,6.52-10.15c2.08-3.8,4.09-7.65,6.22-11.43c2.65-4.7,4.52-9.84,6.89-14.71
			c1.36-2.79,2.71-5.59,3.3-8.62c0.99-5.09,1.95-10.18,2.7-15.31c0.5-3.43,1.71-6.75,2.43-10.15c0.48-2.27,0.77-4.6,0.92-6.92
			c0.26-4.08-0.21-8.18,0.06-12.27c0.17-2.56,1.06-5.01,0.93-7.62c-0.19-3.81-0.11-7.63-0.36-11.43
			c-0.35-5.16-0.44-10.37-1.65-15.42c-0.57-2.37-1.51-4.66-2.24-7c-1.31-4.18-2.53-8.39-3.9-12.55c-0.78-2.36-1.93-4.61-2.69-6.98
			c-0.61-1.88-1.24-3.76-1.93-5.61c-2.07-5.54-4.24-11.05-7.33-16.1c-1.54-2.52-3.59-4.72-5.34-7.12
			c-2.85-3.89-5.74-7.77-8.44-11.76c-2.35-3.47-4.53-7.13-7.4-10.13c-5.63-5.9-11.54-11.49-18.48-15.98
			c-4.98-3.23-10.01-6.37-15.03-9.53c-1.25-0.79-2.59-1.48-3.95-2.06c-2.2-0.94-3.94-2.56-5.87-3.86c-3.08-2.08-6.41-3.61-9.77-5.13
			c-4.58-2.07-9.29-3.79-14.09-5.25c-2.17-0.66-4.43-0.9-6.67-1.11c-3.15-0.3-6.13-1.36-9.24-1.78c-6.09-0.81-11.97-2.76-18.15-3.07
			c-4.23-0.21-8.42,0.53-12.62,0.46c-2.83-0.04-5.64,0.24-8.46,0.27c-4.38,0.05-8.8,0-13.17,0.7c-3.03,0.48-6.17,0.43-9.12,1.27
			c-3.61,1.03-7.36,1.33-10.94,2.47c-6.02,1.92-12.18,3.46-18.09,5.68c-3.71,1.39-7.61,2.34-11.11,4.29
			c-1.3,0.73-2.86,0.75-4.27,1.21c-3.48,1.14-6.78,2.68-9.69,4.94c-1.03,0.8-2.31,1.12-3.28,2.01c-3.92,3.58-8.19,6.72-12.04,10.4
			c-2.47,2.36-5.35,4.29-7.89,6.61c-2.34,2.13-4.35,4.55-6.29,7.02c-1.27,1.61-2.75,3.02-4.07,4.57c-1.94,2.27-3.51,4.85-5.37,7.18
			c-3.06,3.85-6,7.78-8.66,11.92c-0.95,1.48-1.55,3.12-2.16,4.76c-0.47,1.26-0.86,2.52-1.68,3.62c-2.65,3.53-4.44,7.51-6.19,11.54
			c-2.44,5.62-3.86,11.57-5.98,17.28c-1.68,4.54-2.55,9.26-3.65,13.91c-0.86,3.63-2.13,7.31-1.44,11.42
			c2.53-2.68,5.63-4.37,8.3-6.62c1.92-1.62,4.34-2.62,5.85-4.76c0.24-0.34,0.48-0.68,0.78-0.97c0.82-0.81,1.48-1.69,3-1.26
			c1.44,0.41,2.99-0.12,4.45-0.47c3.58-0.85,7.44-0.77,10.73-2.59c2.63-1.46,5.53-2.2,8.18-3.58c2.29-1.2,5-1.41,7.59-1.74
			c4.08-0.52,7.73-2.23,11.46-3.78c2.49-1.03,5.03-2,7.86-1.89c1.62,0.06,3.26-0.36,4.89-0.54c0.45-0.05,1.12-0.19,1.18,0.4
			c0.09,0.84-0.67,0.36-1.02,0.4c-2.51,0.28-5.03,0.54-7.55,0.71c-0.96,0.07-1.76,0.46-2.76,0.86c1.87,1.27,3.78,0.95,5.63,0.58
			c1.8-0.36,3.55-0.93,5.33-1.39c0.49-0.13,1.19-0.34,1.31,0.32c0.1,0.5-0.6,0.47-1.02,0.6c-0.31,0.09-1.15,0.2-0.13,0.72
			c0.44,0.23-0.13,0.58-0.35,0.81c-1.29,1.3-3.14,1.62-4.57,2.76c-2.3,1.85-5.37,2.33-7.8,3.91c-2.65,1.72-5.78,2.06-8.48,3.44
			c-1.45,0.74-2.79,1.42-4.42,1.45c-0.56,0.01-0.42,0.49-0.57,0.77c-0.76,1.43-1.67,2.24-3.45,2.81c-3.86,1.24-7.86,2.26-11.39,4.46
			c-1.37,0.85-2.92,1.43-4.2,2.47c-0.77,0.63-1.7,0.32-2.48,0.03c-0.77-0.28-1.18-0.04-1.51,0.56c-1.12,2.05-2.68,3.72-4.4,5.27
			c-0.26,0.23-0.42,0.59-0.6,0.9c-0.71,1.21-1.51,2.38-2.64,3.22c-1.78,1.33-3.12,3.05-4.63,4.63c-1.19,1.24-2.64,2.42-3.38,3.85
			c-1.23,2.38-3.51,3.03-5.36,4.48c-0.45-0.82-0.22-1.18,0.37-1.48c2.01-1.01,3.44-2.62,4.57-4.52c0.18-0.3,0.49-0.54,0.75-0.79
			c1.66-1.63,3.28-3.28,4.62-5.2c0.42-0.6,1.16-0.98,1.72-1.5c1.61-1.48,2.91-3.17,4.06-5.06c0.53-0.87,1.58-1.55,2.41-2.31
			c0.84-0.77,1.33-1.74,1.72-2.79c0.28-0.75,0.41-1.24,1.49-0.5c0.89,0.62,2.13,1.04,3.51,0.07c2.33-1.64,4.86-3,7.65-3.88
			c3.01-0.95,5.95-2.16,8.9-3.32c0.96-0.38,1.09-1.41,1.32-2.26c0.14-0.52,0.27-1.08,0.8-0.83c1.66,0.78,2.86-0.37,4.21-0.85
			c3.35-1.19,6.6-2.64,9.83-4.07c3-1.33,6.11-2.66,8.61-4.92c0.67-0.6,1.73-0.62,2.29-1.62c-1.29-0.16-2.27,0.47-3.33,0.7
			c-2.06,0.45-4.28,1.14-6.13-0.13c-1.83-1.26-3-0.27-4.44,0.5c-2.95,1.56-6.18,2.23-9.44,2.86c-3.05,0.59-6.08,1.2-8.98,2.55
			c-4.81,2.24-9.59,4.73-15.1,4.98c-0.66,0.03-1.44,0.15-2.02,0.64c-0.12,0.1-0.33,0.25-0.4,0.21c-1.93-1.2-3.97,0.97-5.92-0.2
			c-0.45-0.27-0.78,0.24-0.98,0.56c-0.97,1.53-2.27,2.78-3.66,3.87c-1.08,0.85-2.53,1.43-3.44,2.28c-1.18,1.1-2.42,2.17-3.73,3.03
			c-2.07,1.36-3.63,3.32-5.74,4.6c-0.85,0.51-1.02,1.49-1.62,2.19c-1.18,1.38-2.92,2.02-4.18,3.29c-1.49,1.51-3.5,2.44-4.72,4.29
			c-0.81,1.22-2.11,1.96-3.19,2.91c-2.3,2.03-4.6,4.06-6.93,6.07c-1.35,1.16-2.75,2.27-4.24,3.28c0.8-2.06,2.6-3.16,4.11-4.57
			c3.31-3.09,7.14-5.57,10.08-9.11c1.48-1.78,3.6-3.02,5.44-4.5c0.62-0.5,1.29-0.95,1.93-1.43c1.71-1.28,2.28-3.2,2.1-5.11
			c-0.16-1.71,0.3-3.31,0.64-4.81c0.74-3.25,1.35-6.55,2.13-9.8c0.92-3.82,1.91-7.62,3.08-11.36c1.31-4.17,2.85-8.28,4.3-12.41
			c1.67-4.75,3.7-9.33,6.49-13.53c2.24-3.38,3.21-7.38,5.4-10.77c1.56-2.41,3.22-4.76,4.91-7.09c1.46-2.02,3.44-3.64,4.52-5.95
			c0.58-1.23,1.81-1.93,2.63-3c2.9-3.74,5.94-7.38,9.04-10.97c2.85-3.31,6.13-6.16,9.63-8.79c2.17-1.63,3.9-3.88,6.12-5.42
			c3.57-2.49,6.28-6.04,10.26-8.01c1.3-0.64,2.25-1.97,3.54-2.65c1.76-0.93,3.65-1.65,5.55-2.26c3.97-1.28,7.87-2.75,11.79-4.17
			c3.39-1.22,6.78-2.52,10.29-3.48c2.87-0.79,5.74-1.81,8.61-2.7c3.74-1.17,7.47-2.32,11.4-2.89c2.23-0.32,4.46-1.04,6.72-1.46
			c3.12-0.58,6.28-1,9.43-1.09c4.76-0.14,9.51-0.5,14.28-0.47c1.91,0.01,3.87,0.05,5.78-0.55c1.3-0.41,2.76-0.06,4.12-0.12
			c2.41-0.09,4.86-0.5,7.28-0.21c4.06,0.49,8.05,1.36,12.05,2.2c4.09,0.86,8.21,1.62,12.32,2.41c4.35,0.84,8.88,0.97,13.01,2.61
			c3.6,1.44,7.34,2.5,10.85,4.31c2.65,1.37,5.52,2.48,8.12,4c2.37,1.39,4.66,2.92,6.92,4.49c1.86,1.28,4.04,2.25,6.09,3.32
			c1.26,0.66,2.44,1.46,3.65,2.19c2.03,1.24,4.01,2.57,6.1,3.68c1.92,1.02,3.35,2.69,5.24,3.72c2.94,1.59,5.4,3.86,8.07,5.81
			c1.72,1.25,3.41,2.65,4.65,4.5c1.27,1.9,3.21,3.22,4.81,4.84c1.54,1.55,3.02,3.04,3.97,5.02c0.7,1.46,1.85,2.6,2.95,3.76
			c1.85,1.96,2.66,4.59,4.31,6.68c2.46,3.12,4.75,6.38,7.17,9.53c1.92,2.5,3.73,5.12,5.25,7.99c1.8,3.43,3.16,7.03,4.75,10.52
			c1,2.2,1.65,4.66,2.42,7.01c0.84,2.59,1.93,5.09,2.84,7.66c0.86,2.44,1.72,4.88,2.34,7.38c0.22,0.88,0.73,1.55,0.99,2.36
			c0.81,2.51,1.28,5.12,2.18,7.62c1.59,4.36,2.08,8.94,2.24,13.57c0.1,2.73,0.55,5.43,0.53,8.19c-0.05,5.45,0.34,10.89-0.77,16.31
			c-0.33,1.65-0.07,3.47,0.1,5.23c0.25,2.6-0.01,5.27-0.24,7.9c-0.4,4.59-1.49,9.05-2.76,13.47c-1.1,3.82-0.83,7.88-1.96,11.64
			c-0.91,3.04-1.07,6.21-2.15,9.2c-1.24,3.43-2.9,6.64-4.5,9.9c-1.46,2.97-2.85,5.98-4.17,9.01c-1.46,3.34-3.72,6.24-5.16,9.6
			c-1.88,4.36-4.72,8.18-7.23,12.17c-1.54,2.46-3.43,4.74-5.44,6.88c-2.13,2.26-3.75,4.93-5.6,7.41c-1.01,1.34-2.06,2.67-3.23,3.87
			c-4,4.15-8.21,8.09-12.34,12.11c-2.84,2.76-6.32,4.58-9.37,7c-1.8,1.43-4.14,2.1-5.56,4.06c-0.38,0.52-0.66,0.95-0.67,1.63
			c-0.06,2.95-0.18,5.89-0.3,8.83c-0.01,0.33,0.24,0.93-0.46,0.87c-0.57-0.06-0.97-0.41-0.78-1.06c0.79-2.65-0.09-5.42,0.6-8.08
			c0.14-0.53,0.01-1.01-0.72-0.46c-0.63,0.48-1.28,0.87-1.87,1.45c-2.29,2.23-5.06,3.77-7.93,5.12c-1.78,0.84-3.27,2.17-5.13,2.9
			c-2.12,0.83-4.19,1.79-6.26,2.76c-2.99,1.4-6.11,2.48-9.22,3.55c-2.64,0.91-5.31,1.68-7.99,2.44c-3.34,0.94-6.94,1.05-10.1,2.31
			c-5.58,2.23-11.48,2.19-17.19,3.35c-4.94,1.01-10,0.8-14.92,1.97c-1.62,0.39-3.41,0.6-5.17,0.55c-4.8-0.13-9.62,0.69-14.41,0.07
			c-2.75-0.35-5.51-0.83-8.2-1.74c-2-0.67-3.96-1.55-6.09-1.9c-1.56-0.26-2.75-1.6-4.41-1.77c-2.97-0.31-5.76-1.42-8.52-2.39
			c-2.35-0.83-4.66-1.96-7.07-2.62c-3.31-0.9-6.69-1.63-9.87-2.92c-2.96-1.2-5.98-2.27-8.83-3.83c-2.33-1.28-4.63-2.65-7.06-3.77
			c-3.81-1.77-6.95-4.63-10.63-6.62c-4.43-2.4-8.19-5.79-12.33-8.62c-3.15-2.15-6.14-4.65-8.35-7.93c-0.79-1.17-2.14-1.95-3.16-2.99
			c-1.78-1.8-3.58-3.58-5.21-5.51c-0.97-1.14-2.32-1.75-3.29-2.86c-2.16-2.47-4.68-4.6-6.59-7.31c-2.24-3.17-4.86-6.11-6.84-9.43
			c-1.72-2.88-3.52-5.73-5.09-8.72c-1.79-3.42-3.69-6.84-5.71-10.16c-0.69-1.14-1.07-2.47-1.66-3.7c-0.6-1.26-1.38-1.13-2.03-0.55
			c-1.98,1.76-4.33,2.9-6.67,3.96c-1.88,0.85-3.35,2.45-5.43,2.89c-0.25-0.03-0.49-0.05-0.62-0.31c2.26-1.67,4.57-3.31,7.07-4.57
			c3.82-1.94,7.07-4.68,10.65-6.95c2.56-1.63,4.34-4.11,6.75-5.85c3.33-2.39,5.94-5.5,8.85-8.3c0.68-0.65,1.54-1.29,1.6-2.41
			C306.7,451.8,306.66,451.83,306.66,451.83z"/>
		<path class="st2" d="M412.2,428.11c-0.25-1.34-0.53-2.67-0.71-4.02c-0.05-0.38-0.16-1.07,0.54-1.07c0.55,0,0.52,0.49,0.54,0.93
			c0.07,1.93,0.78,3.67,1.72,5.32c0.83,1.45,1.14,3.08,1.59,4.64c0.61,2.1,1.14,4.22,1.88,6.3c0.57,1.58,0.6,3.31,0.17,4.99
			c-0.27,1.04-0.3,1.86,0.59,2.78c1.53,1.58,1.82,3.87,2.16,5.86c0.42,2.41,1.53,4.46,2.37,6.63c1.23,3.18,2.1,6.37,1.6,9.8
			c-0.07,0.48,0.08,0.89,0.39,1.12c3.05,2.18,4.56,5.55,6.64,8.48c2.16,3.05,4.14,6.25,7,9.01c0.47-1.82,0.85-3.52,0.57-5.21
			c-0.71-4.33-1.03-8.71-1.66-13.05c-0.57-3.92-1.34-7.81-1.84-11.74c-0.53-4.2-1.43-8.35-2.01-12.54
			c-0.56-4.08-0.87-8.2-1.36-12.29c-0.39-3.27-0.85-6.54-1.33-9.8c-0.4-2.68,0.07-5.24,1.16-7.64c0.63-1.4,1.34-2.75,1.72-4.24
			c0.93-3.61,2.27-7.19,2.11-10.94c-0.09-2.14,0-4.16,0.41-6.24c0.23-1.13,0.1-2.37-0.33-3.51c-0.83-2.16-0.32-4.34,0.55-6.23
			c0.73-1.58,0.92-3.13,0.69-4.66c-0.68-4.54-0.4-9.02,0.31-13.51c0.64-4.01,0.51-8.11,1.3-12.1c0.13-0.66,0.17-1.33,0.34-1.98
			c0.14-0.55,0.48-0.93,1.13-0.63c0.64,0.3,0.23,0.69,0.16,1.14c-0.51,3.57-1.96,7.03-1.33,10.75c0.15,0.88,0.47,1.39,1.45,1.4
			c1.05,0.02,0.87-0.86,1.04-1.39c1.02-3.18,0.67-6.33-0.21-9.5c-0.24-0.87-0.06-1.86-0.07-2.79c-0.01-0.46,0.34-0.66,0.7-0.71
			c0.53-0.07,0.5,0.39,0.55,0.74c0.09,0.78-0.49,2.03,1.28,1.66c0.21-0.04,0.78,1.11,1,1.78c1.22,3.7,2.63,7.37,3.49,11.15
			c0.66,2.88,0.9,5.91,0.66,8.92c-0.03,0.34,0.09,0.69,0.22,1.02c0.52-3.57,1.38-7.12,0.55-10.74c-0.2-0.85,0.27-1.61,0.33-2.44
			c0.12-1.79-0.43-3.45-0.77-5.16c-0.09-0.45-0.26-0.88,0.28-1.01c0.47-0.11,0.56,0.44,0.64,0.74c0.4,1.44,0.9,2.87,0.75,4.4
			c-0.18,1.89,0.01,3.76,0.26,5.63c0.4,2.97-0.69,5.85-0.58,8.79c0.09,2.64-0.5,5.25-0.13,7.88c0.09,0.62,0.09,1.15,0.81,1.5
			c0.59,0.28,0.75,0.97,0.43,1.63c-1.45,3.01-1.2,6.23-0.94,9.39c0.08,1.02-0.09,1.98-0.27,2.87c-0.92,4.48-0.87,9.01-0.85,13.52
			c0.02,3.79-0.19,7.58-0.14,11.34c0.09,6.38-0.04,12.84,1.15,19.14c1.01,5.39,1.42,10.82,2.12,16.24
			c0.49,3.83,1.49,7.58,2.23,11.38c0.81,4.16,1.21,8.37,1.01,12.61c-0.02,0.49,0.05,1.32-0.6,1.48c-0.63,0.16-0.41-0.68-0.75-1
			c-0.94-0.86-1.3-2.12-1.21-3.27c0.33-4.28-1.49-8.19-1.92-12.32c-0.51-4.98-2.54-9.67-2.6-14.75c-0.02-1.95-0.86-3.9-1.41-5.83
			c-0.89-3.1-1.32-6.25-1.3-9.47c0-0.46,0.02-0.91-0.21-1.36c-0.84-1.63-1.19-3.39-1.22-5.22c-0.06-3.29-1.11-6.54-0.69-9.82
			c0.66-5.03,0.86-10.15,2.35-15.06c0.2-0.67,0.09-1.44,0.07-2.17c-0.03-1.24,0-2.47,0.5-3.65c0.36-0.84,0.19-1.76,0.09-2.62
			c-0.32-2.64-0.32-5.16,1.12-7.57c0.5-0.84,0.7-1.95,0.75-2.95c0.16-3.15,0.07-6.3,0.34-9.45c0.04-0.48,0.48-1.47-0.87-1.17
			c-0.47,0.1-0.33-0.64-0.36-1.02c-0.18-2.58-0.36-5.17-0.51-7.76c-0.12-2.02-0.67-3.95-1.43-5.77c-1-2.39-1.53-4.9-2.35-7.33
			c-0.11-0.31-0.03-0.87-0.56-0.74c-0.46,0.11-0.24,0.54-0.2,0.89c0.33,2.86,0.47,5.69-0.38,8.51c-0.53,1.74-0.92,2.23-2.68,1.99
			c-0.95-0.13-1.07,0.07-1.29,1.01c-0.92,4.05-0.88,8.07-0.34,12.17c0.24,1.81,0.29,3.7-0.64,5.51c-0.62,1.2-0.77,2.65-1.1,3.99
			c-0.06,0.24-0.09,0.57,0.03,0.76c1.32,2.08,1.19,4.29,0.49,6.5c-0.53,1.66-0.14,3.34-0.17,4.99c-0.07,4.15-1.53,7.96-2.34,11.93
			c-0.44,2.13-2.17,3.54-2.45,5.73c-0.17,1.3-0.36,2.71-0.16,3.85c0.83,4.76,1.21,9.57,1.7,14.36c0.77,7.59,2.28,15.07,3.18,22.63
			c0.6,5.06,1.97,10,2.06,15.14c0.04,2.44,0.82,4.88,1.04,7.35c0.1,1.18,0.32,2.29-0.58,3.44c-0.4,0.51,0.12,1.74,0.22,2.64
			c0.07,0.58,0.41,1.2-0.54,1.5c-0.83,0.26-1.06-0.11-1.56-0.7c-2.22-2.59-4.26-5.3-6.25-8.07c-1.14-1.59-1.96-3.37-3.18-4.9
			c-1.3-1.64-2.35-3.49-4.24-4.57c-0.51-0.29-0.73-0.74-0.64-1.31c0.73-4.51-0.74-8.6-2.53-12.59c-0.95-2.11-1.26-4.36-1.92-6.54
			c-0.4-1.34-0.83-2.67-1.93-3.64c-0.45-0.4-0.71-0.86-0.54-1.51c0.8-2.93,0.51-5.79-0.63-8.59c-1.18-2.9-1.24-6.15-2.78-8.94
			c-0.26-0.47-0.33-1-0.97-1.1L412.2,428.11z M451.97,462.35c0.29-1.83-0.22-3.34-0.42-4.83c-0.57-4.14-0.68-8.34-1.66-12.43
			c-0.86-3.59-0.97-7.29-1.14-10.94c-0.16-3.53-0.6-7.06-0.11-10.63c0.29-2.14,0.44-4.41,0.2-6.49c-0.43-3.76-0.13-7.48,0.01-11.19
			c0.15-4.1,1.4-8.14,0.84-12.31c-0.03-0.24,0.11-0.56-0.19-0.67c-0.38-0.15-0.62,0.2-0.7,0.45c-0.31,1.03-0.8,2.05-0.68,3.15
			c0.25,2.16,0.3,4.29-0.01,6.47c-0.38,2.65-0.2,5.32-0.93,7.99c-0.78,2.87-0.93,5.92-1.33,8.89c-0.22,1.61-0.72,3.27-0.49,4.83
			c0.31,2.17,0.37,4.36,0.8,6.51c0.34,1.7-0.03,3.51,0.73,5.14c0.67,1.44,0.84,2.95,0.84,4.52c0,2.48,0.31,4.92,0.91,7.34
			c0.6,2.44,1.51,4.8,1.62,7.37C450.36,457.78,450.63,460.06,451.97,462.35z M452.42,464.53c-0.09,2.14,0.29,4.21,0.88,6.25
			c0.57,1.96,0.55,4.06,1.44,5.91C454.58,472.54,453.07,468.63,452.42,464.53z M455.11,482.89c0.36-1.09-0.15-2.13-0.06-3.2
			C455.02,480.76,454.54,481.84,455.11,482.89z"/>
		<path class="st2" d="M472.87,381.58c0.31,2.82-0.15,5.65-0.05,8.45c0.11,3.05-0.7,6.2,0.58,9.16c0.3,0.69-0.03,1.2-0.31,1.68
			c-1.59,2.64-1.94,5.56-1.52,8.47c0.58,3.98,0.39,7.82-0.56,11.71c-0.71,2.89-1.4,5.91-0.47,8.87c0.65,2.05,1.15,4.1,1.56,6.2
			c0.94,4.82,1.35,9.67,1.2,14.58c-0.11,3.7-0.05,7.37,0.52,11.08c0.88,5.75,1.98,11.5,2.19,17.34c0.11,3.05,0.58,6.11-0.79,9.04
			c-0.25,0.53-0.3,1.14-1.01,1.16c-0.76,0.03-1.03-0.49-1.2-1.17c-0.23-0.9-0.72-1.75-0.83-2.66c-0.12-0.94-1.07,0-1.24-0.74
			c-0.18-0.8-0.58-1.53-0.7-2.37c-0.92-6.86-1.08-13.8-1.98-20.65c-0.66-5.05-1.33-10.11-2.3-15.12c-0.86-4.45-2.46-8.68-3.56-13.06
			c-0.23-0.9-0.99-1.32-1.32-2.17c-1.02-2.57-0.11-5.11-0.15-7.65c-0.02-1.46-0.12-2.83-0.53-4.22c-1.18-4.01-1.37-8.05-0.66-12.22
			c0.34-1.97,0.78-4.01,0.29-6.13c-0.35-1.53-0.16-3.2-0.1-4.81c0.08-1.98-0.6-3.93-0.46-5.85c0.25-3.47-0.66-6.78-0.83-10.19
			c-0.32-6.01-0.74-12.01-1.23-18c-0.22-2.76-1.54-5.37-1.22-8.22c0.15-1.31,0.23-2.62,0.35-3.99c1.4,1.7,0.68,3.66,0.83,5.46
			c0.09,1.03,0.22,2.04,0.46,3.02c0.51,2.18,1.05,4.31,0.9,6.62c-0.2,3.14,0.81,6.21,0.71,9.37c-0.04,1.22,0.18,2.44,0.16,3.65
			c-0.07,2.9,0.62,5.71,1.09,8.53c0.13,0.78-0.11,1.41-0.15,2.11c-0.09,1.62,0.42,3.16,0.57,4.73c0.27,2.83,0.01,5.67,0.28,8.52
			c0.17,1.76-0.25,3.59-0.53,5.37c-0.66,4.25-0.63,8.43,0.9,12.53c0.63,1.69,0.52,3.51,0.25,5.22c-0.46,2.88-0.36,5.51,1.2,8.15
			c1.34,2.26,1.48,5.03,2.32,7.52c1.93,5.73,2.72,11.67,3.44,17.63c0.58,4.82,1.18,9.62,1.34,14.49c0.1,3.1,1.06,6.16,1.08,9.32
			c0,0.28-0.13,1.09,0.56,0.29c0.43-0.5,0.45,0.12,0.58,0.3c0.52,0.69,0.51,1.56,0.69,2.36c0.17,0.77,0.41,1.47,1.04,2.3
			c0.77-1.6,0.98-3.2,0.88-4.72c-0.33-4.64-0.47-9.3-1.29-13.91c-0.78-4.36-1.85-8.73-1.66-13.17c0.15-3.53,0.13-7.04-0.15-10.54
			c-0.4-5.01-0.94-10-2.79-14.77c-0.77-1.98-0.45-4.24-0.14-6.32c0.35-2.41,1.33-4.74,1.63-7.15c0.27-2.2,0.18-4.5-0.08-6.71
			c-0.4-3.28-0.26-6.44,1.22-9.43c0.46-0.92,0.24-1.87,0.14-2.69c-0.49-4.25-0.09-8.49-0.17-12.74c-0.02-1.01,0.03-2.03,0.05-3.04
			c0.01-0.58,0.12-1.07,0.88-0.96C472.74,381.53,472.79,381.58,472.87,381.58z"/>
		<path class="st2" d="M517.6,478.92c0.09,2.06-1.62,3.3-2.29,5.02c-0.93,2.43-2.02,4.8-3.04,7.19c-1.69,3.97-1.99,8.33-3.53,12.36
			c-0.28,0.74-0.04,1.91,0.69,2.73c0.32,0.36,0.67,1.07,0.04,1.34c-2.17,0.92-1.97,3.15-2.74,4.81c-1.19,2.56-0.65,5.48-1.54,8.15
			c-0.65,1.94-1.11,3.93-2.54,5.51c-1.35,1.49-1.67,3.59-2.97,5.14c-0.22,0.26-0.13,0.8-0.13,1.21c0,0.35,0.52,0.88-0.17,0.97
			c-0.53,0.07-0.75-0.54-0.76-0.98c-0.07-2.59-0.79-5.08-1.27-7.6c-1.04-5.49-2.27-10.94-3.29-16.43c-0.64-3.46-1.76-6.8-2.5-10.21
			c-0.63-2.9-0.13-5.94-0.07-8.91c0.06-2.62,0.24-5.25-0.22-7.86c-0.08-0.45-0.1-0.93-0.04-1.38c0.05-0.39,0.44-0.68,0.77-0.67
			c0.61,0.01,0.27,0.51,0.3,0.82c0.16,1.92,0.4,3.81,0.43,5.76c0.06,3.47-0.34,6.91-0.28,10.37c0.03,1.81,0.67,3.46,1.18,5.13
			c1.65,5.34,2.76,10.84,3.64,16.3c0.63,3.93,1.79,7.78,2,11.86c1.05-0.25,1.23-1.12,1.56-1.81c1.41-3,3.07-5.92,3.58-9.24
			c0.33-2.13,0.2-4.36,1.08-6.36c0.78-1.76,0.87-3.83,2.34-5.29c0.39-0.39,0.1-0.76-0.01-1.15c-0.21-0.74-0.49-1.49-0.16-2.25
			c1.71-3.93,1.99-8.28,3.52-12.27c1.6-4.18,2.87-8.5,5.54-12.2c0.08-0.11,0.16-0.23,0.24-0.34c0,0,0,0.01,0,0.01
			C517.19,478.72,517.4,478.82,517.6,478.92z"/>
		<path class="st2" d="M412.17,428.08c0.14,2.66,0.15,5.3-0.62,7.88c-0.53,1.77-1.32,3.39-3.27,3.95c-0.65,0.19-0.48,0.57-0.48,0.93
			c-0.02,2.15,0.72,4.12,1.45,6.09c0.21,0.57,0.43,1.08,0.54,1.7c0.69,3.79,1.74,7.5,3.12,11.11c0.2,0.53,0.5,1.13,0.41,1.63
			c-0.53,2.96,0.43,5.82,0.49,8.73c0.02,0.77-0.02,1.51,0.12,2.29c0.3,1.66,0.75,3.17,2.03,4.4c2.74,2.65,3.08,6.33,4.02,9.74
			c0.38,1.38,0.71,2.78,1.17,4.14c1.07,3.12,2.3,6.18,3.28,9.33c1.02,3.28,0.83,6.78,1.59,10.12c0.14,0.6,0.03,1.45-0.85,1.92
			c-0.76-2.31-0.97-4.69-1.22-6.97c-0.3-2.66-0.84-5.18-1.75-7.66c-1.95-5.32-3.55-10.75-4.96-16.23c-0.39-1.53-1.29-2.75-2.37-3.74
			c-1.47-1.35-2.04-3.05-2.15-4.84c-0.22-3.55-0.42-7.12-0.63-10.67c-0.14-2.35-1.16-4.66-1.9-6.95c-0.22-0.68-0.58-1.33-0.64-2.05
			c-0.24-2.88-1.45-5.55-1.82-8.4c-0.09-0.66-0.58-1.13-0.59-1.87c-0.02-1.68-0.29-3.3,1.7-4.23c0.62-0.29,1.18-1.11,1.38-1.8
			c0.67-2.29,1.72-4.55,1.05-7.05c-0.47-1.77-1.62-3.31-1.72-5.22c-0.03-0.49-0.54-0.23-0.87-0.1c-1.51,0.64-1.43,2.01-1.15,3.15
			c0.78,3.21,0.41,6.46,0.57,9.69c0.04,0.71-0.63,0.91-0.75,1.61c-0.82-1.98-0.59-3.91-0.43-5.76c0.16-1.85-0.18-3.59-0.5-5.34
			c-0.36-1.97,0.39-3.83,2.07-4.69c1.02-0.52,1.87-0.02,2.13,1.1c0.33,1.43,0.18,3.07,1.59,4.09
			C412.2,428.11,412.17,428.08,412.17,428.08z"/>
		<path class="st2" d="M380.61,390.1c0.09,0.74-0.16,1.01-0.96,1.21c-2.93,0.72-5.93,1.17-8.72,2.43c-1.04,0.47-1.54,0.88-0.97,2.14
			c0.2,0.45,1.01,1.53,0.07,1.84c-0.75,0.24-1.15-0.89-1.29-1.55c-0.24-1.07-0.64-1.12-1.63-0.89c-2.26,0.53-4.52,1.06-6.51,2.28
			c-0.61,0.38-1.22,0.23-1.82,0.41c-3.21,0.98-6.2,2.41-8.95,4.34c-1.68,1.17-3.68,1.82-5.21,3.23c-0.11,0.1-0.38,0.04-0.6,0.05
			c-0.09-0.53,0.67-0.54,0.45-1.13c-0.03-0.06-0.14-0.03-0.3,0.01c-1.98,0.48-3.95,1.04-5.96,1.37c-1.07,0.18-2.21-0.1-3.31-0.16
			c-2.19-0.12-3.95,0.42-5.61,1.83c-2.15,1.83-4.65,3.07-7.23,4.26c-2.97,1.37-5.93,2.81-8.82,4.35c-3.98,2.13-8.1,3.92-12.29,5.56
			c-0.24,0.09-0.5,0.13-0.73,0.25c-0.31,0.15-0.52,0.9-0.93,0.32c-0.45-0.62,0.22-0.84,0.64-1.12c1.8-1.2,3.94-1.61,5.85-2.57
			c4.05-2.06,8.11-4.11,12.2-6.09c3.14-1.52,6.34-2.92,9.23-4.9c1.25-0.86,2.19-2.13,3.75-2.62c1.61-0.5,3.22-0.61,4.88-0.6
			c5.12,0.04,9.78-1.35,14.23-3.96c2.85-1.67,5.97-3,9.28-3.76c1.74-0.4,3.28-1.46,5.1-1.75c1.06-0.17,2.09-0.56,3.18-0.51
			c1,0.05,1.43-0.87,2.24-1.21c3.12-1.32,6.22-2.57,9.67-2.61C379.89,390.55,380.11,390,380.61,390.1z"/>
		<path class="st2" d="M266.49,366.6c1.31,0.51,0.2,1.32,0.06,1.79c-0.24,0.81-1.13,1.49,0.2,2.12c0.26,0.13,0.15,0.4,0.06,0.66
			c-0.74,2-1.53,3.99-1.93,6.09c-0.46,2.44-2.61,4.03-3.28,6.28c-1.17,3.94-4.03,6.79-6.13,10.11c-1.71,2.71-3.29,5.64-6.03,7.66
			c6.6-9.68,12.99-19.47,16.32-30.89c-0.5-0.33-0.66,0.09-0.83,0.48c-0.63,1.49-1.56,2.73-3.04,3.46c-1.08,0.53-1.81,1.5-2.87,2.13
			c-2.02,1.2-4.05,2.12-6.35,2.67c-1.88,0.45-3.69,1-5.13,2.85c-1.67,2.15-3.46,4.24-5.13,6.41c-0.56,0.72-0.74,1.57-1.03,2.41
			c-0.75,2.17-0.96,4.7-3.23,6.1c-0.64,0.39-1.44,0.9-1.98,0.45c-1.53-1.27-2.03,0.16-2.53,0.95c-0.59,0.95-1.39,1.69-2,2.59
			c-0.28,0.41-0.77,0.42-1.1,0.18c-0.14-0.1,0.18-0.52,0.37-0.8c1.46-2.17,3.37-3.97,4.9-6.09c0.86-1.19,2.2-2.06,3.27-3.14
			c1.09-1.1,1.8-2.44,2.7-3.65c1.28-1.73,2.73-3.35,4.12-5.01c0.48-0.57,1.17-1.01,1.48-1.64c1.03-2.09,3.01-2.57,4.95-2.86
			c4.73-0.69,8.2-3.49,11.42-6.64c0.92-0.9,1.13-2.5,2.29-3.37c0.02-0.01-0.12-0.25-0.19-0.38
			C266.06,367.23,266.28,366.92,266.49,366.6z M239.38,394.39c-0.03-0.07-0.05-0.29-0.15-0.33c-0.42-0.18-0.95-0.84-1.29-0.25
			c-0.48,0.84-1.8,1.11-1.6,2.37c0.02,0.1,0.22,0.22,0.36,0.26C237.23,396.58,239.32,395.03,239.38,394.39z"/>
		<path class="st2" d="M372.1,399.58c-0.4-0.34-1.24-0.03-1.12-0.8c0.12-0.73,0.78-0.15,1.14-0.36c2.07-1.2,4.4-1.94,6.29-3.45
			c0.7-0.56,1.48-1.07,1.92-1.93c0.17-0.33,0.51-0.69,1-0.26c0.5,0.44,0.11,0.68-0.15,1.01c-0.7,0.9-1.44,1.73-2.37,2.42
			c-0.35,0.26-1.4,0.39-0.55,1.28c0.22,0.23-0.12,0.55-0.33,0.55c-1.42,0.01-2.35,1.12-3.58,1.52c-1.81,0.59-3.33,1.72-4.76,2.89
			c-1.19,0.98-2.64,1.14-3.94,1.65c-2.83,1.11-5.46,2.65-8.06,4.14c-1.33,0.77-2.52,2.16-4.06,2.31c-4.61,0.45-7.79,3.38-11.33,5.83
			c-2.11,1.46-4.24,3.36-6.59,3.95c-2.75,0.7-5.36,1.67-7.94,2.72c-2.8,1.14-5.62,2.25-8.28,3.74c-2.22,1.24-4.69,2.02-7.03,3.07
			c-1.25,0.57-2.36,1.21-3.34,2.15c-0.72,0.7-0.8,1.35,0,2.02c0.44,0.37,0.81,0.77,0.83,1.43c-1.33,0.41-2.15-0.61-2.42-1.41
			c-0.48-1.47-0.9-1.02-1.76-0.41c-0.68,0.47-1.35,1.07-2.23,1.22c-0.36-0.63,0.21-0.84,0.46-1.01c4.19-2.93,8.74-5.14,13.43-7.18
			c2.76-1.2,5.61-2.29,8.27-3.79c2.02-1.14,4.33-1.79,6.54-2.58c2.33-0.83,4.58-1.66,6.69-3.13c1.88-1.31,3.8-2.66,5.8-3.84
			c1.84-1.08,3.76-2.01,5.58-3.11c0.46-0.28,0.93-0.29,1.33-0.22c1.7,0.29,3.03-0.49,4.18-1.49c2.88-2.49,6.34-4.05,9.8-5.26
			C368.05,402.4,369.75,400.57,372.1,399.58z"/>
		<path class="st2" d="M356.46,427.06c-2.21,1.53-4.78,1.77-7.11,2.12c-3.45,0.51-6.81,1.31-10.19,2.06
			c-0.98,0.22-1.83,0.09-2.7-0.18c-2.55-0.8-4.78,0.43-7.11,1.04c-2.25,0.59-4.51,1.16-6.7,1.92c-2.79,0.97-5.87,0.96-8.49,2.33
			c-2.74,1.44-5.9,0.59-8.61,1.93c-0.22,0.11-0.53,0.09-0.58-0.28c-0.04-0.28,0.07-0.59,0.31-0.66c1.4-0.43,2.64-1.37,4.23-1.18
			c1.15,0.14,2.34-0.04,3.35-0.47c4.63-1.95,9.56-2.64,14.41-3.68c0.21-0.04,0.53-0.02,0.66-0.16c2.02-2.05,4.97-1.39,7.31-2.52
			c0.09-0.04,0.24-0.06,0.3-0.01c2.24,1.81,4.53,0.54,6.7-0.07c2.93-0.82,6.01-0.71,8.89-1.72c0.48-0.17,0.87-0.11,0.27-0.68
			c-0.14-0.13,0-0.52,0.41-0.67c3.63-1.37,7.43-1.87,11.25-2.22c0.37-0.03,0.7-0.02,0.69,0.3c-0.02,0.82,0.46,0.7,1,0.72
			c0.88,0.03,1.4,0.3,0.94,1.4c-0.77,1.87-5.11,4.96-7.05,4.8c-0.61-0.05-1.29-0.27-1.45-1.13
			C357.02,429.1,356.73,428.17,356.46,427.06z M358.97,430.28c0.73,0.02,4.94-2.9,5.2-3.63c0.15-0.42,0.18-0.81-0.52-0.71
			c-1.88,0.25-3.62,0.9-5.3,1.76c-1.17,0.6,0.14,1.42-0.13,2.16C358.03,430.38,358.69,430.19,358.97,430.28z M357.92,425.67
			c0.03,0.17,0.06,0.33,0.09,0.5c1.84-0.38,3.69-0.76,5.53-1.14c-0.02-0.13-0.05-0.25-0.07-0.38
			C361.61,424.93,359.73,425.13,357.92,425.67z"/>
		<path class="st2" d="M331.99,396.92c-2.28-0.85-3.29,1.33-4.81,2.25c-3.46,2.1-6.78,4.45-10.44,6.19
			c-1.29,0.61-2.22,1.55-3.25,2.43c-1.89,1.62-4.25,2.49-6.25,3.96c-0.54,0.4-1.06,0.8-1.53,1.26c-2.44,2.37-5.38,4.1-8,6.24
			c-0.82,0.68-1.65,1.19-0.34,2.18c0.57,0.43,0.19,0.67-0.29,0.81c-0.6,0.18-1.05-0.13-1.33-0.57c-0.34-0.55-0.78-1.17-0.23-1.85
			c0.29-0.36,0.61-0.71,0.97-1c2.02-1.66,4.16-3.18,6.22-4.78c1.92-1.49,3.52-3.45,5.68-4.61c3.25-1.73,5.67-4.71,9.14-6.05
			c2.69-1.04,5.02-2.69,7.33-4.31c1.39-0.98,3.39-1.29,4.01-3.26c0.09-0.28,0.55-0.54,0.77-0.37c1.87,1.41,3.52,0.28,5.13-0.46
			c5.33-2.45,10.7-4.84,15.88-7.58c1.39-0.74,2.84-1.48,4.2-2.33c0.17-0.11,0.34-0.28,0.52-0.31c0.41-0.08,0.87-0.13,1.11,0.32
			c0.34,0.64-0.34,0.7-0.62,0.81c-2.66,1.06-4.95,2.8-7.63,3.87c-3.51,1.4-6.8,3.32-10.26,4.85c-1.26,0.56-2.55,1.05-3.63,1.88
			C333.61,397.05,332.8,396.59,331.99,396.92z"/>
		<path class="st2" d="M200.61,536.82c1.53-3.5,4.04-6.4,5.76-9.75c1.88-3.65,4.47-6.83,6.69-10.25c1.69-2.6,4.13-4.7,6.2-7.05
			c1.87-2.13,4.15-3.66,6.36-5.29c3.68-2.7,7.75-4.74,12.07-6.27c3.36-1.19,5.77-3.5,7.63-6.48c0.34-0.54,0.84-0.99,1.22-1.51
			c0.31-0.42,0.77-0.45,1.05-0.18c0.36,0.32-0.06,0.53-0.29,0.82c-1.22,1.49-2.04,3.23-3.39,4.69c-1.74,1.89-3.69,3.17-6.05,3.94
			c-3.02,0.98-5.84,2.36-8.51,4.08c-3.44,2.23-6.87,4.54-9.68,7.49c-2.78,2.91-5.52,5.87-7.65,9.4c-2.92,4.83-5.98,9.57-8.86,14.43
			C202.17,536.56,201.77,536.89,200.61,536.82z"/>
		<path class="st2" d="M516.04,556.17c-0.31,2.58-1.75,4.72-2.41,7.13c-0.23,0.83-0.55,1.64-0.69,2.49
			c-0.77,4.52-3.27,7.98-6.36,11.21c-1.49,1.55-2.57,3.53-3.44,5.54c-1.19,2.75-3.35,4.93-4.51,7.69c-1.4,3.34-3.43,6.38-4.86,9.66
			c-1.86,4.27-4.23,8.37-5.22,13.01c-0.2,0.94-0.59,1.83-0.93,2.74c-0.19,0.51-0.55,0.76-1.09,0.49c-0.49-0.24-0.37-0.5-0.19-0.97
			c1.12-2.91,2-5.92,3.24-8.77c1.69-3.89,3.17-7.88,5.49-11.5c1.34-2.09,2.06-4.58,3.27-6.77c1.24-2.24,2.91-4.23,3.92-6.6
			c0.76-1.77,2.2-3.11,3-4.86c0.08-0.18,0.12-0.46,0.27-0.53c2.74-1.38,3.17-4.56,5.14-6.56c0.66-0.68,0.32-1.95,0.64-2.96
			c1.01-3.18,1.93-6.38,3.51-9.34C515.07,556.76,515.24,556.18,516.04,556.17z"/>
		<path class="st2" d="M358.08,376.79c-2.8,0.96-5.36,2.56-8.38,2.96c-3,0.4-5.68,1.89-8.5,2.87c-2.26,0.78-4.57,1.08-6.89,1.44
			c-0.6,0.09-1.22,0.08-1.8,0.33c-1.72,0.76-3.4,1.38-5.4,0.98c-1.08-0.21-2.28,0.29-2.96,1.38c-0.51,0.82-1.36,0.99-2.16,1.21
			c-4.27,1.18-8.44,2.69-12.45,4.56c-4.73,2.2-9.75,3.76-14.29,6.4c-1.74,1.01-3.76,1.54-5.66,2.25c-0.27,0.1-0.64,0.65-0.9,0.1
			c-0.25-0.53,0.15-0.71,0.67-0.93c1.93-0.81,3.89-1.61,5.71-2.64c5.86-3.3,12.24-5.36,18.41-7.92c2.86-1.19,5.7-2.49,8.72-3.35
			c1.28-0.36,2.41-1.25,3.59-1.94c0.77-0.45,1.45-0.77,2.39-0.22c0.46,0.27,1.2,0.34,1.8,0.07c3.26-1.47,6.85-1.55,10.26-2.42
			c1.92-0.49,3.7-1.32,5.51-2.02c2.27-0.88,4.71-0.86,6.95-1.74c1.67-0.66,3.44-1.09,5.16-1.62
			C357.92,376.63,358,376.71,358.08,376.79z"/>
		<path class="st2" d="M429.72,569.84c1.94,0.67,1.68,2.47,1.72,3.8c0.15,4.74,1.41,9.23,2.72,13.71c1.5,5.15,2.14,10.45,3.17,15.69
			c0.8,4.06-0.14,7.94-0.04,11.91c0.08,2.89-0.55,5.88-1.07,8.81c-0.59,3.36-0.88,6.78-1.31,10.17c-0.08,0.61-0.23,1.2-0.31,1.8
			c-0.05,0.39,0.06,0.95-0.53,0.88c-0.54-0.07-0.43-0.65-0.38-1.03c0.35-2.79,0.46-5.61,1.05-8.37c0.43-2.01,0.65-4.06,0.86-6.11
			c0.18-1.84,0.64-3.66,0.83-5.51c0.07-0.71,0.18-1.42,0.09-2.12c-0.27-2.13-0.03-4.22,0.31-6.32c0.43-2.69-0.6-5.21-1.03-7.78
			c-0.67-4.01-1.38-8.03-2.74-11.88c-1.43-4.02-1.83-8.25-2.78-12.37c-0.04-0.2-0.02-0.41,0-0.62
			C430.4,572.93,430.49,571.37,429.72,569.84z"/>
		<path class="st2" d="M483.62,418.69c-0.21-3.85-0.35-7.94-1.67-11.79c-0.52-1.52-0.74-3.19-1.6-4.6c-0.43-0.7,0.05-1.38,0.22-1.9
			c0.35-1.09,0.02-2-0.14-3.01c-0.28-1.77-0.41-3.56-0.56-5.35c-0.37-4.19-0.8-8.38-1.49-12.54c-0.33-1.98,0.08-4.02-0.51-6.02
			c-0.61-2.05-1.3-4.13-1.12-6.34c0.04-0.46-0.05-1.04,0.61-1.02c0.45,0.02,0.6,0.47,0.66,0.92c0.48,3.4,1.03,6.78,1.45,10.19
			c0.54,4.33,0.76,8.68,1.5,13c0.23,1.32,0.25,2.81,0.16,4.23c-0.07,1.29,0.04,2.54,0.73,3.7c0.36,0.61,0.41,1.38,0.01,1.92
			c-0.74,1.01-0.38,1.94-0.07,2.93c1.48,4.79,2.99,9.57,2.81,14.69c-0.04,1,0.3,2,0.39,3.01c0.04,0.43,0,1.03-0.59,1.1
			c-0.72,0.09-0.8-0.48-0.8-1.04C483.62,420.14,483.62,419.52,483.62,418.69z"/>
		<path class="st2" d="M482.57,422.32c1.53,1.5,1.78,3.29,1.16,4.92c-0.54,1.44,0.02,2.32,0.82,3.13c1.88,1.9,2.56,4.26,2.78,6.78
			c0.27,3.08,1.23,6.02,1.68,9.07c0.27,1.87,0.29,3.8,0.64,5.61c0.4,2.06,0.37,4.1,0.58,6.15c0.32,3.16,0.46,6.34,0.82,9.5
			c0.16,1.39,0.14,2.83,0.81,4.18c0.36,0.74,0.97,1.91-0.57,2.34c-0.29,0.08-0.65,0.22-0.63-0.31c0.08-2.9-0.93-5.67-1.04-8.55
			c-0.12-3.1-0.34-6.2-0.55-9.3c-0.35-5.23-0.93-10.46-2.29-15.55c-0.47-1.78-0.25-3.66-0.94-5.43c-0.67-1.73-1.39-3.38-2.87-4.56
			c-0.88-0.7-1.14-1.48-0.61-2.58c0.59-1.21,0.91-2.5,0.17-3.83C482.28,423.47,482.26,422.94,482.57,422.32z"/>
		<path class="st3" d="M450.85,335.88c0.19,2.15,1.69,3.01,3.36,3.78c0.44,0.2,1.27,0.48,0.58,1.37c-0.34,0.44,0.08,1.01,0.27,1.45
			c1.65,3.95,0.66,8.04,0.68,12.07c0,0.11-0.15,0.23-0.38,0.55c-0.38-4.53,0.41-9.06-1.97-13.47c-0.06,4.45-1.07,8.44-1.18,12.51
			c-0.04,1.35-0.76,2.12-1.96,2.09c-1.18-0.03-1.54-0.92-1.65-2.15c-0.42-4.97-0.36-9.92,0.05-14.88c0.09-1.05,0.31-1.93,1.56-2.15
			C450.86,336.95,450.61,336.33,450.85,335.88z M452.15,343.37c-0.02-1.5,0-2.54-0.27-3.55c-0.21-0.82-0.97-1.22-1.6-1.25
			c-0.73-0.04-0.58,0.84-0.6,1.34c-0.12,3.62-0.22,7.24-0.25,10.86c-0.01,1.12,0.18,2.24,0.34,3.35c0.06,0.41,0.3,0.82,0.82,0.77
			c0.43-0.04,0.56-0.37,0.56-0.78C451.1,350.34,452.08,346.66,452.15,343.37z"/>
		<path class="st3" d="M478.16,684.33c-1.31-0.82-0.36-1.65-0.39-2.42c-0.06-1.87,0.27-3.69,0.58-5.52c0.42-2.46,0.01-4.98,0.6-7.42
			c0.6-2.47,0.62-5.02,0.99-7.51c0.41-2.73-0.13-5.55,0.63-8.16c0.61-2.08,1.01-4.21,1.53-6.29c0.56-2.25,0.42-4.72-0.21-7.06
			c-0.66-2.46,0.62-4.5,1.49-6.62c0.05-0.12,0.36-0.21,0.53-0.18c0.38,0.07,0.25,0.31,0.14,0.57c-0.1,0.23-0.03,0.54-0.15,0.75
			c-1.27,2.38-0.95,4.9-0.57,7.39c0.36,2.37-0.08,4.68-0.46,6.98c-0.57,3.54-1.5,6.99-1.55,10.65c-0.05,3.63-0.51,7.26-1.31,10.85
			c-0.51,2.29-0.4,4.73-0.75,7.08c-0.28,1.84-0.42,3.71-0.67,5.56C478.54,683.42,478.32,683.83,478.16,684.33z"/>
		<path class="st3" d="M483.19,491.12c0.17,1.95,0.45,3.89,0.51,5.85c0.19,6.23,0.95,12.45,0.23,18.68
			c-0.55,4.8-0.77,9.62-1.46,14.41c-0.71,4.93-1.01,9.92-1.71,14.85c-0.34,2.39-0.41,4.87-1.55,7.59c0.15-1.63,0.13-2.83,0.38-3.98
			c0.91-4.25,0.96-8.59,1.54-12.88c0.64-4.8,1.09-9.63,1.5-14.45c0.54-6.24,0.86-12.49,0.33-18.76c-0.32-3.73-0.42-7.49-0.33-11.24
			C482.82,491.17,483.01,491.15,483.19,491.12z"/>
		<path class="st2" d="M430.2,564.67c-1.05-3.23-1.25-6.5-1.17-9.79c0.04-1.62-0.08-3.21-0.64-4.73c-0.64-1.73-0.29-3.56-0.54-5.33
			c-0.3-2.13-0.63-4.23-1.21-6.29c-0.12-0.44-0.13-0.93-0.08-1.39c0.51-4.48-0.91-8.83-0.8-13.28c0.06-2.65-0.13-5.28-0.41-7.91
			c-0.05-0.43-0.2-1.28,0.48-1.24c0.66,0.04,0.31,0.85,0.39,1.33c0.69,4.28-0.37,8.73,0.76,12.89c0.9,3.33-0.13,6.69,0.82,9.89
			c1.25,4.19,0.35,8.7,2.05,12.81c0.22,0.54,0.07,1.23,0.11,1.85c0.22,3.02,0.41,6.05,0.69,9.06
			C430.74,563.36,429.92,563.84,430.2,564.67z"/>
		<path class="st2" d="M521.95,491.13c-0.31,0-0.62,0.02-0.93,0.01c-2.7-0.08-3.81-0.97-3.22-3.53c0.87-3.76,1.3-7.74,3.68-11.02
			c0.18-0.25,0.33-0.54,0.57-0.7c0.23-0.15,0.56-0.39,0.85-0.13c0.37,0.32-0.03,0.53-0.18,0.76c-2.36,3.46-2.65,7.59-3.71,11.47
			c-0.34,1.25,0.35,1.73,1.4,1.85c0.83,0.09,1.71,0.43,1.83-1.14c0.11-1.56,0.65-3.14,1.28-4.58c0.78-1.78,1.25-3.58,1.47-5.49
			c0.11-0.97,0.49-1.91-0.66-2.55c-0.31-0.17-0.45-0.62-0.17-0.96c0.35-0.43,0.62,0.01,0.92,0.16c1.26,0.63,1.25,1.36,1.14,2.87
			c-0.31,4.21-2.33,7.88-3.04,11.91c-0.1,0.55-0.16,1.04-0.86,1.07C522.18,491.12,522.07,491.13,521.95,491.13z"/>
		<path class="st2" d="M319.85,446.61c-0.21,0.07-0.43,0.14-0.64,0.21c0-0.32,0-0.64-0.01-0.96c4.25-1.82,8.63-3.25,12.98-4.78
			c2.4-0.84,4.71-2.09,7.27-2.15c3.1-0.07,5.28-1.91,7.79-3.25c1.72-0.92,3.72-1.32,5.58-1.99c1.51-0.54,3.01-1.11,4.49-1.73
			c0.32-0.13,0.65-0.24,0.82-0.02c0.25,0.36-0.15,0.54-0.41,0.68c-2.58,1.48-5.08,2.98-8.2,3.36c-1.36,0.16-2.71,1.35-4.02,2.12
			c-2.14,1.26-4.45,1.57-6.81,1.94c-1.47,0.23-2.89,0.53-4.3,1.36c-1.75,1.04-3.93,1.35-5.9,2.03c-2.57,0.89-5.29,1.41-7.6,2.97
			c-0.18,0.13-0.51,0.05-0.77,0.06C320.02,446.53,319.94,446.57,319.85,446.61z"/>
		<path class="st3" d="M448.29,533.3c0-2.17,0.1-4.16-0.02-6.15c-0.18-2.99-1.03-5.87-1.53-8.8c-1-5.84-2.71-11.61-2.3-17.62
			c0.27-3.97,0.68-7.93,1.58-11.82c0.1-0.42,0.28-0.81,0.75-0.89c0.17-0.03,0.48,0.07,0.53,0.2c0.15,0.37-0.06,0.73-0.31,0.98
			c-0.94,0.92-0.69,2.15-0.79,3.23c-0.38,3.86-1.37,7.68-0.94,11.58c0.3,2.71,0.92,5.38,1.23,8.09c0.75,6.63,3.35,13.03,2.54,19.85
			C448.97,532.36,449.21,532.87,448.29,533.3z"/>
		<path class="st3" d="M464.02,481.94c1.16,14.15-1.41,27.97-0.21,42.16c-0.84-2.21-0.61-4.15-0.83-6.05
			c-0.59-5.25-0.01-10.47,0.13-15.7c0.09-3.25,0.52-6.49,0.53-9.74c0.01-2.98-0.3-5.96-0.19-8.95
			C463.47,483.16,463.31,482.61,464.02,481.94z"/>
		<path class="st2" d="M472.72,379.78c-1.78-1.71-0.86-3.85-0.85-5.8c0.01-2.45,0.7-4.84,1.1-7.26c0.19-1.13,1.53-1.52,1.5-2.75
			c0-0.11,0.91-0.02,1.15,0.7c0.38,1.15,0.18,2.36,0.04,3.4c-0.38,2.83,0.21,5.55,0.42,8.31c0.08,1.03-0.49,1.9-0.32,2.88
			c0.02,0.16,0.04,0.31,0.05,0.47c-0.05,0.09-0.1,0.19-0.15,0.28C474.7,379.84,473.67,380.29,472.72,379.78z M474.63,366.28
			c-0.13-0.03-0.27-0.06-0.4-0.09c-0.24,1.12-0.48,2.25-0.73,3.37c-0.56,2.5-0.82,5.02-0.56,7.58c0.08,0.79-0.04,1.98,1.15,1.76
			c0.81-0.15,0.76-1.25,0.78-2.04C474.95,373.33,474.4,369.82,474.63,366.28z"/>
		<path class="st3" d="M306.9,408.41c-3.45,2.69-6.77,5.53-10.49,7.82c-4.15,2.55-7.99,5.52-11.76,8.59
			c-0.35,0.28-0.61,0.69-0.95,0.3c-0.35-0.41,0.27-0.56,0.48-0.78c2.24-2.35,4.84-4.26,7.48-6.12c3.47-2.45,7.2-4.54,10.55-7.18
			C303.64,409.93,304.98,408.67,306.9,408.41z"/>
		<path class="st3" d="M471.41,618.97c0.33-1.33,0.52-2.71,1.01-3.97c1.2-3.15,1.97-6.43,3.08-9.62c1.19-3.4,3.21-6.41,4.29-9.83
			c0.63-1.99,1.13-4.01,1.63-6.04c0.11-0.46,0.22-0.88,0.58-1.2c0.41,0.88,0.48,0.9-0.31,3.68c-0.9,3.19-2.15,6.24-3.68,9.21
			c-1.16,2.25-2.1,4.68-2.7,7.13c-0.78,3.18-2.05,6.16-3.05,9.25c-0.15,0.46-0.22,0.97-0.42,1.42
			C471.7,618.99,471.56,618.98,471.41,618.97z"/>
		<path class="st3" d="M489.4,479.93c-0.61-1.06-0.23-2.06-0.42-2.98c-0.54-2.58-1.01-5.16-0.62-7.83c0.22-1.52-0.59-2.9-0.99-4.32
			c-0.68-2.46-0.88-4.95-0.71-7.48c0.02-0.36,0.13-0.64,0.54-0.54c0.53,0.13,0.86,0.6,0.69,1.04c-0.9,2.48,0.14,4.76,0.64,7.09
			c0.4,1.85,0.83,3.66,0.52,5.61c-0.26,1.68,0.02,3.38,0.39,5.07C489.74,476.91,489.99,478.32,489.4,479.93z"/>
		<path class="st3" d="M440.4,422.22c-1.67,0.05-2.81-1.7-4.64-1.21c-0.41,0.11-0.23-0.65-0.02-1c0.44-0.76,1.21-1.29,1.2-2.38
			c-0.01-0.56,0.8-0.38,1,0.05c0.29,0.62,0.86,0.8,1.35,0.94c0.93,0.27,1.45,0.38,0.61,1.47c-0.46,0.6,0.3,1.16,0.94,1.41
			c0.33,0.12,0.87-0.28,0.97,0.4c0.07,0.51-0.16,0.92-0.53,1.23c-1.16,0.97-5.22,0.83-6.2-0.23c-0.15-0.16-0.23-0.5-0.17-0.7
			c0.17-0.51,0.57-0.31,0.9-0.17C437.31,422.68,438.84,422.85,440.4,422.22z M437.99,420.3c0.18-0.05,0.53,0.09,0.51-0.28
			c-0.02-0.41-0.39-0.36-0.68-0.39c-0.21-0.02-0.45-0.01-0.47,0.2C437.33,420.22,437.64,420.3,437.99,420.3z M439.4,420.36
			c-0.19-0.11-0.3-0.2-0.43-0.26c-0.22-0.1-0.21,0.14-0.31,0.23c0.11,0.08,0.22,0.22,0.34,0.24
			C439.11,420.58,439.23,420.46,439.4,420.36z"/>
		<path class="st3" d="M471.17,620.48c-1.43,9.46-4.56,18.45-7.22,27.57C465.77,638.69,468.97,629.71,471.17,620.48z"/>
		<path class="st3" d="M285.29,441.49c-0.14-0.17-0.31-0.3-0.38-0.48c-0.14-0.37-0.06-0.69,0.34-0.9c1.2-0.62,1.98-1.76,3.24-2.39
			c1.72-0.86,3.23-2.14,4.82-3.26c3.06-2.17,6.49-3.72,9.65-5.73c0.51-0.32,1.03-0.61,1.56-0.89c0.28-0.15,0.66-0.25,0.84,0.05
			c0.2,0.34-0.15,0.57-0.4,0.73c-2.02,1.23-3.98,2.59-6.1,3.61c-1.54,0.74-3.03,1.5-4.36,2.56c-2.85,2.26-6.49,3.44-8.78,6.45
			C285.65,441.33,285.48,441.38,285.29,441.49z"/>
		<path class="st3" d="M266.49,366.6c-0.21,0.32-0.43,0.63-0.64,0.95c-0.98-0.68-1.92-0.4-2.63,0.35c-2.69,2.84-5.94,5-8.92,7.47
			c-0.57,0.47-1.01,1.09-1.81,1.34c-0.21-1.77,1.4-2.3,2.35-3.16c2.04-1.85,4.31-3.43,6.33-5.3c0.6-0.56,1.07-1.27,1.8-1.77
			C264.84,365.19,264.81,365.14,266.49,366.6z"/>
		<path class="st3" d="M267.63,469.98c6.39-3.87,12.69-7.86,19.83-10.14c0.06,0.13,0.13,0.26,0.19,0.39
			c-3.4,1.58-6.86,3.05-10.2,4.76C274.19,466.68,271.37,469.29,267.63,469.98z"/>
		<path class="st2" d="M333.93,414.03c0.19,0.81,0.43,1.53,0.53,2.26c0.13,0.9-0.45,1.52-1.19,1.74c-0.68,0.21-1.26-0.24-1.56-0.94
			c-0.94-2.14-1.41-4.4-1.59-6.72c-0.03-0.41-0.1-0.86,0.02-1.24c0.14-0.47-0.8-0.9-0.03-1.32c0.13-0.07,0.38,0.06,0.58,0.1
			c-0.15,0.72,0.89,0.86,0.7,1.73c-0.54,2.47,0.37,4.75,1.25,7c0.09,0.24,0.37,0.65,0.68,0.36c0.29-0.27,0.56-0.6,0.35-1.19
			c-0.41-1.18-0.89-2.38-0.72-3.78c1.52,0.43,2.32,1.79,3.62,2.35c0.06,0.03,0.08,0.3,0.02,0.41c-0.11,0.22-0.34,0.17-0.54,0.14
			C335.3,414.82,334.83,414.02,333.93,414.03z"/>
		<path class="st3" d="M453.4,495.89c-1.57-6.66-2.04-13.55-4.51-20.01c1.05,0.65,2.83,5.83,3.27,9.63
			C452.56,488.97,453,492.42,453.4,495.89z"/>
		<path class="st3" d="M282.3,399.77c-5.08,4.81-10.1,9.63-15.43,14.21c-0.29-1,0.51-1.59,0.99-2.02c2.09-1.87,4.09-3.82,6.09-5.78
			c0.91-0.89,1.95-1.76,3.05-2.49c1.35-0.9,2.06-2.45,3.51-3.31C281.16,399.99,281.71,399.8,282.3,399.77z"/>
		<path class="st2" d="M327.09,392.61c0.67-0.94,0.83-1.83,0.89-2.76c0.02-0.34,0.16-0.65,0.48-0.67c0.19-0.01,0.52,0.25,0.57,0.43
			c0.27,1.22,1.39,1.39,2.36,1.95c-0.03-1.05-0.49-1.75-1.44-1.77c-0.75-0.02-0.36-0.44-0.35-0.64c0.02-0.48,0.01-1.07,0.55-1.29
			c0.3-0.12,0.38,0.28,0.5,0.48c0.49,0.89,0.82,1.86,1.54,2.63c0.28,0.3,0.3,0.81-0.01,1.14c-0.3,0.32-0.66,0.59-1.21,0.3
			c-0.53-0.28-1.19-0.32-1.7-0.62c-1.2-0.71-1.32,0.4-1.17,0.88c0.22,0.67-0.05,0.86-0.47,1.04c-0.39,0.17-0.62-0.05-0.99-0.34
			c-1.37-1.1-1.21-2.78-1.79-4.16c-0.15-0.35,0.24-0.89,0.57-0.97c0.54-0.12,0.58,0.43,0.62,0.83
			C326.17,390.28,326.51,391.41,327.09,392.61z"/>
		<path class="st3" d="M521.95,491.13c0.12,0,0.24-0.01,0.35-0.01c0.63,1.42,0.33,2.86-0.26,4.14c-0.62,1.35-0.85,2.73-1.03,4.16
			c-0.05,0.4-0.15,0.85-0.38,1.17c-1.21,1.66-1.21,3.54-1.11,5.47c0.05,0.94,0.02,1.88-0.62,2.68c0.17-2.68-0.33-5.44,0.93-7.95
			c0.34-0.68,0.1-1.29,0.17-1.93c0.25-2.28,1.06-4.39,1.78-6.54C521.91,491.91,522.14,491.56,521.95,491.13z"/>
		<path class="st3" d="M475.56,432.95c-0.64-0.73-1.67-1.36-1.32-2.1c0.38-0.81,1.5-0.16,2.29-0.26c0.41-0.05,0.97,0.55,1.21-0.11
			c0.16-0.46-0.32-0.8-0.67-1.09c-0.11-0.1-0.32-0.18-0.34-0.29c-0.16-0.9-1.72-0.7-1.49-1.71c0.16-0.71,0.98-1.08,1.63-1.49
			c0.49-0.31,0.23-0.69,0-1.06c-0.19-0.31-0.09-0.62,0.24-0.77c0.36-0.17,0.58,0.09,0.74,0.37c0.55,0.99,0.7,2.02-0.44,2.64
			c-1.16,0.64-0.67,0.97,0.06,1.45c0.32,0.22,0.67,0.5,0.84,0.83c1.07,2.05,0.91,2.39-1.37,2.31
			C475.92,431.63,475.74,432.19,475.56,432.95z"/>
		<path class="st3" d="M517.92,530.72c-0.09-0.44,0.24-1.06-0.52-1.21c0.54-0.72-0.11-1.37-0.16-2.04
			c-0.31-3.73-0.05-7.45,0.11-11.18c0.06-1.28-0.85-2.59,0.15-3.87c0.76,3.75,0.4,7.52,0.56,11.27c0.08,1.8-0.23,3.6,0.15,5.4
			C518.32,529.6,518.33,530.23,517.92,530.72z"/>
		<path class="st3" d="M453.36,419.29c0.37,0.26,0.76,0.51,1.11,0.79c1.03,0.82,2.32,1.3,3.05,2.53c0.32,0.54,0.64,1.01,0.06,1.45
			c-0.6,0.45-0.91,1.55-2,1.06c-0.75-0.34-1.51-0.69-2.18-1.16c-0.87-0.6-1.41-0.18-1.88,0.49c-0.1,0.15,0.15,0.56-0.28,0.51
			c-0.28-0.03-0.33-0.32-0.42-0.58c-0.23-0.64,0.02-1.14,0.48-1.5c0.55-0.44,1.14-0.54,1.87-0.21c0.74,0.34,1.18,1.09,2.07,1.27
			c0.69,0.14,1.23,0.33,1.54-0.43c0.33-0.8-0.37-1.22-0.88-1.38c-1.17-0.36-1.74-1.45-2.74-1.98c-0.22-0.12-0.4-0.37-0.23-0.64
			C452.99,419.41,453.18,419.38,453.36,419.29z"/>
		<path class="st3" d="M416.57,472.65c1.23-1.13,0.57-3.38,2.76-3.97c-2.12-0.38-2.12-0.38-1.92-3.68c0.25,1.74,0.78,2.57,2.37,2.45
			c1.34-0.1,1.4,0.39,0.88,1.73C419.9,471.12,417.89,471.4,416.57,472.65z"/>
		<path class="st2" d="M365.28,377.76c-1.41,0.16-2.21-0.66-2.93-1.63c-0.15-0.21-0.32-0.47-0.05-0.68
			c0.21-0.17,0.58-0.17,0.71,0.02c1.98,2.85,4.45,0.89,6.71,0.67c1.49-0.14,2.81-0.92,4.15-1.55c0.63-0.3,0.86-0.11,1.08,0.34
			c0.15,0.29,0.13,0.59-0.29,0.72C371.59,376.64,368.52,377.67,365.28,377.76z"/>
		<path class="st3" d="M295.18,374.17c0.49,1.13,0.86,2.01,1.61,2.68c0.38-0.19,0.23-0.54,0.28-0.8c0.08-0.41-0.72-0.87-0.12-1.19
			c0.48-0.25,1.01,0.26,1.25,0.63c0.35,0.54,0.76,0.64,1.35,0.81c-0.02-0.97-1.54-1.37-0.78-2.06c0.49-0.45,0.88,0.73,1.41,1.08
			c0.51,0.33,1.33,0.68,0.77,1.54c-0.54,0.84-1.29,0.55-2.05,0.3c-0.41-0.14-0.64-0.96-1.12-0.5c-0.38,0.36,0.09,0.95,0.11,1.42
			c0.03,0.48,0.83,1.15-0.01,1.46c-0.7,0.26-0.95-0.48-1.26-1c-0.4-0.69-0.84-1.36-1.31-2.01
			C294.92,375.97,294.59,375.2,295.18,374.17z"/>
		<path class="st3" d="M319.19,445.87c0,0.32,0,0.64,0.01,0.96c-2.13,1.21-4.46,1.92-6.73,2.79c-1.94,0.74-4.29,0.38-5.81,2.22
			c0,0,0.04-0.03,0.04-0.03c-0.6-0.27-1.04,0.43-1.86,0.21c1.24-1.15,2.7-1.91,4.03-2.26C312.46,448.8,315.84,447.38,319.19,445.87z
			"/>
		<path class="st3" d="M290.61,428.02c-0.4,0-0.51-0.32-0.4-0.52c0.25-0.47,0.51-1.06,0.93-1.28c2.6-1.36,5.29-2.5,8.23-2.94
			c0.69-0.11,1.36-0.39,2.05-0.57c0.3-0.08,0.71-0.49,0.9,0.04c0.2,0.55-0.35,0.71-0.71,0.82c-0.98,0.28-1.97,0.54-2.98,0.7
			c-1.9,0.31-3.73,0.8-5.38,1.82c-0.76,0.47-1.31,1.23-2.17,1.57C290.89,427.73,290.75,427.91,290.61,428.02z"/>
		<path class="st2" d="M367.92,372.51c1.74,0.07,2.93-0.3,4.15-0.47c0.29-0.04,0.58-0.09,0.87-0.14c-0.74,0.12,0.15,1.13-0.83,1.33
			c-1.4,0.29-2.82,0.25-4.23,0.51c-1.58,0.29-3.13,0.67-4.65,1.16c-0.43,0.14-0.87,0.3-1.09-0.16c-0.27-0.57,0.32-0.6,0.65-0.72
			C364.62,373.37,366.46,372.73,367.92,372.51z"/>
		<path class="st3" d="M515.23,504.96c-0.02,1.56,0.78,2.9,0.94,4.38c0.05,0.48,0.32,1.1-0.28,1.4c-0.47,0.23-0.88-0.15-1.23-0.46
			c-0.85-0.74-1.7-1.49-2.08-2.61c-0.11-0.31-0.48-0.67,0.03-0.91c0.34-0.16,0.69-0.06,0.96,0.28c0.4,0.5,0.47,1.23,1.39,1.78
			C514.67,507.4,513.48,506.05,515.23,504.96z"/>
		<path class="st2" d="M348.44,378c1.29-0.74,2.52-1.61,3.88-2.18c2.05-0.85,4.26-1.28,6.31-2.15c0.09-0.04,0.51-0.69,0.85-0.09
			c0.29,0.53-0.07,0.91-0.41,0.98c-1.99,0.41-3.71,1.58-5.67,1.97c-0.83,0.17-1.44,0.39-2.1,0.98c-0.67,0.59-1.68,0.85-2.64,0.9
			C348.59,378.28,348.51,378.14,348.44,378z"/>
		<path class="st3" d="M292.27,407.72c2.54-3.4,5.98-5.49,10.27-6.37c-1.48,1.45-3.59,1.74-5.22,2.81
			C295.6,405.29,294.44,407.18,292.27,407.72z"/>
		<path class="st3" d="M305.68,441.42c-2.81,0.82-5.61,1.45-8.54,1.31c-0.53-0.03-0.67-0.59-1.12-0.75
			c-0.24-0.09-0.32-0.43-0.11-0.65c0.11-0.12,0.4-0.19,0.56-0.13c2.73,1.03,5.41,0.2,8.1-0.18
			C304.99,440.96,305.37,440.83,305.68,441.42z"/>
		<path class="st2" d="M359.52,382.48c3.3-0.83,6-3,9.45-4.18C367.58,380.39,361.39,383.08,359.52,382.48z"/>
		<path class="st2" d="M334.4,436.53c0.17-0.48,0.34-0.85,0.43-1.23c0.11-0.44,0.44-0.35,0.73-0.35c0.43-0.01,0.53,0.27,0.44,0.61
			c-0.08,0.29-0.13,0.53-0.02,0.85c0.3,0.9-0.32,1.42-1.03,1.56c-0.68,0.13-1.33-0.29-1.63-0.97c-0.35-0.78-0.6-1.6-0.9-2.39
			c-0.13-0.34-0.32-0.71,0.16-0.89c0.38-0.14,0.69,0.1,0.9,0.42C333.93,434.83,333.73,435.75,334.4,436.53z"/>
		<path class="st2" d="M477.35,402.18c0.55,0.31,0.67,0.92,0.98,1.4c0.37,0.58-0.2,0.78-0.5,1.16c-0.49,0.63-0.7,0.1-0.88-0.11
			c-0.53-0.6-1.31-0.84-1.86-1.35c-0.29-0.27-0.97-0.44-0.78-1c0.23-0.69,0.88-0.3,1.35-0.35c0,0-0.01-0.05-0.01-0.05
			c0.1,0.55,0.65,0.58,0.98,0.86c1.09,0.92,0.71-0.12,0.77-0.58L477.35,402.18z"/>
		<path class="st3" d="M456.2,383.17c0.14,0.96,0.56,1.44,1.42,1.55c0.16,0.02,0.8,0.17,0.67,0.66c-0.12,0.47-0.56,0.31-0.91,0.3
			c-0.73-0.01-1.52-0.55-2.18,0.32c-0.09,0.11-1.06,0.15-1.22-0.55c-0.13-0.56-0.04-1.1,0.73-0.99
			C455.61,384.58,455.56,383.71,456.2,383.17z"/>
		<path class="st3" d="M442.71,385.97c0.13,0.89,1.33,1.68,0.12,2.69c-0.55,0.46-2.38,0.81-2.95,0.32c-0.23-0.2-0.33-0.45-0.16-0.67
			c0.28-0.36,0.55-0.7,1.15-0.38c0.73,0.39,1.45,0.05,1.81-0.58c0.37-0.65-0.41-0.8-0.77-1.11
			C442.17,386.15,442.44,386.06,442.71,385.97z"/>
		<path class="st2" d="M360.24,402.09c-0.2,0.73-0.49,1.79-1.7,2.11c-0.71,0.19-1.99-1.1-2.17-2.03c-0.09-0.46,0.13-0.74,0.45-0.87
			c0.36-0.14,0.52,0.25,0.68,0.5c0.96,1.57,0.96,1.58,1.96-0.03c0.15-0.24,0.33-0.4,0.61-0.35
			C360.23,401.45,360.5,401.5,360.24,402.09z"/>
		<path class="st3" d="M475.64,401.88c0,0,0.01,0.05,0.01,0.05c-0.18-0.73-0.01-1.53-0.5-2.2c-0.64-0.87-0.25-1.35,0.62-1.74
			c0.39-0.18,0.81-0.45,1.11-0.14c0.42,0.43-0.11,0.74-0.39,0.96c-0.7,0.55-0.22,1.08-0.06,1.65c0.18,0.65,0.91,1,0.92,1.73
			c0,0,0.04-0.02,0.04-0.02C476.71,402.69,476.39,400.94,475.64,401.88z"/>
		<path class="st2" d="M323.28,368.41c-0.17-0.57-0.46-1.16,0.27-1.56c0.55-0.3,1.09-0.55,1.6,0.16c0.3,0.42,0.71,0.31,1.03-0.1
			c0.19-0.24,0.46-0.52,0.74-0.16c0.24,0.31,0.14,0.96-0.05,0.98c-0.74,0.11-1.33,1.33-2.18,0.41
			C323.99,367.38,323.81,368.58,323.28,368.41z"/>
		<path class="st2" d="M352.35,383.14c-0.64-0.14-1.24-0.56-1.69-1.23c-0.19-0.29-0.29-0.52,0.04-0.78
			c0.35-0.28,0.53-0.06,0.77,0.16c1.35,1.24,1.35,1.23,2.23-0.35c0.14-0.25,0.14-0.67,0.58-0.58c0.36,0.07,0.47,0.38,0.47,0.71
			C354.76,381.7,353.11,383.2,352.35,383.14z"/>
		<path class="st3" d="M472.72,379.78c0.95,0.51,1.97,0.06,2.94,0.23c0.04,1.55-1.17,0.75-1.83,0.98c-0.37,0.12-1.31-0.68-0.97,0.59
			c-0.08-0.01-0.13-0.05-0.14-0.13c0.18-0.77,0.18-0.77-1.17-1.08C471.95,380.17,472.33,379.98,472.72,379.78z"/>
		<path class="st3" d="M517.6,478.92c-0.21-0.1-0.42-0.2-0.63-0.29c0.79-0.23,1.45-0.58,1.7-1.46c0.13-0.43,0.48-0.71,0.92-0.9
			c0.19-0.08,0.32-0.26,0.49-0.04c0.11,0.15,0.16,0.35,0.24,0.53C519.02,476.97,519.42,479.34,517.6,478.92z"/>
		<path class="st3" d="M411.56,449.54c-0.01,0.03,0.04-0.32,0.13-0.67c0.04-0.14,0.16-0.31,0.28-0.36c0.2-0.07,0.52,0.05,0.44,0.25
			c-0.38,0.98,1.2,1.18,0.8,2.09c-0.18,0.41-0.61,0.53-1.07,0.36C411.52,450.99,411.52,450.46,411.56,449.54z"/>
		<path class="st3" d="M271.77,479.88c0.13,0.26,0.37,0.29,0.62,0.31c-1.34,0.8-2.67,1.6-4.01,2.4
			C269.21,481.28,270.29,480.33,271.77,479.88z"/>
		<path class="st2" d="M442.71,385.97c-0.27,0.09-0.54,0.19-0.81,0.28c-1.26-1.29,0.93-1.52,0.7-2.52
			C443.02,384.49,442.66,385.23,442.71,385.97z"/>
		<path class="st3" d="M284.82,397.74c0.64-0.58,0.67-1.36,1.48-1.54c0.23-0.05,0.14-0.86,0.66-0.45c0.34,0.27,0.06,0.66-0.2,0.92
			C286.28,397.15,285.92,397.83,284.82,397.74z"/>
		<path class="st3" d="M308.29,425.64c-0.31,1.42-1.23,1.8-2.33,1.93C306.72,426.99,307.15,425.99,308.29,425.64z"/>
		<path class="st3" d="M350,432.69c-0.18,0.49-0.45,0.75-0.85,0.63c-0.43-0.13-0.94-0.31-0.86-0.9c0.04-0.26,0.24-0.7,0.59-0.55
			C349.3,432.05,349.65,432.43,350,432.69z"/>
		<path class="st3" d="M483.38,582.44c-0.69-1.13-0.3-2.15,0.41-3.13C483.44,580.34,483.75,581.41,483.38,582.44z"/>
		<path class="st3" d="M475.82,379.73c-0.02-0.16-0.04-0.31-0.05-0.47C476.03,379.39,476.31,379.52,475.82,379.73z"/>
		<path class="st2" d="M357.84,376.55c0.16-0.37,0.65-0.35,0.71-0.2c0.16,0.34-0.4,0.18-0.47,0.44
			C358,376.71,357.92,376.63,357.84,376.55z"/>
		<path class="st3" d="M319.85,446.61c0.09-0.04,0.18-0.08,0.27-0.13C320.02,446.53,319.94,446.57,319.85,446.61z"/>
		<path class="st3" d="M516.98,478.62c-0.08,0.11-0.16,0.23-0.24,0.34C516.82,478.85,516.9,478.73,516.98,478.62z"/>
	</g>
</g>
</svg>
