<?xml version="1.0" encoding="utf-8"?>
<!-- Generator: Adobe Illustrator 26.0.2, SVG Export Plug-In . SVG Version: 6.00 Build 0)  -->
<svg version="1.1" xmlns="http://www.w3.org/2000/svg" xmlns:xlink="http://www.w3.org/1999/xlink" x="0px" y="0px"
	 viewBox="0 0 800 800" style="enable-background:new 0 0 800 800;" xml:space="preserve">
<style type="text/css">
	.st0{display:none;}
	.st1{display:inline;}
	.st2{fill:#2D2D2D;}
	.st3{fill:#3C3D3D;}
	.st4{fill:#131313;}
	.st5{fill:#FFFFFF;}
	.st6{fill:#FCFCFC;}
	.st7{fill:#2A2A2A;}
	.st8{fill:#565454;}
	.st9{fill:#767373;}
	.st10{fill:#959292;}
	.st11{fill:#C6C4C4;}
</style>
<g id="back" class="st0">
	<rect x="1.17" y="0" class="st1" width="800" height="800"/>
</g>
<g id="Front">
	<g>
		<path d="M472.74,354.98c-1.91,0-3.61-0.08-5.3,0.02c-1.8,0.1-3.6,0.37-5.39,0.57c-2.16,0.24-4.34,0.4-6.49,0.76
			c-1.66,0.27-3.3,0.75-4.92,1.23c-0.83,0.24-1.38,0.84-1.85,1.63c-1.03,1.73-2.27,3.33-3.36,5.01c-0.52,0.79-0.9,1.67-1.36,2.5
			c-0.33,0.59-0.6,1.26-1.51,1.41c1.32-3.37,3.09-6.39,5.24-9.33c-1.17,0.4-2.38,0.72-3.51,1.22c-1.9,0.84-3.75,1.79-5.61,2.7
			c-0.24,0.12-0.46,0.35-0.69,0.36c-0.27,0-0.66-0.13-0.77-0.33c-0.1-0.2-0.01-0.7,0.16-0.81c0.79-0.52,1.61-1.03,2.48-1.39
			c3.59-1.48,7.17-2.96,10.81-4.32c2.18-0.81,4.38-1.56,6.84-1.34c1.4,0.13,2.86-0.23,4.27-0.49c3.43-0.63,6.89-0.56,10.35-0.58
			c0.53,0,1.06,0,1.47,0c0.47-0.61,0.85-1.09,1.27-1.63c0.85,0.86-0.23,1.18-0.24,1.85c1.23,0.02,2.39,1.03,3.83,0.18
			c0.19,0.74,0.74,1.01,1.56,1.06c1.9,0.1,3.79,0.36,5.69,0.49c2.35,0.16,4.57,0.86,6.79,1.58c0.9,0.29,1.87,0.36,2.79,0.58
			c0.92,0.22,1.89,0.4,2.74,0.79c2.13,0.99,4.28,1.69,6.68,1.79c2.12,0.09,4.26,0.35,6.31,0.88c1.99,0.51,3.95,1.32,5.79,2.25
			c2.17,1.1,4.2,2.47,6.29,3.73c1.24,2.2,3.21,1.33,4.93,1.07c2.31-0.35,4.58-0.98,6.88-1.41c1.99-0.37,3.99-0.71,6-0.93
			c1.2-0.13,2.43-0.03,3.65,0.02c2.55,0.11,5.06,0.42,7.55,1.07c1.03,0.26,2.21-0.16,3.33-0.15c1.43,0.01,2.87,0.07,4.28,0.27
			c0.76,0.11,1.44,0.71,2.21,0.85c2.64,0.51,4.71,2.15,7,3.36c1.55,0.82,3.18,1.49,4.77,2.23c0.33,0.16,0.68,0.31,0.98,0.52
			c1.19,0.84,1.21,0.85,3.16,0.99c-1.03-1.43-1.99-2.74-2.94-4.07c-0.12-0.17-0.23-0.36-0.33-0.54c-0.99-1.81-2.14-3.46-3.89-4.65
			c-0.72-0.49-1.35-1.19-1.83-1.92c-1.6-2.43-4.4-3.7-5.92-6.2c-0.34-0.56-1.01-0.93-1.54-1.38c-0.88-0.75-1.77-1.5-2.66-2.24
			c-1.61-1.34-3.01-2.93-4.91-3.91c-0.46-0.24-0.94-0.58-1.24-1c-1.51-2.13-3.7-3.46-5.72-5c-0.33-0.26-0.63-0.58-0.88-0.92
			c-1.15-1.53-2.62-2.59-4.37-3.33c-2.54-1.08-5.06-2.21-7.58-3.34c-0.92-0.41-1.8-0.9-2.7-1.35c-2.26-1.13-4.67-1.95-6.8-3.41
			c-1.37-0.94-3.12-1.32-4.68-1.99c-1.75-0.75-3.5-1.51-5.22-2.33c-0.6-0.28-1.06-0.84-1.66-1.11c-1.1-0.5-2.24-0.9-3.37-1.33
			c-0.4-0.15-0.86-0.18-1.21-0.41c-2.59-1.7-5.58-2.32-8.48-3.13c-1.35-0.38-2.82-0.35-4.24-0.5c-0.74-0.08-1.49-0.15-2.23-0.24
			c-0.74-0.08-1.47-0.2-2.21-0.26c-1.52-0.12-3.05-0.2-4.57-0.33c-0.25-0.02-0.5-0.17-0.71-0.31c-0.44-0.27-0.8-0.62-0.39-1.16
			c0.32-0.43,0.6-0.16,1.04-0.04c1.46,0.4,2.99,0.74,4.5,0.79c3.16,0.11,6.3,0.39,9.35,1.13c2.41,0.58,4.73,1.54,7.1,2.34
			c1.51,0.51,3.01,1.05,4.53,1.52c0.87,0.27,1.75,0.44,2.26,1.33c0.16,0.28,0.57,0.43,0.9,0.58c4.29,1.98,8.71,3.67,12.76,6.15
			c0.27,0.17,0.54,0.36,0.84,0.46c2.39,0.74,4.58,1.9,6.8,3.05c1.87,0.97,3.91,1.62,5.85,2.47c2.09,0.92,4.12,1.93,5.61,3.79
			c0.72,0.9,1.7,1.61,2.58,2.37c1.16,1,2.35,1.98,3.52,2.96c1.18,0.99,2.37,1.96,3.54,2.97c1.12,0.97,2.21,1.98,3.33,2.96
			c0.79,0.69,1.57,1.41,2.43,2.03c1,0.73,1.85,1.56,2.58,2.57c0.51,0.71,1.26,1.26,1.97,1.81c0.93,0.72,1.77,1.46,2.42,2.49
			c0.58,0.93,1.36,1.84,2.26,2.45c1.56,1.05,2.61,2.5,3.65,3.97c1.58,2.25,3.13,4.51,4.68,6.78c0.87,1.27,0.7,2.37-0.62,3.55
			c-0.06-1.4,0.17-2.83-1.17-3.79c-0.29,0.17-0.58,0.42-0.92,0.52c-1.01,0.3-1.95,0.35-2.98-0.23c-2.34-1.32-4.78-2.46-7.17-3.7
			c-0.75-0.39-1.43-0.91-2.17-1.31c-0.79-0.41-1.61-0.79-2.44-1.1c-0.83-0.31-1.67-0.62-2.48-0.89c-1.52-0.5-3.16-0.78-4.84-0.52
			c-2.02,0.32-4.06,0.43-5.99-0.56c-0.33-0.17-0.77-0.13-1.16-0.15c-2.38-0.13-4.77-0.43-7.14-0.3c-2.17,0.11-4.32,0.61-6.46,1.07
			c-2.95,0.63-5.87,1.38-8.8,2.08c-0.99,0.24-1.65,0.21-2.4-0.83c-0.8-1.11-2.18-1.83-3.35-2.65c-2.28-1.59-4.77-2.8-7.37-3.74
			c-2.97-1.08-6.11-1.28-9.23-1.55c-1.85-0.16-3.69-0.45-5.32-1.47c-1.05-0.66-2.22-0.91-3.46-1.11c-1.61-0.26-3.19-0.81-4.76-1.31
			c-2.61-0.83-5.33-0.96-8.02-1.22c-0.96-0.09-1.93-0.14-2.89-0.21c-0.68-0.05-0.94,0.21-0.95,0.94c-0.02,1.54-0.07,3.08-0.07,4.61
			c0,0.85,0.08,1.7,0.11,2.55c0.03,0.96,0.13,1.92,0.02,2.86c-0.46,4.15-0.12,8.29-0.01,12.44c0.08,3.01-0.18,6.02-0.31,9.03
			c-0.06,1.39-0.38,2.81-0.15,4.14c0.24,1.4,0.8,2.82,1.98,3.83c1,0.86,1.8,1.82,2.13,3.19c0.18,0.76,0.86,1.4,1.29,2.1
			c0.2,0.32,0.4,0.64,0.54,0.98c0.25,0.68,0.14,1.33-0.54,1.65c-2.39,1.13-4.83,2.11-7.71,2.21c-0.22,1.63-0.49,3.41-0.7,5.2
			c-0.5,4.28-0.96,8.57-1.44,12.85c-0.02,0.21-0.05,0.43-0.05,0.64c0.06,3.27-0.44,6.49-0.87,9.72c-0.3,2.26-0.34,4.56-0.43,6.84
			c-0.14,3.93-0.15,7.86-0.37,11.79c-0.23,4.19-0.29,8.38-0.8,12.56c-0.48,3.94-0.43,7.95-0.71,11.92
			c-0.12,1.74-0.49,3.45-0.75,5.18c-0.02,0.16-0.11,0.31-0.12,0.47c-0.16,1.84-0.38,3.69-0.46,5.54c-0.08,1.76-0.07,3.52,0,5.28
			c0.08,2.08,0.28,4.15,0.44,6.42c0.65-0.05,1.43-0.02,2.17-0.17c2.12-0.43,4.21-0.96,6.33-1.38c1.96-0.39,3.98-0.55,5.91-1.05
			c1.44-0.37,2.74-0.16,4.09,0.18c0.18,0.04,0.33,0.22,0.51,0.34c-0.27,0.79-0.88,0.66-1.34,0.52c-1.4-0.42-2.7-0.22-4.06,0.25
			c-0.84,0.29-1.77,0.28-2.66,0.41c-0.78,0.12-1.6,0.14-2.34,0.38c-1.31,0.42-2.6,0.72-3.99,0.84c-1.56,0.13-3.08,0.68-4.61,1.07
			c-1.15,0.29-1.3,0.24-2.08-0.81c0.21-0.38,0.6-0.75,0.59-1.12c-0.05-2.12-0.2-4.23-0.29-6.35c-0.06-1.43-0.22-2.88-0.07-4.29
			c0.37-3.55,0.89-7.07,1.33-10.61c0.08-0.68,0.01-1.39,0.05-2.08c0.19-2.98,0.4-5.96,0.6-8.94c0.29-4.31,0.49-8.62,0.87-12.92
			c0.36-4.04-0.1-8.09,0.28-12.13c0.38-4.08,0.8-8.17,1.18-12.25c0.1-1.05,0.13-2.11,0.22-3.16c0.12-1.33,0.3-2.65,0.43-3.97
			c0.19-1.85,0.34-3.71,0.54-5.57c0.23-2.12,0.52-4.23,0.73-6.36c0.25-2.6,0.48-5.21,1.27-7.69c0.91-2.88,1.01-5.87,1.55-8.8
			c0.34-1.82,0.22-3.72,0.32-5.58c0.12-2.18,0.33-4.36,0.37-6.54c0.05-2.88-0.08-5.76-0.05-8.64c0.02-2.33,0.2-4.67,0.23-7
			c0.02-1.59-0.16-3.19-0.13-4.78c0.03-2.03,0.19-4.05,0.25-6.08c0.04-1.25-0.05-1.35-1.28-1.53c-0.68-0.1-1.36-0.12-2.3-0.21
			c0.09,1.51,0.17,2.87,0.26,4.23c0.02,0.26,0.1,0.55,0.05,0.79c-0.69,2.86-0.34,5.71,0.16,8.53c0.81,4.54,0.6,9.11,0.47,13.67
			c-0.09,3.08-0.43,6.16-0.67,9.23c-0.17,2.22-0.27,4.45-0.57,6.66c-0.26,1.89-0.71,3.77-1.14,5.63c-0.96,4.16-1.62,8.37-1.55,12.64
			c0.06,3.91-0.6,7.74-0.99,11.6c-0.14,1.41,0.03,2.86,0.06,4.29c0.03,2.12,0.22,4.23-0.07,6.37c-0.27,1.99-0.09,4.03-0.26,6.04
			c-0.24,2.96-0.61,5.92-0.94,8.88c-0.02,0.21-0.09,0.42-0.11,0.63c-0.26,3.24-0.46,6.49-0.8,9.73c-0.27,2.64-0.64,5.28-1.09,7.89
			c-0.38,2.23-0.04,4.43-0.07,6.65c-0.03,2.96,0.16,5.92-0.25,8.88c-0.32,2.31-0.25,4.68-0.4,7.02c-0.12,1.85-0.3,3.69-0.47,5.77
			c0.1,0.08,0.44,0.34,0.78,0.61c-0.03,0.1-0.06,0.2-0.09,0.3c-0.66,0-1.33,0.08-1.97-0.02c-1.94-0.3-3.8-0.84-5.64-1.55
			c-2.72-1.05-5.49-2.04-8.52-1.55c-1.31,0.21-2.63,0.41-3.96,0.47c-1.16,0.05-2.35,0.04-3.49-0.18c-1.66-0.32-3.28-0.86-4.92-1.28
			c-1.06-0.27-2.14-0.5-3.3-0.77c0.02,0.61,1.23,0.93,0.39,1.79c-0.26-0.02-0.61-0.05-1.08-0.09c-0.46,0.69-1.23,1.29-1.16,2.29
			c0.05,0.67,0.27,1.33,0.38,2c0.22,1.42-0.1,2.74-0.58,4.1c-0.41,1.18-0.72,2.49-0.67,3.73c0.06,1.42-0.39,2.65-0.97,3.79
			c-0.83,1.62-1.4,3.19-1.03,5.02c0.05,0.24-0.08,0.5-0.16,1.02c-0.34-0.44-0.71-0.71-0.7-0.97c0.04-1.27-0.13-2.67,0.35-3.77
			c0.87-1.97,1.68-3.88,1.66-6.07c0-0.41,0.14-0.85,0.33-1.22c0.79-1.55,0.84-3.2,0.52-4.82c-0.45-2.3-0.37-4.4,1.09-6.37
			c0.44-0.6,0.83-1.47-0.71-1.97c0.16-0.06,0.32-0.12,0.48-0.18c0.18-0.01,0.4-0.1,0.54-0.03c2.72,1.54,5.68,2.27,8.73,2.82
			c2.15,0.39,4.23,0.01,6.34-0.2c2.97-0.29,5.91-0.22,8.75,0.9c1.43,0.56,2.92,0.97,4.39,1.4c0.86,0.25,1.74,0.39,2.69,0.6
			c0.24-2.14,0.73-4.2,0.64-6.25c-0.12-2.76,0.44-5.45,0.51-8.17c0.08-2.72,0.33-5.44,0.26-8.15c-0.03-1.41-0.42-2.82-0.2-4.25
			c0.36-2.36,0.75-4.72,1.09-7.09c0.24-1.68,0.42-3.37,0.61-5.05c0.06-0.53,0.06-1.07,0.12-1.6c0.27-2.32,0.62-4.63,0.83-6.96
			c0.23-2.66,0.37-5.33,0.48-8c0.17-4.09,0.47-8.18,0.36-12.27c-0.08-2.96,0.39-5.83,0.66-8.74c0.28-3.02,0.4-6.06,0.57-9.08
			c0.19-3.24,0.45-6.45,1.21-9.65c0.83-3.51,1.52-7.08,1.57-10.72c0.01-0.58,0.12-1.17,0.18-1.75c0.36-3.38,0.84-6.76,1.03-10.15
			c0.18-3.12,0.18-6.26,0-9.38c-0.15-2.7-0.68-5.37-1.01-8.06c-0.08-0.68-0.1-1.38-0.08-2.07
			C472.54,360.35,472.64,357.8,472.74,354.98z M475.76,405.91c1.74-0.46,3.41-0.89,5.07-1.35c0.99-0.28,1.29-0.99,0.86-1.91
			c-0.46-1-1.01-1.97-1.36-3c-0.54-1.63-2-2.42-3.07-3.92C476.75,399.23,476.28,402.42,475.76,405.91z"/>
		<path d="M466.2,537.33c0.57,1.87-0.84,3.75,0.11,5.7c1.71,0.59,3.53,0.74,5.38,0.83c2.66,0.13,5.32,0.32,7.96,0.57
			c3.35,0.32,6.63,0.04,9.85-0.94c0.3-0.09,0.64-0.17,0.88-0.35c0.84-0.63,1.7-1.26,2.46-1.97c1.21-1.13,2.8-1.38,4.45-1.91
			c-0.11,0.28-0.13,0.69-0.34,0.83c-1.33,0.86-2.69,1.66-4.04,2.48c-0.18,0.11-0.38,0.21-0.5,0.37c-1.17,1.53-2.82,1.99-4.63,2.09
			c-0.05,0-0.11,0-0.16,0.02c-2.68,0.96-5.44,0.6-8.17,0.47c-1.91-0.09-3.82-0.35-5.73-0.5c-1.59-0.12-3.19-0.2-4.79-0.25
			c-0.8-0.02-1.6,0.06-2.54,0.11c0.01,0.05,0.06,0.33,0.1,0.53c2.72,0.52,5.42,0.86,8.02,1.57c3.01,0.83,5.98,0.84,9.02,0.36
			c1.17-0.19,2.37-0.2,3.54-0.38c3.32-0.51,6.24-1.94,9.04-3.75c1.43-0.92,1.69-2.06,1.74-3.58c0.05-1.53,0.38-3.06,0.59-4.58
			c0.08-0.58,0.21-1.15,0.25-1.73c0.1-1.59,0.22-3.17,0.24-4.76c0.01-0.79-0.15-1.58-0.28-2.36c-0.22-1.37-0.49-2.72-0.71-4.09
			c-0.1-0.58-0.07-1.18-0.21-1.74c-0.33-1.27-0.4-2.52-0.07-3.79c0.08-0.3,0.08-0.62,0.12-0.99c-2.16-0.39-4.15,0.31-6.19,0.59
			c-1.83,0.25-3.68,0.35-5.51,0.57c-1.2,0.14-2.39,0.38-3.58,0.56c-0.84,0.13-1.69,0.27-2.53,0.33c-3.34,0.23-6.45,1.18-9.42,2.74
			c-1.49,0.78-3.07,1.14-4.79,0.67c-2.07-0.58-4.23-0.82-6.18-1.85c-0.49-0.26-1.2-0.09-1.8-0.18c-1.78-0.26-3.55-0.56-5.32-0.83
			c-1.04-0.15-2.09-0.28-3.13-0.39c-0.58-0.06-1.25,0.11-1.73-0.12c-1.86-0.92-3.86-0.61-5.79-0.77c-2.34-0.2-4.64-0.43-6.85-1.27
			c-0.73-0.28-1.51-0.42-2.28-0.58c-0.14-0.03-0.32,0.21-0.5,0.23c-0.41,0.06-0.82,0.08-1.32,0.12c0.39-1.5,0.65-1.75,1.71-1.48
			c1.28,0.32,2.54,0.76,3.81,1.14c0.35,0.11,0.72,0.2,1.08,0.26c1.83,0.32,3.65,0.63,5.49,0.92c0.65,0.1,1.32,0.12,1.98,0.16
			c1.9,0.13,3.79,0.25,5.69,0.37c1,0.06,1.97,0.19,2.96,0.47c1.56,0.45,3.24,0.5,4.87,0.72c0.68,0.09,1.4,0.06,2.02,0.29
			c1.84,0.7,3.75,1.12,5.65,1.61c1.62,0.42,3.02,0.27,4.26-0.96c0.4-0.39,0.96-0.7,1.5-0.85c1.79-0.49,3.59-1.01,5.42-1.29
			c3.25-0.5,6.53-0.82,9.8-1.23c2.11-0.27,4.22-0.53,6.33-0.85c1.45-0.22,2.89-0.53,4.44-0.82c0.39-1.73,0.8-3.33,1.09-4.94
			c0.28-1.54-0.47-2.82-1.37-3.96c-1.29-1.64-2.11-3.41-2.04-5.61c-1.04-0.79-2.18-0.4-3.32-0.2c-1.14,0.2-2.28,0.37-3.42,0.51
			c-0.15,0.02-0.32-0.21-0.55-0.37c0.93-1.3,2.34-0.54,3.42-0.97c1.1-0.43,2.35-0.5,3.67-0.76c1.67-1.68,2.3-4.07,2.76-6.47
			c0.19-1-0.17-2.1-0.25-3.15c-0.08-1.01-0.2-2.02-0.16-3.02c0.12-2.85-0.8-5.31-2.7-7.41c-1.53-1.69-1.56-3.06,0.1-5.11
			c0,1.07,0.05,1.98-0.01,2.87c-0.08,1.18,0.96,1.52,1.55,2.37c0.89-1.35,0.86-2.77,0.7-4.08c-0.47-3.74,0.7-7.15,1.8-10.6
			c0.32-1,0.69-1.94,0.66-3.07c-0.02-0.86,0.55-1.83,1.08-2.61c1.59-2.36,2.44-4.96,2.77-7.76c0.02-0.21,0.06-0.42,0.07-0.63
			c0.04-1.59,0.04-1.59,1.63-1.98c0.07,0.08,0.21,0.17,0.19,0.23c-0.82,2.74-1.07,5.65-2.49,8.22c-0.33,0.6-0.64,1.22-0.91,1.85
			c-0.59,1.37-0.37,2.29,0.69,3.36c0.19,0.19,0.29,0.5,0.35,0.78c0.14,0.6,0.23,1.21,0.48,1.8c0.57-0.81,0.3-1.73,0.32-2.57
			c0.04-1.7-0.02-1.7,0.81-3.31c0.54,0.24,0.53,0.65,0.45,1.15c-0.22,1.4-0.4,2.81-0.63,4.44c0.52-0.21,0.87-0.35,1.36-0.56
			c0.65,1.02,1.38,2.04,1.95,3.14c0.2,0.38,0.03,0.96-0.13,1.48c-0.83-0.89-0.26-2.61-2.16-2.8c-0.3,0.21-0.76,0.54-1.25,0.88
			c0.11,0.6,0.23,1.16,0.32,1.74c0.26,1.65,0.83,3.11,1.93,4.45c2.38,2.91,4.33,6.13,6.41,9.26c0.44,0.65,0.87,1.31,1.26,1.99
			c0.11,0.2,0.1,0.47,0.14,0.72c-0.22,0.02-0.37,0.07-0.41,0.03c-1.38-1.54-2.83-2.99-3.84-4.86c-1.02-1.9-2.07-3.81-3.66-5.36
			c-1.27-1.23-2.24-2.62-2.61-4.46c-0.37-1.84-1.06-3.62-1.66-5.42c-0.21-0.63-0.54-1.21-0.93-2.06c-0.92,1.78-1.51,3.35-1.73,5.05
			c-0.04,0.32,0.05,0.68-0.08,0.95c-1.3,2.68-0.73,5.54-0.89,8.34c-0.08,1.39-0.08,2.85-0.93,4.17c0.87,2.08,0.93,4.36,1.05,6.64
			c0.06,1.21,0.51,2.39,0.64,3.6c0.09,0.77,0.03,1.6-0.16,2.35c-0.46,1.86-1.07,3.67-2.28,5.23c-0.63,0.82-0.52,2.69-0.21,3.68
			c0.56,1.77,1.55,3.24,2.71,4.65c0.76,0.93,0.86,2.04,0.68,3.18c-0.31,1.99-0.5,4.01-0.96,5.97c-0.85,3.64,0.07,7.15,0.59,10.7
			c0.19,1.27,0.42,2.5,0.23,3.8c-0.14,0.99-0.02,2.01-0.13,3.01c-0.2,1.84-0.26,3.73-0.78,5.49c-0.54,1.84-0.3,3.69-0.64,5.52
			c-0.26,1.39-0.21,2.84-0.31,4.27c-0.06,0.96-0.13,1.92-0.21,2.87c-0.24,3.09-1.07,6.01-2.68,8.68c-0.3,0.49-0.59,1.06-1.36,0.62
			c0.01-0.18-0.04-0.4,0.04-0.47c0.73-0.63,0.99-1.49,1.34-2.36c1.6-3.97,2.27-8.08,2.17-12.35c-0.01-0.37,0.06-0.74,0.1-1.27
			c-0.86,0.61-1.62,1.21-2.44,1.72c-1.91,1.18-3.99,2.03-6.16,2.48c-2.69,0.55-5.39,1.01-8.18,1.02c-1.49,0.01-2.97,0.04-4.43-0.17
			c-1.36-0.19-2.68-0.64-4.03-0.89c-1.35-0.25-2.73-0.43-4.1-0.57c-1.44-0.15-1.83,0.42-1.77,1.83c0.06,1.31-0.14,2.64-0.28,3.96
			c-0.06,0.56-0.22,1.11-0.36,1.77c2.99,0.71,5.27,2.49,7.59,4.13c1.39,0.98,2.78,0.86,4.26,0.72c0.79-0.07,1.57-0.17,2.36-0.24
			c0.79-0.06,1.59-0.11,2.39-0.13c0.42-0.01,0.85-0.02,1.26,0.05c1.16,0.19,2.31,0.41,3.46,0.62c1.6,0.29,3.18,0.24,4.69-0.44
			c0.46-0.21,0.87-0.44,1.23,0.09c-0.2,1.12-1.26,1.02-2.05,1.45c0.66,3.79-0.91,7.33-1.22,11.02c-0.27,3.17-0.94,6.32-1.49,9.47
			c-0.33,1.89-0.73,3.77-1.12,5.64c-0.05,0.25-0.2,0.47-0.33,0.76c-0.98-1.64-1.08-2.85-0.58-4.4c0.83-2.59,1.29-5.25,1.5-7.98
			c0.2-2.65,0.61-5.27,0.95-7.91c0.27-2.1,0.57-4.2,0.89-6.54c-2.24-0.24-4.56-0.57-6.88-0.71c-1.95-0.12-3.91-0.16-5.86,0.29
			c-1.86,0.43-3.24-0.68-4.66-1.64c-1.06-0.72-2.14-1.39-3.25-2.03c-0.68-0.39-1.38-0.77-2.27-0.55c-0.27,0.07-0.85-0.31-0.95-0.6
			c-0.25-0.73-0.43-1.53-0.43-2.31c-0.01-1.84,0.15-3.69,0.13-5.53c-0.02-1.63-0.41-3.25-0.22-4.89c0.02-0.14-0.08-0.31-0.15-0.45
			c-1.02-1.81,0.05-3.5,0.38-5.21c0.09-0.46,0.91-0.78,1.66-1.38c-0.9,0.14-1.52,0.14-2.04,0.36c-0.38,0.17-0.82,0.59-0.91,0.98
			c-0.56,2.36-1.41,4.65-1.54,7.12c-0.06,1.19-0.53,2.39-0.97,3.53c-0.69,1.82-1.04,3.75-2.17,5.44c-1.22,1.81-2.94,2.68-4.87,3.39
			c-1.4,0.51-2.83,0.29-4.24,0.25c-0.73-0.02-1.46,0.18-2.25-0.18c-0.58-0.26-1.44,0.12-2.17,0.15c-1.21,0.05-2.36-0.02-3.57-0.49
			c-1.5-0.59-3.19-0.72-4.82-0.93c-1.14-0.14-1.48,0.23-1.37,1.36c0.12,1.27,0.29,2.54,0.59,3.77c0.61,2.51,0.11,5.03,0.2,7.55
			c0.04,1.21,0.09,2.42,0.09,3.64c-0.01,1.49-0.07,2.99-0.1,4.48c-0.07,3.19,1.23,5.3,4.51,6.51c0.85-0.81,1.43-1.77,1.58-2.99
			c0.11-0.95,0.28-1.9,0.47-2.84c0.09-0.44,0.31-0.86,0.81-1.34c0.15,0.34,0.44,0.68,0.42,1c-0.1,1.27-0.25,2.54-0.46,3.8
			c-0.15,0.87-0.42,1.71-0.65,2.6c2.5,0.83,4.82-0.43,7.15-0.23c0.36,1.12-0.35,1.48-1.07,1.68c-1.05,0.29-2.15,0.43-3.3,0.44
			c0.75-0.32,1.49-0.63,2.24-0.95c-0.04-0.12-0.08-0.24-0.11-0.36c-0.91,0.18-1.81,0.37-2.77,0.56c0.14,0.38,0.22,0.61,0.38,1.07
			c-0.94,0.04-1.79,0.08-2.89,0.13c0.24,0.35,0.35,0.71,0.59,0.84c1.37,0.72,2.78,1.36,4.14,2.08c0.33,0.17,0.77,0.55,0.77,0.84
			c0.01,0.61-0.58,0.7-1.07,0.65c-1.16-0.1-2.31-0.26-3.46-0.39c-1.57-0.17-3.15-0.34-4.84-0.53c0.3,1.22,0.58,2.22,0.77,3.25
			c0.19,0.98,0.42,1.99,0.4,2.98c-0.07,3.08,1.06,5.92,1.54,8.89c0.23,1.38,0.39,2.78,0.57,4.17c0.2,1.58,0.4,3.16,0.58,4.74
			c0.26,2.28,0.48,4.56,0.77,6.83c0.12,0.95,0.42,1.87,0.55,2.82c0.08,0.6,0.02,1.21,0.02,1.86c-1.6-0.48-4.08-2.18-4.93-3.37
			c0.2-0.18,0.42-0.38,0.66-0.59c0.37,0.43,0.63,0.83,0.99,1.12c0.62,0.49,1.29,0.92,2.09,1.47c0.04-0.31,0.1-0.49,0.07-0.66
			c-0.5-3.2-1.04-6.4-1.51-9.61c-0.21-1.42-0.26-2.87-0.39-4.3c-0.33-3.62-1.23-7.13-2.06-10.65c-0.2-0.86-0.21-1.81-0.13-2.7
			c0.17-1.93-0.45-3.69-0.98-5.47c-0.4-1.32-0.85-2.63-1.2-3.96c-0.23-0.88-0.17-0.91,0.94-1.07c0.2,0.53,0.36,1.08,0.6,1.59
			c0.6,1.28,1.4,2.1,3.05,2.06c1.59-0.04,3.19,0.4,5.14,0.68c-0.43-0.36-0.58-0.57-0.78-0.65c-0.64-0.24-1.35-0.35-1.95-0.67
			c-0.93-0.48-1.81-0.97-2.12-2.2c-0.28-1.13-0.98-2.02-2.26-2.38c-1.38-0.39-2.77-1.03-3.21-2.54c-0.4-1.36-0.64-2.81-0.68-4.22
			c-0.08-2.92,0.02-5.85,0.07-8.77c0.02-0.95,0.22-1.91,0.16-2.86c-0.12-2.02-0.35-4.03-0.53-6.04c-0.08-0.94-0.15-1.88-0.24-2.99
			c-0.17-0.04-0.51-0.16-0.86-0.22c-1.34-0.23-2.13-1.16-2.75-2.24c-0.53-0.92-0.95-1.89-1.41-2.84c-0.07-0.14-0.22-0.3-0.2-0.43
			c0.06-0.38,0.11-0.83,0.34-1.1c0.09-0.11,0.71,0.05,0.95,0.26c0.49,0.4,0.88,0.91,1.39,1.45c-0.72,0.71-0.31,1.48,0.12,2.23
			c0.43,0.76,0.97,1.45,1.92,1.53c2.64,0.24,5.23,0.81,7.83,1.28c1.71,0.31,3.5,0.17,5.26,0.2c1.59,0.03,3.18,0.06,4.76,0.02
			c1.99-0.06,3.65-0.75,5.1-2.24c1.47-1.51,1.89-3.4,2.55-5.23c1.15-3.2,1.91-6.5,2.37-9.87c0.11-0.78,0.73-1.48,1.2-2.37
			c-0.74-0.23-1.48-0.45-2.21-0.7c-1.1-0.38-2.2-0.76-3.3-1.17c-0.71-0.26-0.94-0.8-0.67-1.59c-2.58-0.56-5.12-1.09-7.65-1.66
			c-1.66-0.37-3.31-0.77-4.95-1.21c-3.44-0.92-6.87-1.89-10.3-2.81c-0.46-0.12-0.96-0.21-1.42-0.16c-0.64,0.08-1.52-0.23-1.54,0.98
			c-0.79-0.31-1.37-0.53-2.21-0.85c0.44-0.42,0.67-0.79,1-0.95c0.94-0.46,1.94-0.5,2.97-0.29c3.43,0.68,6.8,1.61,10.17,2.55
			c3.17,0.88,6.32,1.93,9.65,2.12c0.42,0.02,0.89,0.09,1.22,0.31c1.12,0.77,2.39,0.82,3.66,0.93c0.58,0.05,1.16,0.15,1.72,0.29
			c0.22,0.06,0.53,0.29,0.56,0.47c0.28,1.78,1.86,2.02,3.11,2.5c0.86,0.33,1.89,0.29,2.84,0.29c0.35,0,0.74-0.31,1.05-0.55
			c0.92-0.72,1.76-1.54,2.73-2.18c0.79-0.52,1.7-0.7,2.71-0.75c2.44-0.12,4.87-0.55,7.31-0.73c1.9-0.13,3.48-1.01,5.18-1.69
			c1.86-0.75,3.82-1.28,5.78-1.77c1.41-0.35,2.88-0.5,4.33-0.71c0.25-0.04,0.58,0,0.77,0.14c0.25,0.19,0.57,0.54,0.54,0.78
			c-0.03,0.22-0.47,0.54-0.74,0.55c-0.58,0.04-1.18-0.21-1.74-0.12c-1.67,0.27-3.32,0.64-4.98,0.97c-2.05,0.42-3.99,1.13-5.87,2.04
			c-0.61,0.29-1.31,0.42-1.99,0.54c-2.23,0.42-4.46,0.81-6.7,1.19c-0.25,0.04-0.53-0.02-0.79-0.03c-0.88-0.05-1.6,0.18-2.27,0.84
			c-1.21,1.18-2.5,2.27-4.19,2.79C467.16,536.52,466.72,536.98,466.2,537.33z M460.43,534.26c0.06-0.1,0.11-0.2,0.17-0.3
			c-0.48-0.71-1.15-1.01-2.09-0.79C459.15,533.53,459.79,533.89,460.43,534.26z"/>
		<path d="M467.74,323.47c1.56-1.58,3.79-2.46,4.79-4.62c0.1-0.21,0.37-0.34,0.63-0.57c-1.96-0.25-3.82-0.53-5.69-0.72
			c-0.51-0.05-1.04,0.17-1.57,0.22c-1.64,0.14-3.27,0.33-4.94,0.14c-1.02-0.12-2.12,0.21-3.16,0.44c-2.85,0.63-5.72,1.21-8.52,2.02
			c-1.52,0.44-2.91,1.3-4.36,1.97c-2.56,1.18-5.09,2.41-7.68,3.51c-2.24,0.96-4.54,1.78-6.81,2.65c-2.82,1.07-5.68,2.07-8.48,3.19
			c-2.07,0.83-4.15,1.69-6.09,2.77c-2.74,1.52-5.36,3.25-8.02,4.91c-1.48,0.92-2.87,2.06-4.45,2.77c-2.14,0.96-4.07,2.24-6.1,3.37
			c-2.18,1.22-4.49,2.21-6.66,3.44c-2.22,1.26-4.39,2.61-6.49,4.06c-0.9,0.62-1.57,1.57-2.3,2.41c-1.17,1.34-2.3,2.72-3.7,4.39
			c1.87-0.76,3.42-1.3,4.87-2.02c1.47-0.73,2.96-1.09,4.59-1.2c3.18-0.22,6.36-0.57,9.53-0.91c0.88-0.1,1.74-0.49,2.62-0.53
			c1.32-0.05,2.66,0.06,3.98,0.15c0.95,0.07,1.89,0.22,2.83,0.32c2.23,0.24,4.35,0.91,6.48,1.59c1.75,0.55,3.62,0.8,5.46,1
			c1.85,0.2,3.71,0.52,5.53,0.64c2.13,0.14,3.68,1.21,5.45,1.98c1.26,0.55,2.58,0.95,3.89,1.37c1.09,0.35,1.27,0.57,1.1,1.61
			c-0.97,0.26-1.74-0.16-2.58-0.59c-1.55-0.8-3.21-1.4-4.8-2.15c-2.71-1.27-5.6-1.41-8.52-1.57c-2.6-0.14-5.16-0.54-7.6-1.59
			c-0.87-0.37-1.8-0.67-2.73-0.82c-1.89-0.31-3.8-0.54-5.71-0.71c-1.64-0.15-3.25-0.17-4.87,0.45c-1.1,0.42-2.38,0.37-3.59,0.48
			c-1.59,0.15-3.2,0.36-4.79,0.33c-2.96-0.06-5.58,1.02-8.18,2.2c-1.65,0.75-3.37,1.36-4.94,2.25c-1.22,0.69-2.26,1.73-3.55,2.74
			c-0.05-0.02-0.35-0.18-0.68-0.35c0.09-0.21,0.12-0.38,0.22-0.49c1.17-1.23,2.37-2.44,3.53-3.68c1.82-1.94,3.59-3.9,5.19-6.06
			c1.07-1.45,2.74-2.51,4.27-3.55c1.93-1.31,3.98-2.46,6.02-3.62c0.92-0.52,1.97-0.82,2.9-1.33c2.79-1.53,5.55-3.13,8.33-4.66
			c0.74-0.41,1.59-0.63,2.3-1.07c1.79-1.13,3.57-2.29,5.29-3.53c2.39-1.72,4.93-3.16,7.62-4.33c2.78-1.21,5.56-2.42,8.38-3.53
			c1.72-0.68,3.51-1.18,5.27-1.78c1.16-0.4,2.34-0.75,3.46-1.24c3.26-1.43,6.51-2.92,9.75-4.4c1.35-0.62,2.62-1.44,4.02-1.92
			c1.74-0.6,3.57-0.97,5.37-1.38c1.81-0.41,3.64-0.78,5.47-1.13c0.68-0.13,1.37-0.18,2.06-0.21c1.91-0.11,3.83-0.3,5.73-0.25
			c1.53,0.04,3.06,0.35,4.58,0.61c1.11,0.19,2.29,0.29,3.23,1.4c-0.42,0.13-0.76,0.24-1.23,0.39c-0.85,2.13-3.52,4.53-5.96,5.2
			c0-0.15,0-0.3,0-0.46L467.74,323.47z"/>
		<path d="M522.68,525.36c-0.59-0.66-1-1.12-1.48-1.66c-0.18,0.21-0.46,0.53-0.79,0.92c-0.4-0.27-0.73-0.49-1.07-0.72
			c-1.19,2.63-1.19,2.63-2.24,3.2c-0.97-0.59-0.11-1.35-0.1-1.99c0.01-0.73,0.47-1.44,0.67-2.18c0.3-1.08,0.59-2.17,0.8-3.27
			c0.1-0.51,0.13-1.12-0.06-1.58c-0.82-1.97-0.28-4-0.37-6c-0.03-0.74,0.09-1.49,0.18-2.23c0.04-0.33,0.19-0.64,0.32-1.03
			c0.83,0.52,0.67,1.17,0.63,1.8c-0.11,1.69-0.22,3.38-0.33,5.07c-0.02,0.26-0.11,0.54-0.05,0.78c0.29,1.16,0.63,2.3,0.9,3.28
			c1.1-2.54,0.46-5.67,1.71-8.41c0.05-0.11,0.27-0.13,0.6-0.28c0.15,0.4,0.41,0.76,0.39,1.11c-0.04,0.73-0.17,1.47-0.36,2.18
			c-0.31,1.16-0.92,2.24-0.5,3.53c0.11,0.35-0.13,0.82-0.2,1.23c-0.07,0.49-0.13,0.99-0.23,1.79c1.06-0.51,1.39-1.14,1.51-1.86
			c0.32-1.94,0.59-3.89,0.86-5.83c0.14-0.99,0.34-1.94,1.25-2.63c0.7,0.57,0.68,1.28,0.69,2.03c0.04,2.24-0.56,4.38-0.94,6.56
			c-0.07,0.41-0.12,0.83-0.2,1.43c0.75-0.41,0.88-1.02,1.14-1.54c0.52-1.04,1.05-2.07,1.57-3.11c0.07-0.13,0.15-0.33,0.1-0.43
			c-0.87-1.71,0.12-3.7-1.03-5.59c0.07,0.04-0.1-0.07-0.3-0.15c-1-0.36-1.3-1.06-1.24-2.11c0.06-1.05-0.06-2.12-0.19-3.16
			c-0.04-0.31-0.3-0.64-0.55-0.87c-0.75-0.67-1.55-1.28-2.33-1.92c-0.43-0.36-0.56-0.75,0.06-1.31c0.57,0.52,1.15,1.03,1.72,1.55
			c0.15,0.14,0.25,0.41,0.41,0.45c2.03,0.51,1.85,2.15,1.91,3.68c0.02,0.45,0.06,0.9,0.11,1.57c0.3-0.27,0.55-0.38,0.56-0.51
			c0.11-1.53,0.32-3.07,0.21-4.58c-0.07-0.82-0.83-1.57-1.07-2.41c-0.17-0.62-0.03-1.33,0.03-2c0.01-0.1,0.31-0.18,0.62-0.34
			c0.1,0.81,0.19,1.48,0.27,2.15c1.26-1.79,1.72-3.73,1.87-5.71c0.19-2.49,0.16-5,0.3-7.5c0.07-1.27,0.21-2.55,0.49-3.79
			c0.13-0.57,0.35-1.35,1.28-1.41c-0.34,1.51-0.68,2.93-0.98,4.36c-0.09,0.46-0.15,0.96-0.08,1.42c0.55,3.85,0.23,7.6-0.93,11.32
			c-0.44,1.4-0.64,2.92-0.7,4.39c-0.05,1.41-0.41,2.86,0.19,4.25c-0.69,2.02,0.06,4.09-0.2,6.13c-0.08,0.61,0.11,1.24,0.09,1.87
			c-0.02,0.52-0.08,1.07-0.25,1.56c-0.34,0.99-0.67,2.02-1.19,2.92C525.13,521.61,523.95,523.36,522.68,525.36z M524.37,515.21
			c-0.11-0.01-0.23-0.02-0.34-0.03c-0.37,1.71-0.73,3.41-1.1,5.12c0.13,0.03,0.26,0.06,0.39,0.1c1-1.27,0.44-3,1.11-4.38
			C524.53,515.81,524.39,515.48,524.37,515.21z"/>
		<path d="M408.06,521.3c0.77,1.96,0.2,4.3,2.29,5.7c-0.28,0.45-0.51,0.83-0.82,1.33c0.45,0.28,0.83,0.52,1.48,0.93
			c0-0.96,0.08-1.67-0.02-2.36c-0.2-1.52-0.5-3.03-0.74-4.55c-0.2-1.23-0.37-2.47-0.57-3.82c0.35-0.28,0.74,0.05,0.85,0.43
			c0.25,0.91,0.41,1.85,0.53,2.79c0.15,1.2,0.23,2.41,0.37,3.83c0.66-0.39,1.12-0.67,1.72-1.03c-0.2-1.01-0.36-2.04-0.62-3.05
			c-0.29-1.11-0.1-2.37-1.01-3.29c-0.03-0.03-0.05-0.1-0.05-0.15c0-0.21-0.03-0.43,0.02-0.63c0.05-0.2,0.15-0.52,0.28-0.55
			c1.14-0.23,0.03-1.92,1.43-2.06c0.03,0.39,0.15,0.77,0.05,1.08c-0.53,1.71,0.29,3.17,0.73,4.73c0.32,1.15,0.32,2.41,0.3,3.62
			c-0.02,1.1,0.22,2.05,0.96,3.15c0.61-0.72,1.12-1.33,1.69-2.01c-1.05-0.53-1.26,0.62-2.06,0.59c0.27-1.12,1.43-0.97,2.19-1.72
			c-0.37-1.27-0.79-2.66-1.16-4.07c-0.25-0.92-0.42-1.86-0.63-2.78c-0.29-1.3,0.77-2.05,1.19-3.13c0.95,0.94,0.53,2.18,0.87,3.22
			c0.35,1.05,0.33,2.23,0.99,3.5c0.2-0.48,0.39-0.72,0.41-0.98c0.1-1.96,0.17-3.93,0.24-5.89c0.03-0.74-0.05-1.49,0.08-2.21
			c0.32-1.78-0.07-3.36-1.04-4.85c-0.4-0.62-0.84-1.28-0.99-1.98c-0.17-0.78-0.58-1.05-1.23-1.07c-0.45-1.24-0.3-2.39-0.04-3.54
			c0.88-3.95,1.96-7.85,3.43-11.63c0.36-0.94,0.56-1.96,1.04-2.83c0.63-1.13,0.53-2.25,0.35-3.41c-0.28-1.84-0.51-3.69-0.94-5.5
			c-0.28-1.18-0.19-2.25,0.21-3.5c0.82,0.68,0.7,1.64,0.77,2.38c0.23,2.2,0.51,4.39,0.97,6.55c0.3,1.42-0.12,2.76-0.59,4.05
			c-1.35,3.7-2.79,7.37-3.54,11.26c-0.24,1.24-0.61,2.47-1.03,3.67c-0.19,0.55-0.01,0.8,0.26,1.23c0.91,1.47,1.78,2.98,2.5,4.55
			c0.95,2.07,1.38,4.25,0.8,6.53c-0.12,0.46-0.18,0.94-0.19,1.41c-0.04,1.58,0.04,3.18-0.11,4.75c-0.09,0.93-0.54,1.82-0.86,2.82
			c-0.47-0.12-0.84-0.21-1.41-0.35c0.74,1.34,0.84,2.57,0.22,3.78c-0.56,1.08-1.25,2.05-2.58,2.4c-0.03,0.18-0.06,0.39-0.08,0.59
			c-0.19,1.7-1.33,2.44-2.82,1.68c-1.04-0.53-2.08-0.69-3.2-0.66c-0.71,0.02-0.86-0.29-0.5-0.99c0.09-0.18,0.32-0.37,0.3-0.52
			c-0.2-1.33-0.45-2.65-0.66-3.98c-0.14-0.84-0.29-1.68-0.35-2.52C407.7,521.94,407.94,521.62,408.06,521.3z M414.01,528.4
			c-0.22-0.92-0.44-1.8-0.68-2.81c-0.58,0.28-1.02,0.49-1.52,0.73c0.18,1,0.36,1.96,0.54,2.96
			C412.92,528.97,413.38,528.73,414.01,528.4z"/>
		<path d="M428.37,441.72c0.56,0.97,1.03,1.8,1.51,2.63c0.1-0.01,0.21-0.03,0.31-0.04c0.15-0.67,0.29-1.34,0.48-2.2
			c0.75,0.82,0.75,1.66,0.81,2.45c0.04,0.52-0.1,1.05-0.06,1.57c0.35,4.16,0.65,8.34,1.13,12.49c0.31,2.73,0.63,5.48,1.85,8.05
			c0.35,0.73,0.4,1.71,0.11,2.85c-0.25-0.43-0.37-0.64-0.49-0.85c-0.07,0.05-0.2,0.11-0.21,0.16c-0.11,2.18-0.24,4.35-0.28,6.53
			c-0.03,1.61-0.17,3.16-0.62,4.73c-0.5,1.72-0.64,3.55-0.99,5.32c-0.14,0.73-0.28,1.51-0.66,2.12c-0.95,1.55-0.12,2.76,0.64,3.96
			c0.32,0.5,0.92,0.82,1.39,1.22c0.16,0.14,0.38,0.26,0.44,0.44c0.14,0.42,0.64,0.92,0.06,1.26c-0.24,0.14-0.8-0.07-1.1-0.29
			c-1.36-1-2.27-2.37-2.93-3.92c-0.34-0.8-0.29-1.57,0.08-2.32c0.82-1.64,1.2-3.37,1.3-5.2c0.05-0.94,0.24-1.92,0.59-2.79
			c0.44-1.09,0.45-2.15,0.39-3.29c-0.06-1.1-0.05-2.25,0.18-3.33c0.5-2.34,0.16-4.67,0.14-7.01c0-0.37-0.18-0.77-0.08-1.09
			c0.51-1.55-0.13-2.92-0.52-4.36c-2.25,4.25-5.69,7.46-8.79,10.95c-0.09,0.1-0.37,0.01-0.77,0.01c0.2-0.36,0.29-0.59,0.43-0.77
			c1.09-1.3,2.02-2.81,3.32-3.83c2.02-1.59,2.96-3.97,4.7-5.74c0.68-0.7,0.94-1.69,0.72-2.82c-0.24-1.24-0.03-2.55-0.19-3.81
			c-0.31-2.42-0.7-4.83-1.12-7.24c-0.23-1.33-0.91-2.49-1.69-3.59C427.98,443.27,427.77,442.57,428.37,441.72z"/>
		<path d="M459.82,544.94c-0.81,0.15-1.35,0.37-1.87,0.33c-2.22-0.21-4.47-0.3-6.63-0.81c-1.78-0.42-3.43-1.37-5.13-2.09
			c-0.24-0.1-0.45-0.29-0.7-0.35c-4.06-1.06-8.13-2.1-12.2-3.15c-0.83-0.21-1.67-0.44-2.67,0.27c0.09,0.94,0.19,2.01,0.3,3.15
			c0.55,0.06,0.96,0.08,1.37,0.14c2.57,0.4,5.09,0.94,7.53,1.88c1.02,0.4,2.19,0.41,3.26,0.68c0.65,0.17,1.24,0.52,1.87,0.76
			c0.88,0.35,1.74,0.85,2.66,0.98c1.54,0.21,3.02,0.55,4.46,1.14c1.05,0.43,2.14,0.57,3.29,0.24c0.85-0.24,1.74-0.35,2.62-0.47
			c0.15-0.02,0.34,0.18,0.72,0.4c-0.44,0.35-0.72,0.74-1.05,0.8c-2.09,0.33-4.15,0.7-6.28-0.1c-1.57-0.59-3.29-0.74-4.94-1.11
			c-0.46-0.1-1.06-0.17-1.31-0.48c-1.01-1.23-2.4-1.3-3.78-1.45c-0.91-0.1-1.76-0.22-2.52-0.84c-0.38-0.31-1-0.31-1.52-0.44
			c-1.22-0.32-2.44-0.67-3.67-0.95c-0.82-0.18-1.66-0.26-2.51-0.38c-0.36,1.58,0.07,3.14-0.48,4.54c-0.12,0-0.24,0-0.37,0.01
			c-0.1-0.38-0.28-0.77-0.29-1.15c-0.06-1.86-0.04-3.72-0.11-5.58c-0.1-2.75-0.67-5.43-1.34-8.09c-0.19-0.76-0.38-1.55-0.39-2.33
			c-0.02-1.75,0.12-3.48-0.28-5.22c-0.32-1.39-0.06-1.85,0.85-2.54c-0.03,1.19-0.1,2.39-0.1,3.59c0.01,3.16,0.8,6.19,1.47,9.24
			c0.15,0.67,0.28,1.35,0.41,1.98c4.31,0.34,8.32,1.72,12.4,2.82c2.83,0.76,5.44,2.05,8.22,2.89c1.31,0.4,2.7,0.55,4.06,0.76
			c1.31,0.2,2.63,0.33,3.94,0.5C459.27,544.53,459.39,544.66,459.82,544.94z"/>
		<path d="M454.63,621.41c-0.17-0.45-0.5-0.9-0.49-1.35c0.04-1.59,0.17-3.18,0.31-4.76c0.15-1.64,0.38-3.28,0.54-4.92
			c0.14-1.49,0.43-2.99,0.32-4.46c-0.28-3.64,0.56-7.21,0.45-10.83c-0.04-1.43,0.04-2.87-0.01-4.3c-0.02-0.82-0.47-1.3-1.33-1.55
			c-1.33-0.38-1.41-0.63-1.23-2c0.9-0.39,1.78-0.71,2.6-1.14c0.54-0.28,0.76-0.8,0.82-1.45c0.13-1.37,0.28-2.76,0.62-4.09
			c0.76-3.03,0.16-6.08,0.3-9.12c0.16-3.34,0.1-6.7,0.17-10.04c0.02-1.16,0.09-2.32,0.22-3.47c0.07-0.59,0.35-1.15,0.52-1.72
			c0.83,0.23,0.63,0.68,0.6,1.09c-0.09,1.16-0.19,2.32-0.23,3.48c-0.06,1.53-0.08,3.06-0.1,4.59c-0.07,4.04-0.11,8.07-0.2,12.11
			c-0.04,1.64-0.13,3.28-0.29,4.91c-0.1,1.1-0.28,2.21-0.58,3.27c-0.16,0.57-0.58,1.11-1.01,1.54c-0.4,0.4-0.96,0.65-1.46,0.97
			c0.06,0.09,0.08,0.19,0.15,0.23c1.5,0.98,1.96,2.28,1.61,4.06c-0.2,1.01,0.11,2.12,0.06,3.17c-0.15,2.76-0.4,5.52-0.57,8.27
			c-0.09,1.43-0.15,2.86-0.12,4.29c0.06,3.33-0.61,6.57-1.02,9.85c-0.14,1.08-0.14,2.18-0.2,3.27
			C454.93,621.34,454.78,621.38,454.63,621.41z"/>
		<path d="M440.23,623.17c-1.11,1.36-2.61,0.79-4.05,0.89c0.66,1.9,1.1,3.79,1.96,5.46c0.52,1.02,1.58,1.86,2.59,2.5
			c0.85,0.54,1.53,1.07,1.93,2c0.6,1.4,1.91,1.93,3.23,2.39c0.23,0.08,0.57,0.08,0.78-0.03c1.98-1.05,4.18-1.16,6.32-1.54
			c0.39-0.07,0.75-0.33,1.07-0.47c0.23-2.2,0.44-4.3,0.68-6.59c-1.05,0.52-2.09,1.11-3.18,1.55c-0.61,0.25-1.42,0.53-1.96,0.33
			c-1.27-0.47-2.45-1.19-3.62-1.88c-0.57-0.34-1.09-0.8-1.54-1.29c-0.26-0.28-0.39-0.73-0.44-1.12c-0.01-0.12,0.54-0.47,0.66-0.4
			c0.4,0.22,0.77,0.55,1.08,0.9c1.05,1.21,2.05,2.42,3.8,2.7c0.74,0.12,1.42,0.1,1.98-0.29c1.15-0.81,2.4-1.34,3.74-1.75
			c0.63-0.19,1.18-0.64,2.03-0.81c-0.13,0.35-0.16,0.84-0.41,1.02c-0.64,0.46-0.54,1.05-0.61,1.69c-0.19,1.66,0.31,3.37-0.42,4.99
			c-0.12,0.27-0.12,0.63-0.06,0.92c0.15,0.74-0.12,1.23-0.74,1.59c-0.29-0.12-0.6-0.38-0.84-0.32c-2.51,0.61-5.01,1.27-7.51,1.92
			c-1.22,0.31-3.46-0.65-4.28-1.89c-0.29-0.44-0.48-0.95-0.77-1.39c-0.23-0.35-0.51-0.67-0.82-0.94c-0.44-0.38-0.93-0.68-1.39-1.04
			c-2.08-1.59-3.53-3.78-5.33-5.63c-0.11-0.11-0.19-0.26-0.29-0.38c-1.36-1.6-1.37-1.62,0.07-2.93c0.24-0.22,0.68-0.19,1.01-0.32
			c0.5-0.19,0.98-0.43,1.62-0.71C437.33,623.5,438.8,623.16,440.23,623.17z M433.75,624.42c0.87,1.25,1.61,2.32,2.36,3.39
			c0.11-0.05,0.22-0.11,0.33-0.16c-0.16-1.27-0.55-2.47-1.21-3.68C434.8,624.1,434.41,624.22,433.75,624.42z"/>
		<path d="M382.02,359.64c1.18-0.16,2.37-0.3,3.55-0.49c3.41-0.54,6.82-1.07,10.22-1.68c2.55-0.46,5.06-0.15,7.56,0.29
			c1.31,0.23,2.59,0.57,3.89,0.88c0.31,0.07,0.66,0.13,0.89,0.32c1.1,0.91,2.45,0.96,3.75,1.19c2.87,0.51,5.75,1.01,8.61,1.57
			c0.54,0.11,1.03,0.48,1.53,0.75c0.14,0.07,0.23,0.25,0.37,0.31c2.61,0.97,4.84,2.91,7.77,3.12c0.31,0.02,0.61,0.19,0.9,0.3
			c1.34,0.5,2.71,0.96,4.02,1.52c1.65,0.71,3.11,1.73,4.28,3.1c0.32,0.37,0.48,0.88,0.59,1.44c-0.83-0.18-1.46-0.42-2.11-1.03
			c-1.06-0.99-2.44-1.66-3.73-2.37c-0.93-0.51-1.91-0.95-2.92-1.28c-1.1-0.37-2.26-0.57-3.38-0.88c-0.65-0.18-1.33-0.34-1.93-0.65
			c-1.22-0.63-2.39-1.35-3.58-2.04c-0.36-0.21-0.68-0.49-1.03-0.71c-0.35-0.22-0.7-0.52-1.09-0.61c-1.4-0.32-2.8-0.59-4.22-0.82
			c-2.04-0.33-4.11-0.55-6.14-0.94c-0.81-0.15-1.55-0.63-2.32-0.96c-0.19-0.08-0.36-0.23-0.55-0.27c-1.77-0.38-3.54-0.75-5.31-1.1
			c-2.57-0.5-5.2-0.3-7.68,0.24c-2.13,0.46-4.29,0.7-6.42,1.13c-1.6,0.33-3.25,0.44-4.89,0.6c-0.22,0.02-0.48-0.27-0.71-0.42
			C381.98,359.95,382,359.8,382.02,359.64z"/>
		<path d="M471.05,592.15c1.27-1.18-0.66-2.31,0.39-3.52c0.55,0,1.24,0,1.93,0c0-0.07,0-0.14,0.01-0.22
			c-0.88-0.19-1.75-0.41-2.64-0.56c-1.23-0.21-1.84-0.99-2.04-2.14c-0.26-1.51-0.36-2.96-0.03-4.55c0.4-1.93,0.31-4.02,0.09-6
			c-0.49-4.25-0.58-8.5-0.54-12.76c0-0.48-0.09-0.95-0.14-1.43c-0.08-0.9-0.07-0.94,0.74-1.85c0.67,0.72,0.5,1.6,0.49,2.41
			c-0.05,4.12-0.26,8.22,0.32,12.36c0.37,2.6,0.11,5.32-0.14,7.96c-0.14,1.5,0.15,2.86,0.53,4.22c0.27,0.95,1.25,1.05,2.06,1.21
			c0.73,0.14,1.5,0.03,2.23,0.16c0.34,0.06,0.63,0.42,0.94,0.64c-0.24,0.32-0.41,0.76-0.72,0.92c-0.54,0.29-1.16,0.4-1.91,0.64
			c0.3,0.24,0.54,0.41,0.74,0.6c0.41,0.39,0.69,0.82,0.41,1.42c-0.27,0.59-0.57,1.18-1.31,1.24c-0.52,0.05-1.06,0.03-1.58-0.01
			c-1.14-0.09-1.67,0.27-1.89,1.4c-0.12,0.63-0.2,1.27-0.21,1.91c-0.03,2.39,0.04,4.77,0.42,7.15c0.13,0.82,0.02,1.68-0.01,2.52
			c-0.05,1.32,0.18,2.59,0.42,3.89c0.26,1.39,0.18,2.84,0.11,4.33c-0.1-0.23-0.25-0.45-0.29-0.69c-0.34-2.04-0.69-4.08-0.98-6.13
			c-0.22-1.57-0.37-3.16-0.54-4.74c-0.31-2.86-0.57-5.72,0.01-8.58c0.07-0.36,0.12-0.74,0.28-1.07c0.44-0.95,0.85-1.12,1.91-0.9
			C470.44,592.05,470.75,592.1,471.05,592.15z"/>
		<path d="M497.53,510.74c-0.71,0.24-1.42,0.65-2.15,0.7c-3,0.22-5.86,1.06-8.77,1.7c-3.58,0.78-7.22,1.28-10.79,2.08
			c-1.85,0.42-3.64,1.16-5.38,1.93c-0.9,0.39-1.8,0.53-2.62,0.25c-0.79-0.27-1.54-0.25-2.33-0.31c-0.83-0.07-1.67-0.26-2.48-0.47
			c-2.13-0.55-4.22-1.29-6.44-1.42c-0.41-0.02-0.82-0.2-1.23-0.31c-1.2-0.32-2.35-0.62-3.66-0.45c-1.41,0.19-2.88-0.14-4.31-0.03
			c-1.68,0.12-3.23-0.1-4.84-0.64c-1.69-0.56-3.51-0.71-5.24-1.15c-1.62-0.41-3.2-0.98-4.91-1.51c0.22-0.47,0.35-0.73,0.45-0.95
			c0.21,0.01,0.32-0.01,0.41,0.03c1.21,0.51,2.38,1.16,3.63,1.51c2.55,0.71,5.13,1.41,7.74,1.83c1.82,0.29,3.71,0.12,5.57,0.13
			c1.28,0.01,2.56-0.03,3.84-0.04c0.37,0,0.75,0.01,1.12,0.09c1.49,0.34,2.97,0.71,4.45,1.06c1.76,0.41,3.51,0.84,5.28,1.21
			c1.14,0.23,2.31,0.52,3.45,0.49c0.86-0.02,1.72-0.48,2.55-0.82c2.61-1.07,5.29-1.83,8.1-2.2c1.51-0.2,2.97-0.78,4.48-1.08
			c2.18-0.45,4.38-0.79,6.57-1.2c2.04-0.38,4.06-0.81,6.11-1.16c0.42-0.07,0.89,0.11,1.33,0.18
			C497.49,510.37,497.51,510.55,497.53,510.74z"/>
		<path d="M408.53,472.2c0.88-0.69,1.76-1.37,2.78-2.17c-0.72-0.09-1.2,0.15-1.74,0.31c-1.05,0.32-2.16,0.53-3.25,0.61
			c-0.82,0.06-1.14-0.39-1.09-1.22c0.06-1.05,0.39-2.05,1.29-2.63c0.58-0.38,0.69-0.87,0.86-1.43c0.5-1.63,1.01-3.25,1.56-4.86
			c0.13-0.39,0.38-0.77,0.67-1.08c1.82-1.98,2.73-4.41,3.47-6.94c0.64-2.2,1.35-4.38,1.99-6.58c0.22-0.76,0.4-1.54,0.5-2.33
			c0.4-3.01,1.47-5.77,2.92-8.41c1.31-2.38,2.61-4.76,3.97-7.11c0.35-0.61,0.72-1.34,1.9-1.26c-0.23,0.57-0.38,1.1-0.65,1.56
			c-2.13,3.63-4.44,7.16-5.96,11.1c-0.5,1.31-0.74,2.74-0.98,4.13c-0.37,2.15-0.77,4.28-1.81,6.24c-0.12,0.23-0.21,0.49-0.25,0.75
			c-0.33,2.37-1.43,4.46-2.34,6.62c-0.16,0.39-0.36,0.78-0.62,1.1c-1.88,2.31-3.05,4.94-3.71,7.83c-0.08,0.34-0.25,0.75-0.51,0.93
			c-0.85,0.58-0.99,1.44-1.21,2.38c0.97,0.42,1.83,0.1,2.69-0.05c0.63-0.11,1.28-0.16,1.86-0.4c1.07-0.43,1.94-0.14,2.9,0.61
			c-0.2,0.26-0.39,0.75-0.61,0.76c-1.37,0.07-2.34,0.95-3.48,1.5c-0.31,0.15-0.65,0.22-0.98,0.33
			C408.65,472.41,408.59,472.3,408.53,472.2z"/>
		<path d="M481.54,301.89c-0.13,2.79-0.25,5.39-0.37,7.99c-0.09,1.97-0.16,3.93-0.27,5.9c-0.04,0.69-0.13,1.37-0.22,2.06
			c-0.08,0.64,0.05,1.15,0.7,1.45c1.01,0.46,1.98,1,3,1.43c2.64,1.13,5.12,2.52,7.41,4.28c1.34,1.03,2.85,1.86,4.27,2.79
			c0.2,0.13,0.37,0.32,0.39,0.73c-0.38-0.22-0.73-0.53-1.14-0.63c-1.97-0.47-3.48-1.73-4.99-2.94c-1.85-1.49-3.93-2.49-6.11-3.36
			c-1.71-0.69-3.34-1.56-4.96-2.33c0.14-0.99,0.3-1.8,0.35-2.61c0.17-2.76,0.33-5.51,0.45-8.27c0.07-1.54,0.06-3.09,0.1-4.63
			c0.02-0.71-0.2-1.25-1.1-1.57c-0.19,0.36-0.52,0.73-0.56,1.13c-0.1,1.16-0.06,2.34-0.12,3.51c-0.12,2.44-0.29,4.88-0.4,7.32
			c-0.05,1.25-0.01,2.51-0.01,3.8c-0.84-0.47-1.04-1.31-1.03-2.18c0.02-1.59,0.13-3.19,0.18-4.78c0.06-2.01,0.09-4.03,0.13-6.04
			c0.02-0.8-0.02-1.59,0.04-2.39c0.07-0.93,1.31-1.76,2.24-1.49C480.2,301.27,480.82,301.59,481.54,301.89z"/>
		<path d="M521.42,380.87c-0.23,0.55-0.66,0.46-1.06,0.27c-0.58-0.27-1.17-0.54-1.69-0.9c-1.75-1.2-3.8-1.82-5.52-3.13
			c-1.28-0.97-2.92-1.52-4.47-2.05c-3.1-1.08-6.21-2.18-9.39-2.96c-2.54-0.63-5.01-1.58-7.68-1.79c-1.71-0.14-3.41-0.77-5.07-1.32
			c-2.04-0.67-4.07-1.25-6.16-0.33c-0.68,0.3-1.07,0.09-1.22-0.49c-0.14-0.56,0.26-0.81,0.81-0.95c2.16-0.56,4.26-0.16,6.27,0.56
			c2.37,0.86,4.81,1.27,7.28,1.62c1.14,0.16,2.29,0.32,3.4,0.63c1.98,0.56,3.95,1.19,5.89,1.86c3.21,1.11,6.4,2.27,9.6,3.43
			c0.44,0.16,0.84,0.43,1.25,0.66c2.63,1.48,5.34,2.83,7.72,4.72C521.41,380.73,521.41,380.8,521.42,380.87z"/>
		<path d="M447.91,408.72c0.98-0.67,1.95-0.82,3.16-0.43c1.4,0.46,2.91,0.69,4.35-0.11c0.22-0.12,0.6,0.05,1.26,0.14
			c-1.55,1.1-2.8,1.56-4.34,1.21c-1.01-0.23-2.08-0.21-3.37-0.32c0.12,1.24,0.18,2.27,0.32,3.29c0.09,0.7,0.55,0.91,1.26,0.88
			c2.63-0.1,5.27-0.15,7.9-0.18c0.49-0.01,1.09-0.15,1.45,0.56c-0.26,0.1-0.48,0.26-0.71,0.27c-2.66,0.13-5.29,0.51-7.96,0.55
			c-2.47,0.04-5.03,0.51-7.26,1.86c-0.14,0.08-0.29,0.15-0.44,0.19c-3.43,0.76-6.3,2.79-9.47,4.14c-2.9,1.23-5.67,2.68-8.25,4.49
			c-0.2,0.14-0.57,0.06-0.85,0.08c-0.21-0.94,0.58-1.14,0.98-1.36c4.2-2.28,8.37-4.62,12.68-6.68c3.06-1.46,6.3-2.53,9.71-3.87
			c-0.11-1.43-0.24-3.1-0.38-4.77L447.91,408.72z"/>
		<path d="M526.24,491.06c-0.56-0.96-0.65-1.63-0.45-2.39c0.51-1.9,0.96-3.81,1.44-5.72c0.93-3.73,0.42-7.26-1.37-10.64
			c-0.37-0.69-0.58-1.47-0.86-2.21c-0.15-0.39-0.3-0.79-0.48-1.17c-1.14-2.38-2.19-4.82-3.47-7.13c-1.13-2.03-1.65-4.22-2.29-6.41
			c-0.35-1.2-1.13-2.28-1.73-3.41c-0.51-0.96-0.5-1.03,0.65-1.67c1.1,2.32,2.17,4.64,2.86,7.13c0.34,1.22,0.86,2.4,1.42,3.54
			c1.19,2.43,2.49,4.8,3.69,7.22c0.49,0.99,0.83,2.05,1.23,3.08c0.27,0.69,0.41,1.44,0.79,2.05c1.16,1.86,1.06,4,1.32,6.03
			c0.15,1.13-0.45,2.36-0.76,3.53c-0.46,1.75-0.97,3.48-1.42,5.22C526.59,488.98,526.47,489.86,526.24,491.06z"/>
		<path d="M464.4,325.17c-0.32,0.17-0.58,0.32-0.85,0.44c-2.87,1.31-5.5,2.98-7.88,5.07c-2.07,1.81-4.31,3.44-6.32,5.31
			c-1.06,0.99-1.86,2.29-2.68,3.51c-1.23,1.86-2.42,3.76-3.52,5.7c-0.78,1.37-1.37,2.85-2.04,4.29c-0.38,0.82-0.74,1.65-1.11,2.47
			c-0.59,1.31-1.65,2.17-2.81,2.93c-0.27,0.18-0.66,0.17-0.99,0.24c-0.09-0.12-0.18-0.24-0.27-0.36c0.35-0.23,0.74-0.42,1.03-0.71
			c0.57-0.56,1.22-1.1,1.58-1.78c0.98-1.88,1.91-3.79,2.71-5.75c0.57-1.39,1.16-2.71,2.17-3.87c0.76-0.87,1.46-1.88,1.85-2.96
			c0.8-2.22,2.43-3.75,4.07-5.24c1.92-1.74,4.06-3.24,6.1-4.85c0.25-0.2,0.51-0.39,0.73-0.62c1.91-2.06,4.49-2.98,6.95-4.11
			C463.61,324.65,463.62,324.67,464.4,325.17z"/>
		<path d="M525.33,360.27c-0.42-2.04-0.78-3.93-1.22-5.79c-0.08-0.35-0.47-0.68-0.78-0.93c-2.71-2.18-4.94-4.74-6.71-7.76
			c-0.53-0.91-1.54-1.61-2.47-2.19c-1.68-1.06-2.92-2.54-4.29-3.92c-1.59-1.6-2.83-3.4-4-5.32c-0.51-0.84-1.78-1.23-2.73-1.79
			c-0.77-0.45-1.63-0.78-2.35-1.28c-1.15-0.81-2.23-1.72-3.38-2.62c0.73-0.58,1.39-0.02,1.98,0.25c0.45,0.21,0.82,0.65,1.16,1.04
			c0.63,0.73,1.37,1.26,2.26,1.66c1.99,0.9,3.69,2.04,4.91,4.04c1.7,2.78,4.08,5.05,6.79,6.9c1.46,1,2.75,2.12,3.7,3.65
			c0.55,0.88,1.38,1.58,2.05,2.4c0.6,0.74,1.14,1.52,1.72,2.27c0.19,0.25,0.37,0.57,0.62,0.68c1.97,0.81,2.53,2.63,3.13,4.39
			c0.29,0.85,0.43,1.76,0.53,2.65C526.34,359.28,526.27,359.99,525.33,360.27z"/>
		<path d="M536.45,374.68c0.79-0.91,1.89-1.06,2.99-1.27c3.91-0.77,7.85-0.67,11.79-0.36c2.81,0.22,5.63,0.34,8.44,0.63
			c2.74,0.29,5.48,0.68,8.2,1.15c1.18,0.2,2.33,0.67,3.47,1.09c0.89,0.32,0.88,0.38,0.28,1.69c-3.19-1.98-6.85-2.09-10.42-2.47
			c-4.61-0.49-9.24-0.94-13.87-1.05c-3.07-0.07-6.15,0.51-9.22,0.78c-0.55,0.05-1.16,0.4-1.61-0.25L536.45,374.68z"/>
		<path d="M510.32,433.83c-0.86,0.29-1.11,0.09-1.38-0.44c-0.68-1.32-1.35-2.69-2.25-3.85c-2.41-3.12-4.75-6.34-8.38-8.24
			c-0.55-0.29-0.98-0.81-1.48-1.21c-1.47-1.19-3.03-2.16-5.05-1.95c-0.1,0.01-0.21-0.03-0.31-0.05c-2.49-0.49-4.98-0.99-7.47-1.47
			c-1.82-0.35-3.66-0.64-5.48-0.98c-0.3-0.05-0.58-0.16-0.92-0.26c0.18-0.81,0.66-1.02,1.3-0.87c0.46,0.11,0.9,0.37,1.36,0.45
			c2.86,0.49,5.72,0.95,8.58,1.41c0.05,0.01,0.11-0.03,0.16-0.02c3.25,0.94,6.93,0.79,9.35,3.82c0.38,0.48,0.97,0.91,1.55,1.08
			c1.91,0.55,3.12,2.04,4.41,3.34c1.25,1.26,2.3,2.75,3.27,4.25C508.57,430.39,509.36,432.07,510.32,433.83z"/>
		<path d="M470.62,633.19c0.17,0.29,0.32,0.42,0.31,0.54c-0.07,1.6,0.04,1.76,1.54,1.83c1.65,0.07,3.29-0.03,4.91-0.44
			c0.82-0.21,1.67-0.41,2.44,0.12c0.42-1,0.82-2.03,1.31-3.02c0.24-0.48,0.39-1.15,1.18-1.14c0.15,0,0.35-0.23,0.44-0.4
			c1.17-2.45,2.32-4.9,3.39-7.19c-0.37-0.4-0.62-0.72-0.91-0.98c-0.29-0.26-0.61-0.5-0.94-0.7c-0.7-0.42-1.21-1.21-1.02-1.63
			c0.24-0.53,0.85-0.55,1.84-0.22c0.62,0.21,0.97,0.6,1.22,1.15c0.25,0.56,0.55,1.05,1.26,0.99c0.58,1.49-0.57,2.39-1.1,3.46
			c-0.8,1.61-1.75,3.14-2.6,4.73c-0.22,0.41-0.39,0.91-0.41,1.37c-0.04,1.32-0.92,2.21-1.77,2.91c-0.59,0.49-0.91,0.96-1.03,1.63
			c-0.09,0.5-0.11,0.98-0.77,1.02c-0.78,0.05-0.8-0.52-0.88-1.06c-0.02-0.15-0.14-0.28-0.28-0.54c-0.53,0.1-1.11,0.12-1.62,0.32
			c-1.57,0.63-3.22,0.62-4.87,0.75c-0.97,0.07-1.64-0.27-2.12-1.07C469.66,634.82,469.72,634.5,470.62,633.19z"/>
		<path d="M447.95,408.66c-1.75,0.64-3.43,0.3-5.06-0.41c-1.07-0.47-2.08-1.06-3.14-1.54c-1.41-0.63-1.87-1.38-1.45-2.89
			c0.6-2.19,1.77-4.04,3.5-5.56c0.67-0.59,1.24-1.3,1.84-1.97c0.21-0.24,0.36-0.53,0.57-0.76c1-1.08,1.16-1.61,1.64-2.95
			c0.99-2.78,1.3-5.68,1.78-8.55c0.14-0.86,0.04-1.78-0.04-2.66c-0.05-0.63-0.12-0.62,0.69-1.33c0.19,0.54,0.55,1.04,0.49,1.48
			c-0.41,2.95-0.33,5.96-1.23,8.84c-0.29,0.91-0.81,1.84-0.76,2.73c0.09,1.59-0.23,2.68-1.94,3.01c-0.12,0.02-0.29,0.2-0.31,0.33
			c-0.27,1.48-1.49,2.15-2.51,2.98c-1.38,1.12-2.1,2.68-2.71,4.25c-0.46,1.19,0.03,1.82,1.3,2.26c0.89,0.31,1.74,0.78,2.63,1.08
			c0.89,0.3,1.81,0.54,2.73,0.73c0.76,0.15,1.62,0.02,1.94,0.99C447.91,408.72,447.95,408.66,447.95,408.66z"/>
		<path d="M513.79,515.74c-0.09-0.48-0.18-0.69-0.15-0.88c0.34-2.31,0.22-4.62,0.14-6.95c-0.04-1.04,0.23-2.07,0.98-2.96
			c0.76-0.9,1.05-1.98,0.9-3.25c-0.21-1.79-0.13-3.61-0.27-5.41c-0.21-2.65-0.44-5.31-0.78-7.94c-0.12-0.93-0.62-1.81-0.91-2.72
			c-0.31-1-0.04-1.45,1.12-1.9c0.42,0.65,0.71,1.16,0.33,2.11c-0.32,0.79,0.02,1.86,0.15,2.79c0.12,0.84,0.45,1.64,0.56,2.48
			c0.42,3.37,0.99,6.73,0.47,10.28c0.37-0.04,0.64-0.07,0.97-0.1c0.01,0.12,0.07,0.28,0.02,0.4c-0.57,1.32-1.05,2.68-1.75,3.92
			c-1.06,1.89-0.91,3.81-0.54,5.9c1.02-1.42,1.97-2.72,3.11-4.31c0.14,0.56,0.33,0.88,0.23,1.03c-0.36,0.58-0.89,1.06-1.21,1.65
			c-0.78,1.44-1.49,2.92-2.2,4.39C514.72,514.77,514.6,515.35,513.79,515.74z"/>
		<path d="M430.29,524.18c0.25-1.15,0.77-1.58,1.48-1.63c0.84-0.06,1.74-0.09,2.54,0.12c3.18,0.87,6.37,1.61,9.68,1.75
			c0.47,0.02,0.94,0.16,1.39,0.32c2.57,0.91,5.25,1.15,7.93,1.49c1.7,0.22,3.35,0.86,5.02,1.29c0.39,0.1,0.8,0.17,1.21,0.21
			c2.19,0.21,4.38,0.42,6.57,0.62c0.01,0.13,0.02,0.25,0.03,0.38c-0.26,0.1-0.52,0.29-0.78,0.28c-1.14-0.04-2.29-0.18-3.43-0.2
			c-0.98-0.02-1.96,0.07-3.05,0.11c-0.45-0.18-1.04-0.52-1.66-0.64c-1.86-0.36-3.77-0.51-5.6-0.98c-2.04-0.52-4.17-0.6-6.15-1.51
			c-1.05-0.48-2.37-0.38-3.55-0.59c-2.29-0.42-4.6-0.81-6.86-1.35C433.54,523.49,432.07,523.27,430.29,524.18z"/>
		<path d="M479.98,625.53c-0.05-0.43-0.25-0.91-0.13-1.29c0.55-1.83,1.29-3.6,1.75-5.44c0.67-2.65,1.87-5.17,2.03-7.96
			c0.04-0.68,0.35-1.34,0.42-2.02c0.26-2.31,0.45-4.63,0.7-6.93c0.14-1.25,0.34-2.49,0.56-3.73c0.15-0.88,0.09-1.67-0.44-2.43
			c-0.53-0.76-0.46-1.59-0.21-2.42c1.35,0.11,1.69,0.35,1.73,1.42c0.05,1.22,0.07,2.46-0.05,3.68c-0.19,1.96-0.57,3.9-0.75,5.85
			c-0.24,2.59-0.57,5.16-1.08,7.71c-0.83,4.14-2.02,8.16-3.52,12.09c-0.18,0.48-0.39,0.94-0.58,1.42
			C480.27,625.49,480.13,625.51,479.98,625.53z"/>
		<path d="M468.99,367.74c-1.97-0.2-3.5-0.46-5.03-0.49c-1.37-0.02-2.75,0.19-4.12,0.33c-1.64,0.18-3.28,0.58-4.92,0.55
			c-2.77-0.07-5.37,0.6-7.95,1.38c-1.56,0.47-3.07,1.16-4.54,1.87c-0.64,0.3-1.14,0.89-1.74,1.38c-0.24-1.35-0.13-1.63,0.75-2.19
			c2.05-1.3,4.3-2.06,6.64-2.68c2.39-0.64,4.83-0.69,7.25-0.93c2.01-0.2,4-0.65,6-0.88c2.36-0.27,4.67-0.01,6.89,0.91
			C468.45,367.07,468.6,367.35,468.99,367.74z"/>
		<path d="M496.14,551.01c0.39,0.72,0.15,1.14-0.53,1.36c-2.68,0.85-5.34,1.76-8.05,2.48c-1,0.27-2.11,0.14-3.17,0.11
			c-2.78-0.08-5.57-0.12-8.35-0.34c-2.05-0.16-4.07-0.61-6.11-0.82c-1.06-0.11-2.14,0.02-3.22,0.04c-0.01-1.38,0.22-1.61,1.66-1.42
			c1.63,0.21,3.26,0.39,4.88,0.7c3.36,0.65,6.77,0.43,10.16,0.66c1.6,0.11,3.18,0.07,4.74-0.28c0.97-0.22,1.91-0.59,2.87-0.89
			C492.67,552.1,494.32,551.58,496.14,551.01z"/>
		<path d="M460.33,541.78c-0.91-0.13-1.82-0.26-2.73-0.41c-0.21-0.03-0.42-0.17-0.62-0.16c-2.28,0.18-4.43-0.52-6.56-1.14
			c-3.55-1.02-7.23-1.43-10.76-2.61c-2.38-0.8-5-0.87-7.5-1.27c-0.58-0.1-1.55,0.11-1.48-0.76c0.07-0.87,0.9-0.58,1.54-0.47
			c4.25,0.72,8.47,1.58,12.58,2.9c1.2,0.39,2.49,0.39,3.73,0.64c2.74,0.55,5.38,1.71,8.28,1.47c0.91-0.08,1.88,0.23,2.79,0.48
			c0.38,0.11,0.66,0.55,0.98,0.84C460.5,541.45,460.41,541.62,460.33,541.78z"/>
		<path d="M480.45,552.52c-2.1-0.14-4.2-0.27-6.3-0.41c-0.96-0.88-2.19-0.96-3.39-1.08c-0.95-0.09-1.9-0.1-2.85-0.23
			c-0.29-0.04-0.55-0.34-0.83-0.52c0.25-0.3,0.46-0.66,0.77-0.87c0.16-0.11,0.5,0.03,0.76,0.07c1.31,0.25,2.61,0.5,3.92,0.76
			c0.26,0.05,0.55,0.05,0.78,0.15c3.2,1.49,6.53,1.1,9.86,0.65c1.37-0.18,2.75-0.27,4.11-0.51c1.62-0.29,3.23-0.67,4.83-1.05
			c0.87-0.21,1.72-0.55,2.6-0.74c0.27-0.06,0.61,0.2,0.92,0.32c-0.16,0.25-0.28,0.64-0.5,0.72c-1.36,0.44-2.73,0.92-4.13,1.18
			c-2.81,0.54-5.65,0.97-8.48,1.39c-0.67,0.1-1.38,0.02-2.07,0.02C480.45,552.42,480.45,552.47,480.45,552.52z"/>
		<path d="M465.89,376.03c-1.76,0.92-3.59,1.69-5.66,1.3c-1.33-0.25-2.58-0.32-3.91,0.1c-0.73,0.23-1.58,0.08-2.38,0.12
			c-1.28,0.06-1.53,0.27-1.96,1.79c0.44,0.07,0.87,0.14,1.42,0.24c-0.12,0.24-0.24,0.48-0.39,0.78c1.1,0.74,2.37,0.49,3.61,0.49
			c1.9-0.01,3.79,0,5.8,0c-0.31,1.01-1.18,1.02-1.89,1.05c-1.15,0.06-2.33-0.17-3.47-0.03c-1.85,0.23-3.57-0.33-5.35-0.56
			c-0.17-0.02-0.32-0.25-0.59-0.48c0.25-0.19,0.45-0.3,0.61-0.47c0.39-0.42,0.23-0.77-0.23-0.98c-0.23-0.11-0.53-0.08-0.77-0.19
			c-0.48-0.2-0.7-0.64-0.33-1.02c0.82-0.84,1.48-1.9,3.03-1.66c1.02,0.16,2.12-0.07,3.16-0.26c1.37-0.25,2.71-0.4,4.08,0.04
			c1.11,0.36,2.21,0,3.29-0.3c0.6-0.16,1.21-0.28,1.82-0.42C465.81,375.73,465.85,375.88,465.89,376.03z"/>
		<path d="M405.23,500.04c0.11,0.99,0.32,1.98,0.31,2.97c-0.02,1.85,0.63,3.63,0.23,5.55c-0.2,0.94-0.55,1.72-1.05,2.41
			c-0.95,1.3-1.12,2.78-0.55,4.07c0.83,1.88,0.72,3.85,1.07,5.77c0.27,1.5,0.55,2.99,0.84,4.49c0.08,0.42,0.15,0.86,0.73,0.89
			c0.1,0,0.27,0.05,0.28,0.11c0.13,0.43,0.29,0.86,0.33,1.3c0.03,0.42-0.63,0.7-0.17,1.28c0.33,0.42,0.21,0.52-0.53,1.14
			c-0.48-1.43-1-2.79-1.37-4.19c-0.52-1.94-0.91-3.91-1.37-5.87c-0.05-0.21-0.23-0.45-0.17-0.6c0.73-1.88-0.38-3.54-0.75-5.24
			c-0.32-1.49,0.01-2.65,0.84-3.71c0.92-1.19,1.1-2.52,1.07-3.91c-0.04-1.85-0.18-3.7-0.25-5.55c-0.01-0.28,0.1-0.57,0.16-0.86
			C404.98,500.06,405.1,500.05,405.23,500.04z"/>
		<path d="M470.97,529.3c1.17-0.32,2.18-0.65,3.2-0.87c1.04-0.22,2.12-0.24,3.14-0.53c1.48-0.42,2.89-1.07,4.37-1.5
			c3.46-1,6.82-2.37,10.48-2.63c1.24-0.09,2.46-0.62,3.67-1.01c0.51-0.16,0.96-0.3,1.18,0.32c0.21,0.57-0.26,0.78-0.66,0.89
			c-1.12,0.32-2.24,0.77-3.38,0.82c-2.7,0.12-5.19,1.12-7.79,1.62c-1.78,0.34-3.43,1.04-5.11,1.7c-1.8,0.72-3.77,0.99-5.67,1.46
			c-0.67,0.17-1.33,0.33-1.99,0.53C471.83,530.31,471.38,530.26,470.97,529.3z"/>
		<path d="M457.27,552.06c-0.87,0.63-1.67,0.39-2.42,0.28c-1.78-0.25-3.56-0.53-5.33-0.86c-0.77-0.14-1.65-0.26-2.25-0.69
			c-1.36-0.98-2.98-1.1-4.49-1.52c-1.99-0.55-4.05-0.83-6.09-1.22c-0.36-0.07-0.77-0.22-1.1-0.13c-1.26,0.32-2.27-0.27-3.39-0.76
			c0.14-0.35,0.25-0.64,0.4-1.03c1.81,0.41,3.61,0.75,5.37,1.26c0.77,0.22,1.48,0.42,2.3,0.49c1.79,0.15,3.56,0.48,5.32,0.83
			c0.54,0.11,1.05,0.49,1.53,0.81c0.94,0.64,1.9,0.96,3.1,1.02c2.1,0.11,4.19,0.59,6.28,0.95
			C456.73,551.52,456.92,551.79,457.27,552.06z"/>
		<path d="M483.96,565.4c1.13-0.35,2.09-0.65,3.15-0.98c0.16,0.55,0.31,1.08,0.56,1.93c-0.79-0.26-1.34-0.43-2.05-0.66
			c-0.25,0.09-0.7,0.26-1.15,0.39c-1.41,0.42-1.88,0-1.63-1.46c0.03-0.15,0.08-0.3,0.13-0.48c-1.55-0.66-3.03-0.65-4.56,0.09
			c-1.17,0.57-2.43,0.98-3.68,1.37c-0.71,0.22-1.48,0.26-2.22,0.38c-0.03-0.12-0.07-0.23-0.1-0.35c0.33-0.19,0.65-0.44,1-0.56
			c1.8-0.6,3.6-1.24,5.43-1.71c1-0.26,2.08-0.22,3.13-0.29c0.58-0.04,1.17,0.04,1.74-0.06c0.52-0.08,0.99-0.28,1.15-0.94
			c0.07-0.3,0.4-0.6,0.69-0.77c0.54-0.33,1.11,0.01,1.06,0.63c-0.04,0.53-0.27,0.95-0.78,1.3
			C485.12,563.73,484.24,564.13,483.96,565.4z"/>
		<path d="M410.82,513.21c-1.24,1.27-2.48,2.55-3.83,3.94c-0.31-0.95-0.55-1.67-0.79-2.39c0.09-0.06,0.17-0.11,0.26-0.17
			c0.27,0.17,0.54,0.33,0.81,0.5c1.81-1.81,2.52-4.44,4.32-6.26c0.13,0.04,0.26,0.09,0.39,0.13c-0.1,0.88-0.19,1.77-0.29,2.69
			c1.44-0.5,2.9-1.55,3.77-2.73c0.6,1.35-0.91,1.95-0.8,3.25c-0.47-0.36-0.73-0.56-1.05-0.82c-0.42,0.34-0.85,0.68-1.44,1.15
			c0.66,0.45,1.19,0.81,1.72,1.17c-0.03,0.08-0.05,0.17-0.08,0.25c-0.48-0.07-0.96-0.15-1.47-0.22c-0.22,0.23-0.46,0.49-0.68,0.72
			c-0.32-0.42-0.61-0.79-0.9-1.16c0.02-0.41,0.04-0.83,0.06-1.25c-0.73,0.46-1.48,0.77-1.33,1.74
			C409.97,513.56,410.39,513.39,410.82,513.21z"/>
		<path d="M404.84,493.19c-0.05-0.77-0.09-1.55-0.14-2.32c-0.18-2.81-0.43-5.61-0.53-8.42c-0.06-1.69,0.08-3.39,0.16-5.08
			c0.03-0.68,0.36-1.09,1.19-0.94c0.02,0.32,0.12,0.65,0.06,0.94c-0.77,3.49-0.22,6.96,0,10.45c0.1,1.53,0.01,3.08-0.03,4.61
			c-0.01,0.28-0.2,0.55-0.3,0.83C405.12,493.23,404.98,493.21,404.84,493.19z"/>
		<path d="M469.7,628.17c0-0.65-0.02-1.49,0.01-2.33c0.01-0.43,0.05-0.43,1.03-0.76c0.91,1.95,1.93,4.03,4.45,3.91
			c2.08-0.1,3.9-1.11,5.22-2.98c0.36,0.19,0.74,0.41,0.35,0.92c-1.17,1.52-2.71,2.45-4.55,2.98c-1.77,0.51-3.2-0.11-4.62-1.08
			C471.11,628.5,470.47,628.43,469.7,628.17z"/>
		<path d="M466.76,397.71c-0.69,0.91-0.99,1.33-1.99,1.16c-1.37-0.23-2.84-0.3-4.22,0.31c-0.87,0.39-1.79,0.69-2.71,0.91
			c-0.55,0.13-1.15,0.05-1.72,0.04c-0.15,0-0.3-0.13-0.45-0.14c-1.2-0.04-2.41,0.04-3.58-0.12c-1.16-0.16-2.28-0.56-3.55-0.89
			c0.05-0.55,0.2-1.08,1.13-0.72c0.5,0.19,1,0.37,1.5,0.54c0.85,0.28,1.66,0.52,2.62,0.35c0.8-0.14,1.66,0.14,2.5,0.16
			c0.88,0.01,1.98,0.24,2.61-0.19c1.32-0.89,2.77-0.96,4.2-1.28c0.55-0.12,1.09-0.29,1.65-0.31
			C465.29,397.51,465.85,397.63,466.76,397.71z"/>
		<path d="M536.5,374.62c-0.4,0.24-0.76,0.58-1.19,0.71c-2.19,0.63-4.36,1.39-6.67,1.53c-0.57,0.03-1.37-0.16-1.33,0.87
			c-1.79,0.95-3.58,1.91-5.57,2.96c0-0.46-0.08-0.76,0.01-0.83c0.98-0.78,1.65-2.01,3.2-1.97c0.81,0.02,1.78,0.1,2.2-1.01
			c0.1-0.27,0.57-0.47,0.9-0.57c2.59-0.75,5.2-1.46,7.8-2.19c0.49-0.14,0.72,0.02,0.6,0.55C536.45,374.68,536.5,374.62,536.5,374.62
			z"/>
		<path d="M468.64,631.07c-1.23-1.84-1.24-2.25-0.06-3.61c0.33,0.57,0.82,1.06,0.9,1.61c0.21,1.3,0.23,2.63,0.31,3.95
			c0.01,0.15,0,0.38-0.1,0.46c-1.6,1.19-0.77,2.8-0.76,4.27c0,0.3,0.06,0.59,0.1,0.9c-0.71,0.11-1.02-0.23-1.09-0.75
			C467.65,635.57,467.38,633.24,468.64,631.07z"/>
		<path d="M521.69,378.03c-1.61-0.57-2.65-1.75-3.7-2.93c-0.17-0.19-0.39-0.46-0.38-0.69c0.07-1.34-0.65-2.28-1.4-3.27
			c-0.43-0.56-0.54-1.36-0.81-2.04c-0.17-0.44-0.32-0.89-0.54-1.3c-0.35-0.68-0.83-1.08-1.67-0.75c-0.79,0.31-1.05-0.11-1.08-0.82
			c1.94-0.72,3.56,0.16,3.96,2.03c0.14,0.67,0.43,1.31,0.68,1.95c0.58,1.46,1.57,2.71,1.96,4.3c0.17,0.68,1.12,1.19,1.76,1.73
			C521.01,376.7,521.87,376.89,521.69,378.03z"/>
		<path d="M482.24,471.94c-1.85-1.2-2.29-3.27-2.98-5.11c-0.81-2.17-1.96-4.12-3.11-6.09c-0.53-0.91-0.88-1.93-1.26-2.92
			c-0.2-0.52-0.22-1.06,0.53-1.37c0.52,2.84,2.3,5.07,3.47,7.58c0.67,1.44,1.35,2.88,1.82,4.39c0.33,1.03,0.63,2.02,1.35,2.85
			c0.14,0.16,0.09,0.48,0.12,0.72C482.2,471.98,482.24,471.94,482.24,471.94z"/>
		<path d="M439.27,561.95c0.28-0.11,0.76-0.23,1.19-0.47c0.65-0.36,1.24-0.81,1.89-1.19c0.51-0.3,1-0.52,1.61-0.06
			c0.22,0.16,0.8,0.05,1.1-0.14c1.09-0.68,2.2-1.23,3.52-1.25c0.07,2.24,0.03,2.37-0.87,2.86c-0.05-0.27-0.13-0.5-0.14-0.74
			c-0.02-0.25,0.03-0.51,0.05-0.83c-1.56-0.42-2.24,1.11-3.6,1.32c-0.7-0.88-1.58-0.83-2.51,0.04c-0.26,0.25-0.62,0.4-0.93,0.6
			c-1.34,0.87-2.47,0.53-2.75-0.97c-0.15-0.81,0.13-1.7,0.24-2.85C439.3,559.46,438.11,560.79,439.27,561.95z"/>
		<path d="M514.31,446.83c0.47-2.4-0.79-4.31-1.28-6.4c-0.28-1.19-0.65-2.36-0.89-3.56c-0.08-0.42,0.1-0.91,0.24-1.35
			c0.03-0.1,0.38-0.21,0.52-0.15c0.14,0.05,0.3,0.42,0.26,0.47c-0.64,0.66,0,1.09,0.2,1.64c0.34,0.95,0.59,1.95,0.72,2.94
			c0.16,1.25,0.51,2.42,1.02,3.57C515.68,445.32,515.51,445.94,514.31,446.83z"/>
		<path d="M474.55,600.06c0.68-0.59,1.21-1.44,1.69-1.41c1.1,0.07,2.28-0.86,3.31,0.16c-0.4,0.47-0.8,0.93-1.27,1.48
			c0.42,0.21,0.68,0.35,0.98,0.5c-0.27,0.51-0.53,1.02-0.8,1.54c-0.87-0.65-0.87-0.65-0.35-2.89c-1.73-0.15-1.85-0.04-2.28,2.06
			C475.03,601.37,475.05,600.59,474.55,600.06z"/>
		<path d="M409.9,475.59c0.24-0.58,0.42-1.04,0.63-1.55c-1.58-0.54-3.26,0.81-4.82-0.69c0.78-0.46,1.43-0.85,2.21-1.31
			c0.22,0.75,0.55,1.12,1.25,1.03c0.52-0.06,1.08,0,1.58,0.16c0.35,0.11,0.78,0.39,0.92,0.71
			C411.99,474.64,410.99,475.61,409.9,475.59z"/>
		<path d="M455.08,463.38c-0.49-2.56,2.04-6.89,3.95-7.09c-0.77,1.18-1.57,2.28-2.23,3.45
			C456.15,460.91,455.65,462.16,455.08,463.38z"/>
		<path d="M451.36,466.79c-0.72,0.64-1.12,1.17-1.66,1.45c-1.93,0.99-3.52,2.3-4.49,4.37c-0.76-0.59-0.55-1.14-0.15-1.57
			c0.72-0.77,1.48-1.53,2.31-2.17c0.92-0.72,1.93-1.32,2.92-1.94C450.48,466.81,450.77,466.86,451.36,466.79z"/>
		<path d="M468.14,531.59c0.93-2.52,2.45-4.71,3.95-6.91c0.11,0.04,0.21,0.09,0.32,0.13c-0.05,0.34-0.01,0.73-0.17,1
			c-1.2,2.02-2.44,4.02-3.66,6.03C468.42,531.76,468.28,531.68,468.14,531.59z"/>
		<path d="M465.36,408.42c-2.08,1.02-4.38,0.6-6.22,1.91c-0.49-1.03-0.47-1.21,0.47-1.41c1.18-0.25,2.39-0.36,3.59-0.55
			c0.47-0.07,0.92-0.24,1.39-0.26C464.84,408.1,465.11,408.31,465.36,408.42z"/>
		<path d="M469.13,536.63c1.16-0.71,2.56-0.2,3.72-0.89c1.09-0.65,2.35-1.03,3.6-1.42c-1.8,1.26-3.65,2.42-5.77,3.04
			C470.07,537.54,469.4,537.48,469.13,536.63z"/>
		<path d="M427.05,463.97c0.46-0.95,0.94-1.88,1.37-2.84c0.41-0.92,0.77-1.87,1.15-2.81c0.1,0.02,0.2,0.04,0.31,0.07
			c0.03,0.33,0.19,0.72,0.08,0.99c-0.7,1.59-1.47,3.14-2.2,4.72c-0.22,0.48-0.53,0.94-1.05,0.69c-0.32-0.15-0.45-0.7-0.67-1.08
			c0.08-0.07,0.16-0.14,0.24-0.22C426.5,463.63,426.72,463.77,427.05,463.97z"/>
		<path d="M480.87,491.13c-0.94,0.24-2.01,0.28-2.78,0.79c-0.78,0.52-1.27,1.49-1.95,2.34c-0.67-0.84-0.01-1.72,0.34-2.19
			c1.05-1.4,2.71-1.38,4.28-1.38C480.8,490.83,480.84,490.98,480.87,491.13z"/>
		<path d="M476.69,608.49c-0.07-0.14-0.16-0.27-0.2-0.41c-0.41-1.41-0.84-2.82-1.22-4.24c-0.13-0.5-0.07-0.96,0.76-0.96
			c0.38,1.81,1.17,3.53,1.05,5.44C476.95,608.37,476.82,608.43,476.69,608.49z"/>
		<path d="M489.54,444.96c0.77-0.57,1.2-0.14,1.41,0.31c0.52,1.12,1.15,2.1,2.16,2.84c0.15,0.11,0.09,0.51,0.15,0.94
			C491.09,448.28,490.88,446.16,489.54,444.96z"/>
		<path d="M465.42,380.55c0.81-0.06,1.62-0.03,2.39-0.19c0.74-0.16,1.44-0.53,2.22-0.66c-0.8,1.31-2.06,1.85-3.48,1.95
			C465.95,381.68,465.43,381.31,465.42,380.55z"/>
		<path d="M450.43,484.71c2.55,0.2,5,1.27,5.92,2.49c-1.16-0.44-2.19-0.82-3.21-1.21C452.2,485.62,450.98,485.82,450.43,484.71z"/>
		<path d="M521,480.88c0.54-1.28,1.32-2.04,2.24-2.01c0.73,0.02,1.77,0.02,2.54,1.12c-0.64,0.03-1.12,0.2-1.45,0.04
			c-1.06-0.48-1.89-0.44-2.51,0.67C521.75,480.8,521.47,480.78,521,480.88z"/>
		<path d="M483.98,588.87c-1.17,0.13-2.33,0.31-3.5,0.39c-0.72,0.05-0.88-0.43-0.69-1.23c1.38,0.28,2.86-0.09,4.21,0.5
			C483.99,588.65,483.98,588.76,483.98,588.87z"/>
		<path d="M477.59,414.47c-0.31-0.22-0.74-0.37-0.89-0.67c-0.49-0.92-0.47-1.56,0-2.72c0.62,1.09,0.84,2.13,1.24,3.08
			C477.82,414.26,477.7,414.37,477.59,414.47z"/>
		<path d="M427.17,461.14c-0.68-1.25-0.51-2.37,0.02-3.53c1.1,0.52,0.24,1.15,0.24,1.68C427.43,459.91,427.26,460.52,427.17,461.14z
			"/>
		<path d="M457.71,488.19c1.02,1.18,2.56,1.82,3.43,3.16c-0.09,0.09-0.17,0.19-0.26,0.28c-1.16-1.04-2.31-2.08-3.47-3.12
			C457.51,488.41,457.61,488.3,457.71,488.19z"/>
		<path d="M496.57,450.95c-1.11,0.3-1.89-0.27-2.65-1.03c0.08-0.14,0.2-0.37,0.23-0.36c0.84,0.34,1.68,0.69,2.52,1.05
			C496.63,450.72,496.6,450.84,496.57,450.95z"/>
		<path d="M479.01,407.21c-0.21,1.09-0.42,2.18-0.7,3.63c-0.32-1.52-0.92-2.7,0.29-3.69C478.73,407.17,478.87,407.19,479.01,407.21z
			"/>
		<path d="M523.18,483.22c0.21-0.52,0.35-1.09,0.66-1.54c0.13-0.19,0.61-0.13,0.94-0.19c-0.03,0.32,0.04,0.73-0.13,0.93
			c-0.33,0.38-0.79,0.64-1.2,0.95C523.36,483.33,523.27,483.27,523.18,483.22z"/>
		<path d="M478.39,608.83c-0.33-1.12-0.39-2.25,0.01-3.43c0.11,0.44,0.28,0.88,0.32,1.33c0.05,0.68,0.01,1.37,0.01,2.05
			C478.61,608.8,478.5,608.82,478.39,608.83z"/>
		<path d="M468.33,532.85c-0.32,1.2-1.6,0.78-2.19,1.54C466.13,533.15,466.2,533.1,468.33,532.85z"/>
		<path d="M414.94,522c0.75,0.46,1.23,0.93,0.17,1.76C415.03,523.01,414.99,522.51,414.94,522z"/>
		<path d="M467.75,323.47c-0.74,0.13-1.39,0.88-2.48,0.38c0.95-0.35,1.64-0.77,2.47-0.38C467.74,323.47,467.75,323.47,467.75,323.47
			z"/>
		<path d="M404.71,498.01c0.11,0.46,0.23,0.91,0.4,1.58c-0.95-0.44-1.26-0.84-0.83-1.51C404.42,498.05,404.56,498.03,404.71,498.01z
			"/>
		<path d="M484.05,587.83c0.34-0.43,0.56-0.95,1.15-0.55c0.11,0.07,0.08,0.51-0.02,0.69C484.85,588.52,484.49,588.27,484.05,587.83z
			"/>
		<path d="M440.08,446.21c-0.11,1.25-0.74,0.87-1.47,0.7C438.95,446.27,439.39,446.17,440.08,446.21z"/>
		<path d="M443.24,445.32c-0.77-0.07-1.31-0.13-2.12-0.2C441.98,444.39,442.53,444.41,443.24,445.32z"/>
		<path d="M439.1,445.03c-0.64,0.35-1.04,0.58-1.66,0.92C438.12,445.01,438.12,445.01,439.1,445.03z"/>
		<path d="M482.2,471.98c0.71-0.3,0.86,0.31,1.39,0.77c-0.9,0.1-1.16-0.3-1.35-0.82C482.24,471.94,482.2,471.98,482.2,471.98z"/>
		<path d="M479.56,561.46c0.27-0.11,0.55-0.22,0.82-0.33c0.04,0.11,0.09,0.22,0.13,0.33c-0.28,0.1-0.56,0.21-0.84,0.31
			C479.64,561.66,479.6,561.56,479.56,561.46z"/>
	</g>
</g>
</svg>
