<?xml version="1.0" encoding="utf-8"?>
<!-- Generator: Adobe Illustrator 26.0.2, SVG Export Plug-In . SVG Version: 6.00 Build 0)  -->
<svg version="1.1" xmlns="http://www.w3.org/2000/svg" xmlns:xlink="http://www.w3.org/1999/xlink" x="0px" y="0px"
	 viewBox="0 0 800 800" style="enable-background:new 0 0 800 800;" xml:space="preserve">
<style type="text/css">
	.st0{display:none;}
	.st1{display:inline;}
	.st2{fill:#2D2D2D;}
	.st3{fill:#3C3D3D;}
	.st4{fill:#131313;}
	.st5{fill:#FFFFFF;}
	.st6{fill:#FCFCFC;}
	.st7{fill:#2A2A2A;}
	.st8{fill:#565454;}
	.st9{fill:#767373;}
	.st10{fill:#959292;}
	.st11{fill:#C6C4C4;}
</style>
<g id="back" class="st0">
	<rect x="1.17" y="0" class="st1" width="800" height="800"/>
</g>
<g id="Front">
	<g>
		<path d="M305.32,592.13c-0.78,0.64-1.55,1.3-2.35,1.92c-1.42,1.11-2.99,2.08-4.26,3.32c-1.19,1.16-0.79,1.61,0.58,2.49
			c2.79,1.79,4.72,3.94,3.14,7.98c-2.04,5.23-3.66,10.49-3.73,16.14c-0.03,2.03-0.61,4.05-1.02,6.62c1.27-1.05,2.27-1.69,3.02-2.53
			c4.87-5.42,8.69-11.43,11.55-18.06c0.78-1.8,2.5-3.27,3.96-4.73c1.11-1.11,2.7-1.81,3.7-3c1.1-1.31,2.09-1.01,3.39-0.58
			c2.15,0.7,4.32,1.51,6.55,1.82c1.96,0.27,4.01-0.07,6.02-0.16c1.9-0.09,3.81-0.39,5.69-0.27c2.35,0.15,4.03-1,5.81-2.13
			c2.79-1.78,5.6-3.53,8.45-5.2c0.63-0.37,1.48-0.42,2.24-0.53c3.98-0.57,7.97-1.11,11.96-1.64c0.61-0.08,1.24-0.07,1.85-0.03
			c4.81,0.31,8.68-1.76,12.52-4.21c4.89-3.12,9.94-6.01,14.97-8.92c6.18-3.58,12.36-7.11,16.12-13.39c0.98-1.63,1.59-1.71,3.59-0.57
			c2.62-3.2,5.51-6.31,7.88-9.74c2.18-3.15,3.67-6.73,5.73-9.96c2.13-3.34,4.61-6.47,6.9-9.71c0.66-0.93,1.16-1.95,1.82-2.88
			c0.29-0.41,0.78-0.7,1.18-1.04c0.18,0.12,0.36,0.24,0.53,0.35c-0.62,1.48-1.3,2.95-1.84,4.46c-0.41,1.14-0.77,2.32-0.92,3.51
			c-0.31,2.44-0.76,4.92-0.61,7.36c0.31,5.03-2.15,8.9-5.15,12.59c-4.07,5.01-8.21,9.95-12.3,14.94c-1.55,1.9-3.05,3.84-4.54,5.78
			c-0.34,0.45-0.56,0.98-0.61,1.61c1.98-1.27,4.02-2.47,5.92-3.84c2.31-1.68,4.91-2.66,7.61-3.62c2.98-1.05,5.76-2.6,8.64-3.93
			c0.44-0.2,0.96-0.28,1.36-0.54c0.81-0.52,1.84-0.96,2.29-1.71c2.49-4.11,3.91-8.53,4.66-13.28c0.47-3.01,1.68-5.97,1.15-9.03
			c-0.63-3.65-0.54-7.27-0.27-10.91c0.26-3.48,1.65-6.47,4.41-8.85c3.9-3.36,8.09-6.31,12.94-8.28c2.93-1.19,6.01-2.06,8.88-3.36
			c5-2.26,9.93-4.67,14.83-7.13c5.46-2.74,10.88-5.57,16.26-8.46c0.58-0.31,1.1-1.21,1.14-1.86c0.29-5.04,0.57-10.08,0.63-15.12
			c0.04-3.54-0.3-7.09-0.43-10.64c-0.11-3.04-0.14-6.08-0.26-9.12c-0.09-2.36-0.28-4.72-0.39-7.08c-0.12-2.64-0.22-5.28-0.26-7.93
			c-0.01-0.47,0.27-0.95,0.71-1.39c0.58,17.2,2.8,34.32,1.24,51.95c3-1.74,5.57-3.11,8.02-4.68c3.38-2.16,6.88-3.98,10.87-4.89
			c3.29-0.75,6.53-1.69,9.81-2.48c0.8-0.19,1.67-0.19,2.51-0.19c2.71,0,4.64-1.63,6.69-2.97c4.52-2.96,8.9-6.13,13.55-8.88
			c4.51-2.68,9.31-4.91,13.94-7.41c4.88-2.64,9.78-5.27,14.55-8.08c2.99-1.76,5.72-3.91,8.65-5.77c2.55-1.62,5.25-3.02,7.82-4.62
			c2.05-1.27,4.03-2.65,5.97-4.06c3.58-2.59,7.11-5.24,10.65-7.88c0.25-0.19,0.45-0.44,0.67-0.67c-0.08-0.12-0.15-0.24-0.23-0.36
			c-3.71,1.98-7.46,3.9-11.12,5.97c-3.27,1.85-6.33,4.06-9.7,5.7c-1.4,0.68-3.43,0.61-5.07,0.33c-3.71-0.62-7.34-1.74-11.05-2.37
			c-2.82-0.48-4.12-1.4-4.63-3.8c-2.73-1.13-5.44-1.84-7.64-3.28c-2.42-1.59-2.94-4.3-2.2-7.43c-2.48,0.2-4.65,0.22-6.76,0.57
			c-3.71,0.61-7.38,1.43-11.08,2.09c-0.5,0.09-1.09-0.24-1.63-0.37c0.42-0.32,0.79-0.81,1.27-0.95c6.31-1.75,11.24-5.45,15.6-10.01
			c1.16-1.21,2.7-2.09,3.97-3.22c3.37-3,6.65-6.1,10.05-9.08c2.31-2.02,4.69-3.99,7.17-5.82c2.83-2.09,5.79-4,8.72-5.96
			c0.5-0.33,1.07-0.61,1.65-0.76c7.11-1.76,13.38-5.13,19.02-9.52c3.74-2.91,7.22-6.13,10.67-9.35c1.84-1.71,3.35-3.76,5.07-5.59
			c0.57-0.6,1.36-1.01,2.04-1.51c0.13,0.15,0.26,0.3,0.39,0.46c-0.96,1.09-1.91,2.18-2.89,3.25c-4.06,4.46-8.24,8.83-13.2,12.37
			c-3.88,2.77-7.91,5.41-12.1,7.72c-2.99,1.65-6.39,2.61-9.56,4c-3.83,1.68-7.2,4.04-10.31,6.74c-4.61,4.01-9.12,8.13-13.78,12.08
			c-5.27,4.47-10.67,8.81-15.85,13.07c1.79-0.29,3.92-0.71,6.08-0.97c1.72-0.2,3.47-0.24,5.21-0.28c1.19-0.03,1.65,0.49,1.51,1.74
			c-0.5,4.63,1.43,6.94,6.16,7.65c1.04,0.16,2.06,0.46,3.06,0.78c0.34,0.11,0.85,0.48,0.84,0.71c-0.21,2.76,2.06,3.09,3.94,3.58
			c3.34,0.86,6.73,1.52,10.1,2.26c0.93,0.21,1.85,0.44,3.24,0.77c2.12-1.15,4.71-2.6,7.35-3.97c5.44-2.83,10.91-5.6,16.34-8.45
			c1.37-0.72,2.65-1.6,3.9-2.5c4.56-3.32,9.08-6.69,13.64-9.99c0.36-0.26,0.99-0.18,1.5-0.26c0.1,0.24,0.2,0.48,0.3,0.72
			c-1.17,0.85-2.36,1.68-3.52,2.54c-2.7,2-5.41,3.99-8.1,6.01c-5.29,3.98-10.44,8.15-15.88,11.92c-5.4,3.73-11.11,7.04-16.64,10.6
			c-2.37,1.52-4.54,3.34-6.93,4.82c-3.85,2.38-7.77,4.69-11.75,6.86c-5.45,2.98-10.92,5.9-16.49,8.66
			c-6.2,3.07-11.7,7.11-17.31,11.01c-2.27,1.58-4.54,2.55-7.53,2.57c-5.13,0.04-10.05,1.66-14.67,3.67
			c-3.96,1.72-7.46,4.42-11.42,6.12c-3.55,1.52-3.94,4.21-4.04,7.18c-0.13,3.91-0.34,7.84,0.01,11.72
			c0.33,3.65,1.07,7.33,2.12,10.86c1.69,5.65,3.55,11.27,5.76,16.74c2.4,5.94,5.17,11.75,8.01,17.52c1.4,2.85,3.32,5.47,4.99,8.2
			c4.51,7.36,8.87,14.8,13.57,22.04c2.82,4.35,5.92,8.6,9.34,12.53c4,4.59,8.38,8.89,12.81,13.11c2,1.91,4.55,3.29,6.82,4.94
			c0.75,0.54,1.4,1.2,2.11,1.8c3.02,2.56,6.14,5.01,9.04,7.7c1.87,1.74,3.45,3.78,5.09,5.73c1.01,1.2,1.97,2.46,2.84,3.77
			c1.1,1.64,2.21,3.3,3.09,5.06c2.09,4.17,4.19,8.34,6,12.62c0.96,2.27,1.3,4.78,1.93,7.17c0.14,0.51,0.31,1.02,0.79,1.47
			c-0.33-2.4-0.63-4.8-1.01-7.19c-0.76-4.71-1.48-9.43-2.37-14.11c-0.76-3.99-1.33-8.05-3.45-11.69c-2.88-4.95-6.61-9.16-11.5-12.35
			c-1.78-1.16-3.73-2.08-5.58-3.16c-0.32-0.19-0.51-0.58-0.77-0.87c0.36-0.26,0.7-0.7,1.09-0.75c0.53-0.08,1.11,0.11,1.66,0.23
			c5.93,1.24,11.85,2.52,17.8,3.72c4.74,0.95,8.9,3.23,13.19,5.19c2.61,1.19,5.01,2.8,7.59,4.05c3.89,1.88,8.11,1.94,12.32,1.55
			c3.53-0.33,6.89,0.28,10.25,1.13c0.54,0.14,1.07,0.33,1.62,0.46c1.91,0.45,2.21,0.85,2.16,2.81c-4.33-1.91-8.83-3.48-13.69-3.01
			c-3.57,0.35-7.03,0.34-10.46-0.64c-1.38-0.39-2.72-0.98-4.02-1.59c-4.44-2.07-9-3.97-13.25-6.36c-5.1-2.86-10.87-2.99-16.34-4.33
			c-1.27-0.31-2.54-0.61-4.2-1.02c2.11,1.73,4.05,3.02,5.6,4.65c2.55,2.68,4.98,5.49,7.23,8.4c3.02,3.9,3.27,8.69,4.16,13.24
			c0.59,3,1.13,6.01,1.56,9.03c0.62,4.46,1.14,8.94,1.65,13.41c0.17,1.49,0.16,3.01,0.24,4.61c-2.09-0.24-2-1.85-2.37-2.84
			c-0.82-2.22-1.28-4.56-1.82-6.87c-1.18-5-3.75-9.44-6.05-13.98c-1-1.98-1.69-4.19-3.06-5.9c-3.74-4.65-6.77-9.89-12.13-13.24
			c-2.08-1.3-3.7-3.26-5.6-4.84c-2.02-1.68-4.22-3.17-6.18-4.92c-4.32-3.86-8.63-7.73-12.76-11.77c-4.9-4.79-8.63-10.46-12.34-16.09
			c-2.89-4.39-5.42-9.01-8.17-13.49c-2.38-3.88-5-7.63-7.24-11.57c-2.2-3.88-4.12-7.92-6.06-11.93c-1.98-4.08-4.02-8.15-5.7-12.34
			c-2.84-7.09-5.53-14.2-6.91-21.78c-1.19-6.52-1.01-12.95-0.69-19.45c0.02-0.42,0.15-0.84,0.28-1.52
			c-3.67,1.86-7.22,3.54-10.65,5.42c-9.6,5.27-19.4,10.08-29.77,13.83c-5.28,1.91-9.98,5.03-13.6,9.16c-2.2,2.5-3.21,5.86-3.07,9.3
			c0.12,3.06,0.48,6.11,0.52,9.16c0.03,1.89-0.24,3.79-0.55,5.66c-0.46,2.79-1.04,5.56-1.66,8.33c-0.21,0.92-0.64,1.81-1.04,2.69
			c-0.76,1.66-1.55,3.31-2.37,4.95c-0.83,1.67-2.08,2.79-4.01,3.42c-2.79,0.92-5.46,2.18-8.21,3.25c-1.96,0.76-4.14,1.17-5.91,2.21
			c-4.54,2.68-8.93,5.59-12.25,9.73c-0.38,0.47-0.94,0.82-1.41,1.22c-0.2-0.11-0.4-0.21-0.6-0.32c0.36-0.93,0.57-1.97,1.12-2.78
			c1.6-2.34,3.28-4.64,5.03-6.88c3.99-5.13,8.01-10.24,12.07-15.32c1.6-2,3.36-3.88,4.99-5.86c2.07-2.53,3.45-5.18,3.24-8.65
			c-0.17-3,0.54-6.05,0.85-9.07c0.04-0.41,0.01-0.83,0.01-1.51c-2.64,2.52-4.61,5.23-6.03,8.27c-2.9,6.23-6.57,11.96-11.52,16.89
			c-2.19,2.19-4.35,4.41-6.62,6.71c-0.07-0.51-0.13-0.99-0.15-1.12c-2.45,2.02-4.91,4.37-7.71,6.25c-3.52,2.37-7.34,4.33-10.99,6.53
			c-3.8,2.29-7.6,4.58-11.29,7.03c-3.35,2.22-6.78,4.16-10.91,4.6c-5.52,0.6-11.07,1.03-16.58,1.74c-3.22,0.41-5.59,2.6-8.2,4.25
			c-1.59,1.01-3.05,2.28-4.77,3c-1.18,0.5-2.7,0.29-4.07,0.35c-1.72,0.08-3.44,0.19-5.16,0.15c-3.34-0.08-6.68-0.22-10.02-0.41
			c-0.43-0.02-0.83-0.48-1.23-0.75c-1.55-1-2.48-0.87-3.85,0.35c-1.22,1.09-2.53,2.09-3.84,3.09c-2.27,1.73-3.42,4.16-4.47,6.62
			c-2.28,5.3-5.54,10-9.4,14.34c-4.33,4.87-10.03,8.2-15.07,12.27c-2.57,2.07-4.88,4.43-7.27,6.71c-3.03,2.89-5.98,5.85-9.02,8.73
			c-2.99,2.84-6.06,5.62-9.07,8.44c-0.29,0.28-0.38,0.75-0.65,1.06c-0.22,0.24-0.58,0.35-0.88,0.51c-0.12-0.36-0.44-0.83-0.31-1.05
			c0.43-0.69,0.96-1.34,1.57-1.89c4.6-4.18,9.28-8.27,13.81-12.51c3.2-2.99,6.06-6.33,9.34-9.23c3.15-2.79,6.61-5.27,10.04-7.76
			c1.1-0.8,1.54-1.76,1.67-2.91c0.5-4.36,0.91-8.72,1.4-13.08c0.09-0.78,0.37-1.56,0.64-2.31c0.85-2.32,1.8-4.61,2.6-6.94
			c1.05-3.07,0.22-4.92-2.87-6.72c-2.19-1.28-2.47-2.18-0.72-4.02c1.62-1.71,3.56-3.13,5.45-4.76c-1.29-0.35-2.69-0.73-4.1-1.1
			c-1.82-0.48-3.56-0.86-4.67-2.75c-0.44-0.76-2.27-0.84-3.49-1.11c-3.3-0.74-6.71-1.16-9.9-2.2c-4.23-1.37-8.43-1.81-12.73-0.83
			c-3.28,0.75-6-0.58-8.56-2.07c-2.75-1.61-5.18-3.72-7.83-5.5c-2.27-1.52-4.67-2.88-7.31-4.14c0.92,1.61,1.84,3.22,2.76,4.84
			c-1.78-2.31-3.98-4.41-4.34-7.38c0.13-0.07,0.26-0.15,0.39-0.22c1.21,0.85,2.38,1.75,3.63,2.54c3.04,1.92,6.14,3.74,9.16,5.7
			c1.47,0.96,2.68,2.31,4.21,3.16c2.52,1.41,5.15,2.52,8.29,1.7c1.64-0.43,3.47-0.67,5.13-0.43c3.29,0.48,6.53,1.34,9.78,2.06
			c2.06,0.46,4.1,0.97,6.16,1.43c1.19,0.27,2.38,0.54,3.58,0.74c1.22,0.2,2.45,0.32,3.76,0.49c-0.1,0.27-0.35,0.95-0.68,1.86
			c2.69,0.85,5.71,1.81,8.73,2.77C305.23,591.75,305.27,591.94,305.32,592.13z"/>
		<path d="M231.66,457.87c1.14-0.36,2.3-0.68,3.43-1.09c4.93-1.81,10.02-2.71,15.28-3.35c5.4-0.66,10.65-2.43,15.97-3.72
			c7.36-1.78,14.7-3.63,22.08-5.32c2.11-0.48,4.39-0.28,6.47-0.85c2.49-0.67,4.86-1.77,7.24-2.78c4.76-2.01,9.51-4.03,14.21-6.16
			c1.71-0.78,3.28-1.84,4.86-2.86c2.23-1.44,4.4-2.96,6.59-4.45c1.5-1.02,2.98-2.06,4.49-3.06c0.21-0.14,0.51-0.15,0.9-0.26
			c0.88,2.66-0.06,4.9-1.44,7.01c-1,1.54-2.09,3.03-3.27,4.45c-1.31,1.58-2.78,3.04-4.17,4.56c-0.99,1.08-1.89,2.26-2.96,3.25
			c-3.35,3.09-6.76,6.12-10.14,9.17c-0.23,0.21-0.42,0.46-0.85,0.95c4.81-1.36,8.91-3.29,12.68-5.92c1.9-1.33,3.78-2.83,5.93-3.65
			c2.18-0.83,4.67-0.56,6.81,0.58c3.02,1.62,5.96,3.39,8.92,5.1c0.18,0.1,0.29,0.31,0.42,0.47c1.58,1.95,1.46,1.82,3.32,0.26
			c2.27-1.9,4.56-3.97,7.23-5.17c1.9-0.85,4.58-0.89,6.67-0.38c3.8,0.93,7.41,2.57,11.12,3.85c3.03,1.04,6.12,1.94,9.15,2.98
			c4.77,1.64,9.56,3.24,14.26,5.06c3.62,1.4,7.01,3.38,10.68,4.62c3.57,1.2,7.32,2.05,11.06,2.57c6.3,0.88,12.66,1.39,19.01,2
			c1.44,0.14,2.91,0.02,4.52,0.02c0.22,1.21-0.55,1.31-1.43,1.25c-4.19-0.28-8.39-0.43-12.56-0.9c-6-0.68-11.99-1.45-17.93-2.49
			c-2.3-0.41-4.42-1.69-6.63-2.56c-5.31-2.08-10.6-4.22-15.95-6.2c-7.24-2.68-14.48-5.35-21.81-7.78c-2.52-0.83-5.16-2.07-8.01-1.15
			c-0.93,0.3-1.89,0.65-2.66,1.2c-2.41,1.72-4.78,3.48-7.07,5.34c-1.25,1.02-2.1,0.35-3.09-0.29c-3.38-2.18-6.66-4.53-10.21-6.41
			c-2.29-1.21-4.76-1.16-7.21,0.57c-3.04,2.15-6.34,4.01-9.72,5.64c-2.67,1.29-5.64,2.03-8.45,3.07c-0.96,0.36-1.92,0.81-2.75,1.38
			c-2.39,1.65-4.72,3.37-7.06,5.08c-2.48,1.82-4.91,3.71-7.43,5.48c-3.78,2.65-7.51,5.4-11.48,7.76c-1.83,1.09-4.2,1.33-6.33,1.97
			c-0.34,0.1-0.65,0.29-1.35,0.61c5.81,0.29,11.13,0.88,16.54-0.17c6.69-1.29,13.5-1.98,20.23-3.08c3.93-0.64,7.54-2.25,10.88-4.3
			c3.1-1.91,6.48-2.54,10.08-3.02c4.48-0.59,8.64,0.96,12.98,1.04c4.56,0.09,9.12,0.5,13.69,0.53c4.26,0.03,8.52-0.36,12.77-0.34
			c3.17,0.02,6.33,0.58,9.5,0.56c4.19-0.03,8.38-0.42,12.57-0.58c1.22-0.05,2.46,0.13,3.67,0.33c0.47,0.08,0.87,0.49,1.31,0.75
			c-0.04,0.21-0.07,0.42-0.11,0.63c-1.9,0.06-3.82,0.29-5.7,0.15c-6.82-0.51-13.18,1.18-19.47,3.4c-5.11,1.81-10.37,3.26-15.39,5.27
			c-7.65,3.06-15.85,3.75-23.8,5.42c-5.99,1.26-12.16,1.73-18.25,2.48c-3.85,0.48-7.71,0.84-11.75,1.27
			c2.63,0.47,5.12,0.89,7.6,1.36c2.3,0.43,4.6,0.84,6.87,1.35c4.02,0.89,8,1.92,12.03,2.76c6.58,1.38,13.27,1.9,20,2.16
			c2.68,0.1,5.34,0.56,8.01,0.74c0.97,0.06,1.97-0.36,2.95-0.32c1.07,0.05,2.13,0.37,3.19,0.58c-0.02,0.17-0.05,0.35-0.07,0.52
			c-0.17,0.1-0.34,0.27-0.52,0.29c-4.48,0.5-8.92,0.05-13.37-0.41c-2.06-0.21-4.15-0.33-6.23-0.3c-5.81,0.1-11.39-1.45-17.09-2.13
			c-2.96-0.36-5.79-1.61-8.72-2.28c-3.73-0.86-7.5-1.56-11.26-2.31c-2.6-0.52-5.21-1.04-7.82-1.47c-1.84-0.31-3.71-0.47-5.57-0.69
			c-0.06-0.23-0.11-0.46-0.17-0.69c0.5-0.25,1.01-0.73,1.5-0.71c7.26,0.3,14.48-0.15,21.64-1.13c8.31-1.14,16.59-2.53,24.85-3.99
			c4.38-0.77,8.74-1.74,13.02-2.93c3.36-0.93,6.56-2.38,9.87-3.51c4.35-1.49,8.72-2.89,13.1-4.3c0.4-0.13,0.87-0.06,1.3-0.08
			c0-0.16,0.01-0.32,0.01-0.48c-4.01-0.09-8.02-0.25-12.03-0.25c-5.75,0.01-11.5,0.16-17.25,0.2c-4.84,0.04-9.54-1.26-14.31-1.62
			c-4.36-0.33-8.8,0.26-12.66,2.74c-4.88,3.14-10.33,4.64-16.12,5.31c-2.69,0.31-5.34,0.94-8.02,1.36c-2.8,0.44-5.6,0.96-8.43,1.17
			c-3.67,0.28-7.35,0.35-11.03,0.38c-1.67,0.01-3.37-0.19-5.02-0.45c-1.85-0.3-3.38,0.07-4.83,1.26
			c-8.1,6.63-16.31,13.15-24.35,19.86c-4.77,3.98-9.35,8.18-13.93,12.37c-2.54,2.33-3.69,5.45-4.39,8.64
			c-1.1,4.97-2.18,9.97-2.84,15.01c-0.53,4.08-0.74,8.24-0.51,12.34c0.15,2.58,1.33,5.12,2.12,7.65c1.22,3.87,2.74,7.67,3.71,11.59
			c0.94,3.8,1.35,7.72,2.03,11.58c0.14,0.79,0.4,1.55,0.61,2.32c0.19,0.01,0.38,0.02,0.57,0.02c0.13-1.87,0.37-3.73,0.35-5.6
			c-0.03-3.15-0.15-6.31-0.36-9.46c-0.21-3.16-0.56-6.32-0.88-9.48c-0.11-1.05-0.35-2.1-0.42-3.15c-0.02-0.27,0.36-0.76,0.61-0.79
			c0.32-0.04,0.87,0.18,1.01,0.44c2.81,5.08,5.92,10.03,8.24,15.31c2.25,5.14,5.46,9.58,8.94,13.91c0.62,0.77,1.5,1.36,2.52,2.26
			c-0.04-0.59-0.06-0.83-0.08-1.06c0.09,0.03,0.2,0.04,0.27,0.1c1.74,1.59,3.56,3.1,5.17,4.8c0.64,0.68,0.82,1.76,1.21,2.66
			c-0.17,0.1-0.33,0.2-0.5,0.31c-0.33-0.12-0.86-0.15-0.98-0.38c-1.34-2.52-3.87-3.85-6.02-5.54c-2.91-2.29-5.08-5.16-6.94-8.23
			c-1.99-3.29-3.75-6.71-5.62-10.07c-1.53-2.74-3.09-5.46-4.62-8.19c-0.33-0.59-0.62-1.2-1.03-2c0.19,2.42,0.43,4.57,0.5,6.73
			c0.11,3.03,0.04,6.07,0.15,9.11c0.05,1.39,0.55,2.77,0.49,4.14c-0.12,2.78-0.55,5.54-0.71,8.32c-0.06,1.05,0.38,2.12,0.42,3.18
			c0.03,0.79-0.2,1.6-0.32,2.4c-0.29,0.01-0.58,0.03-0.87,0.04c-0.41-1.44-0.9-2.87-1.22-4.33c-0.82-3.73-1.6-7.47-2.34-11.22
			c-0.61-3.1-0.97-6.26-1.75-9.32c-0.77-3.03-1.73-6.06-2.97-8.94c-2.34-5.43-2.92-10.98-2.2-16.76c0.3-2.38,0.12-4.82,0.44-7.2
			c0.37-2.76,1.01-5.49,1.58-8.22c0.39-1.89,0.8-3.77,1.28-5.64c1.24-4.82,4.53-8.36,8.19-11.6c2.97-2.63,6.01-5.19,9.05-7.75
			c3.97-3.33,7.95-6.65,11.98-9.93c4.15-3.38,8.35-6.69,12.54-10.03c0.68-0.54,1.4-1.02,2.51-1.83c-4.51-0.32-8.65-0.92-12.78-0.83
			c-4.7,0.1-9.4,0.78-14.09,1.25c-1.25,0.13-2.48,0.45-3.74,0.59c-0.35,0.04-0.75-0.25-1.12-0.39c0.3-0.38,0.52-0.99,0.91-1.11
			c2.7-0.83,5.46-1.51,8.17-2.33c6.45-1.93,12.87-3.93,19.33-5.85c3.67-1.09,7.43-1.95,11.07-3.13c4.32-1.4,8.6-2.94,12.82-4.59
			c3.64-1.42,7.18-3.09,10.77-4.63c2.13-0.91,4.39-1.61,6.4-2.71c1.65-0.91,3.1-2.2,4.51-3.45c2.93-2.58,5.97-5.09,8.64-7.91
			c3.54-3.74,6.85-7.69,10.1-11.67c1.13-1.38,1.82-3.11,2.71-4.68c-0.19-0.16-0.38-0.33-0.58-0.49c-2.76,1.73-5.68,3.28-8.26,5.25
			c-4.2,3.2-9.06,5.1-13.86,7.17c-3.24,1.39-6.63,2.54-9.69,4.23c-2.59,1.44-5.39,1.64-8.14,2.22c-4.09,0.87-8.26,1.37-12.32,2.34
			c-7.37,1.76-14.65,3.92-22.04,5.59c-4.58,1.03-9.34,1.29-13.95,2.24c-3.52,0.72-6.94,1.96-10.39,3.01
			c-1.67,0.5-3.31,1.09-4.96,1.64c-0.11-0.18-0.22-0.35-0.34-0.53c1.15-0.91,2.19-2.05,3.49-2.68c2.12-1.03,4.46-1.67,6.64-2.59
			c6.65-2.81,13.87-3.62,20.8-5.37c7.12-1.8,14.55-2.57,21.44-5.19c4.15-1.58,8.24-3.24,12.61-4.24c4.38-1,8.8-2.03,12.98-3.6
			c4.59-1.72,9.46-2.95,13.41-6.05c1.19-0.93,2.66-1.54,3.91-2.41c3.06-2.13,6.07-4.34,9.17-6.57c-2.05-1.91-4.33-1.82-6.43-2.04
			c-4.32-0.46-8.65-0.8-12.98-1.04c-4.03-0.22-8.08-0.41-12.11-0.29c-3.18,0.09-6.34,0.64-9.51,1.01c-4.04,0.48-8.1,0.82-12.09,1.55
			c-5.61,1.03-11.13,2.49-16.74,3.5c-3.26,0.59-6.64,0.52-9.93,1c-4.58,0.67-9.13,1.58-13.69,2.4c-5.19,0.94-10.28,2.24-15.65,2.33
			c-3.53,0.06-7.04,1.06-10.56,1.67c-3.56,0.62-7.13,1.25-10.68,1.93c-1.52,0.29-3.01,0.72-4.51,1.09
			c-0.07-0.14-0.14-0.28-0.21-0.42c0.3-0.25,0.57-0.67,0.91-0.74c4.62-0.92,9.26-1.79,13.89-2.66c2.84-0.54,5.67-1.09,8.52-1.59
			c1.09-0.19,2.22-0.17,3.32-0.33c3.79-0.57,7.57-1.15,11.35-1.79c3.89-0.66,7.75-1.42,11.64-2.09c2.59-0.44,5.2-0.82,7.81-1.19
			c4.81-0.69,9.65-1.22,14.44-2.06c6.09-1.06,12.11-2.5,18.21-3.5c3.79-0.62,7.66-0.88,11.5-1.03c3.17-0.12,6.35,0.18,9.53,0.26
			c1.98,0.04,3.96-0.06,5.93,0.02c3.63,0.14,7.26,0.24,10.87,0.61c2.25,0.23,4.54,0.71,6.66,1.45c2.18,0.76,2.16,1.51,0.48,3.06
			c-5.5,5.08-11.89,8.99-18.7,12.11c-4.13,1.9-8.76,2.79-13.15,4.17c-6.46,2.03-12.89,4.12-19.36,6.12
			c-3.6,1.11-7.22,2.23-10.89,3.1c-6.24,1.49-12.56,2.7-18.8,4.2c-5.23,1.26-10.41,2.73-15.59,4.2c-1.51,0.43-2.93,1.17-4.39,1.77
			C231.57,457.65,231.61,457.76,231.66,457.87z M247.9,476.57c1.65-0.18,2.85-0.37,4.05-0.42c2.59-0.11,5.2-0.33,7.79-0.18
			c3.05,0.19,6.08,0.78,9.13,1.08c0.9,0.09,1.89-0.07,2.77-0.32c2.29-0.67,4.55-1.41,6.8-2.2c1.35-0.47,2.8-0.88,3.95-1.66
			c3.01-2.04,6.05-4.09,8.77-6.46c3.47-3.01,7.27-5.52,11.23-7.86c0.5-0.3,0.94-0.7,1.4-1.06c-0.06-0.08-0.13-0.15-0.19-0.23
			c-1.09,0.49-2.18,0.97-3.27,1.46c-2.65,1.18-5.28,2.41-7.96,3.53c-1.52,0.63-3.14,1.05-4.69,1.62c-3.38,1.25-6.7,2.69-10.13,3.79
			c-4.98,1.59-10.04,2.96-15.08,4.39c-2.46,0.7-4.96,1.28-7.4,2.06C252.83,474.82,250.42,475.04,247.9,476.57z"/>
		<path d="M356.95,283.58c-1.58,0.54-3.16,1.07-4.72,1.63c-2.32,0.82-3.99,0.18-5.85-1.42c-2.87-2.47-5.95-4.71-9.02-6.95
			c-1.54-1.13-3.23-2.05-4.86-3.07c-0.17,0.13-0.34,0.27-0.51,0.4c0.91,1.27,2.01,2.45,2.7,3.81c1.9,3.78,6.31,5.35,8.38,8.89
			c2.46,4.2,6.68,6.75,9.88,10.23c2.2,2.38,4.55,4.65,5.85,7.75c0.64,1.52,2.15,2.72,3.37,3.98c1.54,1.58,3.2,3.04,4.76,4.59
			c0.56,0.56,1.01,1.23,1.52,1.86c-0.99,0.83-1.6,0.69-2.34-0.12c-3.84-4.19-8.06-8-12.41-11.71c-2.98-2.54-5.33-5.77-7.82-8.8
			c-3.08-3.75-6.95-6.71-10.43-10.05c-3.11-2.98-6.01-6.2-8.79-9.48c-2.97-3.5-6.92-5.5-11.05-7.29c-3.04-1.32-6.09-2.64-9.15-3.93
			c-1.37-0.57-2.73-1.29-4.17-1.5c-0.91-0.13-2.53,0.29-2.82,0.9c-1.18,2.51-3.4,3.09-5.76,3.14c-4.06,0.09-8.18,0.85-12.16-0.52
			c-1.14-0.39-2.13-1.16-3.27-1.54c-2.89-0.97-5.8-1.9-8.75-2.68c-0.97-0.25-1.18,0.6-1.22,1.48c-0.14,2.91-2.96,6.36-5.73,7.14
			c-1.4,0.39-2.6-0.17-3.01-1.55c-1.48-5.02-3.88-9.53-7.59-13.4c-0.96-1-1.59-2.3-2.37-3.45c-2.65,1.52-5.41,2.09-8.42,2.29
			c-4.38,0.29-8.72,1.06-13.06,1.73c-3.51,0.54-6.98,1.23-10.48,1.84c-2.11,0.37-4.22,0.88-6.35,1c-2.88,0.16-5.81,0.21-8.67-0.12
			c-1.23-0.14-2.33-1.35-3.85-2.3c-1,1.58-2.02,3.15-3,4.74c-0.28,0.46-0.42,1.01-0.74,1.44c-0.52,0.7-1.07,0.93-1.93,0.24
			c-3.72-2.97-7.34-6.09-11.33-8.7c-2.18-1.42-4.95-2.17-7.56-2.79c-3.2-0.76-6.51-1.11-9.78-1.57c-1.26-0.18-2.71,0.35-3.68-1.16
			c0.33-0.16,0.68-0.48,0.95-0.44c5.2,0.93,10.41,1.78,15.56,2.91c2.72,0.6,5.15,1.75,7.27,3.79c2.75,2.63,6.04,4.74,8.99,6.99
			c1.73-2.17,3.32-4.09,4.83-6.06c1-1.3,1.92-0.75,2.51,0.19c0.95,1.52,2.36,1.78,3.99,1.87c5.07,0.3,10.03-0.42,15-1.32
			c6.26-1.13,12.55-2.16,18.84-3.16c2.42-0.38,4.91-0.39,7.3-0.88c1.43-0.29,2.73-1.18,4.23-1.87c0.55,0.81,1.1,1.61,1.63,2.41
			c2.38,3.56,4.83,7.08,7.11,10.7c0.74,1.17,1.06,2.58,1.58,3.88c0.75,1.85,1.5,2.18,3.13,0.99c2.09-1.52,3.86-3.29,3.67-6.17
			c-0.12-1.91-0.01-1.95,2.09-1.65c3.77,0.53,7.37,1.49,10.74,3.32c2.73,1.48,5.85,1.65,8.93,1.67c0.95,0.01,1.9-0.18,2.85-0.14
			c2.96,0.12,5.41-0.61,7.13-3.17c1.03-1.53,2.41-1.71,4.07-0.99c4.57,1.98,9.16,3.93,13.74,5.89c5.43,2.32,9.89,5.65,13.52,10.3
			c2.73,3.49,6.34,6.34,9.6,9.45c0.97,0.93,2.05,1.76,3.19,2.54c-0.92-2.24-2.55-3.9-4.42-5.45c-1.45-1.21-2.84-2.58-3.91-4.1
			c-1.74-2.48-3.2-5.15-4.84-7.83c0.44-0.28,0.83-0.54,1.22-0.79c3.76,2.57,7.5,5.05,11.15,7.65c1.71,1.22,3.31,2.59,4.86,4
			c1.42,1.28,2.91,1.68,4.76,0.98c1.55-0.59,3.16-1.04,4.91-1.61c-1.21-3.31-2.56-6.64-4.79-9.58c-1.64-2.17-3.25-4.37-4.98-6.47
			c-1.49-1.8-3.47-3.3-4.64-5.26c-1.93-3.23-4.27-6.33-4.93-10.14c-0.23-1.35-1.9-2.44-0.59-4.29c0.59,1.31,1.24,2.46,1.62,3.68
			c1.65,5.16,5.2,9.2,8.36,13.5c3.23,4.39,7.41,8.13,9.65,13.18c0.77,1.73,1.33,3.54,1.89,5.09c3.3,0.44,6.46,0.8,9.59,1.31
			c1.13,0.18,2.23,0.64,3.28,1.09c2.93,1.26,6.01,1.48,9.17,1.5c2.61,0.02,5.22,0.36,7.83,0.54c4.78,0.33,9.57,0.56,14.33,1
			c4.52,0.42,9.03,0.99,13.52,1.65c1.91,0.28,3.64,1.08,4.59,2.95c0.25,0.49,0.82,0.96,1.35,1.16c5.31,1.99,10.61,4.04,15.99,5.83
			c3.46,1.15,7.12,1.69,10.74,0.72c2.4-0.65,4.64-1.88,7.06-2.48c3.44-0.85,6.97-1.32,10.45-2.01c1.85-0.37,3.74-0.72,5.5-1.36
			c4.27-1.54,7.52,0.03,10.46,2.82c4.09,3.9,8.07,7.92,12.29,11.7c2.03,1.82,4.51,3.17,6.76,4.77c5.03,3.59,10.11,7.12,15.04,10.84
			c2.54,1.92,4.7,4.3,7.23,6.23c1.95,1.48,4.25,2.54,6.33,3.87c3.03,1.95,5.99,3.98,8.99,5.96c0.36,0.24,0.78,0.52,1.19,0.57
			c0.9,0.1,2.42,0.34,2.6,0.01c0.41-0.79,0.5-2.02,0.13-2.83c-1.19-2.57-2.57-5.07-4.02-7.52c-0.76-1.28-1.83-2.4-2.89-3.77
			c0.52-0.23,1.08-0.67,1.65-0.69c4.37-0.13,8.74-0.17,13.1-0.28c0.58-0.02,1.16-0.32,1.74-0.49c0.02-0.16,0.04-0.33,0.06-0.49
			c-1.38-0.59-2.75-1.2-4.13-1.77c-4.17-1.74-8.39-3.37-12.5-5.22c-6.61-2.99-13.19-6.04-19.7-9.23c-3.29-1.61-6.3-3.74-9.59-5.33
			c-3.79-1.83-7.78-3.3-11.64-5.01c-0.86-0.38-2.29-1.43-2.19-1.64c0.66-1.46,1.88-0.37,2.7-0.11c6.01,1.89,12,3.85,17.95,5.91
			c2.4,0.84,4.66,2.04,7.03,2.98c1.01,0.4,2.12,0.59,3.2,0.8c3.79,0.75,7.6,1.13,11.49,0.99c4.93-0.17,9.55,1.18,14.14,2.82
			c3.91,1.39,7.11,3.82,10.37,6.1c3.18,2.22,6.76,3,10.4,3.78c4.52,0.97,9.04,2.02,13.61,2.66c4.63,0.64,8.88,2.43,13.34,3.5
			c5.28,1.26,10.66,2.15,16.01,3.16c3.6,0.68,7.2,1.28,10.81,1.89c0.42,0.07,0.89-0.1,1.32-0.05c0.46,0.06,0.9,0.25,1.35,0.38
			c-0.05,0.21-0.09,0.42-0.14,0.63c-1.14,0-2.31,0.15-3.42-0.03c-6.36-1.01-12.75-1.93-19.05-3.23c-4.31-0.89-8.46-2.44-12.73-3.55
			c-2.57-0.67-5.22-1.05-7.82-1.6c-3.49-0.74-6.98-1.49-10.45-2.31c-3.93-0.92-7.89-1.79-11.74-2.96c-1.51-0.46-2.83-1.63-4.12-2.62
			c-4.51-3.45-9.6-5.84-15.2-6.87c-3.77-0.69-7.72-0.45-11.58-0.8c-3.15-0.29-6.36-0.54-9.38-1.37c-2.82-0.77-5.39-2.34-8.13-3.43
			c-1.98-0.79-4.05-1.38-6.2-1.77c2.01,1.23,3.96,2.54,6.04,3.66c3.01,1.62,6.1,3.1,9.17,4.62c2.42,1.19,4.86,2.35,7.31,3.5
			c3.26,1.53,6.5,3.08,9.8,4.52c4.33,1.89,8.7,3.71,13.08,5.5c0.94,0.38,2.12,0.52,1.7,1.85c-0.47,1.5-1.52,1.77-3.12,1.6
			c-4.06-0.42-8.14-0.52-12.29,0.51c0.84,1.52,1.62,2.9,2.36,4.3c1.07,2.01,2.12,4.02,3.15,6.05c0.27,0.52,0.58,1.08,0.64,1.64
			c0.28,2.44-1.5,3.83-3.98,2.83c-3.21-1.29-6.3-2.79-8.73-5.38c-1.11-1.18-2.83-1.86-4.32-2.68c-4.32-2.36-8.2-5.17-11.5-8.81
			c-1.54-1.7-3.79-2.81-5.71-4.19c-4.43-3.17-8.82-6.41-13.31-9.5c-5.76-3.95-10.42-9.01-15.42-13.72c-1.07-1.01-2.26-2-3.59-2.6
			c-1.15-0.52-2.64-0.83-3.86-0.61c-5.15,0.93-10.27,2.03-15.36,3.21c-2.32,0.54-4.64,1.23-6.79,2.19
			c-3.83,1.71-7.81,1.83-11.65,0.75c-5.19-1.46-10.2-3.47-15.3-5.24c-0.58-0.2-1.16-0.38-1.76-0.53c-1.66-0.42-3-1.09-4.05-2.6
			c-0.7-1-2.16-1.95-3.4-2.11c-7.08-0.91-14.19-1.7-21.31-2.3c-5.89-0.49-11.84-0.44-17.71-1.06c-3.01-0.32-6.01-1.01-8.91-2.31
			c-2.5-1.11-5.59-1.02-8.42-1.46c-0.17,0.23-0.34,0.46-0.51,0.69c1.02,1.8,1.81,3.78,3.13,5.34c2.21,2.61,4.8,4.91,7.14,7.41
			c1.04,1.1,1.81,2.43,2.81,3.57c3.45,3.96,7.02,7.81,10.37,11.84c1.97,2.37,3.43,5.14,5.45,7.46c2.65,3.03,5.57,5.85,8.49,8.66
			c2.45,2.36,5.01,4.63,7.6,6.85c1.13,0.97,1.31,2,0.85,3.3c-0.22-0.04-0.43-0.01-0.53-0.1c-5.12-4.85-10.43-9.54-15.27-14.64
			c-3.13-3.29-5.49-7.24-8.36-10.77c-2.66-3.27-5.5-6.41-8.34-9.53c-2.23-2.45-4.72-4.7-6.87-7.21c-2.34-2.74-4.48-5.65-6.58-8.57
			C358.05,286.38,357.66,285.09,356.95,283.58z M356.8,305.02c0.24-0.16,0.48-0.32,0.72-0.48c-2.85-4.19-6.17-7.98-10.36-11.02
			c-0.16,0.14-0.32,0.28-0.48,0.41C350.05,297.63,353.42,301.33,356.8,305.02z"/>
		<path d="M383.38,397.85c1.52,0.7,3.11,1.29,4.54,2.13c3.1,1.81,6.25,3.56,9.13,5.66c3.87,2.83,8,5.08,12.55,6.73
			c1.76,0.64,3.53,1.54,4.92,2.73c1.41,1.21,2.61,2.81,3.41,4.46c0.65,1.33,1.47,1.99,2.84,2.04c1.33,0.05,2.69-0.03,4.01-0.2
			c1.49-0.19,2.84-0.25,4.26,0.54c2.4,1.33,5.03,2.28,7.4,3.66c1.02,0.59,1.81,1.77,2.34,2.85c1.46,2.98,3.49,5.27,7,5.93
			c1.25,0.23,2.56,0.16,3.85,0.21c3.47,0.13,7.02-0.13,10.4,0.47c3.63,0.64,7.06,2.21,10.65,3.13c2.14,0.55,4.41,0.68,6.64,0.93
			c4.33,0.49,8.67,0.98,13.01,1.37c1.35,0.12,1.63,0.79,1.74,1.9c0.39,4.06,0.93,8.1,1.22,12.16c0.12,1.67-0.3,3.37-0.42,5.07
			c-0.17,2.39-0.33,4.78-0.41,7.17c-0.03,0.93-0.27,1.53-1.11,2.14c-1.93,1.41-3.67,2.73-6.45,2.36c-1.51-0.2-3.19,0.76-4.8,1.19
			c-2.83,0.76-5.66,1.55-8.5,2.27c-1.23,0.31-2.51,0.68-3.76,0.64c-2.61-0.09-4.29,1.32-5.89,2.95c-0.65,0.67-1.32,1.33-1.88,2.07
			c-1.69,2.22-4,3.6-6.52,4.8c-4.56,2.18-9.24,4.21-13.5,6.84c-3.06,1.89-6.41,3.02-9.59,4.56c-1,0.48-1.98,1.03-3,1.47
			c-5.43,2.35-10.86,4.67-16.3,7c-7.76,3.31-15.31,7.01-22.74,10.95c-3.27,1.74-5.62,4.4-7.6,7.34c-2.38,3.55-4.9,7.06-6.79,10.84
			c-1.35,2.69-1.67,5.85-2.61,8.74c-0.57,1.77-1.14,3.68-2.28,5.11c-1.63,2.04-3.73,3.75-5.72,5.51c-1.26,1.11-2.67,2.05-4.01,3.08
			c-2.96,2.29-5.8,4.73-8.9,6.84c-1.45,0.99-3.34,1.48-5.1,1.94c-3.56,0.95-6.21,3.38-9.35,4.99c-4.31,2.21-8.35,4.92-13.14,6.31
			c-4.41,1.27-8.61,3.18-12.99,4.56c-2.4,0.75-5.01,0.9-7.48,1.48c-2.24,0.53-4.42,1.29-6.64,1.92c-0.4,0.11-0.84,0.07-1.3-0.11
			c2.08-1.91,4.62-2.75,7.28-3.01c6.34-0.63,12.19-2.78,18.1-4.88c5.06-1.8,9.87-4.03,14.51-6.63c1.98-1.1,3.76-2.53,5.76-3.59
			c2.1-1.11,4.28-2.2,6.56-2.84c4.26-1.2,7.36-3.99,10.6-6.59c3.06-2.47,6.01-5.06,9.01-7.6c0.24-0.21,0.55-0.39,0.71-0.65
			c1.64-2.67,3.47-5.29,3.98-8.42c0.75-4.6,2.78-8.69,5.26-12.59c1.65-2.6,3.5-5.1,5.44-7.51c3.17-3.92,7.57-6.3,12.12-8.44
			c6.18-2.9,12.35-5.82,18.58-8.62c2.94-1.32,6.06-2.3,9.01-3.6c5.1-2.25,10.19-4.51,15.18-6.97c6.41-3.16,12.73-6.48,19.03-9.84
			c1.09-0.58,1.87-1.68,2.79-2.54c1.96-1.84,3.89-3.7,5.91-5.48c0.41-0.36,1.14-0.63,1.67-0.57c2.86,0.33,5.35-0.88,7.96-1.58
			c3.42-0.92,6.87-1.76,10.3-2.62c0.32-0.08,0.7-0.23,0.99-0.15c2.05,0.58,3.6-0.14,4.76-1.72c0.47-0.64,0.98-1.38,1.09-2.13
			c0.39-2.65,0.82-5.32,0.85-7.98c0.03-2.52-0.4-5.04-0.67-7.56c-0.27-2.57-0.54-5.13-0.91-7.69c-0.06-0.41-0.62-1.03-1.02-1.08
			c-3.68-0.49-7.36-0.96-11.06-1.29c-4.79-0.42-9.47-1.15-14.01-2.84c-4.73-1.76-9.67-2.41-14.78-1.68
			c-4.38,0.62-10.23-1.98-11.86-6.49c-0.87-2.4-2.73-4-5.35-4.75c-1.28-0.37-2.47-1.12-3.77-1.3c-2.8-0.38-5.63-0.54-8.46-0.72
			c-2.31-0.15-2.91-0.39-3.48-2.63c-0.59-2.31-1.99-3.8-4.12-4.78c-3.36-1.54-6.81-2.94-10.07-4.66c-2.32-1.22-4.51-2.75-6.56-4.37
			c-3.88-3.08-8.23-5.32-12.77-7.34c-2.37-1.06-4.47-2.66-6.7-4.01c0.07-0.24,0.14-0.47,0.21-0.71c0.49,0,1.1-0.19,1.44,0.03
			c4.13,2.62,8.88,3.61,13.57,4.76c4.87,1.19,9.92,1.98,14.11,4.88c1.74,1.21,3.11,2.9,4.81,4.19c2.13,1.61,4.22,3.54,6.69,4.41
			c3.13,1.1,6.65,1.14,9.95,1.88c2.8,0.63,5.59,1.43,8.27,2.45c3.31,1.26,6.51,2.81,9.74,4.25c1.72,0.77,3.5,1.45,5.09,2.42
			c2.48,1.5,4.92,0.88,7.39,0.22c3.32-0.88,6.58-1.98,9.94-2.69c1.94-0.41,4.02-0.24,6.04-0.29c1.72-0.04,3.45-0.01,5.17-0.16
			c-4.86-2.74-10.12-4.33-15.46-5.64c-2.77-0.68-5.2-1.9-7.41-3.57c-2.35-1.77-5.27-2.06-7.96-2.96
			c-7.09-2.37-14.33-4.36-20.82-8.21c-2.66-1.58-5.78-2.42-8.68-3.62c-0.66-0.28-1.31-0.62-1.91-1c-4.18-2.63-8.37-5.25-12.5-7.95
			c-1.1-0.72-2.21-1.57-2.95-2.6c-2.27-3.16-5.55-3.58-8.92-2.83c-6.59,1.48-12.91,0.59-19.24-1.14c-2.14-0.58-4.39-0.83-6.46-1.56
			c-2.44-0.86-4.72-2.13-7.1-3.15c-3.34-1.43-6.69-2.84-10.08-4.17c-2.35-0.93-4.74-1.79-7.17-2.51c-1.31-0.39-2.74-0.37-4.09-0.63
			c-0.85-0.17-1.66-0.52-2.48-0.8c0.06-0.25,0.12-0.51,0.18-0.76c1.66,0.17,3.43,0.06,4.97,0.58c5.6,1.88,11.16,3.87,16.64,6.02
			c2.37,0.93,4.42,2.6,6.79,3.5c2.67,1.01,5.52,1.6,8.31,2.27c2.59,0.61,5.22,1.06,7.82,1.62c2.87,0.62,5.71,0.4,8.6-0.02
			c2.64-0.38,5.36-0.68,8.01-0.52c1.38,0.09,2.85,1.07,3.99,1.98c2.18,1.73,3.98,3.93,6.26,5.51c3.16,2.2,6.56,4.13,9.98,5.96
			c1.88,1.01,4.07,1.47,6.03,2.36c2.32,1.06,4.54,2.31,6.81,3.49c4.07,2.11,8.2,3.97,12.75,5.08c4.22,1.03,8.29,2.65,12.38,4.11
			c1.01,0.36,1.8,1.27,2.81,1.7c2.57,1.1,5.18,2.11,7.81,3.07c5.33,1.96,10.67,3.86,16.01,5.79c0.62,0.22,1.25,0.42,1.85,0.68
			c0.17,0.07,0.26,0.33,0.41,0.53c-0.32,0.4-0.62,0.77-0.82,1.02c-5.31-1.31-10.59-0.69-15.78-0.07c-3.53,0.42-7.03,1.6-10.38,2.84
			c-2.75,1.01-5.13,0.5-7.53-0.63c-2.91-1.38-5.68-3.08-8.67-4.27c-4.32-1.72-8.73-3.27-13.2-4.56c-3.24-0.93-6.65-1.31-9.98-1.95
			c-3.06-0.59-5.61-2.29-7.42-4.48c-4.13-4.99-9.71-7.1-15.84-8.51c-3.45-0.8-6.84-1.84-10.26-2.76c-0.2-0.05-0.42-0.05-0.64-0.08
			C383.44,397.69,383.41,397.77,383.38,397.85z"/>
		<path d="M423.47,195.47c-1.18,0.43-2.25,0.83-3.44,1.26c-0.15-0.68-0.5-1.34,0.74-1.59c1.07-0.21,2.1-0.59,3.13-0.92
			c2.64-0.86,5.24-1.84,7.92-2.58c4.27-1.17,8.61-2.09,12.86-3.32c1.59-0.46,3.17-1.28,4.46-2.28c2.83-2.21,5.3-4.88,8.25-6.92
			c2.85-1.97,6.05-3.49,9.2-5.01c3.25-1.57,6.86-1.28,10.36-1.3c3.67-0.01,7.35-0.03,11,0.32c4.69,0.44,9.34,1.24,14,1.88
			c0.61,0.08,1.25,0.05,1.84,0.18c0.64,0.15,1.25,0.44,1.86,0.96c-9.16,2.34-18.25,4.56-25.92,10.04c0.03,0.17,0.06,0.34,0.09,0.51
			c0.51,0.1,1.03,0.27,1.54,0.28c2.69,0.06,5.05,0.95,7.35,2.29c1.74,1.02,3.75,1.62,5.63,2.43c2.84,1.22,5.6,2.68,8.54,3.59
			c2.15,0.66,4.59,0.41,6.82,0.91c5.62,1.26,11.26,2.22,17.04,2.57c4.45,0.27,8.89,0.77,13.33,1.22c0.42,0.04,0.79,0.44,1.19,0.68
			c-0.34,0.29-0.68,0.82-1.03,0.84c-2.02,0.09-4.05-0.02-6.07,0.09c-2.19,0.12-4.48,0.06-6.53,0.68c-5.26,1.6-10.35,3.69-15.62,5.26
			c-3.35,1-6.87,1.63-10.37,2.01c-3.91,0.44-7.77-0.11-11.01-2.57c-3.24-2.46-6.54-4.87-9.55-7.58c-1.79-1.62-3.07-3.76-4.58-5.67
			c-1.43-1.81-2.06-1.92-3.92-0.62c-3.48,2.42-7.38,3.73-11.65,3.9c-3.27,0.13-6.55-0.04-9.81,0.12c-3.46,0.17-6.67-0.43-9.99-1.45
			c-2.44-0.75-5.34-0.34-8.01-0.14c-2.6,0.19-5.19,0.69-7.75,1.21C424.23,196.99,423.55,196.92,423.47,195.47z M498.77,176.12
			c-0.62-0.22-0.8-0.33-0.99-0.35c-3.31-0.4-6.6-0.94-9.92-1.13c-4.24-0.25-8.5-0.23-12.76-0.31c-2.48-0.05-4.98-0.19-7.3,0.96
			c-3.12,1.55-6.46,2.79-9.34,4.67c-2.68,1.76-4.89,4.19-7.31,6.32c-1.87,1.64-3.79,3.21-6.4,3.67c-2.31,0.4-4.66,0.61-6.91,1.21
			c-2.64,0.7-5.18,1.73-7.76,2.61c3.04,0.17,5.94,0.15,8.84,0.18c0.49,0.01,0.98,0.21,1.47,0.31c2.75,0.53,5.49,1.37,8.26,1.49
			c3.95,0.16,7.93-0.13,11.89-0.39c2.2-0.15,4.5-0.31,6.54-1.02c2.17-0.75,4.08-2.16,6.18-3.32c-1.23-1.39-2.08-2.45-3.04-3.41
			c-0.63-0.63-1.44-1.08-2.15-1.64c-0.63-0.5-1.23-1.04-1.84-1.57c0.14-0.22,0.28-0.44,0.42-0.66c0.75,0.22,1.51,0.4,2.24,0.67
			c0.46,0.17,0.84,0.58,1.3,0.67c2.18,0.43,4.37,0.8,6.56,1.16c0.36,0.06,0.83,0.08,1.09-0.09c0.99-0.68,1.87-1.51,2.87-2.17
			c1.65-1.08,3.26-2.31,5.07-3.05C489.93,179.24,494.18,177.8,498.77,176.12z M527.94,200.39c-0.52-0.17-0.81-0.33-1.11-0.35
			c-5.5-0.52-10.99-0.94-16.37-2.32c-2.91-0.74-6.11-0.61-8.89-1.6c-5.05-1.8-9.95-4.02-14.78-6.32c-2.6-1.24-5.37-1.24-8.07-1.78
			c-0.31-0.06-0.8,0.13-1.04,0.36c-0.98,0.92-1.9,1.9-2.8,2.82c1.23,0.87,2.6,1.46,3.4,2.48c3.16,3.99,6.55,7.68,10.81,10.66
			c4.26,2.98,8.93,4.53,14.05,3.71c4.87-0.78,9.75-1.75,14.32-3.83C520.75,202.72,524.28,201.71,527.94,200.39z M476.3,187.5
			c-1.81-0.34-3.73-0.69-6.02-1.12c1.36,1.45,2.41,2.57,3.8,4.04C474.92,189.31,475.6,188.41,476.3,187.5z"/>
		<path d="M557.92,87.95c3.06,1.26,5.96,2.29,8.71,3.62c3.83,1.87,7.8,1.74,11.84,1.15c0.63-0.09,1.2-0.53,1.82-0.76
			c0.67-0.24,1.36-0.48,2.06-0.6c0.23-0.04,0.66,0.26,0.75,0.49c0.09,0.22-0.07,0.67-0.27,0.82c-0.63,0.44-1.31,0.84-2.02,1.15
			c-4.22,1.81-8.35,3.91-12.73,5.27c-3.13,0.97-6.6,1.11-9.87-0.17c-4.88-1.9-9.78-3.75-14.64-5.71c-2.7-1.08-5.35-2.28-7.97-3.52
			c-1.28-0.6-2.58-1.27-3.65-2.14c-2.55-2.08-5.77-2.14-8.74-2.93c-2.89-0.77-5.85-1.33-8.75-2.07c-1.03-0.26-1.32-1.06-0.83-2.32
			c4.58-0.09,9.22-0.11,13.86-0.31c2.03-0.09,4.06-0.54,6.07-0.9c2.79-0.49,5.56-1.02,8.34-1.57c3.42-0.68,6.85-1.37,10.26-2.11
			c0.7-0.15,1.34-0.55,2-0.85c4.2-1.9,8.29-4.1,12.64-5.61c3.54-1.23,7.32-1.67,11.09,0.03c2.08,0.95,4.46,1.31,6.69,1.95
			c3.46,1,6.87,2.17,10.37,2.99c3.77,0.89,7.61,1.5,11.45,2.13c0.89,0.15,1.85-0.2,2.79-0.22c0.37-0.01,0.75,0.22,1.13,0.34
			c-0.17,0.35-0.26,0.94-0.53,1.02c-1.57,0.48-3.16,1.1-4.78,1.2c-5.58,0.36-10.97,1.48-15.92,3.93c-2.37,1.17-4.53,2.88-6.47,4.66
			c-4.17,3.83-8.83,4.43-14.19,2.87c-2.98-0.87-6.11-1.25-9.18-1.84C558.89,87.89,558.52,87.95,557.92,87.95z M602.75,77.01
			c0.01-0.1,0.03-0.2,0.04-0.3c-2.73-0.44-5.52-0.67-8.18-1.37c-5.23-1.38-10.4-2.98-15.56-4.58c-2.87-0.89-5.68-1.78-8.78-1.32
			c-4.33,0.64-8.22,2.45-11.94,4.43c-3.72,1.97-7.59,3.21-11.73,3.92c-3.44,0.59-6.91,1.13-10.3,1.95c-3.91,0.95-7.8,1.75-11.87,1.6
			c-1.67-0.06-3.35,0.18-5.03,0.28c1.63,0.79,3.29,1.2,4.94,1.66c2.18,0.61,4.49,0.99,6.5,1.93c2.88,1.36,5.5,3.23,8.32,4.73
			c2.05,1.09,4.2,2.05,6.38,2.88c2.38,0.91,4.87,1.53,7.26,2.42c1.97,0.73,3.8,1.83,5.81,2.44c4.45,1.37,12.23-0.18,15.71-2.79
			c-2.1-0.38-4.5-0.57-6.72-1.28c-2.33-0.74-4.42-2.17-6.75-2.96c-2.4-0.81-4.94-1.31-7.46-1.73c-1.23-0.21-2.55,0.09-3.83,0.12
			c-1,0.03-1.43-0.41-1.17-1.36c6.06-2.43,18.51-0.53,19.47,1.03c1.43,0,2.69-0.02,3.95,0c1.65,0.03,3.47,0.54,4.92,0.04
			c1.92-0.67,3.83-1.85,5.25-3.27c3.42-3.39,7.56-5.44,12.15-6.72C596.93,77.98,599.86,77.58,602.75,77.01z"/>
		<path d="M451.39,228.89c-1.58,0.28-3.16,0.6-4.75,0.84c-3.45,0.5-6.68,1.41-9.2,3.97c-0.99,1.01-2.24,1.78-3.39,2.63
			c-0.75,0.56-1.7,0.95-2.28,1.63c-2.6,3.04-6.36,3.42-9.96,4.07c-5.31,0.96-10.61,0.14-15.9-0.43c-3.47-0.38-6.98-0.51-10.44-0.96
			c-3.58-0.47-7.12-1.17-10.67-1.82c-3.12-0.57-6.22-1.21-9.33-1.82c-0.06,0.13-0.12,0.26-0.18,0.39c1.69,1.08,3.33,2.26,5.09,3.22
			c4.59,2.48,8.8,5.47,12.65,8.89c4.23,3.76,9.46,5.15,14.88,6.19c1.21,0.23,2.41,0.55,3.63,0.65c0.82,0.06,1.66-0.26,2.5-0.3
			c4.58-0.18,9.16-0.26,13.73-0.52c2.03-0.12,4.06-0.88,6.07-0.82c4.51,0.15,9.02,0.6,13.52,1.01c1.65,0.15,3.3,0.45,4.92,0.81
			c0.48,0.11,0.86,0.64,1.28,0.98c-0.45,0.2-0.89,0.49-1.36,0.57c-0.48,0.08-1.01-0.01-1.49-0.11c-1.76-0.36-3.49-0.91-5.27-1.11
			c-2.94-0.33-5.91-0.39-8.86-0.67c-4.84-0.46-9.49,0.81-14.2,1.47c-3.75,0.52-7.4-0.06-11.05-0.51c-3.68-0.46-7.29-1.49-10.95-2.17
			c-4.24-0.78-7.11-3.61-10.33-6c-3.66-2.72-7.58-5.13-11.38-7.68c-0.91-0.61-1.77-1.3-2.66-1.93c-2.11-1.5-4.52-1.92-7.07-1.65
			c-0.14-1.24,0.05-1.55,1.12-1.62c3.78-0.27,7.44-0.4,11.26,0.62c4.95,1.31,10.14,1.84,15.25,2.54c4.05,0.55,8.13,1.03,12.21,1.23
			c4.7,0.22,9.44,1.29,14.12-0.39c0.85-0.31,1.88-0.13,2.8-0.3c0.92-0.18,1.97-0.31,2.67-0.83c2.85-2.07,5.48-4.41,8.39-6.38
			c1.98-1.34,4.28-2.24,6.46-3.29c0.53-0.26,1.15-0.34,1.75-0.79c-0.32-0.08-0.64-0.21-0.96-0.24c-3.29-0.29-6.57-0.6-9.86-0.83
			c-0.88-0.06-1.78,0.25-2.67,0.23c-5.5-0.11-10.84,0.75-16.18,1.96c-2.75,0.62-5.66,0.74-8.5,0.76c-1.43,0.01-2.98-0.47-4.28-1.11
			c-3.83-1.9-7.74-1.56-11.77-0.94c-5.44,0.84-10.91,1.51-16.37,2.2c-4.23,0.53-8.48,0.96-12.73,1.44c-0.04-0.25-0.11-0.69-0.2-1.26
			c2.21-0.23,4.4-0.52,6.61-0.69c6.7-0.54,13.36-1.28,19.95-2.62c2.4-0.49,4.86-0.98,7.28-0.97c2.05,0,4.25,0.38,6.11,1.19
			c3.24,1.41,6.46,1.53,9.84,1.01c4.74-0.73,9.47-1.74,14.25-2.08c4.28-0.3,8.64-0.01,12.94,0.3c2.74,0.2,5.43,1.04,8.17,1.37
			c1.52,0.18,3.11-0.1,4.67-0.17C451.29,228.32,451.34,228.6,451.39,228.89z"/>
		<path d="M442.59,404c-0.4,0.66-0.93,0.92-1.56-0.4c-1.64-3.48,0.35-6.8,4.38-6.93c3.23-0.1,6.16-1.13,9.17-2.01
			c5.18-1.52,10.36-3.05,15.55-4.53c1.41-0.4,2.87-0.68,4.42-1.04c-1.74-0.43-3.69-0.39-4.85-1.29c-3.67-2.85-8.08-3.87-12.34-5.34
			c-0.44-0.15-0.73-0.67-1.09-1.02c0.49-0.14,0.98-0.39,1.47-0.4c4.28-0.07,8.57,0.53,12.82-0.42c1.56-0.35,3.22-0.28,4.75-0.68
			c3.06-0.8,6.16-1.6,9.07-2.77c3.49-1.41,6.58-0.96,9.48,1.13c2.67,1.92,5.81,2.66,8.95,2.73c6.08,0.13,12.18,0,18.24-0.37
			c3.75-0.22,7.45-1.22,11.2-1.61c4.67-0.48,7.93-3.12,11.08-6.07c2.77-2.6,5.97-3.51,9.93-3.1c3.23,0.33,6.59-0.06,9.84-0.52
			c6.3-0.9,12.55-2.08,18.83-3.15c5.26-0.89,10.53-1.77,15.79-2.68c0.81-0.14,1.6-0.41,2.4-0.59c0.1-0.02,0.25,0.16,0.67,0.44
			c-0.77,0.43-1.35,0.95-2.02,1.09c-3.97,0.82-7.95,1.56-11.94,2.3c-4.45,0.83-8.89,1.72-13.37,2.42
			c-4.41,0.69-8.84,1.33-13.29,1.71c-3.16,0.27-6.37,0.16-9.54,0.06c-2.93-0.1-5.02,1.39-6.91,3.17c-2.45,2.32-4.94,4.55-8.4,5.34
			c-2.59,0.59-5.21,1.06-7.82,1.53c-1.53,0.27-3.08,0.54-4.63,0.64c-3.38,0.22-6.77,0.38-10.16,0.47c-3.4,0.1-6.81,0.27-10.19,0.08
			c-3.64-0.2-7.17-0.98-10.22-3.13c-0.79-0.56-1.75-0.94-2.68-1.28c-1.93-0.7-3.95-0.07-5.46,0.73c-4.31,2.25-8.94,2.75-13.65,3.19
			c-2.97,0.28-5.94,0.62-9.08,0.95c1.15,0.44,2.25,0.91,3.4,1.28c1.85,0.61,3.65,1.22,5.01,2.74c0.46,0.52,1.46,0.7,2.25,0.82
			c3.75,0.56,7.3-0.46,10.82-1.48c1.18-0.34,2.19-0.46,3.11,0.74c-1.07,1.67-2.99,1.92-4.68,2.3c-3.61,0.8-7.31,1.26-10.91,2.07
			c-3.71,0.83-7.4,1.82-11.04,2.91c-3.04,0.91-5.95,2.19-9,3.08c-1.99,0.58-4.12,0.67-6.16,1.13c-1.91,0.43-2.98,1.62-2.79,3.1
			C441.55,402.1,442.07,402.82,442.59,404z"/>
		<path d="M645.82,322.24c0.27,0.18,0.7,0.47,1.15,0.77c-5.2,4.14-9.04,9.22-13.29,13.98c-4.88,5.47-10.34,10.41-16.38,14.77
			c-4.24,3.06-7.9,6.75-11.02,10.97c-1.15,1.56-3.56,2.28-5.42,3.34c-1.87,1.06-3.74,2.13-5.68,3.05c-2.6,1.24-5.29,2.32-7.91,3.54
			c-1.36,0.63-2.68,1.35-3.93,2.15c-1.03,0.66-1.64,1.4-1.29,2.9c0.58,2.52,0.61,2.72,3.29,2.35c1.09-0.15,2.2-0.26,3.3-0.26
			c1.77,0,1.99,0.61,1.51,2.26c-0.73,2.51-2.1,4.56-4.29,6.15c0.07,0.12,0.13,0.24,0.2,0.37c1.38-0.19,2.76-0.48,4.15-0.53
			c2.2-0.09,4.4-0.01,6.61-0.01c0.82,0,1.7,0.15,2.47-0.06c5.39-1.43,10.76-2.92,16.13-4.43c0.74-0.21,1.4-0.68,2.13-0.92
			c0.47-0.15,1.02-0.07,1.9-0.12c-1.87,2.69-4.49,3.2-6.91,3.99c-4.45,1.44-8.84,3.01-12.61,5.76c-0.98,0.72-1.44,2.08-2.2,3.1
			c-1.1,1.5-2.26,2.97-3.45,4.53c-0.74-0.6-1.03-1.1-0.24-1.95c1.02-1.1,2.22-2.2,2.76-3.52c1.07-2.61,3.28-3.82,5.61-4.96
			c1.77-0.87,3.61-1.59,5.33-2.69c-1.41,0.42-2.83,0.83-4.23,1.28c-1.32,0.43-2.59,1.13-3.94,1.31c-1.25,0.17-2.58-0.25-3.88-0.29
			c-1.47-0.05-2.96-0.06-4.42,0.08c-2.05,0.19-4.09,0.55-6.14,0.8c-0.39,0.05-1,0.01-1.15-0.21c-0.18-0.26-0.09-0.85,0.12-1.14
			c0.51-0.7,1.08-1.41,1.78-1.92c1.4-1.02,2.35-2.22,2.62-3.93c0.09-0.55,0.49-1.06,0.92-1.93c-1.73,0.12-3.26,0.13-4.75,0.36
			c-2.4,0.37-3.3-0.19-3.68-2.54c-0.03-0.21,0.03-0.5-0.09-0.63c-1.76-1.81-0.32-2.78,1.11-3.6c2.15-1.23,4.38-2.34,6.58-3.49
			c2.68-1.4,5.36-2.82,8.07-4.19c1.33-0.67,2.68-1.32,4.07-1.85c2.94-1.13,4.84-3.33,6.74-5.61c1.52-1.83,3.16-3.61,5.01-5.13
			c3.86-3.18,8.14-5.93,11.77-9.32c4.44-4.16,8.41-8.78,12.57-13.22c2.44-2.61,4.85-5.24,7.29-7.85
			C644.6,323.24,645.17,322.81,645.82,322.24z"/>
	</g>
</g>
</svg>
