<?xml version="1.0" encoding="utf-8"?>
<!-- Generator: Adobe Illustrator 26.0.2, SVG Export Plug-In . SVG Version: 6.00 Build 0)  -->
<svg version="1.1" xmlns="http://www.w3.org/2000/svg" xmlns:xlink="http://www.w3.org/1999/xlink" x="0px" y="0px"
	 viewBox="0 0 800 800" style="enable-background:new 0 0 800 800;" xml:space="preserve">
<style type="text/css">
	.st0{display:none;}
	.st1{display:inline;}
	.st2{fill:#2D2D2D;}
	.st3{fill:#3C3D3D;}
	.st4{fill:#131313;}
	.st5{fill:#FFFFFF;}
	.st6{fill:#FCFCFC;}
	.st7{fill:#2A2A2A;}
	.st8{fill:#565454;}
	.st9{fill:#767373;}
	.st10{fill:#959292;}
	.st11{fill:#C6C4C4;}
</style>
<g id="back" class="st0">
	<rect x="1.17" class="st1" width="800" height="800"/>
</g>
<g id="Front">
	<g>
		<path class="st4" d="M368.05,528.42c-1.2,1.16-1.97,2.61-3.48,3.39c-0.66,0.34-0.46,1.48-1.39,1.97
			c-1.64,0.86-3.34,0.77-5.04,0.75c-4.75-0.06-9.09-1.7-13.22-3.83c-1.71-0.88-3.13-2.31-4.73-3.42c-0.73-0.51-1.55-0.88-2.36-1.28
			c-3.49-1.74-5.57-4.9-7.9-7.8c-1.38-1.73-2.59-3.6-4.04-5.27c-1.87-2.15-1.82-4.6-1.57-7.17c0.27-2.76,0.61-5.51,1.29-8.21
			c0.46-1.82,0.89-3.64,1.41-5.44c0.2-0.68,0.14-1.02-0.58-1.31c-3.9-1.61-7.5-3.82-11.17-5.87c-0.64-0.36-1.17-0.92-1.54-1.42
			c-1.56-2.11-3.9-3.24-5.81-4.9c-1.31-1.13-2.98-0.83-4.56-0.65c-2.92,0.33-5.85,0.66-8.76,1.04c-0.91,0.12-1.82,0.38-2.7,0.67
			c-1.77,0.57-3.13,0.13-4.07-1.38c-1.12-1.8-2.42-3.49-3.36-5.41c-2.21-4.53-4.67-8.97-4.3-14.3c0.07-1.03-0.24-2.08-0.36-3.12
			c-0.03-0.26-0.1-0.48-0.31-0.62c-4.35-2.97-7.62-7.25-12.22-9.94c-1.69-0.98-3.51-1.05-5.28-1.19c-2.14-0.17-4.18-0.86-6.3-0.99
			c-1.79-0.1-3.49-0.7-5.26-0.94c-1.36-0.18-2.56-1.34-3.92-1.83c-2.94-1.06-5.11-3.31-7.75-4.84c-0.51-0.3-0.8-0.26-1.23-0.12
			c-1.44,0.49-2.64,1.52-4.16,1.85c-1.69,0.38-3.38,0.81-5.14,0.73c-0.25-0.01-0.65,0.03-0.45-0.46c0.18-0.43-0.26-0.4-0.31-0.29
			c-0.53,1.11-1.43,0.48-2.11,0.41c-6.85-0.67-13.14-3.36-19.61-5.42c-2.75-0.88-5.66-0.99-8.47-1.57
			c-3.26-0.68-6.51-1.44-9.78-2.06c-1.16-0.22-2.38-0.13-3.58-0.19c-1.04-0.05-1.66-0.27-1.61-1.64c0.14-3.28,0.04-6.57,0.05-9.86
			c0-1.42,1.07-2.25,2.46-1.79c3.16,1.04,6.49,1.04,9.71,1.69c1.86,0.37,3.76,0.51,5.57,1.16c1.38,0.5,2.93,0.08,4.34,0.62
			c3.8,1.46,7.72,2.53,11.28,4.68c2.68,1.62,5.63,2.87,8.59,3.91c4.58,1.6,8.88,3.71,12.98,6.26c0.72,0.45,1.26,0.43,1.99,0.23
			c2.36-0.66,4.7-1.44,7.1-1.82c1.72-0.28,3.48,0.21,5.14,0.93c2.04,0.88,4.09,1.74,5.71,3.32c2.71,2.64,6.15,4.34,8.88,6.93
			c1.09,1.03,2.4,0.95,3.62,1.14c2.78,0.42,5.57,0.94,8.41,0.9c1.03-0.01,1.7,0.07,1.53,1.64c-0.26,2.49,0.26,5.04,1.04,7.42
			c0.53,1.62,2.01,2.73,3.15,3.97c2.01,2.17,4.23,4.16,6.35,6.23c2.27,2.21,4.38,4.6,7.12,6.26c2.5,1.51,5.03,3.01,7.27,4.86
			c2.42,1.99,5.29,2.09,8.12,2.46c4.07,0.53,7.97,1.81,11.99,2.55c2.15,0.4,4.28,0.81,6.24,1.89c0.56,0.31,0.97,0.16,1.29-0.56
			c1.07-2.41,2.45-4.66,3.97-6.82c0.6-0.85,1.03-1.72,1.07-2.77c0.18-5.42,2.16-10.24,4.83-14.85c2.22-3.82,4.34-7.71,6.63-11.48
			c1.83-3,4.24-5.58,6.61-8.16c1.39-1.51,1.81-2.98,1.38-5.07c-0.8-3.84-1.31-7.74-2.57-11.48c-0.07-0.21-0.06-0.48,0.02-0.68
			c0.93-2.44,1.68-5.01,4.15-6.44c0.51-0.29,0.31-0.59,0.22-0.95c-0.51-2.21-0.65-4.46-0.71-6.72c-0.04-1.29-0.03-2.59-0.28-3.88
			c-0.62-3.19,0.3-6.3,0.63-9.43c0.17-1.56-0.1-3.15,0.38-4.66c-0.39-0.37-0.72-0.03-0.91,0.12c-3.09,2.48-7.03,3.19-10.42,5.04
			c-2.66,1.45-5.43,2.69-8.04,4.21c-3.43,2.01-7.14,3.46-10.62,5.36c-2.1,1.15-4.2,2.37-5.75,4.19c-0.54,0.64-0.88,1.49-1.84,2.22
			c0.94-3.84,3.35-6.28,6.07-8.38c3.72-2.87,7.1-6.17,11.12-8.67c2.02-1.26,4.17-2.29,6.2-3.54c2.27-1.41,4.57-2.78,6.84-4.19
			c1.8-1.11,3.62-2.15,5.68-2.71c1.24-0.34,1.68-1.01,1.6-2.4c-0.17-2.87-0.94-5.64-1.12-8.52c-0.21-3.45,0.15-6.81,0.56-10.2
			c0.65-5.39,2.11-10.69,1.83-16.17c-0.13-2.53-0.62-5.05-0.82-7.58c-0.25-3.05-0.81-6.08-0.63-9.16c0.06-1.01,0.02-2.01-0.22-3
			c-0.11-0.47-0.08-1.07,0.55-1.15c0.73-0.09,0.45,0.58,0.5,0.93c0.56,4.12,1.82,8.09,2.53,12.17c0.43,2.49,0.36,5.03,0.69,7.53
			c0.78,5.88,1.55,11.77,2.35,17.65c0.62,4.54,1.31,9.07,1.6,13.65c0.03,0.42,0.11,0.82-0.07,1.29c1.96-1.05,3.79-2.18,5.74-3.1
			c4.43-2.09,8.62-4.69,13.13-6.64c2.93-1.26,6.03-2.18,8.59-4.16c3.95-3.06,8.33-5.58,11.86-9.16c1.27-1.29,2.37-2.74,3.5-4.16
			c0.69-0.87,1.43-1.66,2.36-2.27c1.25-0.81,2.45-0.99,3.7,0.04c2.3,1.9,4.83,3.42,7.59,4.58c0.47,0.2,0.67,0.3,1.05-0.14
			c1.88-2.12,4.31-3.54,6.64-5.08c0.8-0.53,1.34-1.28,1.78-2.14c0.52-1.01,1.18-1.26,2.11-0.38c2.31,2.19,4.6,4.4,7,6.48
			c3.37,2.92,6.83,5.73,10.26,8.57c0.63,0.52,1.28,0.99,1.77,1.68c0.9,1.26,2.32,1.74,3.7,2.23c0.59,0.21,1.04-0.19,1.41-0.54
			c1.08-1.01,2.3-1.87,3.23-3.05c2.07-2.64,4.75-4.65,7.28-6.81c0.41-0.35,0.77-0.71,1.07-1.13c1.48-2.08,3.81-2.89,5.93-4.02
			c0.78-0.42,0.91-0.66,0.4-1.43c-1.08-1.6-1.03-3.63-1.93-5.33c-0.98-1.86-1.68-3.86-2.93-5.58c-1.22-1.69-2.09-3.6-2.74-5.52
			c-0.45-1.32-0.33-2.91-0.12-4.33c0.16-1.12,0.02-2.29,0.47-3.39c0.14-0.34,0.21-0.94-0.25-1.19c-2.36-1.27-4.06-3.57-6.73-4.36
			c-1.1-0.32-2.2-0.71-3.32-0.87c-0.91-0.13-1.07-0.46-1-1.32c0.18-2.11,0.12-2.22-1.94-2.13c-4.72,0.19-9.44,0.31-14,1.91
			c-2.24,0.78-4.66,1.04-6.99,1.54c-2.18,0.47-4.35,0.98-6.54,1.44c-0.86,0.18-1.26,1-2.01,1.32c-0.41,0.17-0.8,0.26-1.32,0.11
			c1.11-1.92,2.55-2.94,4.88-3.07c3.43-0.19,6.68-1.44,9.95-2.41c5.72-1.69,11.38-3.6,17.28-4.6c0.69-0.12,0.81-0.36,0.72-0.89
			c-0.59-3.34,0.06-6.69,0.15-10.02c0.05-1.72-0.62-1.96-1.86-2.34c-2.94-0.9-5.78-2.14-8.76-2.84c-2.3-0.54-4.52-1.21-6.69-2.12
			c-2.23-0.94-4.35-2.16-6.66-2.93c-1.79-0.6-3.57-1.21-5.36-1.78c-0.37-0.12-0.73,0.09-1.11,0.21c-3.37,1.03-6.5,2.6-9.47,4.42
			c-1.61,0.99-3.35,1.03-4.97,1.03c-5.55,0.01-10.86,1.12-16.11,2.81c-3.35,1.08-6.71,1.41-10.07-0.08
			c-1.56-0.69-3.32-0.74-4.94-1.39c-2.16-0.87-4.11-2.11-6.02-3.34c-2.54-1.64-5.22-2.99-7.8-4.53c-3.06-1.82-6.32-3.21-9.52-4.72
			c-1.33-0.63-2.69-1.22-4.03-1.82c-0.41-0.18-0.8-0.41-0.81-0.92c-0.01-0.45,0.1-0.77,0.68-0.47c3.16,1.67,6.79,1.73,10.1,2.94
			c1.72,0.63,3.55,0.98,5.28,1.55c2.77,0.91,5.6,1.06,8.44,1.4c3.21,0.38,6.26,1.52,9.39,2.31c2.85,0.72,5.61,1.81,8.55,2.2
			c1.58,0.21,2.72-0.84,4.06-1.31c3.63-1.27,7.12-3.01,10.81-4c5.73-1.53,11.37-0.72,16.67,1.95c1.03,0.52,1.74,0.01,2.55-0.23
			c2.39-0.7,4.26-2.25,5.94-3.98c0.95-0.98,1.96-0.89,3.01-0.6c3.45,0.98,6.7,2.4,9.85,4.17c2.36,1.32,4.75,2.66,7.31,3.6
			c0.62,0.23,1.13,0.65,1.28,1.27c0.45,1.85,1.43,3.6,1.16,5.61c-0.09,0.7,0.04,1.05,0.91,1.24c2.39,0.53,4.32,2.09,6.22,3.48
			c1.02,0.74,1.3,2.39,1.85,3.63c0.46,1.02,1.32,1.88,1.4,3.1c0.04,0.65,0.54,0.36,0.97,0.22c2.89-0.91,5.61-2.32,8.65-2.77
			c2.59-0.39,5.15-0.98,7.78-1.2c1.12-0.09,2.18-0.04,2.86-1.56c1.66-3.72,4.12-6.94,7.54-9.27c2.35-1.6,4.87-2.84,7.86-2.08
			c0.5,0.13,0.79,0.02,1.1-0.39c0.4-0.54,0.9-1.01,1.31-1.54c1.37-1.79,1.74-2.02,3.8-1.13c3.53,1.52,7.31,2.38,10.69,4.36
			c1.58,0.93,3.33,1.62,4.93,2.57c1.64,0.98,3.33,0.47,4.86-0.19c1.88-0.82,3.54-1.2,5.46,0c3.03,1.9,6.63,2.23,9.96,3.32
			c3.68,1.21,7.37,1.22,11.12,0.91c1.05-0.09,2.05-0.5,3.13-0.38c0.44,0.05,0.57-0.36,0.69-0.77c0.9-3.04,2.67-5.55,4.84-7.82
			c3.03-3.17,6.75-5.47,10.14-8.18c2.06-1.65,4.37-3.07,6.08-5.02c1.2-1.36,2.82-2.44,3.54-4.25c0.41-1.02,1.5-1.37,2.32-2
			c1.9-1.45,3.7-3.03,5.52-4.58c0.47-0.4,0.95-0.83,1.47-0.23c0.56,0.64-0.07,1.15-0.49,1.42c-2.18,1.41-3.77,3.36-5.29,5.42
			c-0.58,0.78-1.2,1.62-1.37,2.47c-0.49,2.49-2.28,4.09-3.62,6.01c-0.98,1.39-2.31,2.43-3.52,3.53c-2.53,2.32-4.09,5.14-5.26,8.27
			c-0.25,0.67-0.49,1.37-0.86,1.97c-0.76,1.24-1.06,2.58-0.88,4c0.17,1.32-0.5,1.76-1.64,1.72c-1.05-0.04-2.12-0.09-3.15-0.3
			c-2.02-0.41-4.07-0.43-6.11-0.55c-0.88-0.05-1.38,0.29-1.4,1.18c-0.04,1.6-0.42,3.21-0.11,4.81c0.25,1.31-0.28,2.11-1.41,2.78
			c-3.14,1.87-6.52,3.13-9.96,4.29c-0.41,0.14-0.86,0.25-1.19,0.5c-1.83,1.4-3.14,0.19-4.59-0.78c-4.08-2.71-7.15-6.52-10.7-9.8
			c-2.21-2.05-4.57-3.94-6.89-5.87c-0.57-0.47-1.22-0.47-1.99-0.45c-2.85,0.07-5.71,0.01-8.55-0.22c-1.47-0.12-2.95-0.26-4.42-0.62
			c-1.93-0.47-3.87-0.89-5.53-2c-0.97-0.64-1.59-0.47-2.35,0.3c-2.03,2.04-4.22,3.91-6.08,6.12c-1.59,1.89-3.41,3.46-5.81,4.22
			c-0.13,0.04-0.26,0.22-0.37,0.21c-2.53-0.37-3.32,1.45-4.3,3.22c-1.33,2.44-3.24,4.33-5.8,5.57c-1.86,0.9-3.8,0.5-5.68,0.53
			c-1.55,0.02-3.1,0.27-4.7,0.04c-2.32-0.33-2.91,0.39-2.48,2.8c0.34,1.92,0.9,3.81,0.89,5.79c0,0.58,0.52,0.59,0.94,0.68
			c3.34,0.72,6.33,2.11,9.18,4.03c2.23,1.5,4.47,3.04,6.99,4.11c2.72,1.15,2.7,1.4,2.07,4.21c-0.57,2.57-2.41,4.5-3.27,6.91
			c-0.88,2.49-2.87,4.21-4.35,6.28c-0.71,1-1.17,2.33-2.78,2.33c-0.39,0-0.3,0.52-0.39,0.84c-1,3.78-1.58,7.73-4.25,10.85
			c-0.41,0.47-0.79,1.08-1.33,1.3c-2.79,1.14-5.17,3.05-8.04,4.03c-1.52,0.52-2.62,1.85-3.85,2.88c-0.44,0.36,0.08,0.84,0.35,1.05
			c1.35,1.09,2.13,2.73,3.64,3.68c0.53,0.33,0.89,0.99,1.24,1.56c2.65,4.33,5.61,8.46,8.38,12.71c1.16,1.78,1.96,3.83,3.28,5.47
			c1.6,1.99,2.64,4.29,4.08,6.35c2.13,3.05,4.16,6.18,6.28,9.24c0.42,0.6,0.28,1.74,1.23,1.77c0.79,0.02,1.12-0.96,1.73-1.4
			c3.16-2.29,5.91-5.04,8.64-7.81c0.31-0.32,0.53-0.69,1.04-0.64c0.69,0.07,0.39,0.66,0.52,1.02c1.01,2.92,2.59,5.55,4.14,8.19
			c1.03,1.74,1.23,1.83,3.02,0.76c0.75-0.45,1.59-0.13,2.38-0.31c2-0.45,3.99-0.9,5.91-1.64c0.58-0.22,1.26-0.51,1.72,0.11
			c0.47,0.64-0.27,0.96-0.53,1.44c-1.62,2.96-4.08,5.07-6.8,6.92c-0.56,0.38-0.7,0.6-0.19,1.03c1.62,1.36,2.32,3.4,3.37,5.1
			c0.74,1.2,1.06,3.26,0.47,4.95c-0.34,0.97-1.45,1.39-2.24,1.66c-2,0.69-3.83,1.8-5.88,2.32c-3.06,0.77-5.01-0.17-6.57-3.14
			c-0.47-0.89-0.71-0.87-1.38-0.29c-0.96,0.84-2.11,1.43-3.05,2.32c-0.58,0.55-1.18-0.07-1.66-0.47c-2.51-2.13-4.41-4.79-6.03-7.59
			c-0.99-1.7-2.02-3.33-3.19-4.9c-0.38-0.51-0.79-0.55-1.4-0.63c-2.97-0.39-4.74,1.81-6.96,3.03c-1.2,0.66-2.17,1.68-3.1,2.62
			c-1.35,1.36-2.98,1.87-4.67,2.33c-2.15,0.59-3.96,1.88-5.91,2.84c-1.24,0.61-1.55,2.35-2.15,3.62c-0.84,1.79-1.54,3.66-2.17,5.54
			c-0.69,2.06-0.36,4.1,0.22,6.18c0.52,1.87,0.73,3.84,1,5.77c0.44,3.16,0.81,6.31-0.42,9.41c-0.52,1.32-1,2.65-1.47,3.99
			c-1,2.83-0.41,5.41,0.84,7.95c0.13,0.26,0.34,0.51,0.37,0.78c0.32,2.55,2.15,2.85,4.25,3.1c3.8,0.44,7.51,1.4,11.22,2.32
			c3.17,0.78,6.35,1.93,9.61,1.81c2.62-0.1,4.9,1.06,7.42,1.16c1.25,0.05,1.98,1.5,3.39,1.54c1.17,0.04,2.35,0.23,3.49,0.61
			c0.47,0.16,1.28-0.03,1.14,0.7c-0.13,0.64-0.96,0.85-1.54,0.65c-2.65-0.92-5.42-1.24-8.15-1.71c-4.3-0.74-8.54-1.86-12.91-2.22
			c-2.09-0.17-4.09-0.98-6.21-0.94c-2.9,0.05-5.78,0.17-8.63,0.81c-0.62,0.14-0.43,0.28-0.41,0.72c0.15,2.97,1.05,5.85,1.08,8.83
			c0.03,3.36-2.17,6.43-4.94,7.49c-1.58,0.6-3.48,0.66-5.25,0.47c-2.47-0.26-3.1,0.07-3.14,2.63c-0.03,1.99-1.14,3.62-1.31,5.54
			c-0.09,1.04-1.43,1.31-2.28,1.8c-4.12,2.35-8.59,2.53-13.14,1.83c-1.13-0.17-2.14,0.23-3.23,0.25c-0.53,0.01-1.04,0.07-1.51-0.14
			c-2.12-0.97-4.41-1.57-6.37-2.9c-0.83-0.56-1.65-0.69-2.69-0.46c-4.89,1.09-9.26,0.1-12.89-3.51c-1.43-1.42-3.57-1.86-4.86-3.51
			c-0.29-0.37-0.64,0.12-0.74,0.38c-0.93,2.4-3.01,3.91-4.54,5.84c-0.95,1.21-2.51,1.76-3.86,2.36c-2.59,1.15-5.25,2.2-7.59,3.74
			c-1.24,0.82-1.9,2.5-2.84,3.77c-1.82,2.48-3.16,5.27-5.09,7.67c-0.33,0.41-0.27,0.61,0.14,0.91c3.06,2.18,6.18,4.26,8.77,7.05
			c0.7,0.76,1.88,1.07,2.83,1.6c0.77,0.43,1.24,0.95,0.46,1.79c-0.26,0.28-0.29,0.6-0.35,0.99c-0.27,1.71-0.9,3.28-1.62,4.91
			c-2.24,5.11-4.58,10.25-5.26,15.92c-0.17,1.41-0.5,2.88-1.12,4.15c-0.65,1.32-0.31,2.38,0.14,3.56c1.39,3.72,2.88,7.41,4.08,11.19
			c1.29,4.07,1.69,8.33,2.14,12.55c0.12,1.16,0.66,2.21,0.64,3.39c-0.01,0.59,0.52,0.6,0.92,0.7c2.9,0.69,5.86,0.81,8.81,0.53
			c4.27-0.39,8.35,0.54,12.46,1.37c2.98,0.6,5.89,1.6,8.95,1.77c1.89,0.1,3.7-0.51,5.47-1.08c2.13-0.69,4.25-1.05,6.48-0.55
			c2.39,0.54,4.82,0.14,7.22,0.21c1.88,0.05,3.74-0.11,5.62-0.17c0.98-0.03,1.93,0.22,2.77,0.66c2.15,1.12,4.62,1.36,6.77,2.49
			c0.5,0.26,1.1,0.47,1.45,0.88c1.4,1.65,2.98,0.98,4.68,0.65c1.86-0.36,3.34-1.63,5.21-1.88c2.46-0.33,4.86,0.23,7.29,0.45
			c1.96,0.17,3.73,0.73,5.46,1.75c2.24,1.33,4.87,1.82,7.31,2.72c4.24,1.56,8.48,3,11.91,6.16c1.14,1.05,2.85,1.28,4.25,2
			c2.37,1.22,4.36,2.94,6.55,4.39c1.25,0.82,2.66,1.29,3.91,2.08c2.94,1.85,5.95,3.49,9.33,4.46c2.17,0.62,4.4,0.84,6.59,1.29
			c0.27,0.06,0.55,0.14,0.8,0.27c0.45,0.23,1.11,0.46,0.81,1.11c-0.3,0.65-0.84,0.12-1.27,0.03c-0.56-0.12-1.11-0.43-1.66-0.41
			c-4.19,0.19-7.89-1.9-11.9-2.61c-3.27-0.58-6.55-1.39-9.66-2.93c-3.42-1.69-7.03-3.09-10.75-4.14c-4.47-1.26-8.66-3.28-12.92-5.1
			c-4.86-2.08-9.83-3.66-15.06-4.51c-2.22-0.36-4.39-1.01-6.57-1.56c-0.41-0.1-0.87-0.26-1.14-0.54c-1.1-1.15-2.37-1.13-3.6-0.46
			c-2.36,1.3-5.07,1.37-7.52,2.36c-1.74,0.7-3.47,1.32-5.03,2.44c-2.11,1.52-4.55,1.85-7.12,1.24c-4.15-0.97-8.2-2.2-12.03-4.09
			c-0.17-0.08-0.33-0.19-0.47-0.31c-1.55-1.28-3.1-2.18-5.32-1.58c-1.85,0.5-3.9-0.1-5.74,0.78c-0.99,0.47-2.01,0.88-2.96,1.42
			c-1.81,1.03-3.8,1.46-5.81,1.39c-1.68-0.06-3.36,0.03-5.03,0.06c-1.79,0.03-3.37-0.58-4.93-1.22c-1.09-0.45-1.58-1.62-2.14-2.59
			c-1.37-2.36-2.72-4.75-3.14-7.52c-0.08-0.55-0.34-0.77-0.98-0.92c-1.8-0.41-3.55-1.08-5.43-1.04c-0.72,0.02-1.46-0.12-2.12,0.58
			c-0.44,0.47-1.31,0.33-1.9,0.06c-0.68-0.31-0.51-1.09-0.45-1.67c0.18-1.66,0.63-3.3,1.07-4.88c0.57-2.04,0.69-3.96,0.18-5.96
			c-1.05-4.15-0.45-8.24,0.32-12.34c0.29-1.55,0.65-3.09,1.03-4.62c0.24-0.96-0.03-1.83-0.32-2.69c-0.71-2.12-1.52-4.22-2.24-6.34
			c-1.37-4.05-2.71-8.11-3.83-12.24c-0.74-2.7-1.59-5.39-2.74-7.96C369.04,530.77,368.95,529.5,368.05,528.42z M451.2,428.85
			c0.75-0.57,1.18-1.33,1.72-2c1.34-1.65,2.37-3.66,4.74-4.15c0.88-0.18,1.77-0.25,2.63-0.59c1.92-0.77,3.94-1.13,5.99-1.42
			c3.86-0.55,7.7-1.15,11.06-3.43c0.82-0.56,1.7-1.2,2.79-1.29c1.1-0.09,1.81-0.95,2.7-1.45c0.22-0.12,0.58-0.39,0.33-0.66
			c-0.54-0.59-0.54-1.4-0.99-2.03c-2.07-2.9-4.81-5.1-7.51-7.34c-1.65-1.37-3.44-2.6-4.96-4.11c-2.29-2.28-4.38-4.75-6.59-7.12
			c-4.1-4.4-7.61-9.29-11.57-13.81c-0.47-0.54-0.88-0.7-1.4-0.07c-1.39,1.66-3.28,2.76-4.83,4.23c-1.42,1.34-2.8,2.68-3.89,4.35
			c-1.05,1.63-1.94,3.44-3.55,4.64c-1.59,1.18-3.3,2.28-4.19,4.11c-1.1,2.26-4.05,2.77-4.8,5.32c-0.13,0.43-0.69,0.28-1.03,0.17
			c-0.42-0.13-0.26-0.47-0.21-0.83c0.15-0.99,0.58-1.82,1.21-2.57c1.46-1.73,2.56-3.73,3.87-5.57c1.63-2.3,3.04-4.83,4.95-6.89
			c3.33-3.59,6.22-7.55,9.51-11.16c0.28-0.3,0.4-0.47,0.08-0.81c-2.71-2.88-4.75-6.4-8.18-8.57c-1.86-1.18-3.36-2.73-4.82-4.34
			c-2.79-3.06-5.8-5.82-9.69-7.48c-0.72-0.31-1.19-0.46-1.75,0.16c-0.39,0.43-0.83,0.8-1.27,1.17c-2.97,2.52-5.24,5.74-8.24,8.23
			c-1.76,1.46-3.45,2.96-5.57,3.94c-2.3,1.07-4.61,2.17-6.7,3.58c-2.06,1.39-4.01,2.78-6.52,3.3c-4.44,0.92-8.61,2.76-12.92,4.14
			c-4.93,1.57-9.67,3.65-14.45,5.61c-0.72,0.29-0.99,0.66-1,1.48c-0.04,1.51-0.48,3.02-0.41,4.52c0.12,2.56-0.59,5.03,0.02,7.71
			c0.86,3.75,0.44,7.68-0.74,11.43c-0.52,1.65-1.38,2.85-3.11,3.6c-2,0.87-2.36,1.67-1.41,3.66c1.01,2.11,1.27,4.36,1.84,6.55
			c0.31,1.18,0.84,2.56,0.2,3.67c-1.46,2.52-2.41,5.27-3.84,7.8c-0.21,0.36-0.26,0.61-0.18,1.04c0.57,2.97,1.1,5.95,1.1,8.98
			c0.01,1.86-0.38,3.5-1.89,4.9c-3.98,3.7-7.64,7.71-11.09,11.92c-3,3.66-5.41,7.7-8.11,11.55c-0.2,0.29-0.31,0.59-0.34,0.93
			c-0.23,2.75-0.47,5.49-0.54,8.26c-0.06,2.61,0.65,4.19,2.92,5.55c2.64,1.59,4.88,3.79,6.81,6.27c1.78,2.28,4.34,3.73,6.38,5.75
			c2.18,2.16,4.44,4.17,5.48,7.27c0.44,1.33,1.07,2.85,2.41,3.67c2.66,1.62,5.08,3.56,7.54,5.43c0.7,0.53,1.04,0.44,1.69-0.06
			c2.39-1.84,5.03-3.27,7.76-4.54c1.91-0.88,4.02-1.51,5.64-2.77c1.99-1.55,3.75-3.5,5.26-5.54c1.97-2.66,3.59-5.59,5.39-8.39
			c0.39-0.6,0.23-0.86-0.3-1.28c-1.42-1.11-3.14-1.82-4.49-2.94c-4.56-3.79-9.78-6.49-14.83-9.47c-1.73-1.02-3.42-2.08-5.14-3.11
			c-0.44-0.26-0.83-0.6-0.56-1.11c0.33-0.62,0.83-0.29,1.22-0.02c1.04,0.72,2.19,0.81,3.41,0.86c2.24,0.1,4.35,0.84,6.16,2.16
			c3.15,2.29,6.55,4.09,10.14,5.52c2.13,0.85,4.35,1.47,6.4,2.47c1.16,0.56,1.69,0.28,2.35-0.58c1.35-1.77,2.98-3.31,4.83-4.51
			c2.36-1.53,4.53-3.3,6.81-4.91c2.48-1.74,5.27-3.01,8.48-2.51c0.43,0.07,0.71-0.07,1-0.39c1.98-2.22,4.52-3.69,6.96-5.32
			c2.5-1.67,4.74-1.66,7.14,0.3c1.42,1.16,3.18,2.27,4.95,2.42c4.24,0.36,8.42,1.22,12.66,1.5c0.73,0.05,1.51,0.17,1.67-1.13
			c0.22-1.74,0.86-3.43,1.36-5.13c0.49-1.66,1.51-3.34,1.41-4.96c-0.14-2.33-0.33-4.78-1.24-6.98c-1.22-2.95-2.52-5.87-3.37-8.95
			c-0.4-1.45-1.03-3.02-0.93-4.4c0.2-2.94,1.13-5.83,1.48-8.77C452.74,431.94,453.12,430.08,451.2,428.85z M420.27,476.91
			c-0.37-0.11-0.61,0.14-0.91,0.3c-1.47,0.78-2.75,1.82-3.74,3.13c-2.62,3.46-5.42,6.76-8.28,10.02c-1.44,1.65-1.23,2.23,0.85,3.12
			c4.3,1.84,8.29,4.03,10.76,8.29c0.42,0.73,1.26,1.44,2.38,1.15c3.38-0.9,6.46-2.75,9.95-3.33c2.68-0.45,5.26-1.3,7.88-1.99
			c3.29-0.87,6.59-1.68,9.85-2.64c0.61-0.18,0.95-0.44,1.03-1.16c0.19-1.81,0.43-3.61,0.78-5.4c0.54-2.8,1.2-5.58,1.78-8.37
			c0.07-0.33,0.07-0.97-0.47-0.75c-0.81,0.33-1.59,0.11-2.36,0.09c-2.59-0.04-5.18,0.7-7.76,0.19c-3.17-0.62-6.31-1.42-9.54-1.69
			C428.4,477.55,424.35,477.06,420.27,476.91z M336.66,497.24c-0.4,2.85,0.09,5.58,0.45,8.3c0.11,0.85-0.06,1.8,0.89,2.46
			c1.67,1.14,3.32,2.33,4.84,3.65c1.32,1.14,2.93,1.86,4.17,3.1c2.02,2.01,3.63,4.3,5.02,6.79c0.75,1.35,2.07,2.19,3.5,2.77
			c0.59,0.24,1.12,0.63,1.87,0.25c1.4-0.71,2.89-1.27,4.31-1.95c1.07-0.51,1.97-2.64,1.39-3.42c-1.27-1.71-1.63-3.75-2.27-5.7
			c-0.7-2.14-1.68-4.01-3.94-5.1c-1.44-0.7-3.01-1.03-4.38-1.8c-3.04-1.7-5.94-3.64-9.03-5.22
			C341.15,500.16,338.92,498.83,336.66,497.24z M506.02,412.19c-0.91,0.37-1.82,0.14-2.73,0.42c-2.25,0.68-4.33,1.93-6.77,2.04
			c-0.74,0.03-1.5,0.02-2.25,0.31c-0.55,0.21-0.59,0.45-0.32,0.79c2.17,2.67,3.75,5.72,5.47,8.67c0.32,0.54,0.79,0.65,0.98,0.32
			c0.63-1.11,1.77-1.68,2.6-2.57c1.15-1.22,2.26-2.53,3.55-3.64c0.83-0.71,2.6-0.55,2.54-1.9c-0.05-1.03-0.92-2.08-1.61-2.98
			C507.09,413.12,506.7,412.45,506.02,412.19z"/>
		<path class="st4" d="M520.59,129.11c-1.07,5.34-2.17,10.61-3.19,15.9c-1.11,5.74-2.73,11.35-4.34,16.96
			c-1.41,4.92-1.72,9.99-1.69,15.01c0.02,3.82,1.41,7.53,2.51,11.22c0.6,2.02,1.7,3.86,2.05,5.97c0.05,0.32,0.12,0.7,0.33,0.92
			c1.9,2.13,0.96,4.52,0.63,6.84c-0.15,1.06-1.15,1.4-1.83,2.05c-1.63,1.57-3.52,2.67-5.49,3.68c-3.56,1.82-6.27,4.72-9.28,7.23
			c-4.23,3.53-8.08,7.41-11.36,11.85c-0.33,0.45-0.72,0.5-1.13,0.31c-0.71-0.33-0.13-0.72,0.03-1.05c0.72-1.51,2.05-2.55,3.16-3.71
			c3.63-3.81,6.3-8.24,8.97-12.71c0.71-1.19,1.76-2.22,2.79-3.18c2.21-2.05,3.01-4.55,3.08-7.52c0.09-3.59,0.03-7.17-0.45-10.71
			c-0.27-1.95-1.02-3.85-1.6-5.75c-0.76-2.47-1.59-4.91-2.35-7.38c-0.13-0.44-0.17-1-0.03-1.43c1.3-3.76,1.62-7.77,3.21-11.48
			c0.7-1.63,1.36-3.26,2.28-4.77c1.04-1.72,1.31-3.67,1.85-5.54c0.62-2.13,1.61-4.12,1.96-6.36c0.53-3.51,0.74-7.04,1.19-10.55
			c0.31-2.4,0.79-4.74,2.54-6.61c0.52-0.56,1.05-0.8,1.7-0.4c1.08,0.66,2.23-0.44,3.33,0.19c0.21,0.12,0.41-0.38,0.51-0.73
			c0.86-3.12,1.75-6.24,2.66-9.35c0.72-2.45,2.5-3.36,4.9-2.57c3.33,1.1,6.49,2.6,9.62,4.14c1.48,0.72,2.66,1.97,4.28,2.48
			c3.15,1,6.35,1.81,9.51,2.74c3,0.89,6.22,1.05,9.04,2.56c2.17,1.17,4.52,1.82,6.94,1.89c2.18,0.07,4.28,0.4,6.39,0.85
			c2.5,0.55,2.43,0.53,4.01-1.62c1.81-2.45,3.77-4.79,5.62-7.21c1.58-2.06,2.73-4.4,4.1-6.59c2.57-4.1,1.73-8.5,1.72-12.88
			c-0.01-2.9,0.63-5.82,0.39-8.69c-0.28-3.42,1.8-5.09,4.07-6.65c2.08-1.43,2.82-3.13,2.28-5.55c-0.33-1.47-0.05-2.92,0.31-4.41
			c0.58-2.4,0.78-4.88,1.2-7.32c0.27-1.6,1.19-3.02,1.42-4.66c0.09-0.64,0.74-0.49,1.2-0.49c3.87,0,7.73,0.04,11.6,0
			c1.06-0.01,1.16,0.29,0.72,1.14c-0.81,1.57-1.65,3.12-2.76,4.52c-1.37,1.72-2.58,3.55-3.49,5.57c-0.74,1.62-2.07,2.74-3.31,3.94
			c-1.64,1.6-3.37,3.13-4.92,4.82c-1.22,1.32-0.66,3.04-0.53,4.58c0.22,2.58,0.72,5.14,0.92,7.72c0.09,1.18-0.42,2.33-0.95,3.42
			c-1.16,2.38-2.75,4.5-4.21,6.69c-1.84,2.78-2.73,5.63-2.66,9.02c0.1,4.94,0.18,9.86,1.23,14.71c0.26,1.2-0.18,1.87-1.28,2.3
			c-1.44,0.57-2.99,0.52-4.47,0.9c-2.98,0.76-5.83,0.09-8.66-0.78c-0.76-0.23-1.33-0.32-1.96,0.51c-0.76,1-2.17,1.18-3.29,1.66
			c-2.01,0.86-3.68,2.19-5.46,3.37c-0.7,0.46-1.38,0.52-2.23,0.54c-5.25,0.14-9.92-2.06-14.8-3.41c-1.33-0.37-2.72-0.56-4.04-0.94
			c-3.19-0.93-6.14-2.47-9.33-3.44c-2.13-0.65-4.25-0.75-6.37-0.72C526.38,130.2,523.52,129.76,520.59,129.11z"/>
		<path class="st4" d="M614.74,324.89c0.65-0.04,1.24-0.49,1.75,0.1c0.05,0.06-0.09,0.4-0.22,0.47
			C615.64,325.81,615.17,325.55,614.74,324.89z"/>
	</g>
</g>
</svg>
