<?xml version="1.0" encoding="utf-8"?>
<!-- Generator: Adobe Illustrator 26.0.2, SVG Export Plug-In . SVG Version: 6.00 Build 0)  -->
<svg version="1.1" xmlns="http://www.w3.org/2000/svg" xmlns:xlink="http://www.w3.org/1999/xlink" x="0px" y="0px"
	 viewBox="0 0 800 800" style="enable-background:new 0 0 800 800;" xml:space="preserve">
<style type="text/css">
	.st0{display:none;}
	.st1{display:inline;}
	.st2{fill:#2D2D2D;}
	.st3{fill:#3C3D3D;}
	.st4{fill:#131313;}
	.st5{fill:#FFFFFF;}
	.st6{fill:#FCFCFC;}
	.st7{fill:#2A2A2A;}
	.st8{fill:#565454;}
	.st9{fill:#767373;}
	.st10{fill:#959292;}
	.st11{fill:#C6C4C4;}
</style>
<g id="back" class="st0">
	<rect x="1.17" y="0" class="st1" width="800" height="800"/>
</g>
<g id="Front">
	<g>
		<path d="M260.42,72.79c-0.07,0.77-0.04,1.19-0.15,1.56c-0.85,2.93-1.76,5.85-2.58,8.79c-0.57,2.04-1.21,4.08-1.51,6.17
			c-0.31,2.2-0.29,4.46-0.34,6.69c-0.05,2.08-0.04,4.16,0.01,6.24c0.03,1.09,0.17,2.18,0.3,3.26c0.29,2.39,0.49,4.79,0.94,7.15
			c0.33,1.74,0.99,3.42,1.5,5.12c0.09,0.31,0.25,0.61,0.31,0.93c0.52,2.9,1.89,5.48,3.01,8.14c0.69,1.63,1.96,3,2.79,4.58
			c1.1,2.07,2.01,4.24,3.03,6.35c0.42,0.88,0.89,1.74,1.4,2.58c0.78,1.31,1.62,2.58,2.42,3.88c2.07,3.33,4.08,6.69,6.22,9.97
			c1.58,2.42,3.23,4.8,5,7.08c3.68,4.73,6.92,9.76,10.27,14.71c1.57,2.32,2.79,4.91,3.94,7.49c1.38,3.08,2.64,6.23,3.71,9.43
			c1.54,4.63,3.93,8.88,5.56,13.45c0.58,1.61,1.18,3.16,2.3,4.49c1.08,1.28,2.49,1.78,4.03,2.22c1.96,0.56,3.66-0.03,5.51-0.58
			c1.71-0.5,3.62-0.42,5.44-0.41c1.43,0.01,2.44,1.11,3.53,1.89c2.23,1.58,4.2,3.38,5.55,5.85c0.78,1.42,0.76,2.82,0.52,4.29
			c-0.14,0.86-0.31,1.73-0.56,2.56c-0.74,2.47,0.38,4.38,1.82,6.16c1.56,1.93,3.66,2.59,6.07,2.43c0.92-0.06,1.86,0.02,2.76-0.14
			c2.52-0.46,4.07,1.09,5.59,2.66c0.83,0.86,1.48,1.88,1.61,3.13c0.04,0.43,0.11,0.9-0.03,1.28c-0.35,0.96-0.36,1.89-0.12,2.87
			c0.29,1.17,0.09,2.42,0.79,3.54c0.25,0.4,0.22,1.12,0.07,1.6c-0.99,3.09,1.28,5.45,3.65,6.71c2.29,1.21,4.7,2.19,7.02,3.35
			c0.86,0.43,1.72,0.96,2.41,1.63c1.83,1.78,3.63,3.6,5.31,5.53c1.03,1.18,1.85,2.56,2.66,3.91c2.08,3.47,4.74,6.5,7.13,9.72
			c1.13,1.53,2.26,3.07,3.48,4.52c2.65,3.17,5.36,6.28,8.04,9.42c0.46,0.54,0.92,1.08,1.35,1.65c1.87,2.52,4.16,4.61,6.46,6.71
			c4.71,4.32,9.21,8.83,13.1,13.94c0.52,0.68,1.27,1.18,1.86,1.82c1.66,1.8,3.25,3.66,4.93,5.44c4.07,4.32,8.27,8.48,13.15,11.91
			c1.68,1.18,3.13,2.69,4.66,4.08c1.77,1.61,3.56,3.2,5.26,4.88c1.74,1.72,3.41,3.51,5.07,5.3c2.01,2.15,3.99,4.33,5.97,6.5
			c3.38,3.7,6.74,7.4,10.12,11.09c0.74,0.81,1.6,1.51,2.25,2.37c2.02,2.64,3.94,5.36,5.95,8.01c1.42,1.86,2.93,3.65,4.4,5.47
			c0.44,0.55,0.88,1.1,1.31,1.66c0.44,0.56,0.81,1.19,1.31,1.67c2.46,2.37,4.12,5.36,6.08,8.11c0.66,0.92,0.86,2.22,1.1,3.39
			c0.65,3.15,1.19,6.31,1.79,9.47c0.33,1.72-0.11,3.37-0.39,5.04c-0.26,1.51-0.53,3.03-0.71,4.55c-0.07,0.58,0.09,1.18,0.17,1.77
			c0.22,1.57,0.34,3.17,0.71,4.71c0.23,0.98,0.68,1.99,1.28,2.79c1.24,1.64,2.66,3.08,4.39,4.3c1.78,1.26,3.64,2.45,5.26,4
			c1.32,1.26,3,2.14,4.49,3.22c2.19,1.57,3.99,3.49,5.2,5.95c0.53,1.07,1.37,1.98,1.91,3.05c1.11,2.24,2.08,4.55,3.18,6.8
			c0.74,1.51,1.79,2.9,2.38,4.46c1.09,2.9,1.92,5.9,2.92,8.84c0.57,1.7,1.24,3.36,1.91,5.02c1.96,4.87,3.74,9.79,4.63,14.99
			c0.59,3.45,1.16,6.9,1.8,10.34c0.45,2.42,1.02,4.82,1.49,7.24c0.24,1.23,0.37,2.49,0.52,3.74c0.88,7.29,1.76,14.57,3.25,21.77
			c0.85,4.13,1.69,8.26,2.43,12.4c0.43,2.37,0.63,4.78,0.98,7.16c0.27,1.84,0.6,3.67,0.95,5.5c0.63,3.33,1.3,6.65,1.95,9.98
			c0.01,0.05,0,0.11,0.02,0.16c1.57,3.89,1.81,8.12,2.96,12.12c0.88,3.04,1.78,6.09,2.34,9.2c0.85,4.74,2.01,9.4,3.09,14.09
			c0.5,2.17,0.64,4.43,1.07,6.62c0.35,1.76,0.85,3.49,1.35,5.21c0.37,1.25,0.94,2.45,1.25,3.71c0.38,1.53,0.54,3.12,0.84,4.67
			c0.73,3.76,1.38,7.53,2.27,11.25c0.67,2.81,0.96,5.66,1.45,8.48c0.3,1.71,0.79,3.39,1.18,5.08c0.65,2.87,1.14,5.77,1.24,8.73
			c0.07,2.01,0.49,4.01,0.64,6.03c0.11,1.41,0.02,2.83,0.01,4.24c0,0.44-0.05,0.87-0.07,1.31c-0.18,3.89-0.49,7.78-0.5,11.67
			c-0.01,3.61-1.3,6.86-2.42,10.13c-1.48,4.33-3.05,8.64-4.38,13.03c-0.21,0.68-0.53,1.32-0.79,1.98c-1.38,3.5-2.24,7.19-3.89,10.59
			c-0.42,0.87-0.64,1.85-0.92,2.8c-1.03,3.52-2.16,6.98-4.27,10.05c-0.8,1.16-1.38,2.47-2.02,3.73c-1.13,2.22-2.45,4.21-4.86,5.27
			c-0.96,0.42-1.71,1.35-2.67,1.73c-2.21,0.88-4.53,1.47-6.73,2.36c-1.42,0.58-2.87,1.34-3.18,3.14c-0.26,1.51,0.37,2.4,1.87,2.73
			c1.81,0.39,3.57,0.04,5.26-0.61c1.31-0.5,2.56-1.17,3.85-1.74c1.54-0.67,3.16-0.7,4.8-0.58c0.74,0.05,1.48,0.03,2.22,0.07
			c1.35,0.08,2.71,0.07,4.03,0.3c2.35,0.42,4.62-0.08,6.86-0.55c1.59-0.34,2.73-1.57,3.5-3.01c1.08-2.02,2.06-4.08,3.08-6.13
			c1.66-3.34,2.83-6.86,3.63-10.5c0.5-2.3,0.88-4.62,1.32-6.93c0.68-3.53,1.34-7.06,2.07-10.58c0.3-1.46,1.01-2.76,1.96-3.91
			c1.15-1.38,2.17-2.91,3.47-4.12c1.75-1.62,3.68-3.04,5.61-4.44c1.45-1.05,3.01-1.94,4.52-2.9c1.01-0.64,1.99-1.34,3.03-1.91
			c2.82-1.52,4.52-4.04,5.93-6.78c0.28-0.53,0.16-1.28,0.22-1.92c0.35-4.24-1.09-8-3.29-11.45c-1.06-1.66-2.78-2.73-4.49-3.72
			c-0.6-0.35-1.19-0.75-1.66-1.26c-1.53-1.64-2.97-3.4-3.61-5.59c-0.5-1.72-0.78-3.53-1-5.32c-0.29-2.39-0.41-4.8-0.64-7.19
			c-0.18-1.91-0.49-3.8-0.61-5.71c-0.16-2.45-0.22-4.91-0.26-7.37c-0.03-1.86,0.04-3.71,0.07-5.57c0.04-2.23,0.04-4.47,0.12-6.7
			c0.21-5.21,0.55-10.41,0.65-15.62c0.05-2.45-0.35-4.9-0.52-7.36c-0.06-0.87-0.1-1.74-0.11-2.61c-0.02-2.63-0.05-5.25-0.02-7.88
			c0.02-2.25,0.16-4.5,0.17-6.75c0.01-4.48-0.03-8.96-0.06-13.45c-0.01-1.91,0.04-3.82-0.13-5.72c-0.44-4.82-0.17-9.63-0.14-14.44
			c0.03-3.6-0.25-7.2-0.29-10.8c-0.03-2.68,0.13-5.37,0.19-8.06c0.11-4.93,0.04-9.85-0.37-14.77c-0.18-2.12-0.47-4.24-0.61-6.36
			c-0.09-1.3-0.07-2.63,0.06-3.92c0.27-2.68-0.12-5.33-0.27-7.99c-0.13-2.3-0.08-4.61-0.19-6.91c-0.1-2.29-0.29-4.58-0.45-6.88
			c-0.14-2.02-0.27-4.05-0.48-6.06c-0.32-3.05-0.66-6.1-1.06-9.14c-0.34-2.6-0.67-5.21-1.19-7.78c-1.07-5.25-2.24-10.47-3.4-15.7
			c-1.14-5.12-2.27-10.24-3.49-15.34c-0.33-1.36-0.97-2.64-1.49-3.95c-0.75-1.88-1.63-3.72-2.25-5.64c-0.6-1.83-1.89-3.17-2.83-4.75
			c-0.36-0.61-0.83-1.14-1.24-1.72c-0.94-1.3-2.09-2.35-3.41-3.24c-2.85-1.91-5.67-3.85-8.49-5.8c-1.29-0.89-2.6-1.77-3.81-2.78
			c-1.08-0.9-1.55-2.07-1.41-3.59c0.13-1.38,0.02-2.83-0.22-4.2c-0.74-4.15-1.6-8.27-2.39-12.4c-0.27-1.39-0.56-2.79-0.74-4.2
			c-0.32-2.58-1.29-4.95-2.34-7.27c-0.9-1.99-1.96-3.91-2.95-5.86c-1.55-3.07-3.08-6.14-4.65-9.2c-1.64-3.2-3.33-6.37-4.98-9.56
			c-0.38-0.73-0.67-1.49-1.05-2.22c-1.06-2.03-2.15-4.03-3.22-6.06c-0.33-0.62-0.68-1.25-0.86-1.92c-0.86-3.09-2.64-5.76-3.83-8.69
			c-0.47-1.16-1.02-2.29-1.6-3.39c-1.3-2.46-2.76-4.84-3.96-7.35c-1.22-2.55-2.26-5.19-3.3-7.83c-0.81-2.07-1.38-4.25-2.27-6.28
			c-0.87-1.99-2-3.88-3.05-5.79c-1.23-2.22-2.63-4.36-3.7-6.66c-0.89-1.91-1.4-4-2.08-6.01c-0.35-1.03-0.75-2.04-1.08-3.08
			c-1.07-3.33-2.03-6.69-3.19-9.98c-0.71-2-1.33-4.03-2.48-5.87c-1.54-2.45-2.73-5.11-4.31-7.53c-1.9-2.9-3.85-5.76-6.34-8.24
			c-1.64-1.63-2.84-3.71-4.13-5.67c-1.59-2.4-2.57-5.19-4.54-7.35c-0.25-0.27-0.39-0.65-0.58-0.98c-2.21-3.95-4.46-7.89-6.62-11.87
			c-0.93-1.73-1.68-3.55-2.94-5.08c-0.63-0.75-1.31-1.47-1.88-2.26c-1.55-2.17-3.05-4.38-4.58-6.56c-0.37-0.53-0.77-1.03-1.21-1.51
			c-1.58-1.75-2.72-3.79-3.84-5.87c-1.79-3.34-4.29-6.19-6.51-9.22c-0.58-0.79-1.1-1.62-1.69-2.4c-1.22-1.61-2.47-3.18-3.69-4.78
			c-1.36-1.78-2.72-3.55-4.05-5.35c-0.91-1.23-1.75-2.51-2.7-3.71c-2.77-3.5-4.39-7.66-6.52-11.53c-1.39-2.53-2.91-5-4.44-7.45
			c-1.07-1.71-2.23-3.37-3.4-5.01c-1.79-2.51-3.54-5.06-5.45-7.47c-2.05-2.6-4.32-5.03-6.4-7.61c-1.67-2.08-3.19-4.28-4.79-6.41
			c-1.01-1.35-2.06-2.67-3.1-4c-1.7-2.19-3.4-4.39-5.12-6.57c-1.71-2.18-3.38-4.39-5.17-6.5c-2.67-3.15-5.48-6.19-8.12-9.36
			c-1.63-1.97-2.96-4.2-4.6-6.16c-2.44-2.92-5.03-5.71-7.57-8.54c-1.63-1.82-3.23-3.68-4.96-5.4c-1.73-1.73-3.62-3.3-5.42-4.97
			c-1.98-1.84-4.22-3.39-5.98-5.5c-0.89-1.06-2.22-1.75-3.32-2.64c-0.98-0.79-1.88-1.66-2.88-2.42c-0.95-0.72-1.94-1.4-2.96-2
			c-1.15-0.68-2.4-1.2-3.54-1.9c-3.25-1.96-6.62-3.71-10.22-4.89c-2.93-0.96-5.91-1.73-9.03-1.91c-1.94-0.11-3.87-0.48-5.79-0.85
			c-2.63-0.51-5.27-0.8-7.92-0.44c-2.36,0.32-4.68,0.88-7.02,1.36c-0.36,0.07-0.74,0.23-1.03,0.46c-1.15,0.9-2.47,1.34-3.87,1.61
			c-1.94,0.37-3.64,1.3-5.32,2.31c-2.65,1.6-5.34,3.14-7.96,4.79c-2.3,1.44-4.62,2.87-6.77,4.53c-0.88,0.68-1.35,1.93-1.96,2.94
			c-0.26,0.44-0.4,0.96-0.65,1.59c-0.88-1.77-0.82-2,0.03-3.42c0.82-1.37,1.77-2.49,3.24-3.28c2.09-1.12,4.18-2.35,6-3.86
			c1.39-1.15,2.87-2.12,4.41-2.98c2.35-1.32,4.73-2.69,7.26-3.57c2.05-0.71,4.02-1.58,6.02-2.36c1.89-0.74,3.99-0.95,6-1.35
			c3.08-0.61,6.12-0.14,9.18,0.29c3,0.42,6.04,0.56,9.02,1.1c2.54,0.46,5.08,1.13,7.5,2.02c2.63,0.97,5.18,2.21,7.69,3.49
			c2.36,1.21,4.71,2.47,6.88,3.99c2.66,1.87,5.18,3.95,7.66,6.07c2.9,2.48,5.68,5.09,8.52,7.64c2.63,2.36,5.12,4.86,7.37,7.61
			c1.75,2.14,3.76,4.05,5.54,6.17c2.41,2.88,4.68,5.88,7.06,8.78c1.8,2.19,3.71,4.29,5.52,6.48c3.01,3.66,5.97,7.36,8.94,11.05
			c2.29,2.84,4.58,5.68,6.82,8.57c1.17,1.51,2.21,3.12,3.36,4.64c1.15,1.51,2.31,3.01,3.57,4.41c3.16,3.53,6.12,7.22,8.72,11.19
			c0.41,0.63,0.97,1.17,1.38,1.8c2.03,3.1,4.11,6.18,6.02,9.36c1.71,2.84,3.34,5.75,4.82,8.73c1.29,2.62,2.79,5.08,4.55,7.37
			c2.92,3.8,5.94,7.53,8.83,11.35c1.8,2.38,3.37,4.96,5.19,7.32c2.28,2.95,4.04,6.2,5.92,9.4c0.98,1.67,2.42,3.07,3.64,4.6
			c0.34,0.43,0.66,0.87,0.98,1.32c1.53,2.12,3.11,4.21,4.58,6.37c1,1.47,1.85,3.04,2.76,4.57c0.75,1.27,1.48,2.55,2.21,3.83
			c1.5,2.66,2.95,5.35,4.49,7.99c0.82,1.4,1.83,2.68,2.64,4.08c1.01,1.74,1.81,3.61,2.88,5.31c1.1,1.74,2.27,3.49,3.68,4.99
			c2.96,3.15,5.58,6.52,7.71,10.27c1.43,2.52,3,4.97,4.22,7.59c1.07,2.31,1.76,4.81,2.59,7.23c1.11,3.26,2.2,6.52,3.3,9.78
			c0.57,1.7,1.08,3.43,1.76,5.09c0.71,1.75,1.55,3.45,2.42,5.12c1,1.93,2.01,3.87,3.15,5.72c2.34,3.81,3.16,8.23,4.98,12.24
			c1.3,2.87,2.75,5.67,4.13,8.5c1.03,2.1,2.05,4.2,3.1,6.3c0.8,1.6,1.69,3.16,2.43,4.79c0.73,1.59,1.29,3.25,1.98,4.85
			c0.52,1.19,1.12,2.35,1.71,3.52c1.26,2.48,2.52,4.96,3.81,7.42c1.32,2.51,2.71,4.98,4,7.5c1.36,2.66,2.61,5.38,3.96,8.05
			c1.4,2.77,2.98,5.45,4.23,8.29c0.94,2.13,1.58,4.42,2.18,6.68c0.76,2.9,1.42,5.83,1.97,8.77c0.68,3.63,1.21,7.3,1.81,10.95
			c0.16,0.97,0.3,1.95,0.59,2.88c0.13,0.41,0.6,0.71,1.02,1.18c-0.07,0.31-0.18,0.77-0.28,1.17c0.1,0.17,0.14,0.32,0.22,0.35
			c2.29,0.84,3.94,2.65,5.93,3.94c0.45,0.29,0.86,0.65,1.31,0.93c1.97,1.26,3.97,2.47,5.9,3.79c0.64,0.44,1.11,1.17,1.63,1.79
			c1.64,1.98,2.91,4.21,4.1,6.47c0.58,1.1,1.02,2.28,1.48,3.44c0.92,2.33,2.02,4.61,2.68,7.02c1.1,3.94,1.91,7.96,2.84,11.95
			c0.82,3.52,1.68,7.03,2.45,10.55c0.29,1.33,0.32,2.72,0.58,4.06c0.61,3.11,1.34,6.19,1.93,9.3c0.36,1.93,0.57,3.89,0.79,5.84
			c0.3,2.72,0.58,5.44,0.8,8.17c0.24,2.89,0.31,5.79,0.65,8.66c0.45,3.81,0.33,7.63,0.59,11.44c0.17,2.5,0.31,5.02,0.25,7.52
			c-0.11,5.18,0.43,10.33,0.8,15.48c0.27,3.67-0.19,7.3-0.08,10.96c0.14,4.37,0.09,8.75,0.1,13.13c0,2.56-0.1,5.13-0.05,7.69
			c0.09,4.43,0.29,8.86,0.38,13.29c0.06,3.21-0.01,6.42,0.01,9.64c0,1.47,0.1,2.95,0.08,4.42c-0.05,3.34-0.23,6.68-0.22,10.01
			c0.01,3.31,0.11,6.63,0.33,9.93c0.22,3.45,0.5,6.88,0.23,10.34c-0.28,3.53-0.32,7.09-0.54,10.63c-0.26,4.31-0.01,8.61,0.01,12.91
			c0,0.92-0.13,1.85-0.18,2.77c-0.13,2.13-0.01,4.22,0.51,6.31c0.18,0.73,0.1,1.53,0.16,2.29c0.18,2.48,0.19,5,0.58,7.45
			c0.43,2.71,0.54,5.54,1.92,8c1.2,2.14,2.59,4.07,4.8,5.41c1.68,1.03,3.25,2.43,4.49,3.98c0.98,1.23,1.36,2.95,2.04,4.44
			c1.37,2.99,1.18,6.17,1.14,9.33c0,0.32-0.1,0.65-0.24,0.94c-1.3,2.68-3.15,4.92-5.48,6.75c-0.34,0.26-0.76,0.41-1.13,0.64
			c-0.95,0.6-1.91,1.21-2.84,1.85c-0.45,0.3-0.8,0.79-1.28,1c-2.52,1.11-4.68,2.76-6.75,4.53c-0.99,0.84-1.97,1.71-2.83,2.68
			c-1.09,1.21-2.14,2.47-3.07,3.82c-1.13,1.65-1.48,3.62-1.87,5.54c-0.66,3.15-1.24,6.33-1.79,9.5c-0.29,1.68-0.39,3.39-0.7,5.07
			c-0.2,1.06-0.57,2.1-0.94,3.12c-0.96,2.64-1.62,5.48-3.04,7.84c-1.39,2.3-2.38,4.77-3.72,7.07c-0.7,1.2-1.74,2.24-3.01,2.63
			c-1.59,0.48-3.3,0.63-4.97,0.71c-1.43,0.07-2.88-0.15-4.32-0.24c-0.43-0.03-0.87-0.03-1.3-0.04c-1.4-0.05-2.78,0.03-4.2-0.3
			c-1.73-0.4-3.38,0.33-4.99,1.1c-2.05,0.98-4.17,1.83-6.32,2.56c-1.57,0.53-3.05-0.19-4.26-1.11c-1.03-0.78-1.19-2.08-1.17-3.42
			c0.02-1.33,0.44-2.18,1.51-3.02c1.86-1.45,3.91-2.19,6.16-2.71c1.53-0.35,2.9-1.37,4.41-1.89c1.4-0.48,2.46-1.31,3.47-2.33
			c0.37-0.38,0.67-1.05,1.46-0.85c0.08,0.02,0.92-0.38,0.33-1.04c-0.16-0.18-0.07-0.73,0.08-1.03c0.79-1.61,1.52-3.28,2.49-4.78
			c1.74-2.69,2.81-5.66,3.69-8.7c0.67-2.31,1.48-4.56,2.41-6.78c0.86-2.05,1.5-4.2,2.22-6.31c1.87-5.49,3.73-10.98,5.59-16.47
			c0.59-1.76,1.2-3.51,1.73-5.29c0.97-3.24,0.86-6.62,1.15-9.94c0.28-3.21,0.42-6.45,0.37-9.67c-0.04-2.45-0.48-4.89-0.73-7.33
			c-0.1-0.93-0.15-1.86-0.28-2.78c-0.33-2.27-0.67-4.5-1.37-6.72c-0.77-2.43-0.93-5.05-1.37-7.59c-0.43-2.41-0.86-4.82-1.33-7.23
			c-0.68-3.49-1.34-6.99-2.12-10.46c-0.72-3.2-1.6-6.37-2.39-9.56c-0.26-1.06-0.5-2.13-0.71-3.2c-0.69-3.49-1.16-7.03-2.08-10.46
			c-0.91-3.39-1.3-6.87-2.15-10.26c-0.83-3.29-1.71-6.56-2.55-9.84c-0.27-1.06-0.61-2.13-0.68-3.21c-0.13-2.06-0.83-3.95-1.44-5.88
			c-0.26-0.83-0.44-1.68-0.6-2.54c-0.51-2.63-0.9-5.29-1.52-7.89c-0.73-3.1-1.15-6.23-1.59-9.38c-0.58-4.16-1.45-8.29-2.2-12.42
			c-0.91-5.01-1.89-10.01-2.74-15.03c-0.39-2.32-0.53-4.68-0.79-7.02c-0.53-4.73-1.33-9.42-2.31-14.09
			c-0.57-2.73-0.85-5.52-1.34-8.26c-0.92-5.18-2.24-10.26-4.04-15.19c-0.78-2.15-1.91-4.18-2.68-6.33
			c-0.86-2.41-1.42-4.93-2.27-7.35c-0.67-1.9-1.55-3.73-2.4-5.57c-0.71-1.54-1.66-2.98-2.23-4.56c-0.86-2.36-2.41-4.27-3.65-6.38
			c-0.52-0.89-1.09-1.76-1.65-2.62c-2.07-3.14-5.13-5.13-8.15-7.18c-1.61-1.09-3.16-2.27-4.7-3.46c-1.21-0.92-2.4-1.87-3.54-2.87
			c-2.28-2.03-3.74-4.47-3.77-7.67c-0.01-1.47-0.46-2.95-0.36-4.4c0.16-2.39,0.64-4.76,0.88-7.15c0.11-1.13,0.12-2.31-0.06-3.43
			c-0.36-2.21-1.05-4.37-1.29-6.59c-0.31-2.78-1.46-5.12-3.07-7.29c-1.84-2.49-3.71-4.97-5.61-7.41c-2.23-2.87-4.56-5.66-6.77-8.55
			c-1.42-1.86-2.69-3.83-4.06-5.73c-0.41-0.57-0.96-1.04-1.44-1.56c-1.8-1.97-3.61-3.94-5.4-5.91c-0.65-0.72-1.28-1.46-1.94-2.17
			c-2.03-2.21-4.07-4.4-6.1-6.61c-2.22-2.4-4.46-4.78-6.65-7.21c-3.82-4.22-8.25-7.75-12.52-11.46c-1.89-1.64-3.95-3.08-5.8-4.76
			c-2.05-1.87-3.94-3.92-5.91-5.88c-2.28-2.26-4.18-4.85-6.57-7.03c-2-1.82-3.56-4.12-5.37-6.15c-1.63-1.82-3.29-3.63-5.05-5.33
			c-2.39-2.3-4.97-4.4-7.3-6.76c-1.68-1.69-3.07-3.67-4.61-5.5c-2.57-3.04-5.22-6-7.72-9.1c-2.43-3.01-4.73-6.14-7.07-9.23
			c-2.53-3.34-4.97-6.77-7.6-10.03c-1.49-1.85-3.26-3.49-4.97-5.14c-0.53-0.51-1.29-0.78-1.96-1.12c-1.17-0.58-2.35-1.12-3.52-1.68
			c-0.29-0.14-0.56-0.38-0.86-0.46c-2.68-0.62-4.47-2.48-6.09-4.52c-0.7-0.88-0.49-2-0.26-3c0.31-1.38,0.38-2.77-0.15-4.04
			c-0.72-1.74-0.64-3.5-0.66-5.32c-0.02-2.33-1.69-4.71-4.13-5.61c-0.71-0.26-1.62-0.08-2.41,0.04c-2.06,0.31-4.13,0.47-6.04-0.52
			c-2.04-1.05-3.68-2.51-4.74-4.7c-0.94-1.94-0.93-3.86-0.27-5.73c1.26-3.56-0.21-6.17-2.57-8.51c-1.08-1.07-2.32-2-3.58-2.85
			c-1.58-1.07-3.42-1.04-5.21-0.77c-1.1,0.16-2.16,0.65-3.25,0.94c-0.62,0.16-1.31,0.36-1.92,0.26c-1.81-0.3-3.6-0.73-5.39-1.14
			c-0.3-0.07-0.6-0.28-0.82-0.5c-1.41-1.37-2.63-2.86-3.37-4.75c-1.78-4.51-3.69-8.96-5.48-13.47c-0.9-2.27-1.64-4.59-2.44-6.9
			c-1.6-4.63-3.76-8.95-6.62-12.92c-1.21-1.68-2.3-3.45-3.45-5.17c-1.09-1.63-2.14-3.29-3.28-4.89c-0.94-1.32-2-2.55-2.96-3.85
			c-0.68-0.92-1.26-1.92-1.92-2.86c-1.45-2.04-2.99-4.01-4.37-6.09c-1.53-2.3-2.93-4.7-4.38-7.06c-0.59-0.96-1.2-1.92-1.72-2.92
			c-1.25-2.41-2.44-4.86-3.68-7.28c-0.9-1.74-1.79-3.49-2.79-5.17c-1.03-1.74-2.12-3.42-2.76-5.38c-0.9-2.75-1.93-5.46-2.91-8.19
			c-0.95-2.65-1.16-5.44-1.56-8.2c-0.13-0.92-0.21-1.84-0.32-2.76c-0.21-1.74-0.24-3.47-0.11-5.22c0.09-1.3-0.11-2.61-0.12-3.92
			c-0.04-3.34,0.04-6.65,1.05-9.89c0.72-2.29,1.09-4.68,1.79-6.98c0.57-1.87,1.37-3.68,2.12-5.49
			C259.44,73.4,259.84,73.24,260.42,72.79z"/>
		<path d="M291.97,663.69c-0.56-1.3-1.13-2.47-1.56-3.7c-0.48-1.33-0.78-2.73-1.26-4.06c-0.52-1.44-1.22-2.76-2.61-3.61
			c-1.69-1.03-2.89-2.63-4.34-3.94c-1.23-1.11-1.97-2.45-2.65-3.87c-0.24-0.5-0.32-1.16-0.24-1.72c0.13-1,0.64-1.39,1.66-1.42
			c2.95-0.07,5.86,0.08,8.64,1.28c0.73,0.32,1.54,0.45,2.4,0.69c1.2-2.22,2.42-4.34,3.51-6.52c0.47-0.95,1.02-1.63,2.27-1.71
			c0.43,1.8,2.32,1.72,3.55,2.58c2.54,1.77,5.11,3.48,7.12,5.88c0.51,0.61,0.97,1.31,1.26,2.04c0.14,0.36-0.06,1.03-0.34,1.33
			c-1.04,1.1-2.12,2.19-3.3,3.12c-1.02,0.8-2.21,1.38-3.3,2.08c-1.55,1-2.23,2.63-2.85,4.24c-0.51,1.31-0.8,2.7-2.23,3.64
			c4.02,3.35,8.44,5.6,13.21,7.46c0.66-1.35,1.32-2.7,1.98-4.06c0.47-0.96,0.94-1.93,1.41-2.89c0.57-1.17,1.66-1.63,2.8-1.69
			c2-0.12,4.01-0.03,6.2-0.03c-0.02,0.03,0.11-0.14,0.19-0.33c0.95-2.48,2.96-3.82,5.21-4.88c0.98-0.46,2.05-0.72,3.02-1.19
			c1.13-0.54,2.14-0.43,3.25,0.1c1.07,0.51,2.21,0.94,3.37,1.18c0.92,0.19,1.93,0.13,2.88,0.01c1.64-0.21,3.25-0.62,4.81-1.19
			c0.74-0.27,1.19-0.66,1.31-1.47c0.61-3.93,2.81-6.77,5.99-8.95c0.4-0.27,0.74-0.64,1.11-0.97c0.66-0.57,1.28-1.19,1.98-1.71
			c1.04-0.76,2.21-1.31,2.95-2.47c0.3-0.47,0.93-0.73,1.41-1.09c0.91-0.67,1.83-1.34,2.96-2.17c-1.61-0.48-2.91,0.15-4.21,0.01
			c-1.29-0.13-2.62-0.13-3.86-0.45c-1.29-0.33-2.51-0.98-3.74-1.49c-0.95,0.88-3.59,1.91-5.03,1.95c-0.25,0.01-0.51-0.14-0.77-0.15
			c-0.58-0.02-1.25-0.19-1.74,0.03c-2.06,0.92-4.04,0.74-6.15,0.15c-1.79-0.5-3.6-1.1-5.56-0.83c-0.93,0.13-1.94-0.12-2.88-0.36
			c-3.59-0.94-6.88-2.6-10.05-4.49c-0.28-0.16-0.54-0.39-0.74-0.64c-1.45-1.82-3.42-3.02-5.23-4.4c-2.68-2.04-4.36-4.83-5.81-7.78
			c-1.09-2.2-1.97-4.49-2.49-6.91c-0.43-2.02-0.86-4.04-0.75-6.13c0.04-0.7-0.13-1.41-0.24-2.11c-0.44-2.97-0.94-5.93-1.33-8.91
			c-0.13-1.04,0.01-2.11,0.03-3.14c0.96-0.12,1.03,0.45,1.01,0.92c-0.14,2.66,0.89,5.12,1.21,7.69c0.14,1.14,0.17,2.29,0.29,3.44
			c0.24,2.38,0.28,4.8,0.8,7.12c0.59,2.65,1.37,5.3,2.81,7.66c0.9,1.48,1.58,3.16,2.71,4.43c1.43,1.59,2.81,3.32,4.85,4.29
			c0.7,0.33,1.22,1.06,1.83,1.61c2.69,2.43,5.64,4.31,9.15,5.4c2.01,0.62,3.97,0.88,6.03,1.02c1.81,0.12,3.6,0.63,5.39,1.01
			c1.55,0.33,3.07,0.35,4.57-0.27c0.3-0.12,0.61-0.21,0.93-0.31c0.94-0.29,1.83-0.37,2.4,0.75c1.09-0.94,2.69-0.49,3.67-1.68
			c-1.76-1.2-3.39-2.45-5.15-3.47c-4.64-2.69-8.59-6.16-12.04-10.28c-1.21-1.44-2.3-2.99-3.71-4.3c-1.46-1.35-2.56-3.09-3.86-4.61
			c-0.91-1.07-2.02-1.99-2.84-3.12c-1.72-2.39-3.33-4.87-4.94-7.34c-0.51-0.78-0.53-1.7-0.61-3.05c0.58,0.48,1.06,0.68,1.12,0.97
			c0.27,1.43,1.25,2.41,2,3.54c1.41,2.12,2.57,4.41,4.32,6.3c2.14,2.31,4.17,4.73,6.27,7.09c2.21,2.47,4.36,5.01,6.7,7.35
			c1.68,1.68,3.52,3.25,5.49,4.57c3.41,2.28,6.97,4.32,10.47,6.45c1.85,1.13,3.92,1.03,5.96,0.97c1-0.03,2.02-0.42,3-0.33
			c0.64,0.06,1.23,0.67,1.97,1.11c0.28-0.14,0.81-0.4,1.31-0.65c-0.24-0.44-0.51-0.92-0.77-1.4c0.29-0.16,0.41-0.28,0.47-0.25
			c2.01,0.92,3.98,0.34,5.8-0.44c1.94-0.83,3.98-0.96,5.98-1.37c0.95-0.2,1.93-0.27,2.9-0.34c1.71-0.13,3.42-0.26,5.14-0.32
			c0.45-0.01,0.93,0.2,1.35,0.41c0.13,0.07,0.08,0.48,0.13,0.81c-2.33,0.17-4.59,0.34-7,0.52c0.17,1.15-0.53,1.78-1.44,2.36
			c-1.28,0.81-2.47,1.76-3.74,2.58c-0.77,0.49-1.66,0.77-2.44,1.25c-2.55,1.55-5.18,3-7.56,4.78c-1.68,1.25-3.48,2.34-5.03,3.83
			c-2.11,2.03-4.48,3.8-6.84,5.54c-1.17,0.86-2.59,1.37-3.88,2.07c-0.77,0.42-1.28,1.02-1.71,1.86c-1.11,2.19-2.52,4.18-4.47,5.74
			c-0.76,0.61-1.38,1.4-2.1,2.05c-1.63,1.47-3.4,2.26-5.75,1.95c-3.28-0.43-6.17-1.89-9.21-2.96c-0.3-0.11-0.63-0.16-0.91-0.31
			c-0.77-0.41-1.18-0.16-1.51,0.61c-0.54,1.24-1.06,2.51-1.78,3.64c-1.11,1.74-2.34,3.42-3.62,5.04c-0.47,0.59-1.21,0.83-2.07,0.56
			c-1.34-0.42-2.71-0.71-4.24-1.1c-0.38,0.73-0.83,1.46-1.18,2.24c-0.99,2.23-2.97,3.25-4.99,4.2c-0.27,0.13-0.78,0.05-1.02-0.14
			c-1.51-1.23-2.93-2.56-4.46-3.77c-1.15-0.91-2.43-1.64-3.61-2.51c-1.37-1.02-2.83-1.95-3.75-3.81c-1.05,1.56-1.97,2.94-2.9,4.32
			c-1.03,1.54-2,3.13-3.12,4.6c-1,1.29-1.18,1.22-2.76,0.7c-1.28-0.43-2.61-0.71-3.89-1.14c-0.97-0.33-2.01-0.63-2.81-1.23
			c-2.19-1.65-4.64-2.81-7.01-4.13c-2.79-1.55-5.44-3.35-7.78-5.56c-0.45-0.43-0.61-1.17-1.06-1.59c-0.78-0.72-1.67-1.34-2.56-1.92
			c-1.6-1.03-3.28-1.93-4.85-3c-1.2-0.82-2.33-1.76-3.4-2.75c-1.92-1.78-4.16-2.78-6.69-3.4c-4.79-1.16-9.39-0.42-13.92,1.08
			c-1.89,0.63-3.61,1.72-5.1,3.11c-1.71,1.6-3.43,3.18-5.12,4.79c-0.3,0.28-0.47,0.71-0.67,1.09c-0.34,0.68-0.67,1.37-0.98,2.07
			c-0.82,1.81-2.11,2.78-4.14,3.25c-1.9,0.43-3.69,1.49-5.42,2.48c-2.06,1.18-4.06,2.5-5.98,3.9c-2.22,1.61-4.63,2.93-6.66,4.85
			c-1.47,1.39-3.31,2.39-4.9,3.67c-1.56,1.25-2.99,2.66-4.51,3.96c-0.72,0.62-1.06,1.72-2.22,1.77c-0.32,1.01-1.38,0.99-2.09,1.69
			c-0.17-0.93,0.2-1.47,0.69-1.9c2.02-1.75,3.62-3.87,5.3-5.94c2.12-2.62,4.32-5.17,6.47-7.78c0.9-1.09,1.82-2.17,2.57-3.37
			c0.77-1.22,1.69-2.27,2.74-3.22c1.2-1.09,2.4-2.2,3.63-3.25c1.61-1.37,3.61-1.3,5.54-1.5c2.3-0.23,4.62-0.46,6.9-0.84
			c1.26-0.21,1.99-1.17,2.41-2.42c0.47-1.4,1.09-2.74,1.6-4.13c0.48-1.33,1.58-2.08,2.62-2.82c1.8-1.29,3.71-2.44,5.59-3.61
			c0.4-0.25,0.91-0.35,1.38-0.48c3.53-1.01,7.13-1.63,10.77-1.98c0.05-0.01,0.12,0.01,0.16-0.01c2.55-1.5,5.05,0.01,7.57,0.17
			c1,0.06,2,0.41,2.98,0.72c2.2,0.7,3.18,2.69,4.45,4.38c1.88,2.51,3.12,5.42,5.06,7.92c1.25,1.6,2.64,2.73,4.41,3.62
			c1.59,0.8,3.07,1.85,4.51,2.91c1.68,1.24,3.5,2.13,5.47,2.76c0.76,0.24,1.41,0.58,2.08,1.13c1.54,1.26,3.48,1.36,5.41,1.16
			c0.11-0.01,0.21-0.04,0.32-0.04c2.28-0.12,4.08-1.03,5.53-2.9C289.49,665.66,290.77,664.78,291.97,663.69z M303.81,644.54
			c-0.86-0.04-1.6-0.12-2.34-0.1c-1.24,0.03-2.47,0.16-3.71,0.18c-1.61,0.03-3.23,0.01-4.72,0.01c-1.33,2.73-2.58,5.28-3.81,7.81
			c1.92,2.25,4.14,3.82,6.22,5.56c1.21-1.57,2.13-3.1,3.38-4.29c1.29-1.23,2.56-2.46,3.4-4.03c0.66-1.24,1.16-2.57,1.68-3.88
			C304.02,645.54,303.87,645.17,303.81,644.54z"/>
		<path d="M499.93,691.51c1.22-1.48,2.51-2.75,3.45-4.25c1.28-2.04,2.91-3.17,5.32-3.09c1.67,0.05,3.34-0.01,5,0.12
			c0.73,0.05,1.42,0.47,2.15,0.68c0.55,0.16,1.13,0.27,1.9,0.45c0.45-1.35,0.94-2.56,1.25-3.81c0.52-2.09,1.91-3.43,4.04-3.65
			c1.3-0.13,2.6-0.26,3.9-0.25c2.46,0.01,4.85-0.49,7.26-0.81c3.17-0.42,6.31-0.99,9.4-1.8c0.5-0.13,1.12,0.17,1.85,0.31
			c-0.27,0.3-0.38,0.55-0.55,0.6c-1.59,0.48-2.98,1.43-4.67,1.74c-1.45,0.26-2.8,1.08-4.21,1.63c-1.5,0.59-2.99,1.21-4.51,1.74
			c-1.22,0.42-2.46,0.79-3.72,1.06c-1.05,0.23-2.14,0.35-3.21,0.4c-1.11,0.05-1.99,0.44-2.67,1.33c-0.79,1.04-1.56,2.1-2.39,3.1
			c-1.11,1.33-2.41,2.35-4.24,2.46c-0.43,0.03-0.86,0.14-1.29,0.15c-1.05,0.03-1.69,0.59-2.11,1.51c-0.73,1.6-1.91,2.75-3.54,3.41
			c-0.05,0.02-0.1,0.04-0.14,0.08c-2.32,1.9-4.48,0.76-6.55-0.47c-0.97-0.57-1.73-0.84-2.79-0.14c-1.31,0.86-2.77,1.49-4.3,2.28
			c-1.45-0.68-2.98-1.46-4.56-2.12c-1.34-0.56-2.41-1.38-3.39-2.46c-0.94-1.05-2.04-1.96-3.14-2.85c-1.35-1.1-2.8-2.06-4.13-3.18
			c-0.58-0.49-1.03-0.44-1.62-0.15c-1.46,0.71-3.11,1.17-4.37,2.14c-2.39,1.84-4.44,0.9-6.34-0.55c-1.46-1.12-3.08-1.82-4.71-2.53
			c-1.58-0.68-3.14-1.4-4.69-2.16c-1.58-0.78-3.42-1.31-5.32-0.98c-0.8,0.14-1.62,0.18-2.43,0.22c-1.47,0.07-2.11,1.11-2.69,2.25
			c-0.24,0.47-0.59,0.88-0.85,1.33c-0.72,1.26-1.42,2.53-2.12,3.8c-0.18,0.33-0.25,0.77-0.51,1.02c-1.95,1.83-1.97,4.1-1.56,6.5
			c0.13,0.8,0.15,1.64,0.11,2.46c-0.05,1.12-0.66,1.63-1.8,1.63c-1.47,0-2.93-0.06-4.39,0.02c-0.55,0.03-1.16,0.29-1.61,0.63
			c-0.78,0.58-1.46,1.29-2.16,1.97c-2.07,2.01-4.12,4.03-6.19,6.05c-1.79,1.75-4.04,2.23-6.4,2.32c-1.79,0.07-3.58-0.02-5.37,0.08
			c-0.59,0.03-1.33,0.29-1.71,0.71c-2.02,2.24-4.72,2.97-7.44,3.72c-1.27,0.35-2.52,0.51-3.84,0.15c-0.66-0.18-1.41-0.14-2.11-0.08
			c-1.67,0.13-3.32,0.07-4.98-0.22c-0.79-0.14-1.62-0.09-2.43-0.02c-1.89,0.15-3.79,0.26-5.65,0.59c-1.9,0.33-3.97,0.53-5.59,1.46
			c-1.96,1.12-4.12,1.8-5.97,3.16c-1.1,0.8-2.59,1.07-3.89,1.6c-1.24,0.5-2.49,1.01-3.72,1.55c-0.98,0.43-1.97,0.84-2.9,1.37
			c-2.39,1.37-4.74,2.8-7.12,4.19c-0.39,0.23-0.83,0.38-1.25,0.57c-0.59-1.02-0.11-1.52,0.54-1.91c1.12-0.67,2.27-1.28,3.39-1.95
			c0.73-0.43,1.58-0.72,1.64-1.83c0.02-0.3,0.41-0.64,0.71-0.85c2.2-1.59,4.38-3.23,6.66-4.71c1.59-1.04,3.29-1.92,4.99-2.76
			c3.2-1.58,6.45-3.07,9.68-4.6c0.2-0.09,0.41-0.16,0.62-0.21c4.24-1.01,8.54-1.47,12.89-1.45c0.74,0,1.47,0.29,2.21,0.41
			c3.23,0.49,6.48,0.41,9.72,0.31c1.19-0.04,2.39-0.16,3.56-0.36c0.5-0.08,1.03-0.38,1.4-0.74c3.05-2.98,6.72-5.15,10.12-7.66
			c0.97-0.72,2.22-1.16,3.4-1.44c2.21-0.52,4.47-0.82,6.71-1.24c0.41-0.08,0.86-0.25,1.16-0.52c1.33-1.21,2.6-2.48,3.91-3.71
			c1.07-1,1.33-2.2,1.04-3.59c-0.18-0.86-0.32-1.72-0.44-2.59c-0.09-0.7,0.17-1.24,0.72-1.73c1.58-1.41,3.14-2.82,4.26-4.69
			c0.55-0.92,1.48-1.73,2.74-1.85c0.75-0.07,1.26-0.58,1.61-1.25c1.25-2.38,6.14-8.32,8.19-9.87c0.87-0.65,1.68-0.87,2.94-0.52
			c2.37,0.66,4.4,1.88,6.36,3.18c1.68,1.12,3.02,2.74,4.52,4.13c0.72,0.66,1.43,1.35,2.21,1.94c1.8,1.34,3.41,2.87,4.83,4.6
			c0.47,0.57,1.06,0.7,1.75,0.56c0.84-0.16,1.69-0.39,2.53-0.4c0.73-0.01,1.52,0.13,2.18,0.42c2.57,1.13,5.12,2.33,7.65,3.56
			c1.4,0.68,2.75,1.47,4.11,2.23C497.48,690.09,498.69,690.8,499.93,691.51z"/>
		<path d="M368.17,565.19c1.31,0.66,2.56,1.51,3.94,1.94c4.05,1.26,7.78,3.14,11.38,5.35c2.07,1.27,4.32,2.26,6.47,3.41
			c1.24,0.66,2.47,1.35,3.67,2.09c2.02,1.26,4.03,2.54,6,3.87c1.34,0.91,2.66,1.88,3.91,2.92c2.58,2.15,5.15,4.33,7.65,6.58
			c1,0.9,1.81,2.01,2.84,3.18c1.26-1.34,2.49-2.35,3.37-3.62c2.18-3.12,4.71-5.79,8.07-7.62c1.37-0.75,1.43-0.88,0.86-2.33
			c-0.95-2.42-0.58-4.89-0.3-7.31c0.41-3.58,1.05-7.12,1.32-10.72c0.19-2.49,0.54-5.01,1.19-7.42c0.79-2.94,2.21-5.59,5.09-7.1
			c0.86-0.45,1.59-1.13,2.31-1.65c0.15-0.75,0.37-1.38,0.39-2.03c0.08-1.89,1.2-3.22,2.52-4.22c0.94-0.72,2.25-1,3.44-1.3
			c0.99-0.25,2.09-0.08,3.06-0.38c1.11-0.34,2.14-0.96,3.18-1.53c0.57-0.31,1.04-0.79,1.6-1.13c2.67-1.59,4.77-3.8,6.77-6.15
			c1.04-1.23,2.41-2.19,3.67-3.2c0.26-0.21,0.75-0.12,1.3-0.19c-0.27,1.01-0.59,1.52-1.35,1.95c-1.27,0.71-2.3,1.75-3.22,2.95
			c-1.49,1.93-3.12,3.74-5.02,5.3c-2.77,2.28-5.8,4.16-8.8,6.1c-1.95,1.26-3.81,2.65-5.69,4.02c-0.28,0.21-0.54,0.56-0.64,0.89
			c-0.62,2.09-1.16,4.2-1.8,6.29c-0.55,1.82-1.32,3.58-1.77,5.43c-0.63,2.6-0.98,5.26-0.81,7.96c0.14,2.3,0.17,4.61,0.42,6.89
			c0.15,1.35,0.59,2.66,0.95,3.98c0.37,1.34,0.23,2.22-0.94,2.92c-1.19,0.72-2.55,1.15-3.81,1.76c-0.42,0.2-0.98,0.45-1.12,0.82
			c-0.46,1.21-1.3,2.11-2.07,3.1c-2.08,2.71-4.02,5.55-6.07,8.28c-0.71,0.94-1.6,1.75-2.46,2.68c1.13,1.15,2.18,2.24,3.24,3.32
			c1.63,1.67,3.38,3.26,4.87,5.05c1.48,1.78,2.71,3.77,4.04,5.67c0.47,0.66,0.91,1.34,1.41,1.98c1.1,1.4,2.25,2.76,3.31,4.19
			c0.31,0.42,0.57,0.97,0.62,1.49c0.15,1.58,0.19,3.17,0.26,4.75c0.01,0.22,0.01,0.47-0.09,0.65c-0.4,0.76-1.07,1.47-1.2,2.27
			c-0.14,0.86-0.39,1.52-1.01,2.08c-0.44,0.39-0.86,0.84-1.35,1.16c-1,0.65-2.07,1.2-3.07,1.86c-1.85,1.23-3.9,1.51-6.05,1.54
			c-1.17,0.02-2.34,0.3-3.5,0.51c-1.76,0.31-3.51,0.65-5.26,0.97c-0.21,0.04-0.49-0.03-0.64,0.09c-1.33,1.05-3,0.94-4.5,1.12
			c-1.85,0.21-3.8,0.12-5.63-0.25c-3.54-0.72-7.02-1.75-10.53-2.6c-2.15-0.52-4.32-0.98-6.5-1.37c-1-0.18-2.06-0.22-3.07-0.12
			c-0.76,0.07-1.13-0.12-1.36-0.96c0.31-0.13,0.63-0.36,0.95-0.37c1.08-0.03,2.18-0.09,3.24,0.07c2.02,0.31,4.03,0.72,6.03,1.18
			c2.14,0.49,4.3,0.89,6.33,1.83c0.71,0.33,1.59,0.29,2.38,0.44c1.75,0.32,3.49,0.69,5.24,0.95c0.74,0.11,1.54,0.11,2.27-0.06
			c1.56-0.36,3.15-0.59,4.69-1.15c1.6-0.58,3.35-0.68,5.02-1.09c2.22-0.54,4.49-0.48,6.74-0.66c0.94-0.08,1.92-0.38,2.77-0.81
			c1.44-0.73,2.78-1.66,4.16-2.49c0.99-0.59,1.29-1.55,1.41-2.61c0.07-0.62,0.16-1.24,0.28-2.22c0.35,0.49,0.48,0.64,0.57,0.81
			c0.09,0.18,0.14,0.38,0.34,0.56c0.1-1.44,1.36-2.85-0.12-4.32c-0.27-0.26,0.05-1.06-0.16-1.47c-0.52-1.01-1.08-2.06-1.83-2.88
			c-1.59-1.73-2.99-3.59-4.25-5.57c-1.59-2.5-3.54-4.7-5.61-6.79c-1.53-1.55-2.98-3.2-4.58-4.66c-1.79-1.62-3.24-3.56-4.96-5.22
			c-3.04-2.93-5.98-5.97-9.46-8.45c-2.56-1.83-4.99-3.85-7.69-5.5c-1.85-1.13-3.64-2.38-5.52-3.46c-1.73-0.99-3.57-1.8-5.32-2.76
			c-2.41-1.32-4.79-2.7-7.19-4.06c-0.14-0.08-0.33-0.13-0.42-0.25c-1.27-1.84-3.44-1.79-5.23-2.41c-2.39-0.83-4.91-1.27-7.16-2.52
			c-0.42-0.23-0.91-0.35-1.36-0.53c-1.86-0.75-3.71-1.52-5.58-2.24c-0.64-0.25-1.34-0.34-1.99-0.55c-0.26-0.08-0.46-0.32-0.69-0.48
			c0.2-0.22,0.37-0.57,0.61-0.64c0.34-0.1,0.76-0.08,1.11,0.02c0.68,0.19,1.38,0.38,1.98,0.73c2.37,1.38,4.99,2.07,7.56,2.92
			c0,0-0.04-0.05-0.04-0.05c0.54,0.67,1.27,0.75,2.05,0.7L368.17,565.19z"/>
		<path d="M264.97,499.07c-0.61-0.43-0.41-0.85-0.12-1.4c0.92-1.73,1.77-3.5,2.65-5.25c0.49-0.97,0.91-2,1.53-2.89
			c1.05-1.51,1.62-3.15,1.93-4.96c0.22-1.33,0.81-2.59,1.25-3.88c0.1-0.31,0.3-0.59,0.37-0.91c0.42-1.97,1.82-3.44,2.64-5.21
			c0.25-0.55,0.83-1.06,1.38-1.33c2.32-1.16,4.69-2.23,7.04-3.32c0.93-0.43,1.88-0.84,2.81-1.28c2.47-1.18,5.09-1.8,7.75-2.33
			c0.84-0.17,1.66-0.47,2.47-0.77c3.14-1.17,6.32-0.93,9.52-0.35c2.13,0.38,4.27,0.74,6.41,1.08c1.54,0.24,2.96,0.89,4.05,1.9
			c1.41,1.32,2.51,2.98,3.81,4.43c1.71,1.89,2.89,4.11,3.92,6.4c0.8,1.78,1.99,3.37,2.39,5.36c0.17,0.86,0.87,1.61,1.21,2.45
			c1.45,3.53,2.22,7.17,1.9,11.03c-0.08,0.9,0.03,1.85,0.2,2.74c0.47,2.46,0.86,4.96,1.57,7.35c0.9,3.02,1.97,6.03,3.59,8.75
			c2.28,3.83,3.82,7.95,5.14,12.19c0.56,1.81,1.25,3.59,1.74,5.42c0.4,1.49,0.58,3.05,0.89,4.79c-1.3-0.77-1.58-1.87-1.88-2.96
			c-0.45-1.63-0.84-3.28-1.37-4.87c-0.9-2.68-1.82-5.37-2.88-7.99c-0.8-1.96-1.83-3.83-2.78-5.72c-0.56-1.12-1.28-2.16-1.73-3.32
			c-1.44-3.71-3-7.39-3.14-11.47c-0.03-0.86-0.38-1.71-0.48-2.58c-0.18-1.46-0.31-2.91-0.14-4.41c0.13-1.16-0.13-2.4-0.38-3.56
			c-0.96-4.48-3.1-8.48-5.01-12.59c-1.4-3.01-3.25-5.69-5.28-8.24c-1.62-2.04-3.73-3.42-6.43-3.78c-2.14-0.28-4.24-0.94-6.39-1.2
			c-2.69-0.32-5.44-0.57-8.05,0.4c-2.13,0.79-4.33,1.21-6.51,1.78c-0.83,0.22-1.66,0.48-2.45,0.82c-3.26,1.45-6.51,2.94-9.75,4.43
			c-1.11,0.51-2.11,1.17-2.4,2.5c-0.01,0.05-0.04,0.1-0.08,0.14c-2.03,2.16-2.71,5-3.35,7.7c-0.65,2.74-1.83,5.08-3.28,7.39
			c-0.6,0.96-1.01,2.05-1.44,3.1C267.15,496.27,266.53,497.9,264.97,499.07z"/>
		<path d="M273.15,550.7c0.51,1.16,0.16,2.39,0.07,3.54c-0.21,2.71-0.57,5.4-1.33,8.06c-0.77,2.7-1.84,5.38-1.71,8.28
			c0.01,0.32-0.04,0.67-0.17,0.96c-0.94,2.06-1.3,4.35-2.57,6.3c-0.79,1.21-1.2,2.67-1.81,4c-0.78,1.73-1.97,3.1-3.55,4.17
			c-0.84,0.57-1.55,1.35-2.24,2.12c-0.83,0.92-1.75,1.16-2.92,0.78c-2.48-0.81-3.77-2.46-4.02-5.35c-0.17-2.01-0.54-3.95-1.17-5.89
			c-0.61-1.84-0.62-3.88-1.1-5.77c-0.54-2.16-0.46-4.29-0.35-6.48c0.15-2.89-0.06-5.8,0.11-8.69c0.16-2.79-0.21-5.54-0.3-8.3
			c-0.1-2.94,0.12-5.89,0.13-8.83c0-1.86-0.17-3.72-0.19-5.58c-0.02-2.24,0.04-4.48,0.06-6.71c0-0.38,0.01-0.79-0.1-1.14
			c-0.41-1.24,0.05-2.21,0.79-3.19c0.17,0.13,0.4,0.25,0.39,0.32c-0.35,1.67,0.03,3.38-0.15,5.03c-0.28,2.69,0.06,5.34,0.09,8.01
			c0.02,1.57-0.04,3.15-0.03,4.72c0.02,2.43,0.05,4.86,0.13,7.28c0.08,2.28,0.53,4.6,0.27,6.83c-0.35,2.99-0.18,5.97-0.36,8.95
			c-0.14,2.41-0.52,4.91,0.48,7.29c0.18,0.43,0.1,0.97,0.15,1.46c0.17,2.02,0.83,3.91,1.38,5.83c0.43,1.5,0.67,3.09,0.78,4.65
			c0.15,2.1,0.9,3.62,3.03,4.28c0.94,0.29,1.73,0.2,2.34-0.53c0.95-1.14,2.08-2.04,3.24-2.96c0.85-0.67,1.47-1.72,2-2.71
			c0.94-1.76,1.85-3.54,2.55-5.41c0.86-2.32,1.99-4.58,1.92-7.19c-0.03-0.99,0.41-2,0.62-3c0.18-0.85,0.25-1.73,0.54-2.54
			c1.04-3,1.48-6.12,1.8-9.25c0.1-0.95-0.08-1.94-0.14-3.09c0.5-0.07,0.96-0.14,1.41-0.21L273.15,550.7z"/>
		<path d="M273.2,550.75c-0.95-1.1-1.84-2.27-2.87-3.29c-1.88-1.88-3.65-3.83-5.1-6.08c-0.77-1.19-1.57-2.38-2.47-3.46
			c-1.49-1.79-2.31-3.8-2.38-6.33c0.24,0.37,0.52,0.62,0.56,0.9c0.17,1.11,0.78,1.99,1.41,2.86c1.67,2.34,3.25,4.76,5.03,7.02
			c1.26,1.6,2.8,2.99,4.21,4.48c2.21,2.33,4.38,4.68,6.35,7.25c1.81,2.36,3.85,4.58,5.99,6.64c2.11,2.04,3.68,4.45,5.23,6.89
			c1.57,2.49,3.16,4.96,4.6,7.53c1.28,2.27,2.37,4.66,3.53,6.99c0.85,1.7,1.62,3.45,2.55,5.11c1.63,2.92,2.78,6.02,3.61,9.25
			c0.09,0.34,0.01,0.73-0.24,1.2c-0.35-0.75-0.72-1.49-1.06-2.24c-1.47-3.23-2.88-6.47-4.4-9.68c-1.22-2.57-2.46-5.13-3.85-7.61
			c-1.88-3.32-3.91-6.56-5.88-9.83c-0.76-1.26-1.55-2.52-2.35-3.75c-0.36-0.55-0.75-1.08-1.2-1.55c-2.08-2.13-4.27-4.16-6.27-6.36
			c-1.38-1.52-2.49-3.29-3.77-4.9c-0.35-0.44-0.85-0.75-1.29-1.12C273.15,550.7,273.2,550.75,273.2,550.75z"/>
		<path d="M364.25,561.26c-1.89-0.48-2.85-2.1-4.02-3.43c-1.9-2.16-3.64-4.47-5.55-6.61c-1.81-2.03-3.91-3.73-6.37-4.93
			c-0.24-0.12-0.52-0.14-0.77-0.24c-3.32-1.31-6.64-2.61-9.94-3.96c-1-0.41-1.91-1.04-2.91-1.47c-1.29-0.55-2.61-1.04-3.94-1.48
			c-1.18-0.39-2.4-0.62-3.57-1.03c-2.04-0.71-4.07-1.47-6.08-2.28c-1-0.4-1.98-0.9-2.9-1.47c-0.55-0.35-1.17-0.82-0.83-1.83
			c0.49,0.23,0.94,0.38,1.33,0.62c2.88,1.82,6.11,2.76,9.31,3.77c1.83,0.58,3.69,1.07,5.53,1.65c0.61,0.19,1.21,0.47,1.76,0.82
			c2.4,1.51,5.11,2.28,7.68,3.39c1.78,0.77,3.56,1.54,5.4,2.17c2.82,0.97,4.82,3.06,7,4.94c2.5,2.15,4.32,4.9,6.42,7.4
			c0.66,0.79,1.35,1.56,2.09,2.27c0.57,0.54,0.64,1.09,0.32,1.76L364.25,561.26z"/>
		<path d="M269.17,480.76c0.86,0.61,1.28,1.24,1.32,2.15c-0.23,0.05-0.43,0.16-0.51,0.1c-1.13-0.85-2.15-0.33-3.14,0.24
			c-2.1,1.21-4.18,2.45-6.26,3.69c-0.41,0.25-0.81,0.55-1.16,0.88c-1.5,1.4-2.89,2.96-4.51,4.21c-1.38,1.06-1.93,2.43-2.31,4
			c-0.99,4.06-1.36,8.2-1.28,12.37c0.04,2.18,0.3,4.35,0.51,6.52c0.09,0.92-0.31,4.21-0.76,4.97c-0.14-0.3-0.32-0.51-0.33-0.74
			c-0.18-4.25-0.41-8.5-0.5-12.76c-0.09-4.07,0.38-8.07,1.59-11.98c0.53-1.72,1.59-3.12,2.42-4.84c0.35,0.32,0.59,0.54,1.01,0.91
			c0.92-0.87,2.02-1.63,2.75-2.66c0.83-1.18,1.89-1.88,3.11-2.48c0.77-0.38,1.55-0.8,2.22-1.34
			C265.11,482.61,267.17,481.8,269.17,480.76z"/>
		<path d="M298.73,567.76c-1.45-2.68-2.92-5.35-4.36-8.03c-1.25-2.33-2.83-4.38-4.87-6.09c-0.86-0.72-1.5-1.71-2.2-2.61
			c-1.7-2.23-3.34-4.51-5.07-6.72c-1.77-2.26-3.1-4.77-3.91-7.5c-0.66-2.23-1.59-4.27-2.8-6.24c-1.05-1.7-1.87-3.55-2.83-5.39
			c1.06-0.02,1.33,0.9,1.68,1.49c1.31,2.18,2.52,4.42,3.71,6.68c0.48,0.91,0.9,1.87,1.19,2.85c0.82,2.73,2.16,5.17,3.88,7.41
			c0.65,0.84,1.35,1.64,1.97,2.49c1.31,1.8,2.57,3.64,3.9,5.43c0.35,0.47,0.85,0.83,1.26,1.26c1.23,1.29,2.65,2.46,3.62,3.93
			c1.16,1.75,1.98,3.73,2.87,5.66c0.73,1.58,1.34,3.22,2,4.84c0.06,0.14,0.06,0.3,0.09,0.45
			C298.84,567.69,298.79,567.73,298.73,567.76z"/>
		<path d="M328.35,535.13c-0.61-0.92-1.21-1.69-1.67-2.54c-2.4-4.41-4.77-8.83-7.13-13.26c-0.41-0.77-0.68-1.62-1.15-2.34
			c-0.8-1.24-0.9-2.64-1.12-4.02c-0.09-0.59-0.16-1.2-0.35-1.77c-0.98-3.01-1.98-6.02-2.99-9.02c-0.31-0.93-0.43-2.18-0.27-3.27
			c0.75,0.56,1,1.35,1.18,2.09c0.82,3.36,2.3,6.48,3.38,9.74c0.31,0.92,0.33,1.94,0.56,2.89c0.24,1,0.42,2.06,0.87,2.96
			c1.89,3.81,3.86,7.57,5.83,11.34c1,1.92,2.08,3.8,3.1,5.71C328.84,534.08,329.24,534.6,328.35,535.13z"/>
		<path d="M275.36,510.38c-0.04,0.04-0.11,0.08-0.11,0.12c0.2,2.28-0.84,4.34-1.16,6.53c-0.26,1.77-0.95,3.4-1.99,4.95
			c-0.04-0.28-0.19-0.61-0.09-0.82c1.38-3.06,1.7-6.4,2.44-9.62C274.58,510.96,274.71,510.49,275.36,510.38L275.36,510.38z"/>
		<path d="M364.2,561.31c0.88-0.14,1.18,0.68,1.7,1.1c0.94,0.77,1.76,1.7,3.02,1.96c0.1,0.02,0.15,0.26,0.3,0.54
			c-0.4,0.11-0.72,0.19-1.05,0.28c0,0,0.05,0.04,0.05,0.04c-0.62-0.43-1.24-0.85-2.05-0.7c0,0,0.04,0.05,0.04,0.05
			c0.11-0.85-0.66-1.08-1.13-1.36c-0.84-0.49-1.06-1.09-0.83-1.96C364.25,561.26,364.2,561.31,364.2,561.31z"/>
		<path d="M266.63,516.79c0.43,1.24,0.82,2.21,1.11,3.2c0.39,1.34,0.36,1.35,1.49,2.14c-1.02,0.06-1.34,0.01-1.61-0.66
			c-0.52-1.29-0.92-2.63-1.35-3.96C266.24,517.42,266.39,517.26,266.63,516.79z"/>
		<path d="M636.96,269.27c-0.73,0.85-1.25,0.72-1.79-0.07C635.78,269.02,636.31,268.51,636.96,269.27z"/>
		<path d="M275.36,510.39c-0.08-0.49-0.16-0.98-0.24-1.46c0.13-0.04,0.26-0.08,0.39-0.12c0.12,0.22,0.37,0.46,0.33,0.65
			C275.77,509.78,275.53,510.08,275.36,510.39C275.36,510.38,275.36,510.39,275.36,510.39z"/>
	</g>
</g>
</svg>
