<?xml version="1.0" encoding="utf-8"?>
<!-- Generator: Adobe Illustrator 26.0.2, SVG Export Plug-In . SVG Version: 6.00 Build 0)  -->
<svg version="1.1" xmlns="http://www.w3.org/2000/svg" xmlns:xlink="http://www.w3.org/1999/xlink" x="0px" y="0px"
	 viewBox="0 0 800 800" style="enable-background:new 0 0 800 800;" xml:space="preserve">
<style type="text/css">
	.st0{display:none;}
	.st1{display:inline;}
	.st2{fill:#2D2D2D;}
	.st3{fill:#3C3D3D;}
	.st4{fill:#131313;}
	.st5{fill:#FFFFFF;}
	.st6{fill:#FCFCFC;}
	.st7{fill:#2A2A2A;}
	.st8{fill:#565454;}
	.st9{fill:#767373;}
	.st10{fill:#959292;}
	.st11{fill:#C6C4C4;}
</style>
<g id="back" class="st0">
	<rect x="1.17" y="0" class="st1" width="800" height="800"/>
</g>
<g id="Front">
	<g>
		<path d="M525.89,774.93c-0.97-1.39-1.87-2.84-2.94-4.15c-1.98-2.45-4.01-4.83-6.26-7.06c-1.83-1.82-3.27-4.03-4.9-6.07
			c-1.16-1.46-2.36-2.89-3.51-4.35c-1.89-2.41-3.77-4.81-5.31-7.48c-1.12-1.94-2.76-3.47-4.42-4.99c-2.61-2.4-5.33-4.7-7.3-7.75
			c-0.93-1.44-2.41-2.53-3.65-3.77c-0.3-0.3-0.62-0.59-0.91-0.9c-2.91-3.03-5.8-6.08-8.71-9.11c-2.76-2.87-5.55-5.71-8.28-8.61
			c-2.4-2.56-4.73-5.19-7.11-7.77c-0.79-0.86-1.65-1.66-2.44-2.53c-0.78-0.86-1.54-1.74-2.24-2.66c-2.13-2.8-4.47-5.4-6.96-7.87
			c-2.26-2.25-4.38-4.63-6.6-6.92c-1.3-1.34-2.69-2.58-4.01-3.89c-2.75-2.74-5.49-5.5-8.22-8.27c-1.12-1.13-2.22-2.3-3.34-3.43
			c-1.49-1.5-3.02-2.97-4.5-4.49c-1.64-1.68-3.19-3.44-4.86-5.07c-2.47-2.42-5.01-4.77-7.54-7.13c-3.04-2.84-6.14-5.61-9.15-8.48
			c-3.43-3.27-6.72-6.68-10.21-9.88c-2.43-2.22-5.09-4.18-7.64-6.27c-2.47-2.03-4.98-4.01-7.38-6.12c-3.08-2.7-6.04-5.54-9.11-8.26
			c-3.35-2.97-6.8-5.84-10.14-8.82c-2.1-1.87-4.07-3.88-6.11-5.82c-1.78-1.69-3.6-3.33-5.37-5.03c-2.87-2.76-5.7-5.57-8.58-8.33
			c-2.58-2.47-5.2-4.91-7.83-7.33c-1.32-1.22-2.74-2.33-4.03-3.58c-1.76-1.7-3.43-3.5-5.15-5.24c-1.35-1.37-2.7-2.73-4.08-4.06
			c-3.3-3.16-6.76-6.17-9.43-9.93c-1.66-2.34-3.25-4.74-4.93-7.06c-1.05-1.45-2.21-2.83-3.35-4.22c-1.42-1.72-2.86-3.44-4.32-5.12
			c-1.57-1.81-3.32-3.42-5.31-4.77c-0.99-0.68-1.86-1.56-2.74-2.38c-2.99-2.78-6.01-5.55-8.94-8.39c-1.86-1.81-3.58-3.76-5.39-5.62
			c-0.89-0.91-1.83-1.77-2.75-2.66c-0.5-0.48-1-0.95-1.48-1.45c-0.7-0.73-0.9-1.57-0.89-2.61c0.01-2.13-0.22-4.26-0.36-6.39
			c-0.22-3.29-0.46-6.58-0.22-9.88c0.28-3.88,0.63-7.77,0.75-11.65c0.15-4.53,0.14-9.07,0.12-13.6c-0.02-3.89-0.14-7.78-0.22-11.67
			c-0.03-1.49-0.13-2.99-0.09-4.48c0.03-1.04,0.25-2.07,0.43-3.44c-0.9-0.71-2.02-1.68-3.24-2.51c-1.05-0.71-2.3-0.26-3.44-0.22
			c-2.12,0.06-4.24,0.44-6.36,0.43c-2.96-0.02-5.83,0.56-8.75,0.88c-2.8,0.31-5.61,0.69-8.41,0.73c-1.56,0.02-3.09,0.16-4.63,0.26
			c-1.65,0.11-3.3,0.11-4.95,0.17c-1.59,0.06-3.18,0.13-4.77,0.19c-4.05,0.16-8.09,0.05-12.08-0.77c-2.79-0.57-5.61-0.43-8.43-0.22
			c-0.21,0.02-0.43,0.1-0.63,0.06c-3.45-0.57-6.75,0.34-10.1,0.97c-2.38,0.45-4.82,0.75-7.36-0.08c0-1.12-0.08-2.23,0.01-3.33
			c0.61-7.14,0.63-14.29,0.64-21.45c0.01-6.5-0.05-13-0.17-19.5c-0.06-3.46-0.31-6.92-0.46-10.38c-0.11-2.54-0.26-5.08-0.29-7.62
			c-0.03-2.55,0.11-5.11,0.12-7.67c0.02-3.29-0.02-6.58-0.02-9.88c0-2.72,0.05-5.43,0.04-8.15c-0.01-2.23-0.16-4.47-0.12-6.7
			c0.08-4.37,0.27-8.74,0.39-13.11c0.08-3.19,0.09-6.39,0.17-9.58c0.09-4.2,0.23-8.41,0.32-12.61c0.05-2.45,0.03-4.91,0.05-7.37
			c0.03-3.19,0.07-6.37,0.11-9.55c0.03-3.19-0.02-6.39,0.12-9.57c0.19-4.37-0.05-8.75,0.63-13.1c0.18-1.14-0.06-2.34,0.02-3.51
			c0.24-3.61,0.62-7.21,0.8-10.83c0.21-4.26,0.24-8.54,0.39-12.8c0.11-3.14,0.35-6.27,0.42-9.41c0.09-4.16,0.02-8.32,0.11-12.48
			c0.08-3.62,0.28-7.24,0.42-10.85c0.03-0.9,0.03-1.81,0.03-2.72c0.03-3.9,0.07-7.8,0.08-11.7c0.01-2.82,0.06-5.65-0.02-8.47
			c-0.09-3.25-0.29-6.5-0.45-9.75c-0.13-2.82-0.24-5.65-0.4-8.47c-0.06-1.12-0.27-2.22-0.34-3.34c-0.26-4.19-0.52-8.38-0.72-12.57
			c-0.16-3.3-0.21-6.61-0.38-9.91c-0.16-3.24-0.38-6.47-0.64-9.71c-0.21-2.55-0.62-5.08-0.75-7.63c-0.14-2.9-0.8-5.8-0.24-8.73
			c0.09-0.48-0.16-1.01-0.23-1.53c-0.36-2.7-0.72-5.39-1.07-8.09c-0.35-2.7-0.83-5.39-0.99-8.09c-0.15-2.39,0.06-4.8,0.11-7.2
			c0.03-1.55,0.07-3.1,0.08-4.64c0-0.68,0.24-1.12,0.76-1.63c1.21-1.19,2.75-1.77,4.14-2.62c1.5-0.91,3.08-1.7,4.6-2.57
			c0.56-0.32,1.05-0.59,1.45,0.2c0.07,0.13,0.35,0.22,0.53,0.22c1.69,0.02,3.38,0.01,5.08,0.01c1.59,0,3.19-0.06,4.78-0.02
			c2.61,0.08,5.21,0.24,7.82,0.31c0.78,0.02,1.57-0.17,2.36-0.21c1.07-0.05,2.16-0.1,3.23-0.04c2.94,0.18,5.81-0.37,8.69-0.81
			c3.56-0.54,7.12-1.13,10.66-1.81c4.07-0.78,8.19-0.99,12.31-1.22c2.8-0.16,5.62-0.02,8.43-0.07c1.06-0.02,2.12-0.21,3.17-0.31
			c2.06-0.21,4.16-0.25,6.18-0.66c1.77-0.36,3.52-0.72,5.32-0.88c1.47-0.13,2.92-0.49,4.39-0.75c0.93,0.47,1.13,1.67,2.17,2.15
			c0.34,0.16,0.26,1.21,0.37,1.85c-0.11,0.06-0.22,0.13-0.33,0.19c1.3,1,2.62,1.98,3.89,3.01c2.36,1.9,4.7,3.79,6.7,6.1
			c0.72,0.83,1.62,1.54,2.51,2.2c2.9,2.14,5.83,4.23,8.75,6.33c0.56,0.4,1.16,0.74,1.73,1.13c0.96,0.67,1.95,1.31,2.84,2.06
			c3.34,2.82,6.74,5.53,10.44,7.88c2.24,1.43,4.33,3.1,6.5,4.65c0.52,0.37,1.09,0.65,1.63,1c2.73,1.76,5.56,3.38,8.14,5.32
			c3.71,2.79,7.61,5.3,11.3,8.11c0.59,0.45,1.29,0.73,1.87,1.19c1.09,0.85,2.14,1.75,3.17,2.67c2.57,2.27,5.47,4.03,8.42,5.75
			c3.03,1.77,5.92,3.77,8.49,6.2c0.91,0.86,2.06,1.48,3.09,2.23c2.49,1.82,4.95,3.69,7.46,5.48c3.02,2.15,5.91,4.46,9.24,6.19
			c3.67,1.9,7.14,4.17,10.73,6.24c1.7,0.98,3.44,1.9,5.21,2.75c3.5,1.68,6.64,3.93,9.86,6.06c1.85,1.23,3.71,2.45,5.55,3.7
			c1.84,1.26,3.63,2.59,5.49,3.82c1.46,0.96,3,1.8,4.49,2.72c3.63,2.25,7.22,4.54,10.87,6.75c2.28,1.38,4.72,2.5,6.94,3.97
			c4.52,2.97,9.25,5.59,13.75,8.58c3.49,2.32,6.9,4.76,10.4,7.04c2.13,1.39,4.38,2.58,6.57,3.87c1.47,0.86,2.93,1.74,4.4,2.61
			c1.93,1.13,3.86,2.26,5.79,3.39c2.61,1.53,5.24,3.03,7.83,4.59c4.7,2.83,9.31,5.78,13.73,9.03c2.27,1.67,4.59,3.27,6.86,4.94
			c1.83,1.36,3.56,2.85,5.41,4.17c2.46,1.76,5.01,3.41,7.51,5.13c2.54,1.75,5.05,3.55,7.59,5.3c1.53,1.05,3.11,2.03,4.64,3.08
			c1.66,1.14,3.3,2.3,4.94,3.47c2.72,1.95,5.43,3.9,8.12,5.88c1.28,0.94,2.48,1.99,3.76,2.94c1.61,1.21,3.27,2.36,4.9,3.54
			c0.3,0.22,0.65,0.39,0.92,0.64c3.18,3.07,6.83,5.6,9.84,8.86c1.63,1.77,3.67,3.01,5.86,4.02c1.14,0.53,2.16,1.34,3.19,2.08
			c3.3,2.37,6.98,4.02,10.56,5.86c0.59-0.53,1.05-1.04,1.61-1.4c0.23-0.15,0.67,0.01,1.01,0.03c-0.04,0.29-0.05,0.59-0.14,0.87
			c-0.18,0.62-0.85,1.1-0.47,1.89c0.05,0.09-0.34,0.36-0.47,0.58c-0.39,0.67-0.91,1.32-1.09,2.05c-1.07,4.52-0.9,9.09-0.5,13.67
			c0.27,3.13,0.31,6.28,0.54,9.42c0.16,2.18,0.45,4.35,0.69,6.52c0.35,3.06,0.77,6.11,1.04,9.18c0.26,2.97,0.46,5.96,0.54,8.94
			c0.22,8.42,0.35,16.84,0.53,25.26c0.09,4.16,0.16,8.33,0.37,12.49c0.15,2.98,0.57,5.94,0.77,8.91c0.16,2.39,0.17,4.78,0.26,7.18
			c0.05,1.17,0.23,2.35,0.19,3.51c-0.2,5.38,0.21,10.76-0.42,16.14c-0.33,2.85-0.12,5.76-0.2,8.64c-0.14,5.17-0.34,10.35-0.48,15.52
			c-0.09,3.36-0.22,6.73-0.15,10.09c0.1,4.91,0.39,9.83,0.54,14.74c0.08,2.4,0.05,4.81,0.03,7.21c-0.02,2.51-0.15,5.02-0.12,7.52
			c0.02,1.75,0.26,3.49,0.34,5.24c0.14,3.15,0.22,6.3,0.36,9.45c0.09,2.13,0.28,4.25,0.34,6.38c0.05,2.02-0.02,4.05-0.02,6.08
			c0,1.28,0.08,2.55,0.09,3.83c0.05,5.02,0.07,10.04,0.13,15.07c0.05,3.96,0.14,7.91,0.24,11.87c0.07,2.66,0.13,5.33,0.29,7.99
			c0.23,3.88,0.52,7.77,0.81,11.65c0.13,1.74,0.35,3.47,0.47,5.22c0.34,4.73,0.63,9.46,0.99,14.19c0.18,2.39,0.48,4.77,0.68,7.16
			c0.08,0.95,0.04,1.91,0.07,2.87c0.03,1.22,0.12,2.45,0.11,3.67c-0.01,1.87-0.12,3.74-0.14,5.6c-0.04,3.74-0.12,7.48-0.06,11.22
			c0.04,2.28,0.39,4.55,0.49,6.83c0.12,2.77,0.23,5.55,0.17,8.32c-0.11,5.07-0.29,10.15-0.54,15.22c-0.14,2.98-0.49,5.95-0.7,8.93
			c-0.17,2.34-0.23,4.7-0.4,7.04c-0.28,3.72-0.62,7.44-0.93,11.17c-0.13,1.64-0.19,3.29-0.37,4.93c-0.12,1.04-0.38,2.07-0.59,3.11
			c-0.65,3.17-1.12,6.37-1.4,9.59c-0.39,4.57-0.87,9.13-1.23,13.7c-0.14,1.74-0.04,3.5-0.05,5.25c0,0.69,0.06,1.39-0.05,2.07
			c-0.08,0.47-0.39,0.91-0.6,1.36c-0.8-0.28-0.88-0.73-0.86-1.32c0.12-2.6,0.13-5.2,0.31-7.8c0.21-2.97,0.56-5.92,0.86-8.88
			c0.23-2.28,0.41-4.57,0.73-6.85c0.48-3.43,1.05-6.84,1.58-10.26c0.08-0.52,0.23-1.04,0.27-1.57c0.33-4.2,0.67-8.4,0.97-12.6
			c0.37-5.11,0.78-10.22,1.03-15.33c0.3-6.18,0.49-12.37,0.66-18.55c0.07-2.35,0-4.7-0.07-7.04c-0.05-1.37-0.27-2.73-0.36-4.1
			c-0.36-5.97-0.1-11.94-0.18-17.91c-0.03-2.61,0.11-5.22-0.02-7.82c-0.17-3.4-0.54-6.79-0.81-10.18c-0.14-1.7-0.23-3.4-0.37-5.1
			c-0.24-2.85-0.5-5.7-0.74-8.55c-0.23-2.82-0.45-5.63-0.65-8.45c-0.15-2.13-0.31-4.26-0.39-6.4c-0.13-3.93-0.2-7.87-0.31-11.8
			c-0.05-2.02-0.14-4.05-0.19-6.07c-0.02-0.85,0.02-1.7,0.02-2.55c-0.02-2.71-0.05-5.43-0.09-8.14c-0.06-3.99-0.12-7.99-0.21-11.98
			c-0.08-3.72-0.15-7.44-0.3-11.16c-0.18-4.41-0.45-8.82-0.65-13.23c-0.04-0.9,0.03-1.81,0.04-2.72c0.04-2.99,0.14-5.98,0.1-8.97
			c-0.06-4.69-0.21-9.37-0.31-14.06c-0.07-3.19-0.19-6.39-0.18-9.58c0.02-3.68,0.18-7.36,0.27-11.04c0.08-2.98,0.15-5.97,0.22-8.95
			c0.09-4.25,0.14-8.5,0.49-12.75c0.23-2.87,0.17-5.76,0.19-8.64c0.01-0.97-0.17-1.94-0.2-2.92c-0.03-0.95,0.03-1.91,0.01-2.86
			c-0.07-2.61-0.11-5.23-0.25-7.83c-0.17-2.98-0.44-5.95-0.67-8.92c-0.03-0.32-0.12-0.63-0.14-0.95c-0.12-2.61-0.28-5.23-0.32-7.84
			c-0.06-4.11,0.02-8.22-0.08-12.33c-0.13-5.11-0.39-10.22-0.56-15.33c-0.09-2.51-0.03-5.02-0.18-7.52
			c-0.14-2.39-0.54-4.76-0.7-7.14c-0.36-5.27-1.44-10.46-1.49-15.76c-0.04-3.89-0.44-7.78-0.66-11.67
			c-0.16-2.68,0.17-5.32,0.64-7.95c0.11-0.61,0.46-1.18,0.82-2.05c-0.88,0.46-1.68,0.67-2.17,1.18c-1.65,1.71-3.87,2.4-5.84,3.52
			c-0.23,0.13-0.48,0.23-0.72,0.35c-0.66,0.35-0.89,0.85-0.95,1.66c-0.22,2.76,0.08,5.5,0.1,8.25c0.02,2.28-0.34,4.58,0.09,6.83
			c0.4,2.05,0.34,4.11,0.35,6.15c0,2.08-0.29,4.15-0.43,6.23c-0.29,4.14-0.55,8.28-0.87,12.42c-0.16,2.07-0.48,4.13-0.62,6.2
			c-0.29,4.52-0.53,9.05-0.76,13.57c-0.2,3.94-0.26,7.87,0.1,11.81c0.13,1.47-0.04,2.98,0.09,4.45c0.2,2.33,0.58,4.65,0.79,6.98
			c0.21,2.28,0.41,4.57,0.42,6.85c0.01,4.27-0.13,8.54-0.21,12.81c-0.04,2.61-0.05,5.23-0.11,7.84c-0.08,3.1-0.21,6.19-0.29,9.28
			c-0.06,2.5-0.06,5.01-0.1,7.51c-0.07,3.68-0.15,7.35-0.24,11.03c-0.09,3.89-0.16,7.77-0.31,11.66c-0.09,2.39-0.34,4.78-0.44,7.17
			c-0.06,1.54,0.06,3.09,0.07,4.63c0.02,3.67-0.01,7.35,0.05,11.02c0.09,4.85,0.21,9.7,0.39,14.55c0.11,3.14,0.38,6.28,0.52,9.42
			c0.08,1.81-0.02,3.62,0.04,5.43c0.07,2.45,0.27,4.89,0.32,7.33c0.06,3.04-0.02,6.07,0.02,9.11c0.07,5.22,0.17,10.44,0.31,15.66
			c0.05,1.92,0.2,3.84,0.33,5.76c0.12,1.75,0.28,3.51,0.43,5.26c0.18,2.01,0.32,4.03,0.56,6.03c0.33,2.7,0.65,5.4,1.13,8.07
			c0.47,2.67,0.82,5.35,1.27,8.02c0.67,3.98,0.96,8.04,1.15,12.08c0.24,5.21,0.25,10.44,0.27,15.66c0.01,1.7-0.25,3.39-0.38,5.09
			c-0.19,2.61-0.32,5.22-0.54,7.82c-0.3,3.61-0.67,7.21-0.98,10.81c-0.24,2.76-0.44,5.52-0.64,8.28c-0.14,1.96-0.21,3.93-0.38,5.89
			c-0.14,1.59-0.49,3.16-0.58,4.75c-0.18,3.35-0.26,6.71-0.36,10.07c-0.03,1.05-0.02,2.07,0.27,3.14c0.28,1.03,0.15,2.2,0.07,3.3
			c-0.31,4.22-0.62,8.44-1.03,12.65c-0.18,1.91-0.61,3.79-0.87,5.69c-0.48,3.42-1.02,6.83-1.32,10.27
			c-0.19,2.11,0.02,4.25,0.02,6.37c0,3.29,0.03,6.59-0.05,9.88c-0.05,1.96-0.31,3.92-0.46,5.88c-0.08,1-0.11,2.01-0.18,3.25
			c0.99-0.07,1.83-0.06,2.64-0.21c1.46-0.28,2.93-0.56,4.33-1.03c2.47-0.82,5.09-0.79,7.59-1.37c0.49-0.11,0.87,0.04,0.92,0.58
			c0.05,0.59-0.16,1.05-0.84,1.12c-1.16,0.12-2.32,0.27-3.48,0.35c-2.77,0.19-5.5,0.53-8.12,1.55c-0.53,0.2-1.15,0.16-1.72,0.24
			c-0.55,0.08-1.04,0.24-1.07,1.05c0.42,0.19,0.88,0.41,1.57,0.72c-0.45,0.48-0.84,0.89-1.28,1.35c-2.18-1.7-4.3-3.29-6.34-4.98
			c-2.2-1.83-4.32-3.76-6.48-5.64c-0.28-0.24-0.6-0.44-0.92-0.64c-1.57-0.99-3.17-1.94-4.71-2.98c-0.92-0.62-1.72-1.43-2.63-2.09
			c-1.51-1.09-3.14-2.02-4.58-3.19c-2.39-1.94-4.69-3.99-7-6.03c-0.77-0.68-1.58-1.19-2.54-1.59c-1.26-0.53-2.38-1.39-3.58-2.08
			c-3.32-1.92-6.32-4.29-9.3-6.69c-0.94-0.76-1.94-1.44-2.91-2.17c-2.16-1.62-4.22-3.43-6.52-4.83c-3.17-1.93-5.59-4.46-7.54-7.59
			c-0.8-1.28-1.94-2.34-2.95-3.47c-1.13-1.27-2.23-2.58-3.47-3.74c-2.31-2.14-4.01-4.8-6.19-7.03c-2.53-2.59-5.26-4.97-7.87-7.49
			c-1.26-1.21-2.43-2.51-3.63-3.77c-2.23-2.35-4.55-4.6-7.09-6.63c-2.14-1.71-4.2-3.52-6.26-5.32c-2.22-1.94-4.42-3.9-6.59-5.89
			c-2.07-1.91-4.08-3.9-6.13-5.84c-1.73-1.63-3.45-3.28-5.23-4.86c-2.49-2.22-5.04-4.39-7.55-6.59c-2.56-2.24-5.12-4.48-7.66-6.76
			c-1.77-1.59-3.45-3.3-5.26-4.86c-2.38-2.05-4.86-3.99-7.27-6.01c-1.42-1.2-2.78-2.48-4.18-3.69c-2.25-1.94-4.53-3.86-6.79-5.79
			c-4.87-4.14-9.76-8.25-14.61-12.41c-2.05-1.77-3.97-3.69-6.03-5.45c-1.74-1.48-3.61-2.81-5.38-4.25c-1.36-1.1-2.68-2.27-4.01-3.41
			c-0.65-0.55-1.28-1.11-1.93-1.66c-2.16-1.81-4.31-3.64-6.5-5.41c-1.37-1.1-2.85-2.06-4.21-3.17c-3.3-2.69-6.55-5.46-9.85-8.16
			c-1.8-1.48-3.72-2.81-5.47-4.35c-2.04-1.79-3.99-3.68-5.9-5.61c-3.59-3.64-7.13-7.34-10.69-11.01c-2.25-2.33-4.52-4.65-6.76-6.99
			c-2.91-3.04-5.78-6.11-8.7-9.14c-1-1.03-2.14-1.92-3.16-2.94c-2.59-2.58-5.26-5.09-7.69-7.81c-3.37-3.79-6.97-7.32-10.67-10.76
			c-0.19-0.18-0.34-0.45-0.57-0.55c-3.02-1.29-5.07-3.82-7.52-5.83c-1.93-1.58-3.79-3.25-5.68-4.88c-2.97-2.57-6.13-4.92-8.69-7.96
			c-1.15-1.36-2.65-2.42-4.05-3.55c-2.32-1.86-4.67-3.67-7.03-5.48c-0.59-0.45-1.24-0.81-1.84-1.24c-1.15-0.84-2.28-1.7-3.54-2.65
			c0.12,3.88,0.25,7.64,0.36,11.41c0.19,6.49,0.47,12.99,0.13,19.49c-0.16,2.93-0.4,5.86-0.58,8.79c-0.14,2.34-0.31,4.67-0.36,7.01
			c-0.03,1.38,0.17,2.77,0.24,4.15c0.14,2.65,0.25,5.31,0.38,7.96c0.06,1.2,0.15,2.4,0.23,3.77c1.67,0.01,2.45,1.41,3.43,2.59
			c1.16,1.39,2.31,2.77,3.55,4.09c0.83,0.88,1.82,1.62,2.72,2.45c1.41,1.3,2.79,2.64,4.21,3.93c2.36,2.15,4.73,4.28,7.1,6.42
			c0.2,0.18,0.39,0.38,0.62,0.5c2.64,1.35,4.46,3.58,6.25,5.84c1.78,2.24,3.55,4.49,5.28,6.78c1.02,1.35,1.93,2.79,2.92,4.17
			c0.4,0.56,0.92,1.02,1.34,1.57c0.57,0.76,1.16,1.52,1.61,2.35c0.9,1.67,2.22,2.98,3.53,4.3c2.47,2.48,5.02,4.89,7.44,7.41
			c1.45,1.51,3.14,2.75,4.56,4.3c1.9,2.08,3.94,4,6.13,5.8c2.58,2.12,4.87,4.6,7.29,6.91c1,0.95,2.07,1.82,3.05,2.79
			c1.81,1.79,3.54,3.66,5.36,5.44c1.6,1.55,3.3,3,4.92,4.52c1.23,1.16,2.4,2.38,3.62,3.55c1.49,1.43,2.97,2.89,4.53,4.25
			c3.32,2.91,6.71,5.73,10.04,8.64c1.44,1.26,2.76,2.65,4.16,3.96c0.47,0.43,1.07,0.72,1.53,1.15c1.47,1.36,2.9,2.77,4.37,4.13
			c0.43,0.39,0.97,0.66,1.41,1.04c1.62,1.38,3.21,2.78,4.82,4.17c0.32,0.28,0.68,0.52,1.01,0.79c3.32,2.75,6.72,5.4,9.92,8.27
			c3.04,2.73,5.85,5.73,8.81,8.56c2.19,2.1,4.47,4.12,6.69,6.19c3,2.8,6.03,5.58,8.98,8.43c1.48,1.44,2.92,2.91,4.24,4.53
			c1.63,2.01,3.67,3.67,5.51,5.51c2.48,2.48,4.93,4.99,7.41,7.48c0.79,0.79,1.65,1.52,2.43,2.32c2.45,2.51,4.76,5.17,7.35,7.52
			c2.6,2.36,4.82,5.07,7.27,7.57c1.69,1.73,3.43,3.45,4.81,5.52c1.17,1.76,2.75,3.25,4.17,4.83c1.77,1.98,3.56,3.93,5.34,5.9
			c0.5,0.55,0.99,1.11,1.51,1.65c1.99,2.06,3.98,4.12,5.99,6.17c3.9,3.99,7.98,7.8,11.61,12.05c1.65,1.94,3.55,3.68,5.17,5.65
			c2.04,2.48,4.37,4.64,6.72,6.8c2.24,2.05,4.3,4.27,5.7,7.02c0.36,0.7,0.84,1.35,1.32,1.98c2.56,3.37,5.06,6.79,7.73,10.08
			c1.6,1.97,3.21,3.93,5,5.75c2.01,2.04,3.77,4.35,5.58,6.59c0.86,1.07,1.58,2.26,2.37,3.4
			C526.96,774.93,526.43,774.93,525.89,774.93z M576.55,718.5c0.07-0.22,0.14-0.37,0.15-0.52c0.1-2.5,0.16-5,0.28-7.5
			c0.14-3.03,0.34-6.05,0.5-9.08c0.02-0.32-0.05-0.64-0.06-0.96c-0.05-3.08-0.22-6.17-0.11-9.24c0.07-2,0.55-3.99,0.82-5.99
			c0.37-2.8,0.76-5.59,1.06-8.4c0.3-2.81,0.41-5.63,0.78-8.43c0.41-3.07,0.2-6.13,0.11-9.2c-0.07-2.54-0.18-5.09-0.06-7.63
			c0.15-3.03,0.55-6.04,0.79-9.06c0.15-1.86,0.2-3.73,0.35-5.59c0.18-2.34,0.43-4.67,0.62-7.01c0.23-2.87,0.42-5.74,0.66-8.61
			c0.16-1.91,0.47-3.81,0.55-5.72c0.2-4.73,0.89-9.43,0.7-14.17c-0.03-0.79,0.2-1.59,0.18-2.38c-0.06-2.29-0.28-4.58-0.25-6.87
			c0.04-2.71,0.01-5.41-0.36-8.1c-0.17-1.21-0.38-2.42-0.53-3.64c-0.26-2.17-0.48-4.34-0.73-6.51c-0.1-0.85-0.27-1.69-0.38-2.53
			c-0.32-2.48-0.49-4.99-0.97-7.44c-0.44-2.26-0.78-4.51-0.94-6.8c-0.33-4.9-0.79-9.78-1.13-14.68c-0.12-1.75,0.01-3.52-0.1-5.27
			c-0.23-3.6-0.29-7.19-0.06-10.81c0.17-2.64-0.05-5.32-0.15-7.98c-0.07-1.81-0.29-3.62-0.36-5.43c-0.07-1.7,0.02-3.41-0.04-5.11
			c-0.16-4.42-0.4-8.84-0.53-13.27c-0.18-6.18-0.24-12.36-0.46-18.54c-0.12-3.35,0.49-6.69,0.01-10.04
			c-0.07-0.47,0.04-0.96,0.08-1.44c0.18-2.5,0.41-4.99,0.52-7.49c0.16-3.51,0.24-7.03,0.32-10.55c0.03-1.33-0.08-2.67-0.05-4
			c0.11-6.35,0.24-12.7,0.38-19.05c0.1-4.63,0.24-9.26,0.36-13.89c0.07-2.77,0.15-5.54,0.17-8.31c0.01-1.17-0.12-2.33-0.18-3.5
			c-0.1-1.97-0.09-3.95-0.32-5.9c-0.44-3.91-0.89-7.81-1.01-11.77c-0.15-5.13-0.22-10.23,0.12-15.35c0.12-1.8,0.33-3.6,0.42-5.4
			c0.12-2.38-0.07-4.8,0.31-7.14c0.52-3.22,0.53-6.47,0.83-9.7c0.05-0.58,0.03-1.17,0.08-1.76c0.29-3.29,0.73-6.58,0.84-9.88
			c0.08-2.32-0.35-4.66-0.44-6.99c-0.12-3.25-0.16-6.51-0.2-9.77c-0.02-1.22,0.15-2.45,0.03-3.65c-0.17-1.75-0.18-3.6-2.09-4.66
			c-1.11-0.61-2.11-1.42-3.12-2.2c-2.19-1.69-4.33-3.44-6.52-5.12c-0.71-0.55-1.55-0.93-2.27-1.47c-2.97-2.23-5.9-4.52-8.89-6.74
			c-1.63-1.21-3.46-2.15-4.98-3.48c-3.35-2.92-7.21-5.1-10.77-7.71c-1.93-1.42-3.95-2.7-5.91-4.07c-1.61-1.13-3.18-2.32-4.78-3.46
			c-1.26-0.89-2.56-1.71-3.8-2.61c-1.47-1.06-2.9-2.17-4.35-3.26c-2.16-1.62-4.33-3.23-6.49-4.86c-1.19-0.9-2.26-1.97-3.54-2.71
			c-1.78-1.03-3.6-1.94-5.28-3.19c-2.46-1.83-5.25-3.22-7.9-4.8c-2.81-1.67-5.61-3.36-8.43-5.02c-2.09-1.24-4.19-2.47-6.3-3.68
			c-1.89-1.08-3.82-2.11-5.7-3.2c-0.63-0.37-1.17-0.9-1.79-1.3c-3.14-2.03-6.3-4.03-9.43-6.08c-1.73-1.14-3.41-2.35-5.13-3.52
			c-1.75-1.19-3.54-2.34-5.27-3.57c-0.55-0.39-0.92-1.05-1.47-1.46c-2.14-1.57-4.35-3.04-6.48-4.63c-0.85-0.63-1.52-1.5-2.35-2.15
			c-1.33-1.05-2.7-2.05-4.11-2.99c-1.4-0.94-2.88-1.75-4.28-2.69c-2.16-1.46-4.3-2.95-6.42-4.47c-1.73-1.24-3.34-2.65-5.12-3.82
			c-3.37-2.21-6.92-4.12-10.24-6.42c-1.39-0.96-3.16-1.43-4.44-2.5c-1.76-1.47-3.85-2.25-5.82-3.2c-3.07-1.48-5.86-3.42-8.82-5.06
			c-2.32-1.28-4.51-2.8-6.76-4.2c-1.8-1.13-3.67-2.15-5.39-3.39c-4.32-3.11-8.52-6.38-12.62-9.79c-3.17-2.64-6.37-5.26-9.84-7.52
			c-1.6-1.04-3.19-2.11-4.84-3.08c-2.33-1.38-4.64-2.83-7.08-3.98c-1.79-0.84-3.53-1.72-5.17-2.81c-1.89-1.26-3.86-2.41-5.8-3.6
			c-0.45-0.28-0.97-0.46-1.4-0.77c-3.3-2.41-6.35-5.1-9.15-8.08c-1.63-1.74-3.25-3.49-4.86-5.25c-1.14-1.25-2.26-2.51-3.41-3.76
			c-1.05-1.13-2.11-2.26-3.19-3.36c-0.7-0.72-1.57-1.3-2.17-2.08c-0.96-1.25-2.15-2.17-3.44-3c-1.73-1.11-3.55-2.1-5.21-3.31
			c-1.93-1.41-3.9-2.83-5.51-4.56c-1.43-1.53-3.09-2.73-4.67-4.04c-1.39-1.14-2.9-2.13-4.31-3.25c-1.55-1.22-3.03-2.51-4.57-3.73
			c-1.5-1.19-3.04-2.33-4.58-3.47c-1.45-1.07-2.94-2.09-4.39-3.16c-1.23-0.9-2.61-1.69-3.61-2.81c-0.93-1.04-1.9-1.58-3.25-1.61
			c-1.04,1.19-2.48,0.96-3.82,1.01c-1.28,0.05-2.57-0.11-3.82,0.06c-2.51,0.35-4.98,0.9-7.54,0.94c-2.53,0.04-5.06,0.43-7.59,0.68
			c-1.17,0.11-2.33,0.29-3.5,0.38c-2.38,0.19-4.76,0.33-7.14,0.52c-2.49,0.2-4.98,0.52-7.47,0.62c-6.79,0.29-13.6-0.25-20.4,0.56
			c-3.69,0.44-7.43,0.48-11.16,0.64c-4.24,0.18-8.44,0.91-12.7,0.72c-0.87-0.04-1.74-0.01-2.54-0.01c0,2.55,0.13,4.9-0.03,7.23
			c-0.31,4.57,0.44,9.04,1.05,13.53c0.42,3.06,0.93,6.11,0.83,9.23c-0.08,2.22,0,4.48,0.34,6.67c0.61,3.92,0.75,7.85,0.89,11.79
			c0.03,0.8,0.09,1.6,0.15,2.4c0.27,3.67,0.6,7.34,0.8,11.02c0.15,2.72,0.03,5.45,0.2,8.17c0.25,4.05,0.68,8.09,0.96,12.14
			c0.16,2.29,0.19,4.59,0.27,6.89c0.16,4.48,0.34,8.96,0.48,13.44c0.03,1.01-0.06,2.03-0.06,3.04c-0.02,5.49,0.02,10.97-0.05,16.46
			c-0.04,3.2-0.31,6.4-0.38,9.61c-0.15,6.23-0.21,12.47-0.34,18.7c-0.11,5.07-0.19,10.15-0.44,15.22
			c-0.29,5.81-0.77,11.6-1.14,17.41c-0.16,2.51-0.26,5.02-0.35,7.52c-0.03,0.8,0.07,1.6,0.05,2.4c-0.1,3.63-0.26,7.25-0.33,10.88
			c-0.06,3.2,0.01,6.39-0.03,9.59c-0.06,4.97-0.16,9.94-0.24,14.91c-0.06,3.42-0.11,6.84-0.18,10.26c-0.1,4.96-0.24,9.93-0.33,14.89
			c-0.09,4.96-0.16,9.92-0.18,14.88c-0.01,3.9,0.1,7.8,0.13,11.7c0.03,3.84,0,7.67,0.05,11.51c0.02,1.65,0.2,3.3,0.24,4.96
			c0.1,4.1,0.13,8.2,0.25,12.3c0.11,4,0.39,7.99,0.41,11.99c0.02,5.07-0.13,10.14-0.24,15.21c-0.08,3.52-0.24,7.04-0.32,10.56
			c-0.03,1.52,0.05,3.05,0.08,4.59c1.88,0.15,3.49,0.03,5.11-0.32c2.65-0.58,5.29-1.26,8.04-1.19c1.01,0.02,2.03,0.15,3.03,0.04
			c3.81-0.44,7.51,0.23,11.24,0.82c1.2,0.19,2.44,0.24,3.66,0.22c4.37-0.06,8.75-0.13,13.12-0.3c5.44-0.21,10.88-0.31,16.27-1.18
			c1.52-0.24,3.07-0.31,4.61-0.43c3.87-0.32,7.77-0.46,11.61-1.03c1.5-0.22,2.44,0.18,3.4,1.04c0.59,0.53,1.1,1.14,1.63,1.73
			c0.39,0.43,0.71,0.94,1.17,1.29c1.6,1.22,3.23,2.39,4.86,3.57c0.38,0.28,0.8,0.52,1.17,0.81c2.32,1.78,4.67,3.52,6.94,5.38
			c1.61,1.32,3.11,2.77,4.63,4.19c1.79,1.66,3.5,3.41,5.33,5.02c1.88,1.65,3.88,3.16,5.78,4.78c2.23,1.9,4.37,3.9,6.62,5.78
			c1.1,0.92,2.47,1.52,3.51,2.49c2.88,2.7,5.67,5.5,8.45,8.3c3.3,3.33,6.54,6.72,9.84,10.05c3.34,3.37,6.76,6.67,10.07,10.07
			c2.64,2.71,5.16,5.53,7.77,8.27c3.98,4.17,7.98,8.33,12.01,12.45c1.71,1.75,3.44,3.51,5.3,5.1c2.46,2.12,5.1,4.04,7.58,6.13
			c4.61,3.88,9.57,7.32,13.98,11.45c0.08,0.07,0.19,0.11,0.27,0.17c1.63,1.3,3.26,2.59,4.88,3.89c2.28,1.84,4.58,3.66,6.82,5.55
			c3.58,3.03,7.09,6.13,10.65,9.18c4.94,4.24,9.91,8.45,14.85,12.69c2.79,2.39,5.52,4.85,8.32,7.23c4.26,3.63,8.59,7.19,12.82,10.86
			c1.89,1.64,3.55,3.54,5.42,5.21c2.5,2.23,5.11,4.34,7.67,6.52c1.5,1.28,2.98,2.57,4.46,3.86c0.64,0.56,1.33,1.08,1.91,1.7
			c5.27,5.69,11.15,10.72,17.03,15.74c4.59,3.92,9.18,7.81,13.28,12.25c1.05,1.13,2.17,2.2,3.29,3.26c1.85,1.76,3.83,3.39,5.58,5.25
			c2.58,2.75,4.99,5.65,7.49,8.47c1.1,1.23,2.26,2.41,3.38,3.62c0.65,0.7,1.42,1.33,1.91,2.14c2.5,4.1,5.95,7.17,10.08,9.53
			c0.23,0.13,0.43,0.31,0.63,0.48c1.29,1.1,2.56,2.23,3.89,3.3c1.16,0.93,2.37,1.79,3.58,2.65c3.09,2.19,6.12,4.46,9.3,6.51
			c2.45,1.58,5.14,2.77,7.3,4.79c0.86,0.8,1.68,1.65,2.61,2.36c2.36,1.82,4.83,3.5,7.13,5.38c1.49,1.22,3.04,2.32,4.68,3.33
			c1.31,0.81,2.59,1.69,3.79,2.65c1.69,1.35,3.28,2.85,4.96,4.22C572.89,715.74,574.68,717.06,576.55,718.5z M589.42,301.18
			c-0.42-0.29-0.74-0.54-1.1-0.73c-0.61-0.33-1.27-0.56-1.86-0.92c-3.15-1.88-6.27-3.8-9.42-5.69c-0.95-0.57-2.01-0.99-2.9-1.64
			c-1.65-1.22-3.25-2.51-4.8-3.86c-1-0.86-1.81-1.94-2.8-2.81c-2.23-1.97-4.47-3.93-6.8-5.77c-2.24-1.77-4.6-3.39-6.91-5.07
			c-2.46-1.79-4.91-3.57-7.38-5.34c-5-3.59-10-7.19-15.02-10.75c-3.3-2.34-6.66-4.6-9.97-6.93c-1.52-1.07-2.99-2.22-4.5-3.31
			c-2.92-2.12-5.85-4.24-8.79-6.32c-3.17-2.24-6.32-4.49-9.56-6.62c-2.92-1.91-5.94-3.69-8.95-5.47c-2.56-1.52-5.19-2.93-7.75-4.45
			c-3.29-1.95-6.57-3.93-9.81-5.96c-4.14-2.6-8.23-5.28-12.34-7.93c-2.28-1.47-4.55-2.97-6.84-4.43c-2.24-1.43-4.48-2.86-6.75-4.25
			c-2.18-1.34-4.38-2.65-6.59-3.93c-2.62-1.52-5.28-2.98-7.88-4.53c-2.14-1.28-4.22-2.66-6.33-3.99c-1.79-1.13-3.62-2.2-5.37-3.37
			c-3.62-2.42-7.28-4.81-10.79-7.38c-2.76-2.02-5.78-3.54-8.73-5.2c-2.87-1.61-5.73-3.24-8.58-4.89c-1.47-0.85-2.83-1.94-4.38-2.61
			c-3.3-1.43-6.24-3.41-9.11-5.53c-2.18-1.61-4.32-3.27-6.5-4.89c-2.45-1.82-4.99-3.52-7.35-5.45c-3.56-2.91-7.5-5.2-11.37-7.64
			c-1.61-1.01-3.12-2.19-4.63-3.36c-1.25-0.97-2.37-2.12-3.65-3.05c-2.92-2.13-5.9-4.16-8.85-6.25c-1.51-1.07-2.95-2.26-4.5-3.27
			c-2.85-1.86-5.83-3.53-8.64-5.44c-3.19-2.16-6.27-4.49-9.41-6.74c-0.81-0.58-1.7-1.08-2.48-1.69c-2.09-1.63-4.11-3.36-6.21-4.96
			c-1.54-1.17-3.21-2.18-4.78-3.32c-2.41-1.74-4.76-3.57-7.18-5.3c-1.38-0.99-2.91-1.78-3.93-3.21c-1.53-2.15-3.64-3.69-5.65-5.33
			c-1.93-1.57-3.82-3.18-5.8-4.83c-0.4,0.28-0.93,0.62-1.43,1c-0.47,0.35-0.93,0.73-1.47,1.16c0.59,0.35,0.98,0.53,1.32,0.79
			c2.59,1.94,5.12,3.96,7.77,5.81c2.52,1.75,5.13,3.4,7.21,5.66c2.11,2.3,5.06,3.37,7.29,5.49c2.3,2.19,4.75,4.24,7.22,6.26
			c1.3,1.07,2.45,2.32,4.03,3.07c2.74,1.31,5.19,3.12,7.33,5.25c3.13,3.1,6.1,6.37,9.12,9.58c2.26,2.4,4.51,4.8,6.72,7.23
			c2.13,2.34,4.54,4.42,7.22,5.97c2.77,1.6,5.19,3.7,8.06,5.11c1.53,0.76,3.01,1.61,4.52,2.38c1.18,0.6,2.44,1.06,3.56,1.76
			c3.23,2.04,6.42,4.14,9.57,6.29c1.93,1.32,3.81,2.72,5.64,4.18c3.01,2.39,5.89,4.94,8.95,7.25c3.14,2.36,6.39,4.6,9.68,6.74
			c3.47,2.26,7.04,4.37,10.59,6.5c2.55,1.54,5.1,3.09,7.73,4.49c1.97,1.05,4.01,1.93,5.9,3.17c3.28,2.15,6.67,4.13,10.03,6.16
			c2.23,1.35,4.36,2.82,6.45,4.39c3.4,2.56,7.06,4.78,10.52,7.26c4.1,2.94,8.11,6,12.15,9.02c2.59,1.95,5.09,4.03,7.76,5.87
			c3.4,2.36,7.01,4.42,10.39,6.82c4.73,3.36,9.61,6.45,14.74,9.16c2.45,1.29,4.81,2.75,7.2,4.17c2.14,1.27,4.24,2.59,6.36,3.89
			c2.23,1.35,4.48,2.66,6.68,4.06c1.6,1.03,3.01,2.45,4.72,3.2c1.83,0.8,3.42,1.82,4.96,3.02c3.35,2.61,6.75,5.18,10.13,7.76
			c0.47,0.36,0.94,0.71,1.42,1.04c3.01,2.09,6.02,4.18,9.02,6.27c2.83,1.97,5.65,3.96,8.48,5.93c1.87,1.31,3.77,2.58,5.63,3.91
			c2.29,1.64,4.56,3.32,6.83,4.99c1.63,1.2,3.26,2.4,4.88,3.61c2.34,1.74,4.68,3.47,7.03,5.21c2.05,1.52,4.2,2.93,6.11,4.6
			c1.97,1.72,4.09,3.16,6.21,4.52C583.96,305.48,586.75,303.69,589.42,301.18z M276.14,85.47c-0.05-0.15-0.09-0.31-0.13-0.46
			c-0.81,0-1.64-0.1-2.44,0.02c-1.83,0.27-3.64,0.65-5.46,0.98c-0.26,0.05-0.53,0.05-0.8,0.08c-1.91,0.19-3.81,0.37-5.72,0.56
			c-1.17,0.11-2.33,0.28-3.51,0.32c-3.25,0.11-6.5,0.08-9.74,0.27c-4.04,0.23-8.09,0.34-12.09,1.11c-1.88,0.36-3.79,0.58-5.68,0.88
			c-3.15,0.51-6.29,1.24-9.46,1.51c-3.66,0.32-7.35,0.29-11.03,0.31c-1.37,0.01-2.74-0.4-4.11-0.41c-3.23-0.01-6.45,0.09-9.68,0.17
			c-1.03,0.02-2.04,0-2.89-0.66c-2.62,1.44-5.49,2.38-7.85,4.34c1.99-0.12,3.93,0.17,5.9-0.02c3.76-0.36,7.54-0.54,11.31-0.79
			c1.28-0.09,2.55-0.2,3.82-0.28c1.8-0.11,3.63-0.02,5.38-0.34c2.97-0.54,5.96-0.2,8.93-0.4c2.22-0.15,4.46-0.05,6.69-0.01
			c4.3,0.06,8.56-0.79,12.87-0.6c0.21,0.01,0.43-0.03,0.64-0.06c1.81-0.24,3.62-0.6,5.44-0.71c4.2-0.25,8.34-1.16,12.56-1.04
			c0.11,0,0.21-0.01,0.32-0.02c2.96-0.34,5.92-0.68,8.88-1.03c0.82-0.1,1.64-0.23,2.22-0.31c0.19-0.75,0.32-1.25,0.46-1.79
			c0.76,0.28,1.33,0.5,1.92,0.72C273.99,87.02,275.06,86.24,276.14,85.47z"/>
		<path d="M274-0.01c0.2,1.15,0.53,2.3,0.57,3.45c0.2,6.23,0.36,12.47,0.46,18.7c0.03,1.69-0.26,3.38-0.31,5.07
			c-0.1,3.61-0.16,7.23-0.21,10.84c-0.02,1.17,0.1,2.34,0.08,3.51c-0.05,2.11-0.17,4.21-0.23,6.32c-0.07,2.64-0.13,5.27-0.15,7.91
			c-0.03,3.29-0.03,6.58-0.02,9.88c0.01,2.39,0.06,4.79,0.1,7.18c0.02,1.06,0.1,2.13,0.07,3.19c-0.05,1.8-0.18,3.6-0.26,5.4
			c-0.01,0.15,0.08,0.4,0.01,0.45c-0.28,0.21-0.59,0.43-0.91,0.48c-0.1,0.02-0.43-0.46-0.42-0.71c0.03-2.42,0.18-4.85,0.17-7.27
			c-0.01-2.93-0.2-5.86-0.22-8.79c-0.04-5.44-0.03-10.87,0.01-16.31c0.01-1.06,0.29-2.12,0.32-3.18c0.06-2.18,0-4.35,0.04-6.53
			c0.05-2.72,0.35-5.44,0.19-8.15c-0.21-3.45,0.31-6.85,0.37-10.27c0.07-3.55,0.36-7.11-0.19-10.67c-0.27-1.73-0.2-3.51-0.32-5.27
			c-0.12-1.75-0.28-3.5-0.42-5.25C273.15-0.01,273.58-0.01,274-0.01z"/>
		<path d="M133.5,523.54c-0.02-0.39-0.04-0.68-0.07-1.14c1.5-0.22,2.96-0.48,4.43-0.63c2.01-0.2,4.03-0.34,6.05-0.44
			c4.65-0.24,9.19-1.23,13.76-2.02c1.1-0.19,2.21-0.41,3.32-0.5c4.57-0.37,9.14-0.71,13.71-1.03c3.24-0.23,6.49-0.39,9.73-0.65
			c3.72-0.29,7.43-0.62,11.14-1c5.78-0.59,11.56-1.26,17.35-1.85c4.78-0.48,9.56-0.85,14.34-1.32c3.66-0.36,7.3-0.88,10.95-1.21
			c3.82-0.34,7.66-0.5,11.49-0.78c2.76-0.2,5.52-0.48,8.28-0.72c2.59-0.23,5.19-0.47,7.78-0.66c0.37-0.03,0.76,0.21,1.14,0.32
			c0.01,0.12,0.01,0.23,0.02,0.35c-0.51,0.16-1.02,0.42-1.55,0.48c-2.49,0.25-5,0.43-7.49,0.66c-1.81,0.17-3.61,0.38-5.42,0.55
			c-0.64,0.06-1.28,0.14-1.92,0.11c-3.27-0.18-6.48,0.39-9.72,0.67c-3.88,0.33-7.7,1.07-11.61,1.26c-4.95,0.25-9.89,0.91-14.83,1.4
			c-4.83,0.48-9.66,0.96-14.49,1.48c-2.65,0.28-5.28,0.73-7.94,0.95c-3.35,0.28-6.72,0.37-10.07,0.61
			c-5.27,0.37-10.53,0.85-15.8,1.17c-3.04,0.18-6.06,0.42-9.03,1.11c-5.95,1.38-12.02,1.76-18.09,2.21
			c-1.49,0.11-2.96,0.37-4.45,0.56C134.22,523.52,133.91,523.52,133.5,523.54z"/>
		<path d="M595.36,310.35c0.11,0.49,0.22,0.99,0.33,1.48c-0.13,0.04-0.27,0.07-0.4,0.11c-0.15-0.51-0.3-1.02-0.44-1.53
			C595.01,310.38,595.18,310.36,595.36,310.35z"/>
		<path d="M510.34,386.36c-0.79-0.66-1.43-1.1-1.95-1.64c-1.9-1.99-3.12-4.43-4.41-6.81c-1.01-1.86-2.09-3.68-3.09-5.53
			c-2.23-4.1-4.54-8.21-5.22-12.99c-0.3-2.13-1.05-4.2-1.87-6.31c-0.11,0.7-0.32,1.4-0.32,2.1c-0.01,2.62-0.35,5.2-1,7.73
			c-0.55,2.16-1.23,4.29-1.85,6.43c-0.04,0.15-0.1,0.31-0.11,0.47c-0.34,3.62-2.05,6.82-3.26,10.16c-0.89,2.44-2.17,4.74-3.3,7.09
			c-0.8,1.68-1.54,3.4-2.46,5.02c-1.15,2.03-2.44,3.98-3.67,5.97c-0.58,0.94-1.12,1.92-1.74,2.84c-1.42,2.1-2.87,4.17-4.33,6.24
			c-0.54,0.77-1.14,1.5-1.72,2.27c-0.81-1.27-0.83-1.32-0.05-2.36c1.56-2.08,3.23-4.09,4.67-6.25c1.52-2.29,2.89-4.7,4.22-7.11
			c2.08-3.77,4.15-7.55,6.05-11.42c1.03-2.09,1.68-4.36,2.49-6.56c0.34-0.9,0.66-1.8,0.99-2.7c0.15-0.4,0.31-0.8,0.42-1.21
			c0.66-2.68,1.21-5.4,1.98-8.05c0.82-2.83,1.29-5.68,1.37-8.62c0.02-0.84,0.17-1.68,0.29-2.51c0.58-4.05,0.2-8.21,1.35-12.21
			c0.25-0.86,0.22-1.8,0.3-2.7c0.19-2.23,0.46-4.45,0.52-6.69c0.03-1.37-0.3-2.75-0.4-4.13c-0.04-0.59-0.4-1.4,0.48-1.65
			c1.02-0.29,0.75,0.79,1.11,1.22c0.3,0.36,0.42,0.68,0.01,1.1c-0.17,0.17-0.11,0.59-0.12,0.89c-0.04,1.65-0.02,3.3-0.12,4.95
			c-0.15,2.61-0.44,5.21-0.56,7.83c-0.11,2.43-0.15,4.88-0.09,7.31c0.07,2.65,0.57,5.22,1.46,7.74c0.51,1.45,0.76,2.99,1.14,4.48
			c0.74,2.9,1.78,5.67,3.3,8.26c0.86,1.46,1.75,2.9,2.55,4.39c0.83,1.54,1.5,3.16,2.35,4.68c1.14,2.04,2.44,3.97,4.34,5.63
			c0.02,0.31,0.05,0.78,0.08,1.35c0.98,0.13,1.39,0.77,1.64,1.68c0.69,2.52,2.44,4.44,3.86,6.54c1.64,2.42,3.45,4.73,5.06,7.18
			c1.55,2.35,2.81,4.87,3.89,7.48c1.11,2.69,2.24,5.37,4.12,7.67c1.14,1.39,1.99,3.01,2.92,4.56c0.24,0.4,0.3,0.91,0.39,1.38
			c0.41,2.01,1.32,3.81,2.35,5.56c0.47,0.79,0.71,1.61,0.72,2.57c0.02,1.86,0.35,3.71,0.3,5.56c-0.09,3.47-0.3,6.93-0.58,10.39
			c-0.21,2.65-0.61,5.29-0.92,7.93c-0.05,0.47-0.07,0.95-0.11,1.52c2.91,0.93,5.64,1.18,8.01-1.2c1.69-1.7,3.77-1.7,5.97-1.44
			c3.55,0.43,6.79,2.05,10.32,2.54c2.05,0.28,4.07,0.83,6.13,1.08c1.25,0.15,2.19-0.62,2.97-1.91c-0.69-0.1-1.25-0.27-1.79-0.24
			c-1.3,0.08-2.35-0.49-3.42-1.09c-1.57-0.89-3.27-1.57-4.71-2.63c-2.77-2.05-5.52-4.18-7.08-7.4c-0.34-0.7-0.53-1.51-0.63-2.29
			c-0.43-3.5-1.59-6.8-2.59-10.15c-0.32-1.06-0.58-2.14-0.84-3.22c-1.68-7.04-3.38-14.08-5.03-21.12c-0.71-3-1.31-6.03-2.01-9.04
			c-1.43-6.13-2.83-12.26-4.36-18.36c-0.51-2.05-1.32-4.02-2.05-6.01c-0.81-2.19-1.55-4.39-2.08-6.68
			c-0.54-2.37-1.58-4.63-2.18-6.99c-1.08-4.23-2.97-8.21-3.77-12.53c-0.23-1.23-0.91-2.38-1.33-3.58c-0.35-0.99-0.61-2.02-0.91-3.03
			c-0.3-1.01-0.6-2.03-0.91-3.04c-0.56-1.83-1.09-3.66-1.69-5.47c-0.69-2.07-1.39-4.13-2.19-6.16c-1.09-2.79-2.32-5.53-3.39-8.33
			c-0.83-2.18-1.4-4.48-2.29-6.63c-1.03-2.49-2.23-4.91-3.46-7.31c-0.4-0.79-1.05-1.48-1.7-2.1c-2.1-2.01-4.49-3.61-7.28-4.47
			c-1-0.31-2.12-0.42-3.16-0.34c-1.77,0.15-3.52,0.33-5.15,1.35c-2.2,1.37-4.64,2.35-6.9,3.64c-1.42,0.81-2.74,1.83-4.04,2.84
			c-4.42,3.42-8.82,6.86-13.2,10.34c-1.1,0.87-1.98,1.97-2.66,3.22c-0.4,0.74-0.73,0.67-1.4-0.33c-2.9,1.98-5.7,4.08-8.17,6.58
			c-2.09,2.11-3.95,4.46-6.18,6.4c-2.07,1.79-2.65,3.96-3.08,6.5c-0.49,2.86-1.48,5.65-2.41,8.43c-0.85,2.56-1.26,5.17-1.31,7.84
			c-0.07,4.02,0.68,7.95,1.44,11.88c0.62,3.19,1.11,6.41,1.68,9.61c0.49,2.78,1.05,5.55,1.5,8.34c0.12,0.76-0.04,1.57-0.07,2.36
			c-0.02,0.57-0.14,1.15-0.07,1.7c0.39,3.16,0.81,6.31,1.25,9.47c0.3,2.15,0.41,4.36,1.65,6.31c0.55-0.16,1.05-0.3,1.58-0.45
			c1.12,2.27,2.74,3.94,5.15,4.52c0.5-0.04,1.04-0.22,1.5-0.09c3.06,0.89,6.1,1.8,9.13,2.78c2.03,0.66,3.9,1.55,5.39,3.21
			c1.64,1.82,3.45,3.48,4.46,5.78c0.23,0.53,0.47,1.08,0.62,1.64c0.46,1.77,1.24,3.35,2.24,4.89c0.79,1.23,1.26,2.7,1.66,4.13
			c1.54,5.43,1.95,11.01,1.99,16.62c0.01,1.64-0.33,3.28-0.51,4.92c-0.14,1.32-0.32,2.63-0.38,3.95c-0.02,0.42,0.25,0.87,0.45,1.29
			c0.13,0.28,0.36,0.52,0.56,0.76c2.35,2.74,4.72,5.46,7.05,8.22c0.58,0.69,1.06,1.47,1.53,2.24c1.99,3.21,3.95,6.44,5.93,9.65
			c0.25,0.4,0.56,0.77,0.88,1.2c-0.14,0.43-0.31,0.92-0.5,1.47c-0.75,0-1.33-0.39-1.44-1.02c-0.27-1.66-1.34-2.86-2.17-4.2
			c-1.4-2.26-2.87-4.47-4.35-6.68c-0.56-0.83-1.2-1.61-1.84-2.39c-1.93-2.34-3.79-4.75-5.85-6.97c-1.45-1.57-1.86-3.31-1.62-5.3
			c0.15-1.22,0.3-2.44,0.6-3.62c0.53-2.12,0.21-4.25,0.22-6.38c0-0.53-0.04-1.06-0.01-1.58c0.17-3.19-0.74-6.22-1.31-9.3
			c-0.23-1.25-0.46-2.53-0.9-3.72c-0.42-1.13-1.15-2.15-1.69-3.24c-0.51-1.05-1.09-2.1-1.37-3.21c-0.79-3.12-2.62-5.48-4.83-7.73
			c-1.93-1.97-4.23-2.95-6.78-3.66c-2.09-0.58-4.13-1.32-6.54-2.1c1.3,2,2.38,3.66,3.46,5.32c2.56,3.96,5.2,7.87,7.63,11.9
			c1.2,2,1.89,4.27,2.19,6.63c0.12,0.95,0.3,1.9,0.49,2.84c0.27,1.31-0.05,2.41-1.15,3.49c-1.58-1.43-3.13-2.83-4.76-4.29
			c-0.24,1.4-0.04,2.84,0.03,4.29c0.1,2.02,0.18,4.05,0.08,6.07c-0.04,0.78-0.33,1.66-1.06,2.23c-0.91-0.15-1.23-0.87-1.55-1.53
			c-1.77-3.65-3.17-7.44-4.32-11.34c-0.61-2.08-1.51-4.08-2.2-6.14c-0.5-1.51-0.9-3.05-1.76-4.42c-0.42-0.67-0.8-1.37-1.45-1.96
			c0.12,0.35,0.21,0.72,0.37,1.06c0.97,2.03,1.63,4.13,1.79,6.39c0.04,0.52,0.22,1.05,0.41,1.54c1.37,3.51,1.96,7.19,2.35,10.91
			c0.15,1.43-0.4,2.71-0.85,4.01c-0.19,0.55-0.67,0.6-1.2,0.51c-1.25-0.22-2.29-1.21-2.52-2.78c-0.28-1.98-1.02-3.78-1.69-5.63
			c-0.53-1.49-0.72-3.11-1.21-4.62c-0.86-2.62-1.78-5.23-2.8-7.79c-0.53-1.33-1.32-2.55-1.98-3.82c-0.1-0.19-0.15-0.4-0.39-0.49
			c-0.39,0.95-0.12,1.72,0.13,2.47c0.99,3.04,1.99,6.07,3.01,9.1c1.57,4.67,2.15,9.53,2.78,14.38c0.25,1.92,0.27,3.86-0.32,5.72
			c-0.24,0.77-0.72,1.59-1.34,2.1c-1.19,0.97-2.6,0.27-2.77-1.26c-0.1-0.95-0.22-1.91-0.2-2.86c0.04-1.89-0.32-3.72-0.84-5.52
			c-0.93-3.22-1.81-6.46-2.85-9.65c-0.62-1.92-1.5-3.75-2.25-5.63c-0.63-1.58-1.25-3.17-1.84-4.76c-0.72-1.95-2.16-3.39-3.43-4.95
			c-0.38-0.46-1.04-0.68-1.69-1.09c-0.49,0.5-1,0.9-1.34,1.41c-1.14,1.73-2.28,3.46-3.3,5.26c-1.25,2.19-1.82,4.63-2.39,7.06
			c-0.75,3.16-1.49,6.33-2.28,9.48c-0.2,0.81-0.54,1.6-1.46,2c-0.6-0.67-0.75-1.33-0.58-2.12c0.18-0.85,0.17-1.69-0.27-2.49
			c-0.12-0.23-0.16-0.51-0.2-0.77c-0.43-2.8-0.66-5.61-0.46-8.44c0.14-2.02,0.42-4.04,0.45-6.06c0.02-1.42,0.42-2.57,1.62-3.76
			c0.06,0.54,0.19,0.92,0.12,1.26c-0.68,3.57-1.13,7.17-1.03,10.8c0.05,1.86,0.3,3.71,0.51,5.57c0.06,0.49,0.29,0.96,0.72,1.44
			c0.33-1.54,0.63-3.09,1.01-4.62c0.67-2.69,1.38-5.37,2.13-8.04c0.2-0.71,0.56-1.39,0.95-2.01c1.35-2.17,2.73-4.33,4.12-6.47
			c0.84-1.3,1.49-1.46,2.78-0.64c3.07,1.95,4.85,4.85,6.04,8.2c0.71,1.99,1.28,4.05,2.19,5.94c1.1,2.28,1.88,4.63,2.54,7.05
			c0.45,1.64,1.04,3.25,1.38,4.91c0.42,2.08,0.68,4.2,0.95,6.31c0.13,0.98-0.11,2.03,0.59,2.94c0.84-0.15,1.26-0.65,1.28-1.41
			c0.04-1.69,0.23-3.42-0.01-5.08c-0.5-3.48-1.06-6.97-1.91-10.37c-0.89-3.56-2.07-7.06-3.29-10.52c-0.68-1.93-1.3-3.83-1.17-5.9
			c0.02-0.32-0.04-0.69,0.09-0.94c0.21-0.39,0.51-0.83,0.88-1.01c0.54-0.26,0.86,0.23,1.13,0.63c2.51,3.68,4.54,7.59,5.64,11.93
			c0.8,3.15,1.64,6.29,2.88,9.3c0.3,0.73,0.38,1.55,0.61,2.31c0.26,0.84,0.34,1.8,1.44,2.22c0.76-1.07,0.58-2.29,0.48-3.38
			c-0.22-2.67-0.89-5.26-1.72-7.82c-0.41-1.27-0.75-2.57-0.98-3.88c-0.42-2.33-1.22-4.52-2.19-6.67c-0.44-0.97-0.8-1.97-1.22-2.94
			c-0.24-0.56-0.26-1.08,0.3-1.4c0.55-0.32,1.18-0.64,1.75-0.03c0.54,0.58,1.13,1.16,1.54,1.83c1.37,2.28,2.66,4.59,3.43,7.18
			c0.71,2.39,1.83,4.66,2.58,7.05c0.99,3.15,2.09,6.26,3.48,9.26c0.08,0.18,0.23,0.33,0.55,0.8c0.05-0.84,0.13-1.38,0.11-1.91
			c-0.07-2.13-0.05-4.28-0.3-6.39c-0.17-1.46-0.66-2.9-1.15-4.3c-0.99-2.82-2.24-5.52-4.05-7.93c-0.25-0.34-0.45-0.72-0.63-1.1
			c-0.8-1.63-1.56-3.27-2.38-4.88c-0.29-0.57-0.29-1.01,0.27-1.38c0.53-0.35,0.91-0.11,1.21,0.34c0.65,0.97,1.23,1.99,1.95,2.91
			c1.51,1.94,2.92,3.92,3.77,6.26c0.67,1.83,1.39,3.68,2.33,5.38c1.02,1.84,2.34,3.51,4.52,4.67c-0.23-1.46-0.37-2.7-0.63-3.92
			c-0.74-3.42-2.15-6.52-4.29-9.34c-1.89-2.51-3.54-5.2-5.27-7.82c-0.82-1.24-1.52-2.58-2.4-3.77c-1.04-1.4-2.18-2.73-4.1-3.03
			c-0.43-0.07-0.86-0.44-1.18-0.77c-1.42-1.49-3.23-1.93-5.19-2.04c-1.27-0.07-2.54-0.18-3.82-0.22c-0.33-0.01-0.66,0.23-1.05,0.37
			c-0.48-0.42-0.7-0.96-0.03-1.73c1.77,0,3.64,0,5.71,0c-2.07-3.07-1.81-6.44-2.15-9.68c-0.1-0.9-0.01-1.79-0.68-2.55
			c-0.25-0.28-0.28-0.79-0.33-1.21c-0.15-1.22-0.27-2.44-0.37-3.66c-0.03-0.31-0.1-0.81,0.05-0.9c1.13-0.7,0.45-1.62,0.32-2.44
			c-0.6-3.68-1.22-7.36-1.87-11.04c-0.84-4.78-1.75-9.54-2.55-14.33c-0.31-1.84-0.4-3.71-0.59-5.56c-0.02-0.16-0.02-0.32,0.02-0.47
			c0.75-3.1,1.16-6.27,2.32-9.28c0.74-1.92,1.14-3.98,1.66-5.99c0.06-0.24-0.03-0.52-0.07-0.77c-0.07-0.47-0.36-1.01-0.2-1.38
			c0.49-1.19-0.16-2.14-0.42-3.19c-0.85-3.4-1.6-6.83-1.83-10.34c-0.05-0.69-0.18-1.37-0.26-2.06c-0.13-1.11-0.25-2.22-0.36-3.33
			c-0.07-0.74-0.08-1.5-0.18-2.24c-0.4-2.8-0.8-5.59-1.25-8.38c-0.12-0.73-0.41-1.43-0.61-2.14c-0.4-1.47-0.8-2.93-1.2-4.4
			c-0.11-0.41-0.23-0.82-0.35-1.23c-0.79-2.59-1.75-5.12-1.89-7.87c-0.04-0.73-0.28-1.47-0.51-2.18c-0.77-2.44-1.51-4.88-2.38-7.28
			c-0.37-1.04-0.95-2.02-1.53-2.97c-1.02-1.68-2.03-3.39-3.21-4.96c-2.04-2.71-4.21-5.29-6.74-7.61c-2.8-2.55-6.09-4.25-9.25-6.2
			c-0.62-0.39-1.35-0.66-2.07-0.82c-3.27-0.77-6.53-1.57-9.83-2.18c-3.03-0.56-6.11-0.85-9.16-1.31c-2.04-0.31-4.06-0.79-6.11-1.06
			c-1.99-0.27-4.01-0.36-6.02-0.56c-3.39-0.34-6.81-0.45-10.09-1.5c-0.25-0.08-0.52-0.1-0.79-0.13c-1.77-0.25-3.54-0.51-5.46-0.78
			c0,0.59-0.05,1.26,0.01,1.92c0.24,2.49,0.55,4.97,0.76,7.46c0.05,0.55-0.19,1.11-0.29,1.66c-1.27-0.02-1.34-0.12-1.39-1.11
			c-0.14-3.02-0.32-6.04-0.49-9.07c-0.02-0.26-0.13-0.51-0.2-0.79c-2.31-0.73-4.61-0.73-7.06-0.07c0-0.76,0-1.31,0-1.95
			c2.25,0,4.4,0,6.66,0c0.28-1.52-0.09-3.09-0.56-4.67c-0.58-1.94-1.16-3.89-1.66-5.85c-0.74-2.9-0.35-5.72,0.8-8.46
			c0.55-1.32,0.08-2.29-1.25-2.64c-2.51-0.66-3.35-2.02-2.92-4.74c1.49-0.51,3.03-0.98,4.06-2.56c-0.52-0.23-0.96-0.47-1.43-0.63
			c-1.2-0.41-2.43-0.74-3.62-1.2c-0.39-0.15-0.92-0.54-0.96-0.87c-0.05-0.35,0.33-0.88,0.67-1.12c3.3-2.33,6.57-4.7,10.35-6.23
			c0.13-0.05,0.23-0.2,0.42-0.37c-1.16-2.28-2.45-4.48-4.06-6.46c-2-2.46-3.3-5.3-4.76-8.07c-1.47-2.78-2.91-5.57-4.54-8.25
			c-0.76-1.25-1.94-2.25-2.97-3.32c-1.32-1.38-2.78-2.63-4-4.09c-1.14-1.36-2.7-2.01-4.17-2.72c-2.38-1.16-4.82-2.21-7.49-2.62
			c-1.46-0.22-2.92-0.64-4.32-1.14c-1.62-0.58-3.24-0.45-4.9-0.37c-1.76,0.09-3.46,0.35-5.16,0.83c-2.69,0.76-4.74,2.14-6.06,4.75
			c-1.03,2.04-2.09,4.06-2.77,6.23c-1.38,4.4-1.95,8.93-1.98,13.56c-0.02,3.3-0.35,6.6-0.54,9.9c-0.02,0.37-0.07,0.75-0.07,1.12
			c0,2.24-0.04,4.46-0.33,6.7c-0.32,2.53-0.29,5.12-0.29,7.68c0.01,4.72-0.47,9.38-1.2,14.03c-0.74,4.75-1.35,9.51-2.02,14.27
			c-0.21,1.48-0.52,2.94-0.66,4.43c-0.17,1.9-0.18,3.82-0.31,5.72c-0.27,4.05-0.6,8.09-0.86,12.14c-0.14,2.18-1,4.15-1.69,6.15
			c-1.32,3.83-2.82,7.6-4.13,11.43c-0.79,2.31-1.5,4.67-2,7.05c-0.58,2.76-1.78,5.24-2.92,7.76c-0.32,0.72-0.67,1.42-1.08,2.29
			c0.42-0.14,0.71-0.24,1.01-0.34c-1.67,1.06-1.13,2.84-1.12,4.17c0.03,4.26,0.36,8.53,0.66,12.79c0.23,3.29,0.72,6.57,0.86,9.87
			c0.17,3.78,0.07,7.57-0.44,11.35c-0.42,3.12-0.49,6.28-0.79,9.42c-0.42,4.47-0.88,8.92-1.71,13.35c-0.9,4.82-1.61,9.68-2.39,14.52
			c-0.04,0.26-0.06,0.53-0.05,0.8c0.16,3.38-0.4,6.7-0.81,10.03c-0.03,0.26-0.12,0.53-0.13,0.79c-0.13,5.28-1,10.51-0.78,15.82
			c0.12,2.82-0.19,5.65-0.21,8.47c-0.01,0.82,0.32,1.64,0.5,2.46c0.15,0.68,0.37,1.34,0.48,2.02c0.76,4.48,2.96,8.18,5.83,11.63
			c1.89,2.28,4.01,4.23,6.27,6.11c1.3,1.08,2.38,2.45,3.45,3.78c1.92,2.36,3.84,4.73,6.22,6.65c2.28,1.84,4.64,3.57,6.95,5.37
			c2.18,1.69,4.49,3.26,6.5,5.14c2.68,2.51,5.16,5.24,7.66,7.93c2.37,2.55,3.93,5.69,5.93,8.51c1.19,1.69,2.48,3.3,3.77,4.92
			c1.68,2.12,3.38,4.23,5.11,6.31c0.86,1.03,1.81,1.98,2.72,2.97c0.11-0.1,0.23-0.2,0.34-0.3c-1.06-1.29-2.16-2.55-3.16-3.88
			c-1.92-2.55-3.68-5.21-4.55-8.34c-0.11-0.38-0.01-0.84,0.08-1.24c0.24-1.11,0.49-1.23,1.51-0.71c1.73,0.89,2.94,2.36,4.18,3.79
			c2.54,2.94,4.77,6.16,7.81,8.65c0.38,0.31,0.8,0.58,1.28,0.76c-2.08-3.04-4.17-6.01-6.99-8.43c-1.35-1.16-2.42-2.66-3.59-4.03
			c-1.2-1.42-2.43-2.83-3.54-4.31c-1.15-1.54-2.17-3.16-3.25-4.75c-0.31-0.45-0.59-0.9-0.14-1.45c0.49-0.6,1-0.46,1.55-0.11
			c0.53,0.34,1.09,0.64,1.6,1.01c2.32,1.69,4.72,3.3,6.93,5.14c2.12,1.77,4.15,3.66,5.83,5.9c2.6,3.46,5.68,6.42,9.55,8.61
			c-0.98-1.53-1.86-3.13-2.95-4.58c-2.38-3.17-5.28-5.8-8.44-8.22c-2.31-1.77-4.26-4.01-6.45-5.94c-1.44-1.27-2.28-2.77-2.53-4.66
			c-0.07-0.5-0.43-0.96-0.63-1.45c-0.13-0.34-0.29-0.7-0.28-1.05c0-0.34,0.1-0.82,0.33-0.96c0.21-0.14,0.71-0.01,0.99,0.16
			c1.21,0.76,2.39,1.59,3.59,2.39c2.64,1.75,4.77,4.08,7.09,6.2c2.23,2.04,4.64,3.89,6.99,5.81c0.23,0.19,0.55,0.25,1.14,0.5
			c-0.26-0.57-0.39-0.87-0.55-1.17c-0.57-1.08-1.06-2.22-1.76-3.21c-0.82-1.16-1.64-2.34-2.92-3.13c-0.94-0.57-1.69-1.45-2.58-2.11
			c-1.42-1.03-2.82-2.1-4.34-2.97c-3.12-1.77-5.93-3.97-8.78-6.12c-0.89-0.67-1.84-1.25-2.77-1.86c-0.78-0.51-1.42-1.51-1.15-1.93
			c0.45-0.71,1.2-0.6,1.89-0.52c1.97,0.2,3.87,0.77,5.63,1.61c1.63,0.78,3.27,0.7,5.07,0.64c-0.96-2.33-3.03-2.93-5-3.64
			c-0.39-0.14-0.84-0.25-1.25-0.23c-2.75,0.14-4.96-1.42-7.36-2.33c-1.08-0.41-2.02-1.18-3.04-1.76c-1.39-0.78-2.79-1.55-4.2-2.28
			c-1.74-0.91-3.54-1.71-5.24-2.69c-2.87-1.65-5.48-3.66-7.89-5.92c-3.28-3.07-6.41-6.27-8.91-10.02c-1.42-2.12-2.68-4.35-4.07-6.49
			c-0.48-0.74-0.45-1.25,0.3-1.74c0.3-0.19,0.62-0.47,0.76-0.78c2.01-4.74,4.62-9.19,5.56-14.41c0.56-3.1,0.85-6.22,1.38-9.31
			c0.41-2.36,0.84-4.73,1.05-7.11c0.31-3.5,0.46-7.01,0.64-10.52c0.14-2.72,0.27-5.44,0.29-8.15c0.02-2.5-0.17-5.01-0.18-7.51
			c0-2.22,0.08-4.44,0.2-6.65c0.07-1.27,0.23-2.54,0.41-3.8c0.32-2.25,0.64-4.45,1.46-6.66c1.19-3.2,2.82-6.19,3.89-9.43
			c0.88-2.68,1.71-5.39,2.83-7.96c1.13-2.58,1.46-5.32,2.15-7.99c0.52-2.01,1.05-4.02,1.58-6.03c0.33-1.23,0.67-2.47,1.01-3.7
			c0.08-0.3,0.12-0.67,0.32-0.86c0.15-0.14,0.76-0.09,0.77-0.03c0.17,0.69,0.77,1.27,0.44,2.1c-0.61,1.57-1.23,3.15-1.65,4.78
			c-0.71,2.78-1.25,5.61-1.9,8.41c-0.19,0.83-0.48,1.63-0.77,2.43c-1.19,3.3-2.34,6.61-3.6,9.88c-0.86,2.22-1.9,4.38-2.83,6.57
			c-0.28,0.67-0.45,1.4-0.67,2.1c-0.05,0.15-0.04,0.33-0.12,0.46c-1.59,2.8-1.29,5.97-1.82,8.99c-0.62,3.5-0.48,7-0.23,10.52
			c0.14,1.91,0.06,3.84,0,5.76c-0.09,2.82-0.25,5.65-0.4,8.47c-0.21,4.14-0.43,8.29-0.66,12.43c-0.02,0.32-0.06,0.65-0.17,0.94
			c-1.01,2.85-0.91,5.88-1.4,8.81c-0.52,3.13-1.15,6.29-2.18,9.28c-0.93,2.69-2.47,5.17-3.71,7.75c-0.41,0.86-0.73,1.76-1.2,2.88
			c1.24,1.85,2.52,3.86,3.9,5.8c1.14,1.6,2.33,3.18,3.63,4.65c2.1,2.38,4.26,4.71,6.89,6.55c1.65,1.16,3.19,2.5,4.91,3.55
			c1.66,1.01,3.29,2.1,5.19,2.73c1.56,0.52,2.96,1.4,4.31,2.38c2.74,1.99,5.8,3.3,9.08,4.15c1.57,0.41,3.18,0.57,4.75,1.21
			c1.75,0.72,2.94,1.84,4,3.26c1.02,1.37,1.02,1.37,1.13,2.45c-4.06,1.14-7.74-0.38-11.41-1.96c-0.04,0.11-0.08,0.22-0.12,0.34
			c0.09,0.17,0.13,0.4,0.27,0.5c2.72,1.94,5.38,3.97,8.21,5.77c2.4,1.54,5.13,2.69,6.92,5.1c0.06,0.08,0.15,0.15,0.25,0.2
			c2.67,1.29,3.97,3.77,5.4,6.15c0.77,1.28,1.56,2.54,2.29,3.84c0.41,0.73,0.71,1.53,1.02,2.23c-0.38,0.64-0.8,0.74-1.26,0.37
			c-2.9-2.32-6.34-3.91-8.93-6.66c-1.73-1.83-3.43-3.71-5.33-5.36c-1.59-1.38-3.43-2.45-5.29-3.75c0.29,2.34,1.05,4.24,2.82,5.72
			c2.86,2.39,5.67,4.85,8.5,7.28c2.8,2.41,5.17,5.22,7.24,8.25c1.03,1.5,2.13,3.06,2.45,5c-0.87,0.6-1.72,0.32-2.41-0.09
			c-1.14-0.67-2.18-1.5-3.24-2.3c-2.84-2.14-4.99-4.93-7.26-7.61c-1.75-2.07-3.66-3.97-5.91-5.55c-2.26-1.58-4.34-3.39-6.7-4.98
			c0.58,0.92,1.12,1.87,1.75,2.75c0.66,0.91,1.36,1.79,2.13,2.6c1.61,1.69,2.59,3.85,4.35,5.44c1.89,1.71,3.59,3.64,5.32,5.52
			c0.65,0.7,1.13,1.55,1.75,2.28c0.72,0.85,1.44,1.72,2.28,2.45c0.93,0.81,1.43,1.85,1.88,2.94c0.07,0.16-0.05,0.39-0.1,0.76
			c-1.69-0.26-3.05-1.04-4.36-1.9c-2.84-1.89-4.9-4.57-7.01-7.16c-1.61-1.98-3.18-3.98-5.4-5.7c0,0.45-0.09,0.76,0.01,0.98
			c1.34,2.72,2.62,5.45,4.72,7.74c1.53,1.68,2.77,3.64,4.05,5.54c0.42,0.63,0.58,1.43,0.88,2.23c-1.28,0.42-2.22,0.15-2.96-0.63
			c-1.64-1.74-3.25-3.52-4.83-5.31c-1.75-2-3.52-3.99-5.17-6.08c-1.28-1.61-2.36-3.38-3.56-5.05c-2.97-4.16-5.61-8.58-9.46-12.05
			c-0.75-0.68-1.47-1.4-2.15-2.15c-2.08-2.31-4.56-4.15-7-6.04c-2.22-1.72-4.47-3.4-6.73-5.07c-2.37-1.74-4.33-3.91-6.26-6.1
			c-0.77-0.88-1.51-1.8-2.26-2.7c-1.32-1.6-2.67-3.18-4.37-4.39c-1.88-1.34-3.23-3.17-4.78-4.82c-0.54-0.58-1.16-1.12-1.59-1.78
			c-1.73-2.67-3.64-5.25-4.28-8.48c-0.17-0.88-0.46-1.76-0.82-2.58c-0.99-2.31-0.65-4.73-0.64-7.11c0.01-2.72,0.05-5.44,0.14-8.16
			c0.07-2.18,0.23-4.36,0.38-6.54c0.14-1.97,0.28-3.93,0.48-5.89c0.15-1.48,0.41-2.95,0.57-4.43c0.16-1.59,0.25-3.19,0.39-4.78
			c0.18-2.02,0.38-4.04,0.58-6.06c0.21-2.07,0.34-4.15,0.66-6.2c0.38-2.42,1-4.79,1.39-7.21c0.48-3.05,0.9-6.12,1.23-9.2
			c0.53-4.98,1.04-9.97,1.4-14.97c0.19-2.7,0.16-5.43,0.04-8.13c-0.18-3.84-0.54-7.66-0.83-11.49c-0.2-2.55-0.47-5.09-0.61-7.64
			c-0.09-1.65,0.03-3.3-0.02-4.95c-0.07-2.34,0.59-4.42,1.67-6.49c1.46-2.79,2.08-5.9,2.89-8.94c0.68-2.55,1.71-5.02,2.57-7.52
			c1.18-3.41,2.26-6.85,3.54-10.22c1.38-3.64,1.19-7.44,1.44-11.2c0.12-1.91,0.38-3.82,0.52-5.73c0.1-1.38,0.02-2.77,0.21-4.13
			c0.87-6.29,1.83-12.56,2.72-18.84c0.38-2.69,0.82-5.37,1.01-8.08c0.26-3.89,0.3-7.79,0.47-11.68c0.07-1.59,0.29-3.17,0.41-4.76
			c0.09-1.22,0.14-2.45,0.2-3.67c0.13-2.51,0.28-5.01,0.4-7.52c0.1-2.13,0.31-4.27,0.21-6.39c-0.2-3.85,0.67-7.55,1.53-11.21
			c0.83-3.58,2.53-6.89,4.64-9.92c1.14-1.63,2.91-2.36,4.78-2.94c2.68-0.84,5.45-0.98,8.2-1.26c0.31-0.03,0.64,0.02,0.96,0.08
			c3.97,0.79,7.91,1.7,11.7,3.16c1.59,0.61,3.18,1.28,4.61,2.19c1.51,0.95,2.88,2.15,4.2,3.36c1.25,1.15,2.29,2.54,3.54,3.69
			c1.21,1.11,2.08,2.41,2.86,3.82c1.18,2.14,2.4,4.27,3.57,6.41c0.48,0.87,0.92,1.77,1.31,2.68c1.05,2.47,2.73,4.52,4.26,6.68
			c1.54,2.17,2.89,4.47,4.34,6.72c-0.2,0.5-0.41,1.01-0.6,1.47c-3.94,0.92-7.21,2.98-10.28,5.87c0.93,0.38,1.7,0.7,2.47,1.01
			c0.44,0.18,0.9,0.33,1.33,0.54c1.4,0.72,1.54,2.26,0.29,3.22c-0.5,0.39-1.05,0.73-1.61,1.05c-0.5,0.29-1.05,0.5-1.54,0.73
			c0.02,1.36,0.37,1.9,1.39,2.22c0.36,0.11,0.73,0.16,1.08,0.28c1.25,0.45,1.95,1.49,1.75,2.82c-0.22,1.41-0.55,2.81-0.93,4.19
			c-0.46,1.69-0.4,3.4-0.04,5.05c0.56,2.55,1.35,5.04,1.96,7.58c0.25,1.07,0.27,2.2,0.41,3.39c1.38,0.3,2.66,0.62,3.95,0.84
			c2.41,0.42,4.82,0.86,7.24,1.16c3.7,0.46,7.42,0.81,11.13,1.22c1.43,0.16,2.86,0.35,4.28,0.55c2.64,0.38,5.27,0.86,7.92,1.16
			c2.82,0.33,5.53,1.11,8.28,1.74c1.71,0.39,3.43,0.75,5.16,1.08c2.58,0.49,4.7,1.98,6.91,3.25c3.21,1.85,5.89,4.38,8.45,7.01
			c1.44,1.48,2.66,3.2,3.83,4.92c1.82,2.69,3.71,5.36,4.95,8.4c0.18,0.44,0.32,0.9,0.46,1.36c0.78,2.55,1.55,5.1,2.33,7.65
			c0.08,0.25,0.18,0.53,0.36,0.7c1.12,1.02,1.15,2.4,1.11,3.7c-0.07,2.17,0.58,4.19,1.03,6.25c0.3,1.33,1.06,2.55,1.37,3.88
			c0.35,1.5,0.44,3.06,0.64,4.59c0.12,0.93,0.23,1.87,0.35,2.89c1.35-0.74,2.6-0.15,3.78,0.14c2.73,0.68,5.4,1.59,8.1,2.39
			c1.58,0.47,3.16,0.91,4.75,1.34c1.33,0.36,2.71,0.58,4.01,1.04c0.97,0.34,1.63,0.05,2.32-0.52c2.59-2.13,5.14-4.29,7.79-6.34
			c3.24-2.51,6.44-5.1,9.86-7.35c3.22-2.12,6.59-4.07,10.22-5.43c1.45-0.54,3.12-0.62,4.7-0.68c3.44-0.15,6.27,1.35,8.81,3.55
			c0.72,0.63,1.66,1.07,2.21,1.82c1.2,1.62,2.35,3.3,3.25,5.1c1.1,2.18,1.97,4.49,2.84,6.78c0.7,1.84,1.19,3.75,1.88,5.6
			c1.47,4,3.08,7.94,4.5,11.96c1.27,3.6,2.35,7.27,3.51,10.91c0.23,0.71,0.47,1.41,0.69,2.12c0.59,1.87,1.18,3.74,1.77,5.61
			c0.48,1.52,0.97,3.04,1.45,4.56c0.31,0.96,0.6,1.93,0.9,2.9c1,3.21,2.14,6.38,2.94,9.63c0.78,3.17,2,6.17,3.05,9.24
			c0.85,2.47,1.72,4.94,2.33,7.47c1.13,4.76,2.06,9.57,3.11,14.35c0.46,2.08,1.04,4.13,1.55,6.2c0.2,0.82,0.32,1.67,0.51,2.49
			c1.03,4.62,2,9.26,3.14,13.86c1.02,4.14,2.23,8.22,3.33,12.34c0.85,3.19,1.71,6.38,2.44,9.59c0.39,1.74,1.17,3.31,2.39,4.43
			c2.27,2.07,4.47,4.29,7.31,5.64c1.78,0.84,3.55,1.68,5.57,1.79c0.47,0.03,0.95,0.19,1.37,0.39c0.72,0.34,1.02,1.15,0.78,1.88
			c-0.46,1.37-2.67,3.05-4.16,3.03c-0.73-0.01-1.45-0.29-2.19-0.39c-2.04-0.3-4.12-0.43-6.12-0.88c-1.96-0.44-3.85-1.2-5.76-1.82
			c-0.1-0.03-0.19-0.13-0.28-0.14c-2.81-0.41-5.66-1.14-8.1,1.16c-0.57,0.54-1.29,0.93-1.98,1.32c-0.75,0.42-1.47,0.55-2.42,0.34
			c-1.26-0.27-2.63-0.07-4.14-0.07c-0.03,1.31-0.03,2.58-0.09,3.84c-0.08,1.79-0.21,3.57-0.3,5.36c-0.03,0.59,0.07,1.18,0.04,1.76
			c-0.07,1.33-0.2,2.65-0.28,3.98c-0.18,2.76,0.31,5.39,1.3,7.98c0.58,1.52,0.88,3.16,1.18,4.77c0.4,2.11,0.98,4.14,1.98,6.05
			c0.27,0.51,0.38,1.1,0.6,1.64c1.1,2.71,2.18,5.44,3.32,8.13c2.18,5.15,4.38,10.29,6.62,15.41c0.89,2.05,1.87,4.06,2.85,6.07
			c0.39,0.79,1.03,1.47,1.31,2.29c0.58,1.7,1.07,3.45,1.47,5.2c0.84,3.65,2.53,6.89,4.67,9.92c1.17,1.65,2.45,3.23,3.55,4.93
			c1.03,1.6,1.92,3.3,2.81,4.99c0.64,1.21,1.27,2.44,1.76,3.72c0.93,2.43,1.76,4.91,2.64,7.36c0.4,1.1,0.8,2.2,1.25,3.28
			c1.31,3.14,1.8,6.47,2.06,9.82c0.12,1.61-0.23,3.18-0.93,4.66c-0.94,1.98-1.82,3.98-2.77,5.96c-0.4,0.84-0.96,1.6-1.35,2.44
			c-0.28,0.61-0.35,1.31-0.61,1.93c-0.48,1.16-0.86,2.44-1.61,3.4c-0.52,0.67-0.82,1.34-0.93,2.09c-0.08,0.58-0.3,0.93-0.84,0.96
			c-0.34,0.02-0.83-0.03-1.01-0.25c-0.37-0.45-0.24-0.98,0.13-1.46c0.58-0.76,1.2-1.52,1.66-2.36c0.71-1.3,1.31-2.66,1.93-4
			c1.06-2.27,2.13-4.54,3.14-6.83c0.54-1.22,0.98-2.47,1.42-3.73c0.4-1.12,0.45-2.26,0.33-3.46c-0.38-3.8-1.23-7.45-2.84-10.94
			c-0.62-1.34-0.97-2.82-1.33-4.26c-0.53-2.09-1.42-3.99-2.58-5.8c-0.74-1.16-1.22-2.48-1.86-3.71c-0.39-0.75-0.82-1.49-1.29-2.2
			c-1.4-2.06-2.75-4.16-4.26-6.14c-1.94-2.54-3-5.51-4.22-8.39c-0.14-0.34-0.22-0.71-0.29-1.07c-0.37-2-1.06-3.87-1.92-5.72
			c-1.29-2.75-2.45-5.56-3.66-8.34c-2.04-4.69-4.03-9.4-6.12-14.07c-2.08-4.67-4.1-9.37-5.74-14.21c-0.09-0.25-0.16-0.51-0.2-0.77
			c-0.42-2.87-1.27-5.59-2.51-8.21c-0.37-0.79-0.45-1.74-0.54-2.63c-0.2-1.9-0.22-3.8,0-5.72c0.3-2.69,0.33-5.41,0.51-8.12
			c0.21-3.17,0.46-6.34,0.7-9.51c0.08-1.01,0.24-2.02,0.23-3.02c-0.02-1.82,0.46-3.58,0.61-5.37c0.22-2.64,0.07-5.32,0.37-7.94
			c0.28-2.48-0.17-4.89-0.36-7.31c-0.09-1.24-1.06-2.4-1.58-3.63c-0.37-0.87-0.64-1.79-0.96-2.68c-0.26-0.74-0.45-1.52-0.83-2.19
			c-1.39-2.49-2.99-4.85-4.57-7.22c-0.69-1.05-1.21-2.23-1.69-3.4c-1.66-3.99-3.34-8-5.99-11.42c-1.8-2.32-3.17-4.91-4.99-7.17
			c-0.83-1.03-1.57-2.1-2.32-3.18C510.1,387.83,509.98,387.03,510.34,386.36z M445.17,331.3c0.31-0.17,0.48-0.21,0.58-0.31
			c2.2-2.24,4.45-4.43,6.57-6.74c2.1-2.28,4.4-4.32,6.83-6.23c0.74-0.58,1.57-1.05,2.56-1.7c-0.76-0.29-1.27-0.53-1.81-0.69
			c-3.35-1-6.77-1.73-10.07-2.93c-2.51-0.91-5.14-1.42-7.85-1.47C442.74,317.97,443.05,324.7,445.17,331.3z"/>
		<path d="M451.74,541.81c-0.13-0.3-0.17-0.52-0.3-0.67c-1.33-1.59-2.78-3.1-3.98-4.78c-2.23-3.12-5-5.79-7.38-8.78
			c-0.43-0.54-0.81-1.13-1.15-1.73c-0.98-1.71-2.46-2.51-4.42-2.66c-1.54-0.12-3.08-0.32-4.58-0.67c-0.9-0.21-1.82-0.64-2.55-1.21
			c-1.75-1.36-3.73-2.24-5.72-3.11c-1.45-0.63-3-0.47-4.54-0.19c-2.71,0.5-5.43,0.95-8.15,1.43c-0.42,0.07-0.82,0.2-1.32,0.32
			c0.12,0.61,0.19,1.17,0.34,1.72c0.71,2.52,0.4,5.09,0.5,7.64c0.05,1.22,0.35,2.42,0.45,3.64c0.29,3.35,0.57,6.72-1.2,9.82
			c-0.74,1.3-1.92,2.09-3.36,2.47c-1.02-0.53-1.13-1.34-0.93-2.32c0.57-2.85,0.7-5.7,0.06-8.56c-0.19-0.83-0.25-1.69-0.37-2.53
			c-0.49-3.35-1.63-6.51-2.75-9.68c-0.21-0.6-0.38-1.21-0.58-1.87c-3.19,0.14-6.32,0.27-9.44,0.42c-1.64,0.08-3.29,0.18-4.93,0.32
			c-2.28,0.2-4.56,0.47-6.84,0.65c-3.46,0.28-6.27-0.87-8.18-3.88c-0.6-0.94-1.2-1.88-1.72-2.87c-0.46-0.89-0.43-1.84-0.15-2.8
			c0.28-0.97,0.44-1.98,0.7-2.95c0.3-1.12,0.55-2.28,1.03-3.33c1.7-3.79,3.5-7.54,5.24-11.31c0.25-0.53,0.42-1.1,0.61-1.65
			c1.21-3.47,2.45-6.92,3.63-10.4c1.15-3.43,2.33-6.86,3.33-10.33c0.94-3.27,1.62-6.61,2.46-9.9c0.33-1.27,0.17-2.32-0.62-3.43
			c-2.86-4.05-4.54-8.61-5.58-13.44c-0.42-1.96-0.94-3.91-1.4-5.86c-0.14-0.57-0.28-1.14-0.36-1.72c-0.46-3.46-2.07-6.34-4.48-8.79
			c-1.12-1.14-2.35-2.16-3.49-3.27c-1.2-1.16-2.53-2.09-4.01-2.88c-1.82-0.98-3.52-2.2-5.37-3.12c-1.74-0.87-3.45-1.81-5.36-2.38
			c-1.27-0.38-2.37-1.32-3.56-2.01c0.36-0.76,0.64-1.35,0.9-1.89c0.13,0,0.22-0.01,0.22,0c0.46,1.37,1.65,1.84,2.82,2.35
			c4.09,1.8,8.23,3.59,11.89,6.13c5.25,3.66,10,7.87,11.6,14.51c0.15,0.62,0.16,1.27,0.31,1.89c1.07,4.46,1.83,9.01,3.62,13.26
			c0.9,2.14,2.13,4.14,3.2,6.21c0.1,0.19,0.1,0.44,0.14,0.66c0.18-0.1,0.36-0.19,0.54-0.29c0.12-0.71,0.29-1.41,0.34-2.13
			c0.17-2.5,0.28-5,0.43-7.5c0.08-1.33,0.2-2.66,0.26-3.99c0.03-0.64,0.84-1.2,0.18-1.9c0.35-0.56,0.75-1.1,1.04-1.69
			c0.11-0.22-0.06-0.58-0.11-0.95c0.59,0,0.94,0.27,0.78,0.75c-1.14,3.37-0.74,6.87-0.91,10.32c-0.17,3.47-0.61,6.87-1.52,10.23
			c-0.82,3.03-1.41,6.12-2.22,9.16c-1.16,4.33-2.38,8.63-4.05,12.81c-1.3,3.26-2.3,6.65-3.43,9.98c-0.12,0.35-0.23,0.72-0.38,1.05
			c-1.41,2.96-2.93,5.88-4.21,8.89c-1.33,3.13-2.29,6.41-2.92,9.77c-0.06,0.3-0.02,0.67,0.11,0.93c1.28,2.49,2.71,4.83,5.55,5.88
			c1.4,0.52,2.83,0.76,4.23,0.35c1.88-0.56,3.8-0.47,5.7-0.62c1.22-0.09,2.45-0.13,3.67-0.2c5.45-0.29,10.9-0.74,16.36-0.83
			c3.78-0.06,7.37-0.93,11.03-1.64c2.25-0.43,4.47-0.57,6.71,0.56c1.66,0.84,3.26,1.72,4.8,2.77c1.62,1.1,3.59,1.33,5.51,1.36
			c1.22,0.02,2.3,0.24,3.35,0.86c0.99,0.58,2.18,0.67,3.18,1.32c0.87,0.56,1.1,1.36,1.39,2.17c0.07,0.19-0.29,0.54-0.49,0.9
			c1.43,1.69,2.91,3.43,4.38,5.18c1.61,1.92,3.25,3.81,4.78,5.78c2.86,3.69,6.06,7.06,9.57,10.1c4.92,4.25,10.1,8.2,15.03,12.45
			c3.18,2.75,6.06,5.84,9.17,8.69c4.08,3.74,7.98,7.68,12.37,11.09c1.55,1.21,2.89,2.7,4.4,3.96c1.63,1.37,3.34,2.63,5.02,3.93
			c1.51,1.16,3.02,2.31,4.54,3.47c-0.85,1.02-1.21,1-2.13,0.27c-2.08-1.65-4.24-3.2-6.28-4.89c-2.2-1.82-4.31-3.76-6.46-5.64
			c-2.8-2.45-5.66-4.84-8.39-7.37c-2.93-2.71-5.78-5.51-8.62-8.32c-3.21-3.19-6.67-6.07-10.36-8.69c-0.99-0.7-1.77-1.7-2.73-2.45
			c-3.57-2.8-6.98-5.77-10.14-9.02c-0.81-0.83-1.68-1.65-2.95-1.73c-0.21-0.01-0.43-0.12-0.61-0.07c-2.67,0.68-5.47,0.87-7.96,2.24
			c-1.01,0.55-1.86,1.21-2.53,2.14c-0.69,0.95-1.41,1.87-2.1,2.82c-1.91,2.62-2.21,5.7-2.55,8.78c-0.09,0.84-0.24,1.68-0.29,2.52
			c-0.04,0.74-0.09,1.5,0.06,2.21c0.4,1.92,1.01,3.8,1.31,5.74c0.25,1.6,1,2.92,1.79,4.22c2.18,3.55,4.81,6.77,7.53,9.92
			c1.05,1.2,2.06,2.44,3.12,3.63c2.98,3.35,6.48,6.1,10.06,8.78c2.93,2.19,5.64,4.67,8.47,7.01c1.03,0.85,2.06,1.71,3.17,2.44
			c3.53,2.32,6.68,5.07,9.6,8.12c0.91,0.95,2.05,1.68,3.12,2.46c2.62,1.91,5.3,3.72,7.87,5.7c1.86,1.43,3.53,3.09,5.34,4.58
			c1.1,0.91,2.28,1.74,3.49,2.51c1.57,1.01,3.22,1.9,4.8,2.88c0.58,0.36,1.07,0.85,1.6,1.28c1.39,1.09,2.93,1.88,4.51,2.67
			c2.08,1.04,4.06,2.26,5.86,3.82c1.47,1.27,3.31,2.11,4.95,3.19c1.63,1.08,3.22,2.22,4.82,3.34c3.35,2.33,6.17,5.22,8.8,8.3
			c0.99,1.16,1.76,2.5,2.53,3.83c1.55,2.67,3.06,5.36,4.52,8.07c1.8,3.32,3.52,6.69,5.33,10.01c0.76,1.4,1.65,2.71,3.01,3.65
			c0.59,0.41,1.03,1.05,1.63,1.69c0.51-1.05,0.36-2.11,0.27-3.16c-0.07-0.84-0.21-1.68-0.23-2.53c-0.03-1.65-0.18-3.24-0.72-4.85
			c-0.75-2.23-1.13-4.59-1.79-6.86c-0.94-3.26-1.23-6.67-2.4-9.87c-0.56-1.54-0.85-3.19-0.7-4.86c0.09-0.99,0.41-1.83,1.13-2.57
			c0.99-1.03,1.91-2.13,2.81-3.24c1.1-1.34,1.46-2.94,1.45-4.63c-0.01-4.28-1.33-8.05-4.37-11.16c-0.43-0.44-0.7-1.03-1.1-1.65
			c-4.82,4.6-10.62,7.14-17.57,7.47c-0.12-0.25-0.56-0.81-0.44-1c0.24-0.38,0.79-0.57,1.24-0.79c0.18-0.09,0.42-0.06,0.63-0.05
			c3.15,0.13,5.88-1.19,8.67-2.39c4.62-1.99,7.7-5.78,11.02-9.29c0.66-0.69,1.36-1.35,1.97-2.09c1.88-2.29,2.67-5.07,3.45-7.85
			c0.5-1.79,0.96-3.6,1.43-5.4c0.04-0.15,0.09-0.31,0.08-0.47c-0.16-4.56,0.06-9.16-1.66-13.55c-0.84-2.15-1.84-4.19-3.24-6.03
			c-1.54-2.01-2.31-4.42-3.46-6.63c-0.52-1,0.36-1.52,1.05-2.5c0.13,0.28,0.32,0.54,0.38,0.83c0.66,3.25,2.23,6.07,4.2,8.67
			c1.69,2.23,2.48,4.82,3.22,7.43c1.05,3.68,1.48,7.43,0.98,11.22c-0.26,1.99-0.84,3.94-1.39,5.88c-0.89,3.19-1.84,6.37-3.7,9.15
			c-0.73,1.09-1.72,2-2.61,2.99c-0.75,0.83-1.53,1.62-2.27,2.46c-0.73,0.83-0.7,1.33,0.07,2.22c1.72,1.99,3.31,4.08,4.04,6.64
			c0.82,2.87,1.59,5.78,0.51,8.77c-0.21,0.58-0.06,0.97,0.36,1.42c0.45,0.49,0.74,1.12,1.04,1.73c0.54,1.1,1.06,2.21,1.56,3.33
			c1.5,3.36,3.03,6.71,4.46,10.1c1.14,2.7,2.13,5.46,3.22,8.18c0.2,0.5,0.55,0.95,0.81,1.38c1.15-0.35,1.28-1.21,1.43-1.96
			c0.48-2.54,0.5-5.09-0.11-7.61c-0.55-2.28-1.18-4.54-1.72-6.82c-0.95-4.03-2.16-8.03-2.71-12.12c-0.47-3.49-0.76-7.17,1.41-10.4
			c0.48-0.71,0.92-1.44,1.43-2.12c1.51-2,2.1-4.31,2.12-6.75c0.02-3.06-0.31-6.08-2.01-8.76c-0.09-0.14-0.22-0.26-0.26-0.4
			c-0.61-2.49-2.45-4.04-4.29-5.59c-0.46-0.39-0.76-0.8-0.35-1.36c0.42-0.57,0.99-0.44,1.4-0.03c1.63,1.6,3.29,3.19,4.23,5.34
			c0.66,1.51,1.39,3,1.82,4.57c0.49,1.78,0.92,3.64,0.95,5.47c0.07,3.94-1.27,7.48-3.63,10.65c-0.37,0.49-0.69,1.08-0.83,1.68
			c-0.76,3.14-1.02,6.28-0.13,9.47c0.4,1.43,0.5,2.94,0.84,4.39c0.65,2.79,1.31,5.58,2.06,8.35c0.93,3.42,1.58,6.85,1.2,10.41
			c-0.11,1-0.08,2.03-0.3,3.01c-0.35,1.59-0.69,1.81-2.29,1.9c-1.34,0.07-1.64-0.11-2.19-1.58c-0.7-1.9-1.31-3.84-2.02-5.74
			c-0.71-1.9-1.45-3.78-2.24-5.64c-0.87-2.06-1.8-4.09-2.73-6.13c-0.58-1.26-1.23-2.48-1.8-3.74c-0.28-0.61-0.43-1.28-0.67-1.91
			c-0.11-0.28-0.31-0.51-0.54-0.89c-1.14,1.22-2.16,2.34-3.2,3.44c-1.04,1.09-1.39,2.4-1.21,3.83c0.17,1.31,0.49,2.6,0.78,3.89
			c0.52,2.33,1.06,4.66,1.59,6.99c0.55,2.38,1.06,4.78,1.66,7.15c0.25,0.97,0.69,1.89,1.02,2.84c0.12,0.35,0.26,0.71,0.28,1.07
			c0.12,2.88,0.22,5.75,0.3,8.63c0.01,0.58-0.08,1.18-0.22,1.74c-0.08,0.32-0.37,0.82-0.57,0.82c-0.42,0.01-1.1-0.14-1.24-0.43
			c-0.56-1.18-1.54-1.87-2.53-2.61c-1.39-1.04-2.12-2.57-2.91-4.04c-2.31-4.32-4.61-8.65-6.93-12.96c-0.7-1.31-1.44-2.61-2.16-3.91
			c-1.61-2.89-3.4-5.63-6.08-7.69c-0.95-0.73-1.65-1.79-2.58-2.57c-1.41-1.18-2.99-2.17-4.37-3.38c-2.26-1.98-4.99-3.22-7.41-4.95
			c-1.82-1.3-3.68-2.54-5.57-3.74c-1.3-0.83-2.68-1.51-3.99-2.32c-0.9-0.56-1.71-1.26-2.6-1.83c-2.06-1.3-4.17-2.52-6.2-3.85
			c-1.23-0.81-2.42-1.71-3.54-2.67c-4.15-3.59-8.36-7.09-12.93-10.15c-1.85-1.23-3.44-2.85-5.15-4.28
			c-2.12-1.77-4.25-3.54-6.38-5.29c-1.78-1.46-3.59-2.89-5.39-4.34c-2.9-2.34-5.73-4.78-8.71-7c-3.83-2.85-7.27-6.1-10.34-9.74
			c-2.06-2.44-4.14-4.87-6.04-7.43c-2.1-2.81-3.93-5.77-5.17-9.13c-0.71-1.93-0.91-3.91-1.51-5.82c-0.08-0.25-0.11-0.53-0.09-0.79
			c0.39-3.96,0.54-7.96,1.94-11.76c0.09-0.25,0.14-0.53,0.29-0.73c1.54-2.03,2.77-4.37,4.81-5.94c1.99-1.53,4.35-2.4,6.88-2.72
			C449.48,542.19,450.56,541.99,451.74,541.81z M401.3,519.81c0.13,0.61,0.17,1.01,0.29,1.39c0.47,1.53,0.96,3.04,1.45,4.57
			c0.97,3.05,1.52,6.19,1.93,9.37c0.23,1.82,0.39,3.58,0.04,5.4c-0.15,0.79-0.03,1.64-0.03,2.85c0.68-0.61,1.22-0.9,1.48-1.35
			c1.67-2.94,1.71-6.14,1.05-9.3c-0.44-2.1-0.83-4.23-0.57-6.3c0.29-2.31-0.67-4.36-0.53-6.61
			C404.69,519.81,403.16,519.81,401.3,519.81z"/>
		<path d="M233.3,431.47c-0.37-0.6-0.78-1.03-0.92-1.53c-0.48-1.74-0.9-3.5-1.27-5.26c-0.67-3.26-1.81-6.35-3.3-9.3
			c-0.47-0.93-0.71-1.84-0.71-2.88c0.01-1.91-0.17-3.82-0.18-5.74c-0.01-1.54,0.12-3.09,0.16-4.63c0.08-2.66,0.24-5.32-0.12-7.99
			c-0.26-1.94-0.24-3.94-0.24-5.91c0-3.95,0.18-7.9,0.1-11.85c-0.07-3.29-0.44-6.57-0.62-9.86c-0.24-4.46-0.42-8.93-0.64-13.39
			c-0.07-1.33-0.3-2.65-0.25-3.97c0.14-3.85-0.46-7.65-0.52-11.49c-0.05-3.36-0.36-6.71-0.37-10.06c-0.01-3.08,0.23-6.17,0.34-9.25
			c0.09-2.61,0.2-5.22,0.21-7.83c0.01-3.68-0.07-7.36-0.08-11.03c0-0.48,0.42-1.05,0.27-1.42c-0.15-0.37-0.51-0.6-0.51-1.14
			c0.06-5.71-0.02-11.42,0.12-17.12c0.14-5.47,0.56-10.94,0.39-16.43c-0.07-2.34,0.15-4.7,0.03-7.04c-0.14-2.5-0.55-4.98-0.8-7.48
			c-0.21-2.07-0.38-4.14-0.51-6.22c-0.22-3.51-0.41-7.01-0.6-10.52c-0.04-0.85-0.01-1.7-0.01-2.9c-0.32,0.42-0.5,0.55-0.53,0.71
			c-0.48,3.37-0.94,6.75-1.42,10.13c-0.17,1.21-0.42,2.41-0.54,3.63c-0.05,0.49,0.15,1,0.24,1.5c0.11,0.55,0.38,1.12,0.31,1.65
			c-0.33,2.37-0.64,4.76-1.19,7.08c-0.83,3.5-0.98,7.04-1.13,10.61c-0.14,3.29-0.7,6.55-1.08,9.83c-0.01,0.05-0.03,0.1-0.04,0.16
			c-0.33,2.64-0.67,5.28-0.99,7.93c-0.15,1.22-0.25,2.44-0.36,3.67c-0.22,2.39-0.39,4.79-0.65,7.17c-0.13,1.21-0.45,2.4-0.64,3.61
			c-0.47,3.06-0.85,6.13-1.37,9.18c-0.35,2.05-0.97,4.05-1.28,6.1c-0.29,1.88-0.22,3.82-0.51,5.71c-0.48,3.1-1.27,6.15-1.67,9.26
			c-0.57,4.53-1.66,8.99-1.86,13.57c-0.04,0.94-0.32,1.87-0.44,2.82c-0.58,4.52-1.06,9.06-1.87,13.55
			c-0.68,3.76-1.06,7.58-1.64,11.37c-0.47,3.05-1.06,6.09-1.57,9.13c-0.22,1.31-0.54,2.62-0.54,3.94c0.01,3.19-1.02,6.19-1.45,9.3
			c-0.36,2.58-0.78,5.15-1.12,7.73c-0.21,1.63-0.22,3.3-0.51,4.92c-0.32,1.77-0.76,3.54-1.3,5.25c-0.62,1.95-1.01,3.89-0.89,5.95
			c0.05,0.78,0.11,1.63-1.01,2.17c-0.24-0.41-0.62-0.8-0.71-1.25c-0.28-1.45-0.41-2.94-0.7-4.39c-0.34-1.72-0.78-3.42-1.19-5.12
			c-0.16-0.67-0.15-1.27,0.06-1.99c0.84-2.98,1.4-6.03,1.47-9.14c0.01-0.48,0.02-0.96,0.09-1.43c0.36-2.21,0.78-4.41,1.11-6.63
			c0.68-4.58,1.35-9.17,1.98-13.76c0.68-5.02,1.34-10.05,1.94-15.08c0.49-4.12,0.87-8.26,1.35-12.38c0.5-4.34,1.11-8.67,1.59-13.02
			c0.45-4.03,0.74-8.08,1.2-12.11c0.33-2.86,0.76-5.71,1.24-8.54c0.68-3.98,1.5-7.93,2.19-11.9c0.63-3.57,0.96-7.21,1.8-10.73
			c1.23-5.15,1.27-10.45,2.4-15.6c0.4-1.82,0.67-3.66,1.09-5.48c0.87-3.73,1.22-7.52,1.52-11.33c0.25-3.18,0.85-6.33,1.17-9.51
			c0.33-3.28,0.5-6.58,0.74-9.87c0.17-2.33,0.35-4.67,0.49-7.01c0.05-0.8,0.06-1.61-0.02-2.4c-0.32-3.49,0.11-6.9,0.78-10.31
			c0.45-2.29,0.68-4.63,0.94-6.96c0.16-1.43,0.67-2.72,1.51-3.97c0.02,0.26,0.1,0.53,0.07,0.79c-0.66,4.86-1.39,9.71-1.97,14.58
			c-0.18,1.51,0.04,3.07,0,4.61c-0.08,2.72-0.2,5.43-0.37,8.15c-0.22,3.62-0.42,7.24-0.76,10.85c-0.29,3.13-0.77,6.25-1.15,9.37
			c-0.17,1.43-0.29,2.86-0.47,4.29c-0.37,3.02-0.71,6.04-1.16,9.05c-0.29,1.89-0.84,3.75-1.14,5.64c-0.49,3.11-0.86,6.24-1.3,9.35
			c-0.18,1.26-0.4,2.52-0.63,3.78c-0.63,3.4-1.27,6.81-1.9,10.21c-0.85,4.55-1.79,9.09-2.51,13.67c-0.62,3.95-0.99,7.94-1.45,11.91
			c-0.55,4.72-1.11,9.44-1.63,14.16c-0.48,4.4-0.92,8.81-1.38,13.21c-0.29,2.81-0.58,5.62-0.9,8.43c-0.36,3.17-0.72,6.35-1.14,9.52
			c-0.4,3.01-0.87,6-1.33,9c-0.35,2.31-0.87,4.61-1.08,6.93c-0.29,3.29-0.85,6.53-1.41,9.78c-0.34,1.99-0.35,4.03-0.58,6.03
			c-0.13,1.11-0.31,2.23-0.65,3.28c-0.55,1.67-0.41,3.24,0.24,4.83c0.16,0.38,0.26,0.79,0.45,1.41c0.82-1.5,1.17-2.98,1.42-4.43
			c0.52-2.99,0.94-6,1.26-9.02c0.42-4.08,1.41-8.06,2.07-12.1c0.32-1.94,0.42-3.92,0.66-5.88c0.2-1.58,0.43-3.16,0.71-4.72
			c0.57-3.19,1.27-6.37,1.76-9.57c0.74-4.84,1.2-9.73,2.09-14.54c0.33-1.8,0.11-3.6,0.48-5.36c0.8-3.8,0.91-7.69,1.6-11.49
			c0.67-3.72,1.08-7.48,1.92-11.17c0.46-2.01,0.44-4.12,0.82-6.15c0.58-3.07,0.52-6.24,1.59-9.22c0.09-0.25,0.22-0.51,0.21-0.77
			c-0.05-2.73,0.7-5.37,1.12-8.03c0.49-3.16,0.82-6.31,1.13-9.49c0.36-3.8,1.01-7.58,1.45-11.38c0.37-3.22,0.5-6.47,0.94-9.68
			c0.23-1.65,0.14-3.28,0.29-4.91c0.26-2.9,0.84-5.77,1.27-8.66c0.19-1.26,0.35-2.53,0.54-3.79c0.1-0.68,0.25-1.35,0.39-2.13
			c-0.72-0.39-0.71-1.08-0.58-1.88c0.59-3.57,1.15-7.15,1.67-10.73c0.28-1.95,0.43-3.92,0.66-5.87c0.05-0.41,0.18-0.8,0.29-1.3
			c0.51,0.09,0.9,0.15,1.38,0.24c-0.19-4.2-0.42-8.33-0.54-12.48c-0.04-1.46,0.18-2.93,0.3-4.54c0.77,0.26,0.86,0.71,0.83,1.18
			c-0.26,3.68,0.56,7.31,0.46,11c-0.1,3.62,0.06,7.25,0.24,10.87c0.17,3.41,0.39,6.83,0.79,10.22c1.07,8.87,1.34,17.77,1.09,26.69
			c-0.13,4.48-0.46,8.96-0.49,13.43c-0.04,5.44,0,10.9,0.27,16.33c0.27,5.51-0.05,10.98-0.19,16.47
			c-0.16,6.08-0.13,12.16-0.04,18.24c0.06,3.67,0.43,7.34,0.59,11.01c0.15,3.35,0.15,6.71,0.31,10.06
			c0.17,3.73,0.46,7.46,0.67,11.19c0.11,1.81,0.11,3.63,0.27,5.44c0.35,4.15,0.41,8.31,0.33,12.48c-0.03,1.76-0.1,3.52-0.03,5.28
			c0.06,1.59,0.34,3.18,0.4,4.77c0.07,1.8-0.01,3.6,0,5.4c0.01,2.39,0.06,4.79,0.08,7.18c0.01,0.85,0.1,1.72-0.04,2.56
			c-0.29,1.8,0.21,3.42,0.83,5.07c0.9,2.39,1.67,4.83,2.49,7.25c0.17,0.49,0.33,0.97,0.6,1.76c0.26-0.58,0.48-0.88,0.51-1.2
			c0.22-2.27,0.39-4.55,0.61-6.83c0.05-0.58,0.23-1.15,0.29-1.73c0.09-0.89,0.2-1.79,0.19-2.69c-0.03-1.92-0.15-3.83-0.23-5.75
			c-0.1-2.44-0.23-4.88-0.28-7.32c-0.07-3.46-0.07-6.91-0.12-10.37c-0.04-2.71-0.12-5.42-0.19-8.14c-0.05-1.97-0.06-3.94-0.14-5.91
			c-0.08-1.85-0.29-3.71-0.32-5.56c-0.04-2.13-0.37-4.24-0.42-6.34c-0.1-4.17-0.57-8.3-1-12.44c-0.44-4.28-0.79-8.57-1.09-12.86
			c-0.27-3.82-0.38-7.65-0.64-11.47c-0.29-4.34-0.7-8.68-1.17-13.01c-0.37-3.43-0.51-6.9-0.7-10.35c-0.07-1.17,0.06-2.34-0.01-3.51
			c-0.19-3.35-0.51-6.7-0.61-10.05c-0.08-2.61,0.11-5.22,0.18-7.83c0.01-0.32,0.08-0.65,0.02-0.95c-0.64-3.43,0.54-6.77,0.46-10.18
			c-0.04-1.58,0.04-3.16,0.04-4.75c0-1.9,0.08-3.81-0.07-5.7c-0.28-3.34-0.74-6.66-1.07-9.99c-0.14-1.43-0.2-2.86-0.23-4.3
			c-0.05-2.24-0.05-4.48-0.07-6.71c-0.03-3.95-0.1-7.89-0.08-11.84c0.01-1.76,0.18-3.52,0.29-5.28c0.15-2.45,0.32-4.89,0.45-7.34
			c0.04-0.75,0.49-0.84,1.14-0.86c0.34,0.66,0.5,1.29,0.29,2.09c-0.23,0.87-0.3,1.79-0.34,2.7c-0.17,4-0.3,8-0.45,11.99
			c-0.03,0.8-0.13,1.59-0.12,2.38c0.06,3.2,0.18,6.39,0.24,9.59c0.02,0.91-0.02,1.82-0.1,2.72c-0.25,2.7,0.5,5.3,0.8,7.94
			c0.13,1.16,0.35,2.31,0.46,3.47c0.41,4.24,0.43,8.5,0.29,12.75c-0.09,2.7-0.59,5.38-0.82,8.08c-0.09,1.05,0.05,2.12,0.1,3.17
			c0.03,0.58,0.17,1.16,0.1,1.73c-0.36,3.29-0.5,6.55-0.02,9.86c0.36,2.47,0.3,4.99,0.42,7.49c0.09,1.74,0.16,3.49,0.24,5.23
			c0.11,2.23,0.19,4.47,0.36,6.7c0.24,3.08,0.64,6.16,0.84,9.24c0.31,4.79,0.5,9.59,0.78,14.38c0.12,2.01,0.34,4.02,0.53,6.02
			c0.28,2.86,0.57,5.73,0.85,8.59c0.12,1.22,0.22,2.44,0.32,3.66c0.37,4.35,0.75,8.7,1.08,13.05c0.14,1.8,0.16,3.61,0.2,5.42
			c0.06,2.71,0.08,5.42,0.14,8.13c0.02,0.79,0.05,1.59,0.16,2.37c0.6,4.3,0.07,8.63,0.25,12.94c0.13,3.13,0.06,6.27,0.16,9.4
			c0.08,2.29,0.4,4.57,0.42,6.85c0.02,1.91-0.2,3.82-0.39,5.72c-0.38,3.92-1.11,7.81-0.85,11.78
			C234.25,429.64,234.28,430.5,233.3,431.47z"/>
		<path d="M229.74,215.11c0.22,0.4,0.57,0.77,0.65,1.19c0.38,2.03,0.82,4.06,0.97,6.11c0.14,1.82,0.42,3.57,1.07,5.27
			c0.09,0.24,0.14,0.53,0.13,0.79c-0.02,1.34,0.11,2.62,0.53,3.92c0.26,0.81-0.05,1.79,0.03,2.68c0.22,2.4,0.43,4.82,0.82,7.2
			c0.28,1.77,0.83,3.5,1.27,5.24c0.09,0.36,0.29,0.69,0.36,1.06c0.45,2.24,0.89,4.48,1.33,6.73c0.42,2.14,0.81,4.29,1.24,6.43
			c0.6,2.97,1.18,5.94,1.84,8.9c0.45,2.01,1.05,3.99,1.56,5.99c0.18,0.72,0.25,1.47,0.45,2.19c0.31,1.11,0.76,2.19,1.03,3.31
			c0.71,2.95,1.41,5.91,2,8.89c1,5.06,1.94,10.14,2.84,15.22c0.31,1.78,0.54,3.58,0.61,5.39c0.08,1.89,1.23,3.6,0.86,5.55
			c0.94,1.13,0.63,2.57,0.98,3.85c0.35,1.28,1.03,2.55,1.05,3.83c0.04,2.13,0.81,4.14,0.67,6.3c-0.07,1.17,0.51,2.37,0.74,3.57
			c0.16,0.82,0.23,1.67,0.37,2.5c0.1,0.57,0.24,1.14,0.37,1.71c0.11-0.01,0.21-0.02,0.32-0.03c0.05-0.23,0.15-0.46,0.13-0.69
			c-0.18-1.96-0.43-3.91-0.58-5.86c-0.24-3.33-0.38-6.67-0.65-9.99c-0.21-2.55-0.55-5.09-0.84-7.63c-0.07-0.63-0.15-1.27-0.24-1.9
			c-0.21-1.47-0.41-2.94-0.66-4.41c-0.54-3.3-1.13-6.6-1.66-9.91c-0.59-3.63-1.23-7.25-1.67-10.9c-0.59-4.91-1.5-9.75-2.72-14.55
			c-1.16-4.54-2.09-9.13-3.17-13.69c-0.62-2.59-1.35-5.16-2.02-7.74c-1.05-4.01-2.1-8.03-3.11-12.05c-0.19-0.76-0.17-1.57-0.26-2.36
			c-0.02-0.16-0.01-0.32-0.06-0.47c-1.59-4.48-2.44-9.13-3.37-13.77c-0.31-1.56-0.86-3.07-1.2-4.62c-0.25-1.13-0.36-2.29-0.5-3.44
			c-0.02-0.17,0.15-0.37,0.32-0.75c0.24,0.46,0.47,0.75,0.55,1.08c0.9,3.61,1.78,7.23,2.66,10.85c1.62,6.74,3.22,13.48,4.86,20.21
			c0.84,3.47,1.59,6.97,2.67,10.36c1.38,4.34,1.98,8.85,3.13,13.23c1.35,5.15,2.5,10.35,3.22,15.63c0.52,3.8,1.01,7.61,1.59,11.41
			c0.39,2.58,0.91,5.14,1.35,7.72c0.08,0.5,0.03,1.03,0.02,1.54c0,0.09-0.11,0.21-0.08,0.26c1.38,2.36,1.18,5.04,1.5,7.59
			c0.5,3.91,0.93,7.82,1.29,11.75c0.2,2.17,0.15,4.36,0.27,6.54c0.05,0.96,0.29,1.9,0.37,2.86c0.22,2.76,0.35,5.53,0.62,8.29
			c0.2,2.12,0.56,4.23,0.85,6.34c0.39,2.9,0.79,5.8,1.16,8.71c0.29,2.32,0.56,4.65,0.77,6.98c0.21,2.26,0.29,4.53,0.51,6.78
			c0.41,4.18,0.85,8.37,1.34,12.54c0.52,4.43,1.18,8.85,1.65,13.29c0.25,2.36,0.22,4.76,0.26,7.13c0,0.34-0.28,0.88-0.56,0.98
			c-0.44,0.16-0.91-0.06-1.12-0.61c-0.29-0.74-0.62-1.46-0.97-2.17c-0.65-1.33-1.23-2.7-2-3.95c-0.85-1.37-1.03-2.83-1.11-4.38
			c-0.13-2.43-0.13-4.86-0.54-7.29c-0.49-2.88-0.9-5.79-0.99-8.7c-0.05-1.54-0.4-3.02-0.41-4.55c-0.01-1.55-0.15-3.09-0.14-4.64
			c0.01-1.05,0.26-2.11,0.25-3.16c-0.02-2.82-0.1-5.64-0.21-8.46c-0.09-2.28-0.25-4.56-0.38-6.84c-0.01-0.16,0.11-0.35,0.06-0.47
			c-0.95-2.17-0.56-4.56-1.15-6.79c-0.19-0.71-0.27-1.47-0.26-2.2c0.02-1.62-0.64-3.13-0.73-4.7c-0.11-1.82-0.72-3.52-1-5.29
			c-0.23-1.46-0.27-2.95-0.52-4.41c-0.37-2.2-0.83-4.38-1.3-6.56c-0.56-2.6-1.26-5.18-1.74-7.8c-0.42-2.29-0.57-4.63-0.91-6.94
			c-0.41-2.79-0.89-5.56-1.35-8.35c-0.15-0.94-0.27-1.9-0.48-2.83c-0.71-3.16-1.41-6.33-2.2-9.48c-1.21-4.85-2.52-9.67-3.73-14.53
			c-0.4-1.6-0.6-3.24-0.92-4.86c-0.29-1.49-0.62-2.96-0.89-4.45c-0.52-2.88-0.91-5.78-1.54-8.63c-0.57-2.59-1.48-5.1-2.06-7.68
			c-0.85-3.79-1.51-7.63-1.64-11.53c-0.04-1.11-0.17-2.16-0.48-3.25c-0.34-1.21-0.25-2.54-0.44-3.8c-0.38-2.52-0.8-5.04-1.24-7.55
			c-0.14-0.78-0.42-1.54-0.59-2.32C228.68,216.31,228.68,215.57,229.74,215.11z M260.44,401.03c-0.1-2.16-0.08-4.11-0.3-6.04
			c-0.58-5.07-1.25-10.14-1.89-15.2c-0.54-4.33-0.95-8.67-1.17-13.03c-0.18-3.4-0.66-6.79-1.02-10.18
			c-0.07-0.62-0.26-1.23-0.39-1.84c-0.15,1.91-0.05,3.78,0.03,5.66c0.08,1.86,0.19,3.72,0.19,5.58c0,2.71-0.22,5.43-0.09,8.14
			c0.14,3.07,0.55,6.13,0.86,9.2c0.43,4.23,0.87,8.46,1.3,12.7C258.13,397.89,258.77,399.56,260.44,401.03z"/>
		<path d="M388.12,304.3c-0.63-0.21-1.15-0.45-1.71-0.56c-0.83-0.17-1.68-0.25-2.53-0.37c-2.32-0.32-4.65-0.57-6.95-0.97
			c-1.82-0.32-3.63-0.78-5.41-1.3c-1.06-0.31-2.08-0.81-3.06-1.32c-0.32-0.16-0.73-0.71-0.65-0.94c0.15-0.45,0.56-0.85,0.96-1.15
			c0.21-0.16,0.63-0.1,0.94-0.05c2.3,0.35,4.64,0.23,6.94,0.76c1.06,0.24,2.22,0.04,3.51,0.04c-0.25-0.26-0.41-0.5-0.63-0.64
			c-1.81-1.1-3.35-2.64-5.41-3.32c-0.81-0.27-1.6-0.59-2.43-0.79c-2.94-0.69-5.59-2.01-8.04-3.73c-0.43-0.3-0.74-0.88-0.93-1.4
			c-0.62-1.72-1.08-3.49-0.57-5.33c0.17-0.61,0.58-1.16,0.87-1.72c3.36,0.91,5.91,2.86,8.67,4.41c2.27,1.27,4.58,2.46,6.87,3.68
			c0.17,0.09,0.37,0.12,0.66,0.01c-0.58-0.51-1.14-1.04-1.74-1.51c-1.12-0.89-2.33-1.67-3.4-2.62c-2.19-1.96-4.9-2.97-7.42-4.32
			c-0.97-0.52-1.83-1.24-2.72-1.9c-0.21-0.15-0.45-0.4-0.47-0.62c-0.08-0.77-0.29-1.62-0.05-2.3c0.3-0.83,1.2-0.7,1.96-0.54
			c0.46,0.09,0.93,0.14,1.4,0.18c2.18,0.17,3.54,1.6,4.75,3.18c1.67,2.19,3.74,3.93,5.97,5.48c2.4,1.66,4.92,3.14,7.39,4.69
			c0.18,0.11,0.39,0.15,0.75,0.28c-0.13-1.05-0.56-1.88-1.03-2.66c-1.26-2.1-2.62-4.1-4.45-5.8c-1.67-1.55-3.13-3.35-4.6-5.11
			c-0.68-0.82-1.13-1.81-1.14-2.93c0-1.16,0.46-1.64,1.57-1.33c0.79,0.22,1.68,0.57,2.22,1.15c1.99,2.14,4.07,4.19,5.65,6.72
			c1.69,2.7,3.71,5.19,6.16,7.29c0.39,0.34,0.83,0.62,1.45,0.8c-0.16-0.43-0.3-0.87-0.49-1.28c-1.98-4.27-4.39-8.29-6.94-12.24
			c-0.8-1.25-1.58-2.54-2.18-3.89c-0.56-1.26,0-1.73,1.39-1.82c3.13-0.19,4.6,1.95,5.9,4.17c1.26,2.16,2.18,4.51,3.35,6.72
			c0.74,1.4,1.66,2.72,2.53,4.05c0.81,1.25,1.61,2.51,2.51,3.7c1.77,2.33,3.54,4.65,5.68,6.69c1.85,1.77,3.84,3.35,5.84,4.93
			c0.83,0.66,1.06,1.59,0.62,2.53c-0.1,0.21-0.47,0.29-0.74,0.44c-0.36-1.38-0.39-1.35-1.59-2.33c-2.13-1.74-4.27-3.48-6.3-5.33
			c-1.01-0.92-1.77-2.12-2.66-3.18c-0.47-0.57-1.15-1.03-1.44-1.68c-1.08-2.4-2.96-4.26-4.24-6.5c-1.53-2.67-2.77-5.5-4.22-8.22
			c-0.6-1.12-1.32-2.2-2.16-3.15c-0.6-0.67-1.41-1.33-2.66-0.78c0.45,0.95,0.74,1.97,1.32,2.76c2.78,3.76,4.92,7.91,7.14,12
			c0.8,1.48,1.5,3.07,1.44,4.84c-0.01,0.29-0.1,0.59-0.17,0.96c-1.43-0.28-2.32-1.25-3.25-2.05c-2.56-2.19-4.81-4.7-6.66-7.52
			c-1.53-2.33-3.21-4.51-5.19-6.46c-0.55-0.54-1.18-0.98-2-1.66c-0.05,1.39,0.67,1.98,1.27,2.6c3.54,3.62,7.09,7.24,9.35,11.86
			c0.54,1.1,1.18,2.26,0.88,3.69c-2.16,0-3.92-0.88-5.75-1.84c0.1,0.14,0.17,0.32,0.3,0.4c1.28,0.79,2.06,1.84,1.86,3.53
			c-1.2,0.05-2.2-0.71-3.29-1.15c-1.08-0.44-2.13-0.97-3.16-1.53c-2.84-1.56-5.67-3.14-8.5-4.73c-1.39-0.78-2.76-1.61-4.16-2.37
			c-0.45-0.24-0.97-0.34-1.45-0.5c-0.93,2.16-0.05,4.81,1.74,5.94c1.99,1.26,3.99,2.42,6.29,3.03c1.43,0.38,2.9,0.77,4.22,1.42
			c1.7,0.84,3.29,1.92,4.9,2.94c0.96,0.61,1.01,1.68,1.16,2.67c-0.68,0.65-1.39,0.89-2.34,0.74c-2.14-0.35-4.3-0.57-6.46-0.83
			c-0.53-0.06-1.08-0.05-1.61-0.08c-0.01,0.13-0.03,0.25-0.04,0.38c0.99,0.25,1.98,0.53,2.98,0.74c2.14,0.46,4.28,0.93,6.43,1.32
			c1.76,0.31,3.54,0.49,5.32,0.74c1.41,0.2,2.93,0.18,3.72,1.68c0.13,0,0.25,0.04,0.33-0.01c2.48-1.32,4.72-0.21,6.77,0.94
			c2.44,1.37,4.79,2.89,7.29,4.17c1.17,0.61,2.24,1.41,3.4,2.06c0.59,0.33,1.25,0.54,1.89,0.72c1.04,0.3,1.49,0.93,1.24,2.22
			c-0.35-0.05-0.78,0.01-1.09-0.16c-2.33-1.26-4.64-2.54-6.95-3.85c-1.9-1.08-3.84-2.1-5.64-3.33c-1.32-0.9-2.71-1.48-4.25-1.72
			c-0.82-0.13-1.67-0.21-2.5-0.15c-0.36,0.02-0.84,0.35-1.01,0.67c-1.13,2.17-3.03,3.68-4.78,5.22c-1.82,1.6-3.93,2.92-6.56,2.87
			c-0.36-0.01-0.71,0.19-1.07,0.22c-3.83,0.28-7.33-0.6-10.46-2.92c-1.71-1.27-3.51-2.43-5.28-3.61c-1.18-0.79-1.37-1.2-0.91-2.49
			c2.32,1.61,4.67,3.15,6.91,4.82c1.39,1.04,2.83,1.77,4.57,2.09c1.96,0.37,3.88,0.66,5.87,0.39c2.55-0.34,4.84-1.18,6.55-3.24
			c0.4-0.49,0.94-0.87,1.42-1.29C387.1,306.53,387.22,306.38,388.12,304.3z M365.04,277.4c-0.36,0.72,0.06,1.15,0.5,1.39
			c1.97,1.09,3.97,2.12,5.96,3.17c0.07-0.09,0.15-0.18,0.22-0.28c-0.65-0.8-1.31-1.59-1.93-2.4
			C368.56,277.69,366.92,277.25,365.04,277.4z"/>
		<path d="M387.74,390.66c-0.09,1.22-0.18,2.1-0.21,2.98c-0.13,4.37-0.09,8.74,0.99,13.02c0.15,0.61,0.45,1.18,0.61,1.79
			c0.9,3.56,1.84,7.12,2.65,10.7c0.33,1.45-0.19,2.84-0.91,4.14c-1.2,0.01-1.83-0.77-2.38-1.61c-0.35-0.53-0.63-1.12-0.88-1.7
			c-1.15-2.69-2.27-5.4-3.43-8.1c-0.31-0.72-0.72-1.41-1.08-2.11c-0.11,0.04-0.21,0.07-0.32,0.11c0.78,3.22,1.51,6.46,2.37,9.66
			c0.45,1.69,1.18,3.3,1.67,4.99c0.23,0.8,0.13,1.69,0.29,2.51c0.67,3.5,1.38,6.99,2.05,10.49c0.1,0.5,0.25,1.07-0.56,1.38
			c-0.8-0.81-1.09-1.86-1.28-2.95c-0.54-3.09-0.94-6.2-1.65-9.25c-0.87-3.73-2.08-7.38-2.99-11.1c-0.59-2.37-0.92-4.81-1.34-7.22
			c-0.12-0.71-0.21-1.44-0.19-2.16c0.01-0.4,0.29-0.79,0.51-1.32c1.23,1.1,2.14,2.05,2.62,3.43c0.62,1.8,1.41,3.55,2.13,5.32
			c0.72,1.77,1.43,3.55,2.2,5.3c0.36,0.82,0.83,1.58,1.32,2.48c0.67-0.74,0.82-1.52,0.67-2.2c-0.72-3.17-1.32-6.39-2.38-9.46
			c-1.04-3-1.68-6.02-1.97-9.15c-0.39-4.15-0.05-8.27,0.5-12.38c0.04-0.27,0.27-0.51,0.41-0.76c0.29,0.18,0.69,0.29,0.84,0.55
			c1.13,1.88,2.03,3.87,2.43,6.03c0.68,3.61,1.25,7.24,1.91,10.86c0.22,1.2,0.58,2.38,0.88,3.57c0.81,3.19,1.61,6.39,2.44,9.58
			c0.16,0.63,0.49,1.21,0.74,1.81c0.12-0.02,0.24-0.03,0.35-0.05c0.24-0.95,0.66-1.9,0.7-2.85c0.13-3.08,0.43-6.15,0.33-9.26
			c-0.12-3.79-0.8-7.51-1.04-11.28c-0.1-1.55,0.12-3.12,0.19-4.64c2.44-0.33,2.82-0.15,3.86,1.67c1.56,2.75,2.43,5.69,2.29,8.86
			c-0.14,3.19-0.45,6.38-0.64,9.57c-0.17,2.81-0.28,5.62-0.43,8.55c0.31-0.15,0.47-0.18,0.48-0.24c0.38-1.96,0.75-3.93,1.12-5.89
			c0.49-2.55,0.96-5.1,1.47-7.65c0.24-1.2,0.52-2.39,0.81-3.58c0.11-0.46,0.28-0.92,0.51-1.34c0.53-0.99,1.38-1.08,1.95-0.09
			c0.55,0.96,1.03,2.02,1.25,3.1c0.61,2.97,0.28,5.95-0.42,8.86c-1.28,5.34-2.71,10.65-4.06,15.97c-0.12,0.45-0.15,0.93-0.26,1.66
			c0.52-0.28,0.86-0.38,1.09-0.6c2.04-1.97,3.85-4.12,5.2-6.63c0.3-0.56,0.65-1.12,1.09-1.57c0.88-0.9,1.88-0.63,2.35,0.53
			c0.51,1.24,0.18,2.46-0.2,3.61c-0.85,2.52-2.12,4.81-3.65,7.02c-1.38,1.99-2.32,4.28-3.46,6.44c-0.39,0.75-0.78,1.5-1.15,2.22
			c-1.35-0.28-1.5-0.47-0.99-1.37c2.11-3.76,4.21-7.53,6.37-11.26c1.08-1.86,1.81-4,1.77-6.04c-0.86,1.29-1.55,2.45-2.36,3.51
			c-1.09,1.43-2.23,2.84-3.45,4.17c-0.6,0.66-1.41,1.12-2.14,1.65c-0.53,0.39-1.11,0.42-1.65,0.07c-0.56-0.36-0.65-0.92-0.51-1.55
			c0.57-2.43,1.08-4.89,1.74-7.3c0.66-2.41,1.61-4.75,2.19-7.17c0.77-3.22,1.37-6.48,1.42-9.81c0.02-1.37-0.13-2.72-0.84-4.13
			c-0.2,0.32-0.37,0.48-0.41,0.66c-0.58,2.54-1.2,5.07-1.7,7.62c-0.71,3.59-1.33,7.21-1.99,10.81c-0.06,0.31-0.1,0.66-0.27,0.91
			c-0.24,0.37-0.58,0.67-0.88,0.99c-0.25-0.3-0.57-0.56-0.73-0.9c-0.76-1.58-0.95-3.27-0.84-4.99c0.25-3.83,0.55-7.66,0.85-11.49
			c0.25-3.25,0.51-6.5-0.59-9.65c-0.38-1.09-0.88-2.14-1.44-3.15c-0.19-0.34-0.71-0.5-1.31-0.9c-0.25,2.15-0.25,3.98-0.05,5.81
			c0.48,4.45,0.92,8.9,0.79,13.38c-0.05,1.92-0.13,3.85-0.39,5.74c-0.14,1.02-0.58,2.05-1.08,2.97c-0.56,1.03-1.28,1.06-1.97,0.13
			c-0.43-0.58-0.8-1.27-0.96-1.97c-0.51-2.17-0.83-4.39-1.37-6.56c-0.41-1.65-1.2-3.21-1.56-4.86c-0.63-2.91-1.1-5.86-1.56-8.81
			c-0.4-2.54-0.74-5.09-1.9-7.43C388.2,391.24,388.07,391.11,387.74,390.66z"/>
		<path d="M396.99,482.82c-0.88,1.37-1.84,2.7-2.62,4.13c-0.95,1.73,0.31,3.93,2.25,3.83c2.61-0.12,5.15-0.64,7.55-1.76
			c0.96-0.45,1.97-0.8,2.94-1.23c1.17-0.51,2.38-0.96,2.94-2.28c1.04-2.44,0.52-4.36-1.75-5.97c-1.25-0.88-2.41-1.93-3.97-2.31
			c-0.27-0.07-0.46-0.48-0.69-0.75c0.66-0.77,1.33-0.9,2.06-0.45c1.36,0.83,2.72,1.66,4.04,2.54c1.79,1.18,2.93,5.06,1.9,7.11
			c-0.12,0.23-0.16,0.5-0.31,0.96c1.51-0.12,2.92-0.22,4.31-0.35c2.11-0.2,4.22-0.42,6.34-0.62c0.48-0.05,0.96-0.02,1.44-0.06
			c0.98-0.07,1.81-0.37,2.49-1.18c1.17-1.39,2.43-2.69,3.65-4.03c1.38-1.52,2.94-2.77,4.85-3.57c0.49-0.21,0.95-0.48,1.41-0.76
			c1.25-0.76,2.59-0.92,3.99-0.58c0.57,0.14,1.13,0.32,1.71,0.44c1.77,0.38,3.46,0.21,4.96-0.66c-0.93-0.98-1.88-1.93-2.76-2.93
			c-2.28-2.59-5.22-4.12-8.39-5.26c-1.6-0.58-3.26-0.99-4.88-1.52c-1.04-0.34-2.08-0.73-3.08-1.18c-0.98-0.44-1.82-2.15-1.4-3.29
			c1.11-3.04,0.39-5.96-0.24-8.94c-0.48-2.25-1.14-4.42-2.07-6.52c-0.17-0.38-0.26-0.8-0.38-1.21c0.71-0.53,1.17-0.27,1.44,0.36
			c0.52,1.22,1.12,2.44,1.44,3.72c0.68,2.73,1.22,5.5,1.76,8.27c0.1,0.49-0.05,1.04-0.12,1.56c-0.13,1.06-0.32,2.1-0.42,3.16
			c-0.07,0.75,0.28,1.41,0.96,1.7c1.99,0.86,3.92,1.81,6.11,2.24c1.69,0.33,3.35,1.07,4.9,1.86c1.51,0.77,2.89,1.8,4.26,2.81
			c0.63,0.46,1.16,1.09,1.67,1.7c1.08,1.31,2.13,2.59,4.12,1.9c0.12-0.04,0.34,0.01,0.42,0.1c1.04,1.07,2.18,0.72,3.37,0.3
			c1.72-0.6,5.75-0.71,8.2-0.24c0.12,0.63,0.24,1.32,0.41,2.25c-2.77-1.54-5.37-1.15-7.96-0.52c-1.43,0.35-2.86,0.27-4.29,0.16
			c-0.72-0.05-1.26,0.04-1.87,0.57c-2.13,1.86-4.59,1.67-7.09,0.88c-1.01-0.32-2.02-0.86-3.08-0.24c-2.14,1.25-4.6,1.94-6.39,3.77
			c-1.32,1.35-2.66,2.7-3.91,4.11c-0.46,0.52-1.16,1.17-0.16,1.9c-0.27,0.25-0.42,0.5-0.58,0.5c-1.38,0.07-2.01,0.99-2.54,2.1
			c-0.83,1.72-1.73,3.42-2.62,5.11c-0.21,0.4-0.5,0.76-0.77,1.16c-1.01-0.67-0.68-1.43-0.38-2.07c0.86-1.82,1.8-3.59,2.81-5.58
			c-1.38,0-2.67-0.03-3.96,0.01c-1.97,0.06-3.93,0.14-5.89,0.28c-2.68,0.19-5.2,0.92-7.63,2.14c-1.49,0.75-3.19,1.13-4.83,1.54
			c-1.22,0.31-2.49,0.44-3.75,0.57c-0.85,0.09-1.64,0-2.25-0.84c-0.48-0.66-1.34-1.07-1.77-1.75c-0.97-1.52-0.29-2.99,0.55-4.3
			c1.31-2.07,2.86-4,4.04-6.14c0.83-1.5,1.23-3.24,1.77-4.88c0.17-0.5,0.13-1.07,0.29-1.57c0.1-0.31,0.4-0.77,0.62-0.78
			c0.89-0.03,1.01-0.62,1.13-1.27c0.06-0.31,0.23-0.62,0.22-0.93c-0.08-2.98-0.18-5.95-0.29-8.93c-0.01-0.16-0.09-0.31-0.1-0.47
			c-0.04-4.41-0.73-8.84,0.11-13.22c0.42-2.18,1.2-4.29,1.86-6.42c0.08-0.25,0.43-0.41,0.64-0.59c1.05,0.84,1.04,1.87,0.46,2.77
			c-1.68,2.61-1.61,5.57-1.88,8.47c-0.16,1.72-0.11,3.42,0.2,5.14c0.22,1.25,0.08,2.55,0.17,3.83c0.09,1.22,0.32,2.43,0.39,3.65
			c0.06,1.22-0.02,2.45-0.01,3.68c0.01,1.87-0.17,3.63-1.17,5.35c-0.72,1.24-0.72,2.86-1.22,4.25c-0.9,2.51-1.85,5-2.3,7.64
			c-0.19,1.1-0.38,2.2-0.6,3.29c-0.08,0.41-0.19,0.86-0.43,1.19c-0.18,0.25-0.62,0.5-0.86,0.44c-0.25-0.07-0.58-0.54-0.55-0.79
			c0.12-1,0.34-1.99,0.57-2.97c0.27-1.17,0.59-2.32,0.89-3.49C397.22,482.87,397.1,482.85,396.99,482.82z"/>
		<path d="M251.49,174.84c-1.2,0.04-1.39-0.11-1.4-0.97c-0.03-2.5-0.07-5-0.1-7.5c-0.02-2.51,0.01-5.02-0.06-7.52
			c-0.06-2.4-0.3-4.76-1.64-6.88c-0.43-0.68-0.81-1.07-1.71-1.16c-1.29-0.13-2.54-0.17-3.8,0.16c-0.05,0.01-0.1,0.05-0.15,0.05
			c-5.48,0.03-10.85,1.66-16.39,1.05c-1.23-0.14-2.49-0.13-3.74-0.31c-0.74-0.11-1.73-0.06-2.28,0.36
			c-2.22,1.67-4.37,3.44-4.81,6.47c-0.24,1.67-0.61,3.29-0.26,5.03c0.17,0.87-0.29,1.87-0.43,2.81c-0.16,1.04-0.32,2.09-0.4,3.14
			c-0.21,2.75-0.38,5.51-0.57,8.26c-0.05,0.69-0.13,1.38-0.16,2.07c-0.2,5-0.44,10-0.55,15.01c-0.03,1.13,0.36,2.28,0.67,3.39
			c0.09,0.33,0.55,0.6,0.89,0.81c0.96,0.61,1,1.15,0.01,2.15c-0.84-0.78-1.76-1.49-2.51-2.36c-1.44-1.64-2.76-3.39-4.17-5.06
			c-0.54-0.64-1.17-1.22-1.79-1.8c-1.03-0.96-1.46-2.2-1.74-3.53c-0.27-1.3-0.65-2.58-0.88-3.89c-0.21-1.2-0.33-2.42-0.41-3.64
			c-0.12-1.8-0.16-3.61-0.24-5.41c-0.1-2.02-0.18-4.05-0.32-6.07c-0.16-2.34-0.44-4.67-0.53-7.01c-0.14-3.77-0.17-7.54-0.22-11.32
			c0-0.36,0.19-0.71,0.26-1.07c0.25-1.3,0.68-2.61,0.7-3.92c0.04-2.68,1.59-4.19,3.73-5.27c2.57-1.29,5.35-1.61,8.2-1.45
			c0.05,0,0.1,0.03,0.16,0.03c2.71-0.07,5.42-0.1,8.13-0.22c2.13-0.09,4.25-0.39,6.38-0.41c2.84-0.02,5.59,0.53,8.23,1.63
			c2.25,0.93,3.81,2.71,5.51,4.31c0.89,0.83,1.58,1.86,2.41,2.76c0.74,0.81,1.49,1.57,2.5,2.16c1.41,0.81,2.1,2.38,2.6,3.9
			c0.68,2.05,0.63,4.21,0.65,6.34c0.03,3.2-0.01,6.41,0.02,9.61c0.01,1.06,0.17,2.11,0.22,3.17
			C251.52,173.47,251.49,174.16,251.49,174.84z M244.69,149.03c-0.42-0.58-0.73-1.16-1.17-1.58c-1.69-1.61-3.33-3.3-5.18-4.71
			c-1.06-0.81-2.44-1.26-3.74-1.67c-1.11-0.35-2.3-0.43-3.47-0.58c-0.68-0.09-1.39-0.21-2.07-0.13c-5.09,0.57-10.2,0.67-15.32,0.61
			c-2.22-0.02-4.34,0.38-6.35,1.25c-1.73,0.75-2.87,2.08-3.19,4.03c-0.27,1.62-0.64,3.22-0.95,4.84c-0.05,0.25,0,0.53,0,0.79
			c-0.05,2.64-0.65,5.31,0.33,7.91c0.02,0.05,0,0.11-0.01,0.16c-0.71,4.49,0.84,8.9,0.5,13.37c0.73,2.59,0.43,5.24,0.46,7.87
			c0.01,0.88,0.13,1.77,0.29,2.64c0.13,0.73,0.47,1.42,0.56,2.15c0.15,1.29,0.43,2.53,1.15,3.61c0.58,0.88,1.22,1.73,1.9,2.54
			c0.98,1.15,2.02,2.25,3.03,3.36c0.3-1.02,0.27-1.9,0.31-2.79c0.09-2.39,0.22-4.79,0.31-7.18c0.07-1.86,0.05-3.73,0.16-5.59
			c0.14-2.45,0.38-4.89,0.54-7.34c0.11-1.58,0.14-3.17,0.24-4.75c0.03-0.53,0.16-1.05,0.22-1.58c0.15-1.27,0.38-2.53,0.42-3.8
			c0.08-2.02,0.22-4.02,0.81-5.97c0.36-1.2,0.87-2.27,1.94-3.03c0.82-0.58,1.64-1.22,2.29-1.99c0.8-0.95,1.79-1.1,2.87-1.04
			c1.28,0.06,2.55,0.31,3.82,0.32c4.2,0.06,8.4,0.09,12.52-0.95c0.2-0.05,0.41-0.04,0.62-0.06
			C240.53,149.55,242.56,149.99,244.69,149.03z"/>
		<path d="M236.14,211.88c-0.21,0.53-0.32,0.81-0.51,1.28c-0.63-0.31-1.27-0.55-1.82-0.91c-1.72-1.13-3.39-2.35-5.12-3.46
			c-2.22-1.42-4.1-3.2-5.7-5.26c-0.76-0.98-1.41-2.11-1.43-3.47c-0.02-1.54-0.27-3.09-0.19-4.63c0.1-2.03,0.26-4.08,0.7-6.05
			c0.43-1.96,1.16-3.87,1.87-5.75c0.68-1.78,1.45-3.53,2.3-5.23c0.49-0.98,1.22-1.85,1.87-2.75c0.12-0.17,0.33-0.39,0.49-0.38
			c0.97,0.09,1.56-0.63,2.28-1.05c2.38-1.39,4.93-2.08,7.69-2.1c1.59-0.02,3.17-0.28,4.76-0.42c1.52-0.13,2.7,0.29,3.79,1.53
			c2.02,2.31,3.89,4.77,6.43,6.6c1.26,0.91,1.76,2.35,1.81,3.93c0.01,0.4,0.08,0.89,0.32,1.16c1.62,1.83,2.15,4.07,2.2,6.38
			c0.07,3.41,0.05,6.86-0.8,10.19c-0.39,1.53-1.15,2.96-1.75,4.43c-0.2,0.49-0.42,0.98-0.64,1.47c-0.66,1.49-1.5,2.82-2.93,3.71
			c-0.99,0.62-1.96,1.29-2.95,1.91c-0.31,0.19-0.7,0.41-1.03,0.39c-2.25-0.15-4.42,0.76-6.67,0.42c-0.47-0.07-0.96-0.04-1.44,0
			c-0.75,0.07-1.33-0.19-1.86-0.71C237.36,212.68,236.8,212.36,236.14,211.88z M232.86,209.76c-0.77-2.09-1.37-3.96-2.14-5.75
			c-1.07-2.48-1.19-5.09-1.16-7.69c0.04-3.16,0.88-6.21,1.75-9.24c0.66-2.32,1.86-4.31,3.92-5.65c1.11-0.72,2.29-1.36,3.47-1.97
			c3.02-1.56,6.14-2.07,9.38-0.67c1.05,0.45,2.08,0.95,3.06,1.41c-1.73-2.04-3.46-4.11-5.23-6.14c-0.29-0.33-0.74-0.63-1.17-0.71
			c-0.82-0.17-1.68-0.29-2.51-0.22c-1.9,0.16-3.79,0.4-5.67,0.69c-3.28,0.51-6.16,1.93-8.14,4.6c-1.38,1.86-2.57,3.95-3.38,6.12
			c-1.28,3.43-2.03,7.03-2.29,10.71c-0.19,2.74-0.02,5.31,1.73,7.7c0.93,1.27,1.92,2.33,3.18,3.21
			C229.29,207.29,230.94,208.43,232.86,209.76z M235.4,210.75c0.89,0.22,1.67,0.28,2.31,0.6c2.31,1.15,4.68,1.29,7.15,0.74
			c0.41-0.09,0.84-0.24,1.25-0.23c2.75,0.05,4.7-1.64,6.11-3.53c1.49-2,2.53-4.47,3.28-6.88c1.2-3.85,1.22-7.87,0.73-11.86
			c-0.15-1.23-0.7-2.32-1.46-3.33c-1.46-1.94-3.35-3.43-5.18-4.95c-1.98-1.64-4.42-1.99-6.9-1.59c-2.69,0.43-4.93,1.93-7.06,3.51
			c-0.86,0.64-1.68,1.59-2.07,2.58c-0.88,2.22-1.66,4.5-2.13,6.83c-0.67,3.24-0.91,6.56,0.26,9.77
			C232.73,205.29,233.27,208.41,235.4,210.75z M251.82,180.67c0.23,0.98,1,1.19,1.54,1.59C253.27,181.47,252.79,181,251.82,180.67z"
			/>
		<path d="M423.49,344.61c-0.43-0.47-0.99-1.09-1.56-1.71c-0.22-0.23-0.51-0.42-0.67-0.68c-1.74-2.85-3.19-5.8-2.86-9.29
			c0.15-1.59,0.32-3.18,0.48-4.77c0.44-4.5,0.26-8.95-1.13-13.31c-0.43-1.36-0.62-2.81-0.92-4.21c-0.68-3.15-1.93-6.1-3.34-8.98
			c-0.84-1.72-1.63-3.46-2.49-5.17c-0.48-0.95-0.96-1.93-1.64-2.73c-1.7-2.04-2.74-4.42-3.81-6.81c-0.33-0.74-0.1-1.27,0.02-2.01
			c0.91,0.33,1.07,1.06,1.38,1.63c0.84,1.6,1.6,3.25,2.46,4.84c0.37,0.69,1.02,1.22,1.39,1.91c1.19,2.19,2.41,4.38,3.45,6.64
			c1.15,2.51,2.55,4.93,3.19,7.66c0.28,1.19,0.62,2.37,0.91,3.57c0.25,1.04,0.39,2.1,0.68,3.13c1.39,4.94,1.77,9.94,1.03,15.03
			c-0.19,1.32-0.29,2.66-0.33,3.99c-0.1,3.02,1.09,5.61,2.9,7.92c0.88,1.12,1.91,2.12,2.88,3.18c-0.32,0.94-0.58,1.74-0.87,2.54
			c-1.08,2.97-1.85,6.03-1.99,9.18c-0.26,5.67,0.33,11.27,1.65,16.81c0.43,1.81,0.49,3.71,0.87,5.53c0.33,1.61,0.88,3.17,1.32,4.76
			c0.25,0.92,0.45,1.86,0.72,2.79c0.83,2.9,1.68,5.79,2.53,8.68c0.36,1.22,0.89,6.48,0.76,8.07c-0.44,0.12-0.93,0.26-1.59,0.44
			c0-0.89,0.02-1.66-0.01-2.42c-0.02-0.74-0.08-1.49-0.15-2.23c-0.08-0.85-0.08-1.72-0.3-2.53c-0.5-1.85-1.14-3.65-1.66-5.5
			c-0.35-1.28-0.55-2.6-0.87-3.88c-0.7-2.77-1.55-5.51-2.15-8.3c-0.64-3.03-1.11-6.09-1.56-9.16c-0.41-2.79-0.8-5.59-1.03-8.4
			c-0.29-3.57-0.29-7.13,0.85-10.61C422.62,348.45,422.98,346.64,423.49,344.61z"/>
		<path d="M274.22,268.92c0.57-0.31,0.78-0.03,0.86,0.39c0.17,0.89,0.37,1.78,0.43,2.69c0.22,3.03,0.52,6.06,0.55,9.09
			c0.04,3.57-0.13,7.14-0.28,10.71c-0.14,3.35-0.34,6.7-0.56,10.04c-0.22,3.24-0.53,6.47-0.76,9.71
			c-0.39,5.62-0.76,11.24-1.13,16.86c-0.19,2.84-0.24,5.68-0.11,8.53c0.09,2.07-0.16,4.15-0.25,6.22c-0.11,2.7-0.15,5.4-0.34,8.08
			c-0.14,2-0.12,3.99-0.08,6c0.05,2.42-0.26,4.84-0.41,7.26c-0.02,0.32-0.03,0.63-0.06,0.95c-0.24,3.23-0.5,6.47-0.72,9.7
			c-0.11,1.58-0.15,3.17-0.23,4.75c-0.12,2.18-0.26,4.35-0.36,6.53c-0.1,2.18-0.09,4.36-0.24,6.53c-0.12,1.74-0.45,3.46-0.6,5.19
			c-0.1,1.14-0.04,2.29-0.04,3.44c-0.01,2.01,0.07,4.02-0.04,6.02c-0.1,1.84-0.46,3.67-0.6,5.52c-0.1,1.35-0.01,2.72-0.06,4.08
			c-0.06,1.92-0.18,3.83-0.25,5.74c-0.04,0.91,0.02,1.82-0.07,2.72c-0.21,2.01-0.48,4.01-0.73,6.02c-0.45,3.65-0.59,7.3-0.01,10.95
			c0.04,0.23-0.05,0.48-0.08,0.8c-0.77-0.03-1-0.44-1.06-1.02c-0.25-2.6-0.68-5.18-0.12-7.81c0.29-1.39,0.16-2.87,0.45-4.26
			c0.76-3.68,0.86-7.4,0.99-11.12c0.1-2.7,0.38-5.39,0.55-8.08c0.1-1.69,0.18-3.38,0.19-5.07c0.03-3.99,0.15-7.98,0.67-11.95
			c0.21-1.62,0.09-3.29,0.14-4.93c0.09-2.93,0.01-5.88,0.36-8.78c0.55-4.66,0.7-9.34,0.97-14.02c0.13-2.22,0.32-4.44,0.43-6.66
			c0.04-0.79-0.09-1.58-0.08-2.37c0.07-4.71,0.15-9.42,0.25-14.13c0.07-3.14,0.27-6.27,0.22-9.4c-0.06-3.69,0.36-7.34,0.6-11
			c0.18-2.71,0.3-5.42,0.51-8.13c0.2-2.65,0.57-5.29,0.7-7.94c0.28-5.7,1.08-11.36,0.96-17.08c-0.04-2.13,0.07-4.27,0.3-6.39
			c0.33-3.05-0.11-6.06-0.28-9.09C274.7,272.48,274.42,270.74,274.22,268.92z"/>
		<path d="M378.03,484.54c-0.76,0.53-1.16,0.17-1.6-0.17c-1.63-1.27-2.64-3.03-3.82-4.67c-0.99-1.38-2.06-2.7-3.08-4.06
			c-1.34-1.79-2.67-3.59-3.99-5.38c-0.19-0.26-0.36-0.52-0.55-0.78c-1.21-1.69-2.38-3.41-3.63-5.06c-1.8-2.37-3.64-4.71-5.5-7.03
			c-1.99-2.49-4.01-4.97-6.06-7.42c-1.46-1.74-3-3.4-4.49-5.12c-1.1-1.28-2.16-2.59-3.25-3.88c-1.56-1.85-3.17-3.67-4.68-5.56
			c-1.05-1.33-1.99-2.75-2.94-4.16c-1.25-1.84-2.68-3.53-4.25-5.1c-0.26-0.26-0.55-0.52-0.75-0.82c-2.08-3.21-4.35-6.31-5.45-10.08
			c-0.59-2.02-1.63-3.92-2.24-5.94c-0.98-3.21-1.87-6.47-1.49-9.89c0.15-1.37,0.42-2.74,0.8-4.06c0.45-1.57,1.17-2.02,2.94-2.09
			c0.47-0.02,0.96,0.05,1.43,0.15c0.91,0.19,1.1,0.49,1.17,1.8c-0.79-0.41-1.51-0.61-2.44-0.54c-1.35,0.1-1.69,0.9-2.02,1.86
			c-0.81,2.4-0.82,4.88-0.29,7.28c0.64,2.85,1.57,5.64,2.47,8.42c0.57,1.76,1.29,3.47,2,5.19c0.32,0.79,0.72,1.55,1.17,2.27
			c1.67,2.65,3.51,5.17,5.59,7.53c1.68,1.92,3.06,4.09,4.58,6.15c0.57,0.77,1.13,1.54,1.74,2.27c2.19,2.67,4.36,5.35,6.61,7.96
			c1.49,1.74,3.15,3.32,4.63,5.07c2.03,2.39,3.94,4.88,5.92,7.31c0.87,1.07,1.86,2.06,2.68,3.16c1.26,1.7,2.41,3.48,3.63,5.22
			c0.55,0.78,1.13,1.54,1.71,2.31c1.76,2.33,3.46,4.71,5.32,6.96c1.6,1.94,3.05,3.95,4.39,6.07c0.7,1.11,1.75,1.98,2.59,3.01
			C377.34,483.29,377.66,483.94,378.03,484.54z"/>
		<path d="M528.21,631.59c-0.31,0.94-0.94,0.81-1.39,0.67c-2.37-0.75-4.81-1.38-7.06-2.42c-1.61-0.74-2.96-2.04-4.42-3.11
			c-1.33-0.97-2.66-1.94-3.94-2.97c-0.91-0.74-1.72-1.59-2.56-2.4c-1.69-1.62-3.33-3.28-5.07-4.84c-0.97-0.87-2.11-1.57-3.16-2.35
			c-4.38-3.27-8.8-6.5-13.12-9.85c-1.97-1.52-3.76-3.27-5.62-4.94c-1.33-1.2-2.61-2.44-3.94-3.65c-2.76-2.5-5.52-4.98-8.29-7.47
			c-1.69-1.52-3.29-3.19-5.12-4.53c-1.92-1.41-3.4-3.22-5.08-4.84c-0.5-0.48-0.91-0.97-0.21-1.63c-0.45-0.28-0.88-0.41-1.01-0.68
			c-0.12-0.24,0.09-0.65,0.15-0.98c0.29,0.08,0.61,0.1,0.86,0.25c0.15,0.09,0.16,0.39,0.27,0.56c0.59,0.88,1.07,1.87,1.81,2.59
			c1.82,1.78,3.75,3.45,5.65,5.15c2.55,2.27,5.2,4.43,7.64,6.81c3.21,3.11,6.57,6.06,9.87,9.07c3.24,2.96,6.87,5.38,10.35,8.02
			c5.31,4.02,10.64,8.03,15.41,12.73c2.74,2.69,5.76,5.07,9.03,7.07c1.39,0.85,3.01,1.34,4.55,1.94c0.83,0.33,1.73,0.49,2.56,0.83
			C527.02,630.86,527.62,631.26,528.21,631.59z"/>
		<path d="M489.34,377.55c0.26,1.39,0.57,2.6,0.72,3.84c0.52,4.44,0.95,8.9,1.5,13.34c0.32,2.53,0.72,5.06,1.26,7.55
			c0.25,1.18,0.95,2.25,1.38,3.39c0.9,2.38,1.88,4.74,2.57,7.19c0.37,1.3,0.25,2.75,0.27,4.14c0.03,2.19-0.02,4.38-0.62,6.51
			c-0.1,0.36-0.14,0.74-0.15,1.11c-0.01,2.38-0.72,4.58-1.67,6.73c-0.25,0.56-0.2,1.25-0.35,1.86c-0.43,1.73-1.07,3.39-1.3,5.19
			c-0.2,1.55-0.79,3.05-1.2,4.57c-0.08,0.31-0.22,0.64-0.16,0.93c0.18,1-0.19,1.76-0.84,2.46c-0.18,0.19-0.36,0.43-0.42,0.67
			c-0.34,1.27-1,2.33-1.88,3.28c-0.29,0.31-0.51,0.68-0.72,1.05c-0.83,1.47-1.12,1.48-2.13,0.03c0.17-0.29,0.31-0.64,0.55-0.91
			c2.34-2.6,3.7-5.59,4.34-9.07c0.59-3.18,1.59-6.3,2.66-9.36c1.1-3.13,1.87-6.3,2.14-9.6c0.13-1.59,0.37-3.17,0.47-4.76
			c0.22-3.39-0.93-6.51-2.06-9.61c-0.36-1-1.01-1.9-1.32-2.91c-0.54-1.72-1.06-3.47-1.33-5.24c-0.59-3.94-1.04-7.9-1.52-11.86
			c-0.31-2.54-0.63-5.08-0.83-7.63C488.63,379.56,488.25,378.52,489.34,377.55z"/>
		<path d="M323.85,332.36c0.94,0.17,1.71,0.4,2.48,0.44c2.71,0.12,5.42,0.29,8.13,0.22c4.6-0.11,8.54-1.95,11.99-4.94
			c3.06-2.64,4.65-6.07,5.1-9.98c0.32-2.79,0.24-5.63,0.42-8.45c0.24-3.72,0.5-7.43,1.25-11.1c0.17-0.84-0.08-1.78-0.19-2.67
			c-0.12-0.9-0.37-1.78-0.44-2.68c-0.04-0.45,0.2-0.93,0.38-1.63c1.13,1.05,1.14,2.22,1.4,3.26c0.51,1.99,0.41,3.94-0.05,5.97
			c-0.5,2.16-0.59,4.43-0.76,6.66c-0.29,3.77-0.69,7.54-0.55,11.34c0.03,0.92-0.3,1.9-0.65,2.77c-0.72,1.82-1.32,3.71-2.57,5.29
			c-2.06,2.62-4.68,4.45-7.72,5.73c-1.27,0.54-2.56,1.07-3.86,1.51c-0.64,0.22-1.35,0.3-2.04,0.33c-1.91,0.1-3.82,0.23-5.72,0.19
			c-1.93-0.04-3.87-0.23-5.79-0.45C323.58,334.08,323.33,333.34,323.85,332.36z"/>
		<path d="M273.17,95.84c0.31,0.43,0.62,0.66,0.62,0.89c0,2.3-0.07,4.6-0.07,6.9c0,0.57,0.23,1.14,0.23,1.72
			c0.02,3.03,0.12,6.07-0.06,9.09c-0.08,1.35,0.08,2.7-0.14,4.06c-0.14,0.88,0.38,1.85,0.54,2.78c0.25,1.47,0.39,2.94-0.15,4.41
			c-0.15,0.39,0.1,0.92,0.13,1.39c0.37,5.07,0.65,10.16,1.13,15.22c0.26,2.73-0.1,5.42-0.21,8.12c-0.08,1.95-0.27,3.89-0.24,5.84
			c0.03,2.23,0.2,4.46,0.39,6.68c0.39,4.45,0.77,8.91,0.46,13.38c-0.1,1.51-0.63,3-0.71,4.51c-0.14,2.69-0.1,5.4-0.12,8.09
			c-0.01,0.94,0.17,1.91-0.65,3.03c-0.15-0.62-0.31-0.99-0.31-1.36c-0.03-4.1,0.07-8.2,0.69-12.27c0.44-2.89,0.42-5.79,0.15-8.69
			c-0.26-2.81-0.52-5.62-0.74-8.44c-0.15-1.9-0.31-3.81-0.34-5.71c-0.02-1.49,0.07-2.99,0.29-4.46c0.56-3.77,0.42-7.54,0.17-11.3
			c-0.21-3.24-0.58-6.47-0.82-9.71c-0.1-1.33-0.15-2.68-0.03-4c0.26-3.06-0.23-6.06-0.43-9.09c-0.09-1.38-0.26-2.79-0.06-4.14
			c0.43-2.83,0.07-5.65,0.09-8.47c0.01-2.02,0.12-4.04,0.18-6.06C273.19,97.54,273.17,96.82,273.17,95.84z"/>
		<path d="M360.46,392.48c-0.29,0.03-0.59,0.15-0.66,0.06c-0.44-0.51-0.94-1.02-1.2-1.63c-0.28-0.67-0.31-1.45-0.48-2.17
			c-0.78-3.2-1.58-6.4-2.36-9.6c-0.24-0.98-0.44-1.97-0.62-2.97c-0.5-2.78-1.7-5.26-3.24-7.58c-1.32-1.99-2.81-3.87-4.13-5.86
			c-2.11-3.17-4.9-5.74-7.41-8.56c-0.46-0.52-0.88-1.06-1.34-1.58c-2.07-2.36-4.24-4.64-6.17-7.1c-1.23-1.56-2.72-2.78-4.2-4.04
			c-0.11-0.09-0.13-0.27-0.2-0.43c0.69-0.55,1.37-1.1,2.08-1.67c0.95,0.4,0.43,1.06,0.22,1.53c3.36,3.92,6.64,7.78,9.96,11.6
			c1.05,1.2,2.26,2.26,3.3,3.47c1.8,2.1,3.59,4.21,5.25,6.42c1.94,2.6,3.8,5.27,5.54,8c0.58,0.91,0.76,2.09,1.04,3.16
			c1.27,4.95,2.51,9.91,3.75,14.87C359.91,389.72,360.16,391.05,360.46,392.48z"/>
		<path d="M323.16,391.03c3.92,0.41,7.7,0.87,11.5,1.17c1.36,0.11,2.75-0.23,4.12-0.25c2.75-0.05,5.53,0.16,8.26-0.08
			c2.39-0.21,4.63,0.29,6.95,0.57c2.38,0.29,4.73,0.77,7.1,1.03c2.48,0.27,5.01,0.07,7.51,0.13c2.03,0.05,3.99,0.48,5.93,1.13
			c1.43,0.48,2.97,0.72,4.48,0.9c1.38,0.16,1.71,0.39,1.75,2.14c-0.64-0.13-1.24-0.24-1.84-0.37c-1.81-0.41-3.61-0.83-5.42-1.25
			c-2.8-0.65-5.62-1.18-8.52-1.01c-2.73,0.15-5.4-0.24-8.06-0.77c-0.83-0.16-1.68-0.24-2.52-0.39c-1.15-0.2-2.29-0.43-3.44-0.63
			c-0.42-0.08-0.84-0.19-1.26-0.18c-4.89,0.11-9.78,0.27-14.67,0.34c-1.63,0.03-3.26,0.06-4.9-0.3c-1.75-0.38-3.56-0.45-5.35-0.6
			C323.74,392.52,323.29,392.17,323.16,391.03z"/>
		<path d="M482.15,515.65c0.67-0.27,1.33-0.54,2.31-0.93c-0.37,0.96-0.91,1.19-1.44,1.5c-1.32,0.76-2.9,1.32-3.68,2.66
			c-0.69,1.2-1.88,1.9-2.41,3.15c-0.5-0.29-0.9-0.51-1.4-0.8c-0.21-0.87,0.75-1.05,1.26-1.49c0.32-0.27,0.63-0.38,0.74-0.89
			c0.08-0.41,0.51-0.78,0.83-1.11c0.61-0.64,1.33-1.2,1.89-1.89c1.31-1.61,2.64-3.21,3.81-4.92c1.28-1.85,2.14-3.9,2.36-6.19
			c0.18-1.81-0.75-3.28-1.38-4.82c-0.62-1.49-1.07-2.96-1.2-4.59c-0.24-2.92-0.64-5.82-1.06-8.72c-0.16-1.1-0.57-2.15-0.85-3.23
			c-0.15-0.57-0.25-1.14-0.42-1.7c-0.15-0.52-0.1-1.04,0.4-1.24c0.52-0.21,0.89,0.15,1.08,0.67c0.07,0.2,0.2,0.38,0.29,0.57
			c0.9,1.81,2.01,3.56,2.66,5.46c0.68,2,1.04,4.13,1.31,6.23c0.37,2.9,0.46,5.83,0.77,8.74c0.42,3.99-1.22,7.25-3.49,10.3
			c-0.79,1.06-1.69,2.04-2.54,3.06C482.03,515.52,482.09,515.58,482.15,515.65z M484.31,486.89c0.19,1.71,0.39,3.44,0.57,5.17
			c0.19,1.8,0.34,3.6,0.57,5.39c0.07,0.59,0.2,1.22,0.85,1.63C486.84,495.18,485.72,488.49,484.31,486.89z"/>
		<path d="M274.02,192.44c0.66-0.25,0.93-0.13,0.9,0.4c-0.09,1.68-0.22,3.36-0.28,5.03c-0.02,0.56,0.14,1.12,0.13,1.68
			c-0.04,2.37-0.09,4.74-0.17,7.11c-0.04,1.06-0.03,2.14-0.25,3.17c-0.35,1.63-0.07,3.26-0.25,4.89c-0.53,4.78,0.04,9.55,0.13,14.33
			c0.04,2.28-0.18,4.56-0.28,6.84c-0.03,0.63-0.03,1.27-0.03,1.9c0,3.72,0,7.43-0.16,11.2c-0.11-0.24-0.3-0.47-0.31-0.71
			c-0.06-2.13-0.11-4.27-0.12-6.4c-0.01-4.62,0.04-9.24-0.01-13.86c-0.04-2.87-0.39-5.75-0.31-8.61c0.13-4.15,0.6-8.28,0.79-12.43
			c0.17-3.66,0.15-7.32,0.2-10.99C274.03,194.79,274.02,193.58,274.02,192.44z"/>
		<path d="M403.39,365.1c0.82-0.32,0.9,0.27,1.16,0.64c1.17,1.65,2.35,3.28,3.54,4.91c0.12,0.16,0.32,0.25,0.63,0.49
			c-0.04-0.36-0.07-0.55-0.07-0.73c0-3.34-2.37-4.9-4.8-6.41c-0.29-0.18-0.59-0.36-0.92-0.56c0.97-0.88,1.56-1,2.41-0.37
			c1.07,0.8,2.1,1.65,3.08,2.55c0.38,0.35,0.72,0.85,0.84,1.33c0.54,2.16,0.99,4.35,1.49,6.53c0.1,0.44,0.22,0.84-0.31,1.08
			c-0.53,0.23-0.79-0.15-1.06-0.47c-1.59-1.87-3.13-3.77-4.78-5.59C403.7,367.51,403.35,366.43,403.39,365.1z"/>
		<path d="M424.08,417.38c-0.61-0.67-0.56-1.23-0.27-1.88c1.21-2.71,2.36-5.44,3.58-8.14c0.35-0.77,0.84-1.48,1.36-2.15
			c0.16-0.21,0.64-0.18,0.97-0.26c-0.01,0.33,0.13,0.78-0.04,0.97c-1.31,1.54-1.83,3.47-2.64,5.25c-0.57,1.24-1.48,2.34-1.53,3.8
			c-0.02,0.64-0.16,1.25,0.75,1.44C425.72,417.39,424.87,417.26,424.08,417.38z"/>
		<path d="M274.75,268.29c-0.98-0.29-0.95-1.1-0.98-1.79c-0.09-1.95-0.13-3.91-0.14-5.87c0-0.65,0.16-1.31,0.24-1.96
			c0.14-0.01,0.28-0.01,0.42-0.02c0.11,0.41,0.34,0.83,0.32,1.23c-0.1,2.65-0.09,5.29,0.29,7.92
			C274.92,267.93,274.82,268.07,274.75,268.29z"/>
		<path d="M340.05,320.96c-2.36,0.9-4.7,1.78-7.24,2.74c0.21-1.15,0.94-1.3,1.54-1.53c0.84-0.31,1.75-0.46,2.56-0.83
			c1.13-0.51,2.21-1.14,3.36-1.76C340.21,320.01,340.14,320.46,340.05,320.96z"/>
		<path d="M339.12,319.48c-0.24-0.61-0.47-1.07-0.62-1.56c-0.2-0.65-0.32-1.2-1.28-0.82c-0.48,0.19-0.83-0.28-0.87-0.87
			c-0.04-0.59,0.18-0.99,0.76-0.96c0.43,0.02,0.99,0.15,1.26,0.45C339.31,316.72,340.34,317.77,339.12,319.48z"/>
		<path d="M217.77,201.43c0,0.41,0,0.76,0,1.24c-1-0.35-2.01,0.57-2.94-0.32C215.49,200.91,216.61,201.26,217.77,201.43z"/>
		<path d="M334.02,319.52c0.71-0.18,1.1-0.36,1.48-0.33c0.21,0.01,0.41,0.36,0.61,0.56c-0.26,0.2-0.55,0.57-0.79,0.54
			C334.96,320.25,334.64,319.92,334.02,319.52z"/>
		<path d="M207.81,146.43c0.7,0.47,1.31,0.84,1.89,1.27c0.89,0.67,1.7,1.45,2.62,2.05c0.64,0.42,1.41,0.66,2.15,0.89
			c0.49,0.16,1,0.31,0.92,0.89c-0.09,0.7-0.68,0.71-1.24,0.62c-1.88-0.32-3.17-1.65-4.65-2.68c-0.43-0.3-0.79-0.73-1.25-0.98
			C207.5,148.07,207.36,147.51,207.81,146.43z"/>
		<path d="M245.52,182.67c1.23,0.3,2.48,0.5,3.67,0.91c1.69,0.59,2.8,1.72,3.35,3.55c0.8,2.68,1.29,5.42,1.46,8.17
			c0.12,1.88-0.42,3.79-0.55,5.7c-0.18,2.45-1.46,4.42-2.63,6.45c-0.76,1.32-2.19,1.63-3.47,2.12c-3.3,1.24-6.39,0.3-9.4-1.06
			c-0.5-0.23-0.95-0.71-1.27-1.18c-0.72-1.05-1.33-2.17-2-3.26c-0.7-1.12-0.92-2.39-1.07-3.64c-0.28-2.43-0.35-4.86-0.02-7.31
			c0.17-1.25,0.63-2.26,1.39-3.3c1.64-2.24,3.86-3.73,6.05-5.3c0.09-0.06,0.21-0.09,0.27-0.16
			C242.39,183.02,243.83,182.71,245.52,182.67z M234.76,197.33c-0.31,3.33,1,6.13,2.95,8.7c0.35,0.46,0.74,1.05,1.23,1.22
			c2.34,0.82,4.66,1.99,7.25,1.07c1.44-0.51,3.05-0.83,3.82-2.37c0.87-1.73,1.98-3.36,2.05-5.44c0.06-1.64,0.55-3.27,0.56-4.9
			c0.02-2.74-0.9-5.33-1.62-7.94c-0.12-0.45-0.38-0.88-0.66-1.25c-1.9-2.48-6.03-2.78-8.43-0.67c-0.71,0.63-1.42,1.35-2.26,1.74
			c-1.41,0.65-2.15,1.9-2.96,3.04c-0.57,0.8-0.76,1.87-1.73,2.41c-0.16,0.09-0.19,0.48-0.2,0.73
			C234.75,194.89,234.76,196.11,234.76,197.33z"/>
	</g>
</g>
</svg>
