<?xml version="1.0" encoding="utf-8"?>
<!-- Generator: Adobe Illustrator 26.0.2, SVG Export Plug-In . SVG Version: 6.00 Build 0)  -->
<svg version="1.1" xmlns="http://www.w3.org/2000/svg" xmlns:xlink="http://www.w3.org/1999/xlink" x="0px" y="0px"
	 viewBox="0 0 800 800" style="enable-background:new 0 0 800 800;" xml:space="preserve">
<style type="text/css">
	.st0{display:none;}
	.st1{display:inline;}
	.st2{fill:#2D2D2D;}
	.st3{fill:#3C3D3D;}
	.st4{fill:#131313;}
	.st5{fill:#FFFFFF;}
	.st6{fill:#FCFCFC;}
	.st7{fill:#2A2A2A;}
	.st8{fill:#565454;}
	.st9{fill:#767373;}
	.st10{fill:#959292;}
	.st11{fill:#C6C4C4;}
</style>
<g id="back" class="st0">
	<rect x="1.17" y="0" class="st1" width="800" height="800"/>
</g>
<g id="Front">
	<g>
		<path d="M634.44,763.99c-156.39,0-312.78,0-469.17,0c0-156.82,0-313.63,0-470.45c1.69-0.07,3.39-0.15,5.08-0.22
			c3.52-0.14,7.04-0.27,10.56-0.41c0.66-0.03,0.66-0.05,0.71-0.79l0,0c0.66,0,1.33-0.09,1.98,0.01c1.1,0.16,2.19,0.63,3.28,0.64
			c3.36,0.04,6.73-0.07,10.09-0.16c0.3-0.01,0.6-0.25,0.77-0.32c0.24,0.2,0.47,0.58,0.75,0.62c1.3,0.17,2.6,0.32,3.91,0.33
			c3.47,0.04,6.94,0.03,10.41-0.01c3.08-0.04,6.17-0.17,9.25-0.26c3.42-0.1,6.84-0.31,10.26-0.25c3.79,0.06,7.58,0.47,11.38,0.55
			c5.06,0.11,10.13,0.03,15.19,0.08c1.8,0.02,3.6,0.19,5.39,0.29c2.84,0.16,5.68,0.37,8.52,0.46c1.33,0.04,2.67-0.15,3.85-0.22
			c0.4,0.17,0.79,0.48,1.18,0.48c3.79,0.06,7.57,0.08,11.36,0.09c3.38,0.01,6.77,0.05,10.15-0.04c3.58-0.1,7.15-0.31,10.73-0.51
			c2.28-0.13,4.55-0.47,6.83-0.49c4.23-0.03,8.46,0.13,12.68,0.16c0.97,0.01,1.94-0.26,2.91-0.24c2.91,0.06,5.82,0.23,8.74,0.29
			c2.81,0.06,5.63,0.08,8.45,0.04c1.74-0.02,3.48-0.28,5.21-0.26c1.93,0.02,3.85,0.3,5.78,0.35c3.03,0.08,6.06,0.03,9.08,0.1
			c2.09,0.05,4.18,0.24,6.27,0.32c5.68,0.2,11.36,0.46,17.05,0.53c4.53,0.06,9.06-0.12,13.59-0.22c3.19-0.07,6.38-0.15,9.57-0.31
			c2.03-0.1,4.05-0.38,6.08-0.52c3.81-0.27,7.63-0.5,11.43-0.74c0.16-1.2,0.24-2.06,0.39-2.91c0.31-1.7,0.31-3.57,1.06-5.07
			c1.68-3.39,3.69-6.62,5.67-9.85c0.7-1.15,1.63-2.19,2.56-3.17c2.4-2.51,5.03-4.82,7.25-7.47c1.67-2,3.87-3.09,5.99-4.27
			c2.48-1.38,5.2-2.35,7.87-3.36c2.29-0.87,4.61-1.76,6.99-2.28c3.44-0.75,6.93-1.23,10.42-1.72c2.01-0.28,4.04-0.52,6.06-0.5
			c3,0.02,6,0.29,9.01,0.46c0.94,0.05,2.35-0.21,2.72,0.29c0.74,0.99,1.58,0.74,2.45,0.92c1.56,0.32,3.17,0.61,4.61,1.25
			c4.13,1.83,8.17,3.87,11.5,7.04c2.74,2.62,5.48,5.25,8.19,7.9c2.39,2.34,3.82,5.35,5.36,8.24c2.14,4.03,4.31,8.07,5.15,12.64
			c0.19,1.05,0.69,1.45,1.78,1.37c0.96-0.07,1.94,0.12,2.91,0.16c3.28,0.14,6.56,0.38,9.84,0.36c2.81-0.02,5.61-0.44,8.42-0.5
			c4.48-0.1,8.97-0.08,13.45-0.04c2.12,0.02,4.23,0.25,6.34,0.29c4.07,0.07,8.15,0.07,12.22,0.08c2.66,0,5.34-0.2,7.99-0.01
			c3.36,0.24,6.66-0.03,9.99-0.3c3.03-0.25,6.09-0.26,9.13-0.31c1.11-0.02,2.22,0.25,3.33,0.24c1.31-0.01,2.61-0.23,3.92-0.26
			c2.11-0.05,4.23-0.01,6.34-0.01c0.56,0,1.13,0,1.76,0c0,0.74,0,1.27,0,1.81c0,77.66,0,155.33,0,232.99
			C634.43,605.92,634.44,684.96,634.44,763.99z M311.57,413.21c-1.17,1.54-2.43,2.8-3.2,4.3c-2.42,4.68-5.21,9.18-6.73,14.31
			c-2.07,6.97-4.07,13.89-2.57,21.31c0.74,3.65,0.93,7.45,2.93,10.7c2.21,3.59,4.51,7.13,7.04,10.5c1.62,2.16,3.61,4.07,5.65,5.86
			c1.63,1.44,3.43,2.87,5.41,3.69c2.83,1.18,5.86,1.97,8.87,2.64c3.2,0.71,6.46,1.24,9.73,1.58c3.05,0.32,6.14,0.26,9.2,0.41
			c5.73,0.29,11.17-0.82,16.34-3.26c0.17-0.08,0.33-0.17,0.49-0.27c1.38-0.88,2.77-1.77,4.21-2.69c0.72,1.31,0.42,1.87-0.61,2.15
			c-0.41,0.11-0.84,0.23-1.19,0.46c-4.81,3.2-10.1,4.81-15.86,4.86c-2.31,0.02-4.62,0.09-6.92-0.05c-3.96-0.23-7.94-0.42-11.87-0.98
			c-3.23-0.46-6.39-1.44-9.81-2.25c0.99,1.36,1.88,2.63,2.83,3.85c0.69,0.89,1.61,1.62,2.18,2.57c1.01,1.69,1.78,3.52,2.75,5.24
			c2.27,4.02,4.78,7.91,6.86,12.02c3.12,6.16,5.7,12.6,8.99,18.66c3.16,5.84,6.89,11.37,10.45,16.99c1.56,2.47,3.26,4.86,4.99,7.22
			c2.14,2.94,4.31,5.87,6.6,8.69c1.76,2.18,3.76,4.17,5.6,6.28c1.31,1.5,2.36,3.26,3.84,4.55c5.67,4.95,11.65,9.49,17.93,13.67
			c3.14,2.09,6.54,3.23,10.1,4.14c0.48,0.12,1.02,0.33,1.48,0.22c1.32-0.3,1.98,0.09,2.1,1.49c0.31,3.59,0.47,7.2,0.9,10.77
			c0.43,3.6,0.93,7.22,1.75,10.74c0.64,2.75,1.69,5.44,2.83,8.03c1.41,3.2,2.76,6.51,4.75,9.33c2.79,3.94,6.18,7.46,9.25,11.2
			c3.22,3.91,7.19,6.99,11.23,9.93c3.44,2.5,7.4,4.13,11.42,5.52c3.69,1.28,7.14,2.93,9.75,5.94c2.89,3.33,5.78,6.67,8.56,10.09
			c1.98,2.44,3.87,4.97,5.65,7.57c3.82,5.58,7.74,11.09,10.92,17.09c1.13,2.14,1.95,4.31,2.04,6.62c0.18,4.41,0.07,8.84,0.04,13.26
			c-0.02,2.71,0.37,5.33,1.75,7.71c1.58,2.71,3.85,4.73,6.76,5.8c4.7,1.74,8.84-0.08,12.91-2.33c1.58-0.88,3.32-1.81,5.06-1.98
			c4.04-0.39,8.14-0.67,12.17,0.2c2.03,0.44,4.11,0.86,6.01,1.66c2.61,1.1,5.03,2.63,7.59,3.82c2.46,1.15,4.98,2.2,7.54,3.11
			c1.52,0.54,3.16,0.84,4.77,1.06c2.78,0.38,5.57,0.66,8.37,0.86c0.84,0.06,1.92-0.02,2.51-0.51c0.96-0.8,0.37-2.58-1.13-3.33
			c-2.64-1.31-5.35-2.49-8.04-3.69c-5.79-2.58-11.25-5.76-16.52-9.27c-2.29-1.53-4.57-3.07-6.74-4.77
			c-2.83-2.22-5.67-4.46-8.27-6.94c-2.42-2.3-4.47-5-6.82-7.39c-4.5-4.57-8.31-9.6-11.38-15.25c-2.9-5.34-6.14-10.5-9.16-15.77
			c-1.42-2.47-2.68-5.04-4.05-7.54c-2.22-4.04-4.47-8.06-6.7-12.09c-1.81-3.27-3.56-6.56-5.42-9.8c-1.73-3.01-3.69-5.9-5.32-8.96
			c-1.93-3.63-3.57-7.4-5.41-11.08c-2.99-5.97-6.09-11.89-9.06-17.87c-2.44-4.91-4.8-9.87-7.14-14.83c-0.71-1.51-1.1-3.19-1.88-4.66
			c-1.26-2.39-1.75-4.9-1.77-7.56c-0.01-1.51,0.09-3.05-0.2-4.51c-0.55-2.78-1.66-5.3-3.84-7.3c-2.58-2.37-4.95-4.99-7.54-7.36
			c-2.64-2.42-5.1-4.98-6.57-8.27c-1.76-3.95-3.37-7.95-4.97-11.97c-1.2-3.03-2.13-6.17-3.44-9.15c-1.88-4.27-4.17-8.37-5.98-12.67
			c-2.71-6.46-5.13-13.04-7.74-19.54c-1.37-3.42-2.84-6.79-4.35-10.15c-2.01-4.5-4.21-8.92-6.13-13.46
			c-2.77-6.55-5.35-13.19-8.02-19.78c-1.56-3.86-3.15-7.72-4.72-11.57c-0.99-2.44-1.95-4.89-2.98-7.31
			c-0.95-2.22-1.98-4.41-2.97-6.62c-0.96-2.14-1.82-4.33-2.9-6.42c-0.86-1.67-2.1-3.09-2.98-4.81c-1.93-3.74-4.34-7.26-6.87-10.64
			c-0.95-1.26-1.7-3.42-4.15-3.06c0.25-0.14,0.5-0.27,0.75-0.4c-3.48-4.58-8.52-7.13-13.09-10.46c0.09,0.36,0.15,0.59,0.18,0.73
			c-0.84-0.62-1.61-1.37-2.52-1.83c-1.54-0.78-3.17-1.38-4.76-2.06c-0.44-0.19-0.85-0.53-1.3-0.62c-3.81-0.72-7.38-2.22-11.25-2.89
			c-7.05-1.22-13.98-0.69-20.96,0.09c-1.23,0.14-2.49,0.1-3.69,0.35c-2.53,0.55-5.05,1.16-7.54,1.89c-3.75,1.09-7.5,2.19-11.17,3.51
			c-1.64,0.59-3.02,1.84-4.62,2.57c-2.41,1.1-4.85,2.1-6.68,4.13c-0.93,1.03-1.85,2.13-2.97,2.9c-4.7,3.2-8.21,7.5-11.4,12.08
			c-0.67,0.96-0.94,2.2-1.5,3.24c-1.16,2.17-2.56,4.23-3.56,6.48c-0.94,2.1-1.39,4.42-2.24,6.57c-1.51,3.81-2.19,7.81-2.77,11.81
			c-0.6,4.13-0.98,8.3-1.22,12.46c-0.3,5.07-0.44,10.16-0.5,15.24c-0.06,4.33,0.18,8.66,0.12,12.99
			c-0.09,6.46-0.31,12.91-0.51,19.36c-0.16,5.15-0.41,10.3-0.54,15.45c-0.08,3.46,0.03,6.92-0.04,10.38
			c-0.12,6.35-0.32,12.7-0.47,19.05c-0.19,7.93-0.32,15.86-0.54,23.78c-0.15,5.59-0.4,11.19-0.6,16.78c-0.04,1.11-0.26,2.28,0,3.32
			c0.77,3.09,1.64,6.15,3.29,8.92c0.75,1.26,1.39,2.6,2.23,3.81c2.07,3,4.13,6,6.36,8.88c2.89,3.73,5.86,7.4,8.94,10.98
			c2.56,2.98,5.26,5.85,8.04,8.63c2.4,2.41,5.03,4.59,7.5,6.94c3.59,3.41,7.14,6.88,10.7,10.33c3.19,3.1,6.33,6.27,9.57,9.32
			c2.54,2.4,5.22,4.65,7.8,7.01c2.07,1.89,4.05,3.87,6.11,5.76c2.24,2.05,4.63,3.95,6.79,6.08c2.76,2.72,5.3,5.66,8.03,8.42
			c3.71,3.75,7.29,7.57,9.78,12.3c1.78,3.37,3.55,6.71,4.32,10.49c0.51,2.47,1.19,4.91,1.76,7.23c-0.17,0.41-0.54,0.87-0.54,1.33
			c0.01,3.88-0.98,7.59-2,11.28c-0.51,1.86-1.34,3.63-1.82,5.49c-0.64,2.48-2.15,4.37-4.05,5.84c-2.1,1.62-3.72,3.44-4.66,5.92
			c-0.29,0.75-0.19,1.08,0.43,1.56c1.44,1.1,2.91,0.8,4.46,0.37c2.04-0.57,3.89-1.61,6.14-1.68c2.33-0.07,4.67-0.73,6.95-1.34
			c0.8-0.22,1.35-1.24,2.14-1.61c2.31-1.07,3.69-3.07,4.48-5.23c1.16-3.14,1.94-6.46,2.6-9.75c0.58-2.93,1.72-5.55,3.67-7.72
			c1.86-2.08,4.08-3.76,6.68-4.96c4.15-1.91,7.35-4.83,8.89-9.29c0.11-0.31,0.23-0.65,0.19-0.96c-0.32-2.58-1.18-4.87-3.37-6.51
			c-2.43-1.82-4.78-3.55-8.08-3.58c-1.93-0.02-4.13-0.18-5.24-2.44c-0.33-0.67-1.05-1.14-1.58-1.71c-2.42-2.6-5.15-4.98-7.18-7.84
			c-3.78-5.33-8.07-10.33-10.83-16.36c-1.2-2.61-2.88-5-4.05-7.62c-2.31-5.18-4.46-10.43-6.57-15.7c-1.11-2.78-1.92-5.69-2.98-8.49
			c-2.13-5.63-4.28-11.26-6.53-16.84c-0.67-1.66-1.6-3.24-2.6-4.73c-1.84-2.76-3.88-5.39-6.53-7.43c-2.25-1.73-4.13-3.84-6.77-5.19
			c-5.3-2.7-10.93-2.87-16.61-3.08c-1.89-0.07-3.78-0.12-5.66-0.18c-0.03-0.27-0.07-0.54-0.1-0.81c0.47-0.12,0.95-0.34,1.42-0.35
			c1.69-0.04,3.37-0.02,5-0.02c0.27-0.81,0.42-1.43,0.67-2c1.26-2.82,2.66-5.59,3.79-8.46c1.74-4.43,3.45-8.89,4.91-13.42
			c2.29-7.12,4.43-14.29,6.49-21.47c1.44-5.04,2.76-10.12,3.93-15.23c0.78-3.41,1.26-6.88,1.79-10.34
			c0.71-4.62,1.33-9.25,2.02-13.87c0.28-1.87,0.8-3.72,0.95-5.6c0.37-4.6,0.55-9.22,0.89-13.82c0.12-1.63,0.49-3.24,0.74-4.8
			c-1.86-1.16-4.1-2.05-5.65-3.62c-3.88-3.94-7.85-7.83-10.77-12.63c-2.19-3.61-4.32-7.2-5.08-11.42c-0.46-2.52-1.08-5.03-1.22-7.57
			c-0.25-4.77,0.35-9.47,1.69-14.1c1.8-6.25,4.08-12.26,7.65-17.73c1.12-1.71,2.19-3.46,3.33-5.28
			C310.37,413.21,310.85,413.21,311.57,413.21z M535.65,292.34c-0.07-0.39-0.11-0.68-0.18-0.96c-0.7-2.65-1.08-5.38-2.56-7.8
			c-1.2-1.97-2.31-4.03-3.17-6.17c-1.25-3.08-3.36-5.47-5.57-7.81c-1.33-1.41-2.86-2.62-4.22-4c-4.54-4.57-9.64-8.18-15.98-9.82
			c-0.67-0.17-1.12-0.3-1.9,0.04c-0.62,0.28-1.79-0.48-2.63-0.93c-3.1-1.65-6.53-1.62-9.84-1.71c-2.98-0.07-5.98,0.6-8.97,1
			c-2.98,0.39-6.06,0.51-8.91,1.36c-4.29,1.29-8.46,3.03-12.6,4.77c-1.91,0.8-3.82,1.8-5.39,3.13c-2.35,1.99-4.41,4.32-6.57,6.53
			c-1.28,1.31-2.6,2.6-3.76,4.03c-1.41,1.73-2.89,3.47-3.92,5.43c-1.36,2.58-2.43,5.34-3.38,8.1c-0.56,1.63-0.65,3.42-0.95,5.14
			c1.83,0.15,3.57,0.43,5.31,0.41c3.45-0.04,6.9-0.26,10.35-0.39c1.05-0.04,2.11,0,3.15-0.09c2.9-0.24,5.79-0.56,8.69-0.78
			c2.21-0.16,4.43-0.19,6.65-0.31c3.1-0.17,6.19-0.48,9.29-0.5c1.54-0.01,3.07,0.64,4.62,0.75c2.99,0.2,5.99,0.24,8.99,0.33
			c3.79,0.11,7.59,0.19,11.38,0.32c1.64,0.06,3.28,0.26,4.92,0.3c1.35,0.03,2.7-0.08,4.05-0.13c0.52-0.02,1.05-0.05,1.57-0.06
			c2.14-0.06,4.28-0.17,6.41-0.18C525.54,292.32,530.55,292.34,535.65,292.34z"/>
		<path d="M166.98,291.55c2.69,0,5.38,0,8.07,0c0,0.14,0,0.28-0.01,0.42c-2.69,0-5.39,0-8.08,0
			C166.96,291.83,166.97,291.69,166.98,291.55z"/>
		<path d="M181.61,292.12c-1.86,0.76-3.72,0.36-5.58,0C177.89,292.12,179.75,292.12,181.61,292.12
			C181.61,292.12,181.61,292.12,181.61,292.12z"/>
		<path d="M202.04,292.22c1.48-0.08,2.96-0.17,4.4-0.25C205.97,292.63,205,292.76,202.04,292.22z"/>
		<path d="M277.06,492.48c-1.79-0.3-3.58-0.6-5.37-0.88c-1.33-0.21-2.73-0.21-4-0.62c-3.93-1.28-6.76-4.02-8.94-7.4
			c-1.4-2.18-2.63-4.47-3.79-6.79c-0.38-0.76-0.29-1.76-0.42-2.65c0.14-0.05,0.29-0.1,0.43-0.15c0.21,0.37,0.52,0.71,0.62,1.1
			c1.29,4.88,4.23,8.73,7.79,12.09c2.05,1.93,4.59,3.14,7.57,3.22c1.74,0.05,3.47,0.29,5.19,0.59c0.44,0.08,0.78,0.69,1.16,1.06
			C277.22,492.18,277.14,492.33,277.06,492.48z"/>
		<path d="M297.39,492.78c6.22-2.22,12.67-3.91,18.27-8.16c-0.33,2.32-1.97,3.02-3.42,3.71c-2.55,1.2-5.16,2.28-7.81,3.23
			c-2.21,0.79-4.51,1.33-6.78,1.98C297.56,493.29,297.48,493.04,297.39,492.78z"/>
	</g>
</g>
</svg>
