<?xml version="1.0" encoding="utf-8"?>
<!-- Generator: Adobe Illustrator 26.0.2, SVG Export Plug-In . SVG Version: 6.00 Build 0)  -->
<svg version="1.1" xmlns="http://www.w3.org/2000/svg" xmlns:xlink="http://www.w3.org/1999/xlink" x="0px" y="0px"
	 viewBox="0 0 800 800" style="enable-background:new 0 0 800 800;" xml:space="preserve">
<style type="text/css">
	.st0{display:none;}
	.st1{display:inline;}
	.st2{fill:#2D2D2D;}
	.st3{fill:#3C3D3D;}
	.st4{fill:#131313;}
	.st5{fill:#FFFFFF;}
	.st6{fill:#FCFCFC;}
	.st7{fill:#2A2A2A;}
	.st8{fill:#565454;}
	.st9{fill:#767373;}
	.st10{fill:#959292;}
	.st11{fill:#C6C4C4;}
</style>
<g id="back" class="st0">
	<rect x="1.17" y="0" class="st1" width="800" height="800"/>
</g>
<g id="Front">
	<g>
		<path d="M367.43,444.12c-1.96-1.24-4.26-1.56-6.39-2.34c-0.7-0.25-1.47-0.4-2.07-0.8c-1.7-1.15-3.62-1.72-5.51-2.41
			c-1.08-0.39-2.06-1.07-3.05-1.66c-1.59-0.95-3.18-1.91-4.74-2.91c-0.8-0.51-1.59-1.06-2.31-1.69c-2.59-2.29-4.29-5.24-5.76-8.29
			c-1-2.07-1.13-4.42-0.83-6.7c0.15-1.18-0.58-1.98-0.88-2.95c-0.33-1.08-0.41-2.11-0.12-3.12c0.38-1.35,0.69-2.78,1.82-3.8
			c0.23-0.21,0.4-0.51,0.52-0.8c1.31-3.07,3.98-4.74,6.61-6.46c1.96-1.28,3.84-2.67,5.78-3.97c2.03-1.36,4.11-2.65,6.15-4
			c1.32-0.87,2.57-1.89,3.95-2.65c1.29-0.71,2.69-1.23,4.08-1.75c3.61-1.34,7.47-1.59,11.19-2.48c3-0.72,5.99-1.48,9-2.12
			c2.61-0.55,5.1-1.44,7.63-2.24c2.14-0.68,4.5-0.68,6.76-1c2.63-0.37,5.26-0.77,7.9-1.13c1.53-0.21,3.06-0.36,4.59-0.54
			c1.9-0.23,3.8-0.45,5.7-0.72c3.18-0.45,6.37-0.42,9.54-0.01c4.79,0.62,9.53,1.64,14.36,2.02c3.87,0.3,7.73,0.78,11.58,1.28
			c2.32,0.3,4.61,0.85,6.92,1.18c3.11,0.45,6.24,0.73,9.34,1.23c2.41,0.39,4.8,0.95,7.18,1.51c3.3,0.78,6.61,1.56,9.87,2.49
			c1.62,0.46,3.16,1.24,4.72,1.93c0.78,0.34,1.47,0.88,2.26,1.16c2.59,0.91,4.79,2.52,7.15,3.85c0.23,0.13,0.46,0.33,0.71,0.36
			c1.45,0.18,2.38,1.09,3.19,2.19c0.87,1.2,1.68,2.46,2.65,3.56c1.16,1.31,2.42,2.54,3.74,3.68c0.65,0.55,1.39,0.97,1.75,1.79
			c0.1,0.23,0.29,0.47,0.5,0.62c1.39,1,1.8,2.57,2.36,4.05c0.69,1.83,1.36,3.64,1.59,5.64c0.25,2.13,0.94,4.22,1.52,6.31
			c0.94,3.41,0.42,6.48-1.86,9.23c-0.33,0.4-0.53,0.91-0.74,1.39c-0.81,1.95-1.3,4.06-3.01,5.52c-0.12,0.1-0.2,0.25-0.28,0.39
			c-0.27,0.51-0.47,1.07-0.83,1.51c-0.32,0.4-0.82,0.65-1.31,1.02c0.6,1.19,1.3,2.32,1.75,3.54c0.44,1.18,0.63,2.46,0.95,3.69
			c0.38,1.5,0.63,3.01,0.53,4.56c-0.03,0.47,0.04,0.96,0.17,1.42c0.53,1.94,0.3,3.89,0.23,5.86c-0.09,2.53-0.77,5.08,0.01,7.61
			c0.03,0.1,0.05,0.21,0.05,0.32c0.09,3.93,0.19,7.86,0.28,11.79c0.04,1.9,0.14,3.8,0.12,5.7c-0.03,2.17,0.45,4.29,0.15,6.5
			c-0.25,1.86,0.12,3.8,0.13,5.7c0.01,1.27-0.17,2.54-0.19,3.81c-0.02,1.01,0.1,2.01,0.12,3.02c0.02,0.74,0.04,1.49-0.02,2.22
			c-0.33,3.68-0.69,7.37-1.02,11.05c-0.04,0.42-0.07,0.87,0.05,1.26c0.84,2.74,0.66,5.58,0.83,8.39c0.11,1.91,0.23,3.82,0.24,5.73
			c0.01,1.69-0.14,3.37-0.21,5.06c-0.02,0.37-0.01,0.74,0.01,1.12c0.08,2.13,0.21,4.25,0.22,6.38c0.02,2.68-0.01,5.37-0.1,8.05
			c-0.23,6.79-0.43,7.38,0.61,12.95c0.55,2.93,0.32,5.9-0.24,8.86c-0.39,2.08-0.31,4.24-0.6,6.34c-0.5,3.56-1.14,7.1-1.71,10.65
			c-0.1,0.62-0.12,1.26-0.17,1.89c-0.04,0.63,0.01,1.29-0.12,1.9c-0.2,0.97-0.74,1.38-1.7,1.29c-1.32-0.11-2.63-0.28-3.94-0.49
			c-1.15-0.18-2.23-0.19-3,0.81c-0.76-0.1-1.08-0.4-1-1.18c0.13-1.29,0.65-2.6-0.05-3.89c-0.08-0.14,0.03-0.4,0.08-0.6
			c0.74-2.96,0.87-5.98,0.65-9.01c-0.22-3.03-0.21-6.04,0.29-9.06c0.32-1.93,0.41-3.91,0.51-5.88c0.15-2.81,0.12-5.64,0.35-8.44
			c0.19-2.4-0.03-4.77-0.14-7.15c-0.03-0.58,0.01-1.17,0.09-1.75c0.22-1.71,0.16-3.39-0.21-5.07c-0.07-0.31-0.1-0.65-0.04-0.95
			c0.33-1.65,0.28-3.29-0.03-4.93c-0.36-1.94,0.14-3.81,0.36-5.7c0.41-3.47,1.21-6.9,0.99-10.45c-0.2-3.35,0.48-6.65,0.72-9.97
			c0.13-1.8,0.15-3.6,0.23-5.41c0.03-0.69,0.17-1.37,0.18-2.05c0.03-1.52,0.13-3.05-0.01-4.56c-0.21-2.21-0.58-4.41-0.95-6.6
			c-0.24-1.41-0.72-2.79-0.89-4.21c-0.25-2-0.39-4.01-0.44-6.02c-0.1-4.15-0.1-8.3-0.17-12.45c-0.02-1.49-0.18-2.98-0.16-4.47
			c0.05-5.01-0.92-9.93-1.21-14.9c-0.09-1.48-0.45-2.93-0.58-4.41c-0.1-1.14-0.4-2.32,0.29-3.47c-2.73,0.98-5.52,1.83-8.19,2.97
			c-2.09,0.9-4.01,2.19-6.03,3.25c-0.8,0.42-1.63,0.86-2.5,1.02c-4.13,0.74-8.28,1.36-12.42,2.05c-3.56,0.6-7.19,0.96-10.65,1.94
			c-3.07,0.87-6.16,1.02-9.26,1.39c-0.25,0.03-0.51-0.06-0.77-0.09c-1.31-0.12-2.63-0.21-3.94-0.35c-0.89-0.1-1.82-0.15-2.66-0.44
			c-1.65-0.56-3.35-0.53-5.04-0.67c-2.27-0.19-4.53-0.44-6.8-0.68c-2.26-0.24-4.53-0.43-6.78-0.76c-2.03-0.3-4.03-0.76-6.05-1.17
			c-0.55-0.11-1.08-0.25-1.76-0.41c-0.17,1.01-0.44,1.83-0.43,2.65c0.05,3.02,0.27,6.05,0.27,9.07c0,2.39,0.67,4.75,0.2,7.15
			c-0.04,0.19,0.1,0.41,0.11,0.61c0.05,1.59,0.08,3.17,0.14,4.76c0.04,0.95,0.19,1.91,0.16,2.85c-0.05,1.43-0.26,2.86-0.3,4.29
			c-0.07,2.53,0.02,5.03,0.51,7.55c0.59,3,1.27,5.98,1.24,9.12c-0.04,3.54,0.56,7.09,0.82,10.64c0.09,1.27,0.03,2.54,0.04,3.82
			c0.02,2.49,0.21,4.99,0.03,7.46c-0.16,2.24,0.09,4.45,0,6.68c-0.04,1.01-0.04,2.02-0.01,3.03c0.04,1.42,0.16,2.84,0.17,4.26
			c0,0.52-0.13,1.06-0.32,1.55c-0.26,0.66-0.74,1.12-1.46,1.36c-1.23,0.4-2.47,0.21-3.71,0.19c-0.69-0.01-1.02-0.43-1.09-1.13
			c-0.25-2.63-0.58-5.26-0.8-7.9c-0.15-1.8-0.21-3.61-0.21-5.42c0-0.91-0.68-1.84,0.05-2.76c0.13-0.16,0.05-0.53-0.01-0.78
			c-0.86-3.11-0.55-6.37-1.14-9.5c-0.44-2.33-0.7-4.67-0.41-6.99c0.57-4.66-0.05-9.24-0.55-13.84c-0.1-0.9-0.04-1.81-0.09-2.71
			c-0.08-1.7-0.21-3.4-0.28-5.1c-0.06-1.33-0.09-2.66-0.07-3.99c0.03-2.25-0.18-4.43-1.01-6.57c-0.7-1.79-0.93-3.68-0.74-5.64
			c0.17-1.79,0.03-3.6,0.04-5.41c0.03-3.5,0.07-7.01,0.1-10.51c0-0.1-0.05-0.2-0.11-0.44c-0.65,0-1.33-0.02-2.01,0
			c-2.02,0.06-4.05,0.28-6.05,0.17c-2.32-0.13-4.64-0.25-6.96-0.79c-2.62-0.61-5.35-0.71-8.01-1.17c-1.56-0.27-3.08-0.79-4.61-1.2
			c-1.48-0.39-2.94-0.9-4.44-1.14c-2.8-0.45-5.5-1.21-8.08-2.37c-1.15-0.52-2.24-1.14-3.36-1.72L367.43,444.12z M425.65,390.63
			c-4.27,0.14-8.5,0.43-12.69,1.36c-2.8,0.63-5.62,1.2-8.47,1.52c-2.6,0.3-5.14,0.81-7.67,1.44c-1.8,0.45-3.62,0.82-5.44,1.2
			c-2.55,0.53-5.11,0.99-7.64,1.58c-3.62,0.84-7.19,1.92-10.83,2.64c-4.83,0.94-9.49,2.28-13.85,4.61c-1.33,0.72-2.39,1.66-3.36,2.8
			c-0.87,1.01-1.05,2.1-0.57,3.26c0.83,2.01,1.57,4.09,2.69,5.93c1.23,2,2.45,4.11,4.59,5.38c0.18,0.1,0.29,0.31,0.46,0.44
			c0.73,0.53,1.42,1.16,2.22,1.53c4.23,1.97,8.49,3.9,12.75,5.81c4.38,1.96,9.08,2.87,13.68,4.1c1.99,0.53,4.06,0.79,6.09,1.18
			c2.55,0.49,5.09,0.98,7.63,1.51c3.01,0.62,6.01,1.28,9.02,1.9c1.09,0.22,2.2,0.36,3.3,0.56c1.04,0.19,2.08,0.42,3.12,0.62
			c3.02,0.58,6.03,1.33,9.08,1.67c3,0.33,6.05,0.25,9.07,0.33c1.8,0.05,3.61,0.08,5.41,0.06c1.16-0.02,2.31-0.13,3.46-0.25
			c0.63-0.07,1.25-0.31,1.88-0.38c4.34-0.5,8.54-1.64,12.78-2.66c2.84-0.68,5.72-1.2,8.56-1.87c1.75-0.41,3.48-0.93,5.21-1.44
			c1.42-0.42,2.83-0.9,4.24-1.35c0.95-0.31,1.9-0.61,2.85-0.93c1.26-0.43,2.5-0.9,3.76-1.32c0.8-0.27,1.65-0.41,2.42-0.74
			c3.32-1.4,6.35-3.25,8.61-6.11c1.15-1.46,2.09-3.15,2.24-5.04c0.23-2.98-0.58-5.65-2.91-7.73c-1.34-1.2-2.59-2.51-3.9-3.75
			c-1.19-1.13-2.29-2.41-3.64-3.31c-2.83-1.86-5.8-3.51-8.71-5.25c-2.31-1.38-4.6-2.77-7.03-3.97c-3.7-1.83-7.47-3.27-11.54-3.93
			c-1.1-0.18-2.22-0.24-3.32-0.38c-2.05-0.25-4.09-0.67-6.14-0.75c-3.6-0.13-7.22-0.03-10.82-0.07
			C436.73,390.79,431.19,390.7,425.65,390.63z M504.54,592.58c1.49,0.31,2.88,0.58,4.27,0.88c1.88,0.41,2.23,0.27,2.73-1.59
			c0.31-1.17,0.41-2.4,0.57-3.6c0.27-1.94,0.54-3.88,0.78-5.82c0.31-2.52,0.58-5.05,0.89-7.58c0.31-2.54,0.54-5.06-0.05-7.61
			c-0.67-2.9-0.97-5.87-0.85-8.86c0.07-1.64,0.28-3.28,0.32-4.92c0.08-3.66,0.14-7.32,0.11-10.98c-0.04-5.05-0.13-10.1-0.28-15.15
			c-0.07-2.23-0.33-4.45-0.5-6.68c-0.09-1.16-0.32-2.32-0.27-3.47c0.13-2.81,0.41-5.61,0.57-8.42c0.12-2.22,0.16-4.45,0.22-6.68
			c0.05-1.59,0.23-3.2,0.09-4.78c-0.19-2.08-0.12-4.14,0.05-6.21c0.04-0.53,0.07-1.06,0.05-1.59c-0.12-4.51-0.23-9.03-0.39-13.54
			c-0.09-2.49-0.09-5.01-0.43-7.47c-0.25-1.87-0.3-3.71-0.21-5.57c0.1-1.96,0.23-3.93,0.25-5.89c0.01-1-0.33-2.01-0.29-3
			c0.09-2.42-0.21-4.79-1.01-7.05c-0.54-1.52-1.37-2.94-2.1-4.46c-1.94,1.08-3.68,2.05-5.58,3.11c1.02,0.34,0.99,0.91,0.83,1.76
			c-0.24,1.29-0.28,2.66-0.16,3.97c0.41,4.44,0.97,8.86,1.38,13.29c0.17,1.89,0.11,3.81,0.15,5.72c0.03,1.48,0.07,2.96,0.08,4.44
			c0.03,3.29,0.03,6.58,0.08,9.87c0.01,0.9,0.29,1.81,0.26,2.7c-0.1,2.52,0.42,4.94,0.91,7.4c0.84,4.21,1.97,8.42,0.98,12.78
			c-0.05,0.2-0.01,0.42-0.02,0.64c-0.1,2.22-0.18,4.44-0.32,6.66c-0.15,2.43-0.4,4.86-0.55,7.3c-0.15,2.54-0.13,5.09-0.38,7.61
			c-0.26,2.59-0.76,5.16-1.13,7.74c-0.08,0.57-0.06,1.17-0.03,1.75c0.17,3.34,0.4,6.69,0.53,10.03c0.04,1.16-0.28,2.34-0.2,3.49
			c0.18,2.6,0.27,5.18,0.04,7.8c-0.36,4.23-0.41,8.49-0.73,12.73c-0.23,2.92-0.46,5.83-0.32,8.77c0.12,2.49,0,4.99-0.06,7.48
			C504.79,590.53,504.64,591.48,504.54,592.58z M338.48,418.66c-0.09,1.92-0.05,3.79,0.84,5.49c1.06,2.03,2.29,3.94,3.73,5.7
			c0.9,1.1,1.93,2.05,3.23,2.76c1.71,0.93,3.38,2.01,4.9,3.22c0.91,0.73,1.88,1.16,2.91,1.58c1.62,0.66,3.26,1.28,4.87,1.96
			c0.78,0.32,1.5,0.8,2.3,1.06c2.2,0.74,4.44,1.37,6.65,2.11c0.79,0.27,1.62,0.59,2.25,1.12c1.78,1.5,3.96,1.98,6.1,2.51
			c2.42,0.6,4.87,1.05,7.3,1.6c0.87,0.2,1.72,0.53,2.59,0.7c1.4,0.27,2.85,0.35,4.23,0.71c4.71,1.21,9.53,1.62,14.35,2.03
			c0.62,0.05,1.26-0.07,1.89-0.16c1.73-0.24,3.44-0.4,5.2-0.07c2.8,0.52,5.53,1.49,8.43,1.43c0.51-0.01,1.03,0.25,1.54,0.37
			c1.54,0.36,3.07,0.83,4.64,1.06c3.47,0.52,6.95,0.93,10.44,1.35c1.37,0.17,2.74,0.25,4.12,0.35c1,0.07,2.01,0.1,3.02,0.17
			c2.91,0.2,5.71,1.1,8.68,1.11c1.76,0.01,3.51,0.01,5.21-0.29c3.66-0.65,7.28-1.49,10.93-2.19c1.61-0.31,3.26-0.43,4.89-0.66
			c2.41-0.33,4.86-0.38,7.22-1.09c1.47-0.44,3.01-0.67,4.51-1.02c0.46-0.11,0.91-0.3,1.33-0.51c2.13-1.09,4.19-2.33,6.38-3.28
			c2.97-1.29,6.03-2.37,9.05-3.52c2.86-1.09,5.34-2.81,7.77-4.6c0.84-0.62,1.6-1.5,1.67-2.92c-1.77,0.57-3.1,1.51-4.48,2.37
			c-0.81,0.5-1.61,1.04-2.47,1.44c-3.02,1.41-6.11,2.68-9.08,4.17c-3.92,1.97-7.99,3.45-12.27,4.4c-3.47,0.78-6.93,1.56-10.4,2.33
			c-0.26,0.06-0.53,0.08-0.79,0.12c-1,0.17-2,0.32-2.99,0.51c-3.19,0.61-6.35,1.42-9.63,1.18c-2.86-0.21-5.72,0.15-8.58-0.06
			c-1.96-0.14-3.93,0.03-5.9,0.05c-1.7,0.02-3.41,0.12-5.1,0.01c-2.91-0.19-5.82-0.5-8.72-0.78c-1.11-0.1-2.27-0.07-3.31-0.41
			c-1.53-0.5-3.06-0.81-4.67-0.87c-0.69-0.02-1.38-0.14-2.05-0.3c-3.6-0.9-7.2-1.84-10.8-2.73c-0.92-0.23-1.87-0.39-2.82-0.45
			c-1.32-0.09-2.64-0.04-3.9-0.6c-0.57-0.25-1.23-0.34-1.85-0.41c-3.1-0.32-6.2-0.62-9.3-0.89c-1.96-0.17-3.96-0.06-5.88-0.42
			c-3.7-0.69-7.36-1.65-11.04-2.43c-2.4-0.51-4.69-1.34-6.95-2.27c-0.69-0.28-1.42-0.49-2.14-0.62c-2.91-0.53-5.58-1.67-8.1-3.2
			c-1.73-1.04-3.6-1.88-5.25-3.02c-2.58-1.78-5.06-3.71-7.53-5.64c-2.38-1.86-4.35-4.06-5.57-6.88
			C339.64,420.41,339.01,419.55,338.48,418.66z M416.97,535.13c2.29,1.77,3.57,1.37,4.02-1.2c0.23-1.29,0.17-2.63,0.17-3.94
			c0.01-1.91-0.09-3.81-0.06-5.72c0.04-2.39,0.5-4.77,0-7.17c-0.17-0.82-0.04-1.7-0.05-2.55c-0.01-0.9,0.03-1.81-0.05-2.7
			c-0.16-2.02-0.42-4.02-0.56-6.04c-0.15-2.27-0.18-4.54-0.32-6.81c-0.06-1-0.16-2.03-0.45-2.98c-1.08-3.51-1.33-7.09-1.18-10.72
			c0.05-1.27,0.36-2.53,0.34-3.79c-0.05-3.01-0.21-6.02-0.36-9.02c-0.16-3.13-0.37-6.26-0.53-9.39c-0.08-1.54-0.19-3.09-0.07-4.62
			c0.12-1.51-0.33-3.11,0.58-4.43c-1.95-0.39-3.8-0.75-5.74-1.14c-0.45,3.39-0.63,6.7-0.5,10.03c0.07,2.02,0.01,4.04,0.06,6.06
			c0.03,1,0.07,2.01,0.28,2.98c0.41,1.92,1.07,3.79,1.36,5.72c0.22,1.5-0.05,3.05,0.02,4.58c0.13,2.97,0.33,5.94,0.52,8.91
			c0.15,2.28,0.31,4.56,0.51,6.84c0.24,2.81,0.29,5.61-0.02,8.43c-0.16,1.47-0.09,2.99,0.08,4.46c0.45,4,1.12,7.99,1.5,12
			c0.32,3.32,0.34,6.67,0.53,10.01c0.04,0.62,0.28,1.22,0.42,1.82C417.37,534.81,417.22,534.93,416.97,535.13z M504.6,594.62
			c-0.08,0.12-0.15,0.24-0.23,0.35c0.26,0.12,0.51,0.25,0.77,0.35c0.01,0,0.13-0.19,0.12-0.2
			C505.05,594.95,504.82,594.79,504.6,594.62z"/>
		<path d="M237.95,364.33c-0.37-0.79-0.6-1.27-0.83-1.77c0.42-2.19,1.87-3.84,3.06-5.65c0.96-1.46,1.73-3.04,2.58-4.57
			c0.93-1.67,1.93-3.3,2.75-5.02c1.17-2.44,2.2-4.94,3.31-7.4c0.22-0.48,0.5-0.94,0.77-1.39c1.72-2.92,3.6-5.76,5.13-8.78
			c1.14-2.26,2.83-4.11,4.07-6.26c1.23-2.14,2.53-4.29,3.19-6.72c1.02-3.72,3.47-6.64,5.47-9.82c0.96-1.53,1.8-3.13,2.81-4.62
			c1.16-1.71,2.49-3.3,3.68-4.99c0.94-1.34,1.82-2.73,2.67-4.13c1.25-2.04,2.53-4.05,4.42-5.58c0.17-0.13,0.39-0.24,0.48-0.42
			c1.09-2.27,3.36-3.48,4.81-5.42c0.38-0.51,0.8-1.01,1.07-1.57c1.08-2.27,2.36-4.38,4.1-6.23c0.87-0.92,1.52-2.03,2.32-3.03
			c1.78-2.23,3.39-4.64,5.44-6.6c3.36-3.22,6.24-6.93,10.05-9.72c2.25-1.65,4.18-3.77,6.21-5.72c1.14-1.1,2.15-2.32,3.28-3.42
			c1.55-1.5,3.19-2.9,4.74-4.4c0.59-0.57,0.99-1.35,1.56-1.95c0.8-0.85,1.68-1.62,2.53-2.43c0.72-0.69,1.45-1.38,2.17-2.06
			c1.88-1.76,4.19-2.86,6.31-4.25c2.74-1.8,5.35-3.81,7.39-6.45c0.51-0.66,1.14-1.22,1.76-1.78c3.33-2.97,6.92-5.59,10.85-7.73
			c1.96-1.06,3.76-2.41,5.69-3.51c1.04-0.59,1.74-1.44,2.26-2.41c1.34-2.44,3.49-4.11,5.41-6.01c1.4-1.4,3.1-2.42,4.36-4.04
			c1.45-1.87,3.41-3.33,5.09-5.03c1.72-1.73,3.37-3.54,5.06-5.3c0.95-0.99,1.83-2.06,3.12-2.64c0.23-0.1,0.43-0.29,0.63-0.47
			c2.73-2.44,5.45-4.89,8.18-7.32c0.27-0.24,0.62-0.43,0.97-0.54c3.5-1.15,6.73-2.89,10.01-4.54c1.8-0.9,3.67-1.66,5.53-2.42
			c2.55-1.04,5.14-2.01,7.7-3.02c3.8-1.5,7.64-2.93,11.38-4.57c2.07-0.91,3.99-2.17,5.98-3.27c2.18-1.21,4.38-2.37,6.54-3.62
			c2.47-1.42,5.14-2.47,7.52-4.09c2.92-1.99,6.22-3.22,9.58-4.27c3.39-1.07,6.8-2.1,10.2-3.14c1.17-0.36,2.35-0.66,3.5-1.05
			c3.32-1.12,6.62-2.28,9.93-3.42c1.8-0.62,3.61-1.21,5.41-1.83c0.4-0.14,0.88-0.25,1.14-0.53c1.94-2.17,4.64-2.64,7.24-3.34
			c3.02-0.81,6.02-1.63,8.99-2.63c3.96-1.34,7.96-2.63,12.18-3.05c1.99-0.2,3.93-0.85,5.89-1.3c0.67-0.15,1.37-0.24,2.01-0.48
			c0.46-0.17,0.84-0.56,1.47-0.99c0.69,0.5,2.19-0.15,2.88,1.22c-0.39,1.54-1.86,1.42-2.89,1.94c-0.08,0.04-0.21-0.01-0.32,0
			c-2.64,0.3-5.17,0.69-7.44,2.4c-1.8,1.35-4.01,2.16-6.03,3.21c-0.19,0.1-0.43,0.13-0.58,0.27c-1.6,1.48-3.6,1.52-5.61,1.88
			c-3.7,0.66-7.51,0.96-10.95,2.7c-0.89,0.45-1.88,0.73-2.76,1.21c-0.88,0.48-1.68,1.11-2.58,1.72c0.33,1.09,0.71,2.13-0.05,3.19
			c-0.63,0.88-1.09,1.87-1.74,3c1.32-0.16,2.59-0.2,3.78-0.49c4.33-1.07,8.67-2.12,12.93-3.42c1.63-0.5,3.09-1.61,4.59-2.51
			c1.31-0.79,2.61-1.62,3.84-2.53c1.11-0.81,2.16-1.7,3.17-2.62c2.25-2.03,4.45-4.12,6.7-6.15c0.51-0.46,1.17-0.75,1.8-1.14
			c0.38,0.77-0.18,1.12-0.59,1.5c-1.19,1.13-2.37,2.28-3.61,3.35c-2.43,2.1-4.45,4.67-7.2,6.4c-2.78,1.75-5.37,3.83-8.5,4.93
			c-2.05,0.72-4.2,1.15-6.29,1.75c-1.28,0.36-2.52,0.84-3.81,1.16c-0.8,0.2-1.66,0.18-2.49,0.32c-0.76,0.13-1.49,0.37-2.25,0.51
			c-0.57,0.11-1.18,0.29-1.73,0.18c-1.22-0.24-2.27,0.17-3.33,0.64c-0.14,0.06-0.34,0.08-0.43,0.19c-1.89,2.29-4.1,4.26-6.14,6.4
			c-2.17,2.28-4.68,4.13-7.26,5.9c-1.09,0.75-2.08,1.68-3.23,2.3c-2.75,1.48-5.53,2.91-8.37,4.21c-3.76,1.73-7.57,3.35-11.39,4.94
			c-1.96,0.82-3.98,1.49-5.98,2.2c-3.23,1.14-6.46,2.29-9.72,3.35c-1.66,0.54-3.37,0.92-5.06,1.36c-0.82,0.21-1.65,0.39-2.47,0.61
			c-1.3,0.36-1.3,0.37-2.63-0.32c-1.48,0.59-2.21,2.94-4.48,1.95c-1.99,2.83-3.93,5.61-5.89,8.38c-0.61,0.87-1.3,1.68-1.87,2.57
			c-0.69,1.07-1.27,2.2-1.93,3.28c-1.62,2.68-3.26,5.35-4.9,8.01c-1.58,2.58-3.13,5.19-4.77,7.73c-0.81,1.25-1.75,2.41-2.72,3.54
			c-1.59,1.85-3.19,3.69-4.89,5.43c-2.34,2.4-4.88,4.6-7.7,6.43c-2.58,1.66-5.1,3.42-7.81,4.84c-2.51,1.32-5.03,2.69-7.91,3.23
			c-1.34,0.25-2.59,0.96-3.89,1.41c-0.69,0.24-1.42,0.36-2.14,0.54c-0.36,0.09-0.74,0.11-1.08,0.26c-2.88,1.29-5.94,1.58-9.04,1.53
			c-0.72-0.01-1.42-0.54-2.18-0.84c-0.33,0.27-0.72,0.59-1.12,0.92c-1.32,1.11-1.26,1.39-3.32,0.01c-1.43,1.03-1.72,2.72-2.32,4.2
			c-1.25,3.1-2.29,6.29-3.57,9.38c-1.56,3.77-2.88,7.64-4.55,11.37c-1.44,3.21-2.82,6.43-4.71,9.4c-0.69,1.08-1.49,2.08-2.19,3.15
			c-1.2,1.82-2.38,3.65-3.54,5.5c-0.64,1.03-1.23,2.1-1.81,3.17c-1.32,2.39-3.28,4.3-4.86,6.48c-2.5,3.45-6.01,5.67-9.11,8.4
			c-0.8,0.7-1.52,1.49-2.35,2.15c-3.03,2.42-6.08,4.82-9.16,7.18c-1.47,1.12-3,2.17-4.55,3.18c-1.01,0.65-2.15,0.86-3.37,0.7
			c-1.63-0.21-2.89,0.39-3.79,1.78c-0.57,0.88-1.18,1.73-1.75,2.58c-1.88,0.05-1.86,0.05-2.29,1.95c-0.52,2.3-0.77,4.61-0.8,6.97
			c-0.02,1.49-0.26,2.97-0.33,4.46c-0.11,2.65-0.19,5.3-0.23,7.95c-0.01,0.9,0.17,1.79,0.24,2.69c0.25,3.15-0.33,6.23-0.79,9.32
			c-0.29,1.88-0.59,3.77-0.89,5.65c-0.02,0.15-0.03,0.31-0.07,0.46c-1.17,4.49-1.47,9.11-2.09,13.68c-0.28,2.11-0.66,4.21-1.08,6.3
			c-0.67,3.31-1.33,6.63-2.15,9.91c-0.76,3.02-1.7,6-2.6,8.98c-0.92,3.04-1.89,6.07-2.84,9.11c-0.12,0.39-0.25,0.79-0.37,1.18
			c-0.1-0.03-0.21-0.05-0.31-0.08c0.37-1.56,0.71-3.13,1.11-4.68c1.47-5.72,2.93-11.44,4.46-17.15c1.24-4.64,1.92-9.38,2.65-14.11
			c0.58-3.78,0.98-7.59,1.57-11.37c0.53-3.41,1.24-6.79,1.84-10.18c0.5-2.85,0.33-5.71,0.31-8.58c-0.02-3.55-0.34-7.1,0.11-10.65
			c0.29-2.3,0.31-4.64,0.57-6.95c0.2-1.73,0.6-3.44,0.93-5.24c-0.99-0.79-2.27-1.52-3.16-2.59c-0.88-1.07-1.36-2.47-2.1-3.87
			c-0.43,0.37-0.95,0.7-1.33,1.15c-1.33,1.58-2.63,3.18-3.89,4.81c-0.58,0.75-1.09,1.57-1.59,2.38c-1.34,2.17-2.66,4.35-4,6.51
			c-0.28,0.45-0.65,0.84-0.93,1.29c-0.81,1.29-1.59,2.6-2.37,3.91c-0.38,0.64-0.64,1.36-1.1,1.93c-3.06,3.8-4.72,8.25-6.08,12.85
			c-0.36,1.22-0.73,2.45-1.26,3.6c-0.95,2.08-2.01,4.1-3.02,6.15c-0.09,0.19-0.2,0.38-0.27,0.57c-1.55,4.27-3.94,8.11-6.23,12
			c-0.63,1.08-0.96,2.4-2.41,2.9c-0.38-0.28-0.6-0.49-0.23-1.09c1.38-2.27,2.76-4.54,4-6.89c1.28-2.44,2.71-4.79,3.59-7.44
			c0.46-1.39,1.32-2.64,1.97-3.97c1.07-2.19,1.99-4.42,2.63-6.8c1.03-3.84,2.56-7.52,4.62-10.93c1.95-3.22,4.07-6.33,6.1-9.51
			c1.54-2.42,3.04-4.86,4.58-7.29c0.37-0.58,0.77-1.14,1.23-1.66c1.75-1.98,3.5-3.96,5.3-5.89c0.5-0.54,0.69-1.07,0.51-1.73
			c-0.6-2.3-0.06-4.54,0.31-6.79c0.26-1.61,0.5-3.23,0.79-5.12c-0.63,0.41-1,0.65-1.43,0.93c0.29-1.71,2.09-3.03,3.8-2.78
			c1.31,0.19,2.65,0.36,3.39,1.77c0.2,0.39,0.7,0.62,1.08,0.95c1.73-1.91,3.45-3.81,5.16-5.72c0.21-0.24,0.39-0.51,0.56-0.78
			c0.62-0.97,1.09-2.09,1.88-2.9c1.26-1.28,2.05-2.83,2.91-4.33c1.1-1.94,2.85-3.25,4.32-4.83c1.44-1.55,3.05-2.93,4.24-4.72
			c0.58-0.87,1.4-1.6,2.2-2.29c2.4-2.08,4.94-4,7.24-6.18c2.35-2.22,4.61-4.55,6.51-7.19c0.37-0.51,0.88-0.92,1.27-1.42
			c0.48-0.62,0.91-1.28,1.35-1.93c0.21-0.31,0.31-0.69,0.55-0.97c1.75-2.05,2.98-4.51,5.21-6.19c1.17-0.88,2.04-2.14,3.08-3.2
			c1.44-1.47,2.93-2.89,4.37-4.36c1.41-1.44,2.77-2.93,4.19-4.35c1.57-1.57,3.19-3.09,4.76-4.66c0.31-0.31,0.59-0.74,0.67-1.16
			c0.44-2.24,0.82-4.5,1.23-6.86c0.6-0.17,1.27-0.36,2.09-0.59c-0.18,1.08-1.58,1.39-1.16,2.63c1.14-0.14,2.38-0.59,3.3,0.67
			c1.9-1.36,3.71-2.65,5.52-3.94c0.17-0.12,0.36-0.22,0.54-0.33c1.16-0.64,2.1-1.41,2.92-2.54c0.87-1.19,2.3-2,3.55-2.9
			c2.75-1.98,5.55-3.88,8.31-5.86c0.56-0.4,1.03-0.94,1.47-1.46c1.34-1.58,2.88-2.92,4.51-4.2c1.51-1.18,3.06-2.26,4.7-3.23
			c1.92-1.13,3.84-2.25,5.78-3.33c1.89-1.06,3.76-2.18,5.72-3.09c1.88-0.87,3.39-2.07,4.57-3.77c0.4-0.58,1.19-0.87,1.71-1.39
			c1.74-1.72,3.63-3.2,5.76-4.44c1.68-0.98,3.11-2.39,4.69-3.54c0.93-0.68,1.89-1.4,2.95-1.8c1.95-0.74,3.23-2.37,4.93-3.43
			c0.36-0.22,0.42-0.92,0.64-1.4c0.58-1.3,1.07-2.67,1.8-3.89c0.4-0.67,1.01-1.35,1.96-1.51c0.32-0.05,0.59-0.39,0.88-0.61
			c0.85-0.67,1.31-0.55,1.81,0.45c0.16,0.33,0.34,0.65,0.61,1.16c0.66-0.43,1.24-0.82,1.83-1.21c1.15-0.75,2.3-1.5,3.45-2.24
			c0.88-0.57,1.76-1.15,2.66-1.71c0.77-0.47,1.53-0.95,2.34-1.35c2.66-1.32,5.31-2.68,8.03-3.86c1.82-0.79,3.46-1.75,4.97-3.06
			c1.05-0.91,2.52-1.33,3.79-1.98c1.17-0.61,2.35-1.21,3.5-1.86c1.94-1.1,3.76-2.45,5.8-3.29c2.39-0.98,4.86-1.79,7.43-2.3
			c4.06-0.81,8.09-1.83,12.1-2.87c1.16-0.3,2.32-0.84,3.3-1.52c0.59-0.41,0.9-1.27,1.26-1.97c0.75-1.48,0.73-1.49,2.39-1.35
			c0.77-1.19,0.74-1.18,2.44-0.32c0.67-0.48,1.31-1.09,2.06-1.43c2.31-1.04,4.63-2.11,7.03-2.92c1.64-0.55,3.41-0.71,5.13-1
			c1.52-0.26,3.05-0.41,4.56-0.71c0.66-0.13,1.27-0.5,1.88-0.81c2.28-1.15,4.54-2.32,6.81-3.49c0.28-0.14,0.53-0.33,0.88-0.55
			c-2.73-0.11-7.04,0.85-9.27,1.94c-0.7,0.34-1.49,0.51-2.26,0.72c-4.05,1.09-8.12,2.11-12.16,3.26c-1.78,0.51-3.56,1.11-4.74,2.74
			c-0.19,0.26-0.6,0.43-0.95,0.51c-3.99,0.97-7.84,2.38-11.57,4.05c-2.06,0.92-4.18,1.4-6.34,1.88c-1.18,0.27-2.29,0.86-3.46,1.23
			c-3.74,1.2-7.53,2.28-11.23,3.58c-2.5,0.88-4.87,2.11-7.06,3.64c-0.43,0.3-0.88,0.62-1.36,0.83c-4.43,1.97-8.6,4.42-12.74,6.93
			c-3.37,2.04-7.04,3.42-10.67,4.89c-3.19,1.28-6.37,2.6-9.55,3.9c-3.05,1.24-6.15,2.4-9.15,3.75c-2.71,1.22-5.31,2.69-7.97,4.01
			c-0.61,0.3-1.28,0.46-1.93,0.68c-1.67,0.55-2.91,1.74-4.18,2.86c-1.84,1.61-3.53,3.41-5.47,4.89c-1.7,1.3-3.29,2.69-4.78,4.21
			c-2.31,2.36-4.6,4.73-6.89,7.11c-1.03,1.07-2,2.21-3.07,3.24c-1.15,1.1-2.36,2.13-3.59,3.14c-2.03,1.68-3.7,3.61-5.05,5.9
			c-0.61,1.04-1.75,1.84-2.79,2.54c-1.76,1.19-3.63,2.2-5.44,3.32c-2.26,1.4-4.57,2.72-6.73,4.26c-2.46,1.77-4.78,3.76-6.67,6.14
			c-1.35,1.7-2.98,3-4.72,4.21c-2.78,1.94-5.85,3.47-8.35,5.8c-1.59,1.48-3.1,3.05-4.64,4.58c-2.11,2.09-4.23,4.17-6.33,6.28
			c-0.9,0.9-1.75,1.84-2.64,2.75c-0.86,0.87-1.7,1.76-2.62,2.57c-2.27,1.99-4.63,3.88-6.85,5.93c-1.47,1.36-2.73,2.95-4.11,4.41
			c-0.73,0.77-1.51,1.49-2.25,2.24c-2.82,2.88-5.24,6.09-7.66,9.29c-1.49,1.97-3.05,3.95-4.14,6.15c-1.05,2.12-2.7,3.59-4.29,5.18
			c-0.19,0.19-0.44,0.32-0.59,0.53c-1.35,1.83-3.01,3.4-4.36,5.21c-1.25,1.69-2.24,3.58-3.35,5.38c-0.36,0.58-0.75,1.14-1.16,1.69
			c-1.29,1.74-2.64,3.44-3.87,5.22c-1.27,1.83-2.41,3.75-3.62,5.61c-1.01,1.55-2.08,3.07-3.04,4.65c-0.35,0.57-0.45,1.28-0.69,1.91
			c-0.49,1.28-0.97,2.58-1.52,3.84c-0.73,1.64-1.44,3.29-2.33,4.84c-0.6,1.04-1.52,1.89-2.29,2.83c-0.2,0.25-0.43,0.48-0.58,0.76
			c-1.8,3.24-3.59,6.49-5.38,9.73c-0.13,0.23-0.28,0.45-0.4,0.69c-0.6,1.11-1.24,2.21-1.79,3.35c-0.75,1.57-1.11,3.32-2.22,4.75
			c-0.39,0.51-0.43,1.27-0.74,1.86c-1.15,2.19-2.32,4.37-3.53,6.54c-0.59,1.06-1.2,2.13-1.92,3.11
			C239.99,359.91,238.59,361.75,237.95,364.33z M286.29,299.55c0.86,1.05,1.66,1.9,2.3,2.85c0.55,0.83,1.18,1.74,1.31,2.68
			c0.28,1.92,0.31,3.89,0.31,5.83c0,0.92-0.32,1.85-0.5,2.81c0.57-0.02,1.08-0.08,1.6-0.06c1.59,0.05,3.04-0.3,4.31-1.32
			c1.37-1.1,2.74-2.19,4.14-3.24c3.19-2.4,6.45-4.71,9.34-7.47c0.73-0.7,1.48-1.38,2.28-1.98c3.56-2.64,6.77-5.64,9.4-9.22
			c0.91-1.24,1.88-2.44,2.71-3.73c2.02-3.12,3.97-6.29,5.94-9.44c1.49-2.38,3.2-4.66,4.37-7.19c2.16-4.66,4.02-9.47,5.98-14.22
			c1.35-3.29,2.78-6.56,3.93-9.92c0.82-2.4,1.76-4.66,3.62-6.46c-0.54-1.78-1.08-3.52-1.65-5.39c-0.4,0.28-0.77,0.48-1.07,0.76
			c-1.72,1.65-3.57,3.2-5.11,5.01c-2.93,3.44-6.56,6.21-9.35,9.77c-0.13,0.17-0.29,0.32-0.46,0.45c-2.26,1.7-3.7,4.08-5.11,6.44
			c-0.57,0.96-1.17,1.85-1.91,2.67c-0.88,0.98-1.71,2-2.57,3c-0.66,0.77-1.25,1.61-1.98,2.29c-2.45,2.27-4.95,4.47-7.43,6.71
			c-1.38,1.25-2.89,2.38-4.11,3.77c-1.24,1.42-2.25,3.02-3.69,4.29c-1.11,0.98-2.1,2.09-3.19,3.09c-1.47,1.35-2.54,2.99-3.45,4.74
			c-0.39,0.76-0.72,1.44-1.42,2.03c-0.88,0.74-1.72,1.69-2.17,2.72c-0.62,1.44-1.69,2.42-2.69,3.51
			C288.77,296.67,287.58,298.07,286.29,299.55z M420.13,182.18c-0.38-0.81-0.77-1.62-1.17-2.47c-0.27,0.14-0.59,0.23-0.8,0.43
			c-1.28,1.22-2.75,2.14-4.35,2.87c-0.67,0.31-1.3,0.72-1.91,1.14c-2.35,1.63-4.64,3.36-7.04,4.92c-1.99,1.3-3.41,3.17-5.13,4.73
			c-1.13,1.03-2.18,2.26-3.49,2.97c-2.47,1.33-5.04,2.44-7.5,3.84c-3.14,1.78-6.22,3.64-9.18,5.7c-1.38,0.95-2.54,2.23-3.77,3.38
			c-1.05,0.98-1.96,2.12-3.1,2.97c-2.67,2.01-5.49,3.82-8.13,5.86c-1.3,1-2.97,1.72-3.53,3.52c-0.06,0.21-0.39,0.35-0.61,0.48
			c-0.59,0.36-1.2,0.68-1.78,1.06c-2.15,1.44-4.29,2.89-6.36,4.29c0.51,1.38,0.79,2.65,1.42,3.71c1.33,2.25,0.67,4.27-0.39,6.31
			c-0.16,0.31-0.31,0.64-0.46,0.96c3.1,0.7,5.99,0.13,8.86-0.74c2.38-0.72,4.8-1.35,7.17-2.12c1.92-0.62,3.8-1.36,5.67-2.1
			c1.09-0.43,2.19-0.86,3.19-1.45c2.24-1.32,4.46-2.68,6.63-4.12c3.08-2.05,6.18-4.09,8.56-7c0.57-0.7,1.13-1.42,1.78-2.04
			c3.38-3.2,5.97-7,8.42-10.91c1.72-2.74,3.51-5.44,5.23-8.18c0.53-0.85,0.94-1.78,1.42-2.67c0.66-1.21,1.28-2.45,2.03-3.59
			c1.14-1.73,2.37-3.38,3.57-5.07C416.96,186.65,418.52,184.45,420.13,182.18z M485.84,146.72c-3.24,0.84-6.31,1.65-9.39,2.43
			c-1.18,0.3-2.37,0.56-3.57,0.78c-3.29,0.63-6.51,1.47-9.54,2.93c-0.52,0.25-0.95,0.69-1.48,0.9c-1.77,0.73-3.48,1.51-4.89,2.87
			c-0.36,0.35-0.93,0.5-1.42,0.69c-2.04,0.77-4.06,1.54-5.71,3.06c-0.77,0.71-1.69,1.3-2.63,1.76c-2.76,1.36-5.58,2.61-8.35,3.95
			c-1.09,0.53-2.13,1.17-3.18,1.79c-0.82,0.48-1.62,1.01-2.43,1.51c-2.02,1.24-4.04,2.47-6.04,3.69c0.34,2.62,0.96,5.08-1.15,7.34
			c0.74-0.06,1.16-0.03,1.56-0.14c3.08-0.8,6.17-1.57,9.23-2.44c2.09-0.59,4.25-1.1,6.18-2.06c2.73-1.35,5.64-2.13,8.43-3.27
			c3.19-1.3,6.47-2.39,9.6-3.83c3.23-1.48,6.34-3.24,9.45-4.95c1.06-0.58,1.94-1.46,2.96-2.13c2.81-1.85,5.43-3.91,7.74-6.35
			c1.7-1.79,3.4-3.59,5.14-5.43C485.5,149.09,485.74,148.01,485.84,146.72z M285.27,300.7c-0.7,1.01-1.47,1.91-2,2.93
			c-0.53,1.03-0.83,2.17-1.23,3.27c-0.48,1.31-1.04,2.57-2.24,3.38c-0.58,0.4-0.69,0.9-0.61,1.52c0.33,2.49,3.26,6.13,6.22,5.83
			c0.68-0.93,1.43-1.83,2.03-2.82c0.75-1.22,1.55-2.49,1.53-3.97c-0.02-1.64-0.25-3.27-0.42-4.9c-0.1-1.03-0.43-1.97-1.16-2.74
			c-0.21-0.23-0.48-0.53-0.48-0.81C286.91,301.38,286.23,301.05,285.27,300.7z M351.29,228.99c-1.36,1.08-2.41,1.94-3.5,2.76
			c-0.53,0.4-0.65,0.89-0.69,1.51c-0.12,1.87,0.53,3.54,1.32,5.16c0.89,1.83,0.94,1.9,2.48,0.37c1.26-1.24,2.24-2.78,2.14-4.6
			C352.96,232.46,351.97,230.95,351.29,228.99z M280.21,298.71c-1.14,3.15-2.17,7.93-1.11,10.61c0.15-0.39,0.22-0.6,0.31-0.79
			c0.52-1.09,1.04-2.18,1.56-3.27c0.81-1.72,1.52-3.5,2.84-4.94c0.42-0.45,0.92-1.03,0.35-1.68c-0.45-0.51-0.95-1.02-1.53-1.36
			c-1.09-0.64-2.25-1.27-3.54-0.21c0.67,0.3,1.31,0.54,1.89,0.88c0.2,0.12,0.23,0.51,0.33,0.78c-0.27,0.01-0.53,0.03-0.8,0.03
			C280.41,298.76,280.31,298.73,280.21,298.71z M422.34,182.09c0.34-0.22,0.78-0.42,1.09-0.74c0.58-0.6,1.02-1.35,1.65-1.88
			c0.77-0.64,1.08-1.45,1.1-2.35c0.03-0.98-0.13-1.97-0.23-3.37c-1.83,1.53-3.36,2.79-4.85,4.08c-0.22,0.19-0.35,0.53-0.42,0.82
			C420.25,180.18,420.6,180.92,422.34,182.09z M491.65,143.03c-0.59,0.32-1.05,0.56-1.5,0.82c-0.55,0.32-1.09,0.64-1.64,0.97
			c-1.22,0.73-1.76,2.13-1.37,3.53c0.16,0.58,0.5,0.78,1.06,0.54C490.08,148.08,491.71,145.41,491.65,143.03z M421.64,174.8
			c0.1,0.07,0.2,0.13,0.3,0.2c1.19-0.84,2.38-1.67,3.56-2.5c0.01-0.13,0.06-0.26,0.01-0.33c-0.25-0.37-0.52-0.72-0.79-1.08
			c-0.3,0.25-0.61,0.49-0.89,0.75c-0.31,0.29-0.62,0.58-0.87,0.92C422.5,173.42,422.08,174.12,421.64,174.8z M350.4,227.9
			c-0.99-1.11-1.8-0.65-2.7-0.35c-0.05,0.72-0.09,1.41-0.16,2.45C348.63,229.2,349.46,228.59,350.4,227.9z M489.32,141.98
			c-0.34,0.26-0.68,0.52-1.02,0.78C488.94,142.95,489.48,143.01,489.32,141.98z"/>
		<path d="M502.4,348.22c-1.49,0.51-2.55,0.44-3.58,0.17c-1.79-0.46-3.55-1.07-5.34-1.55c-1.39-0.37-2.79-0.7-4.21-0.94
			c-4.51-0.74-8.97-1.66-13.39-2.83c-3.55-0.94-7.15-1.65-10.69-2.62c-2.61-0.72-5.14-1.7-7.71-2.56c-0.7-0.24-1.41-0.46-2.11-0.7
			c-4.49-1.52-9.11-2.5-13.73-3.52c-2.64-0.58-5.2-1.5-7.8-2.25c-2.66-0.76-5.31-1.55-7.99-2.21c-1.54-0.38-3.13-0.56-4.7-0.81
			c-2.84-0.45-5.67-0.97-8.52-1.29c-3.12-0.35-6.26-0.45-9.38-0.77c-3.7-0.39-7.38-0.92-11.07-1.35c-2.48-0.29-4.96-0.54-7.45-0.78
			c-1.38-0.13-2.76-0.19-4.14-0.26c-0.83-0.04-1.66-0.01-2.86-0.01c1.21,0.54,2.07,1,2.98,1.32c3.64,1.3,7.31,2.52,10.95,3.84
			c2.43,0.89,4.81,1.94,7.24,2.85c1.74,0.65,3.53,1.17,5.3,1.74c1.36,0.44,2.73,0.88,4.1,1.29c1.92,0.58,3.85,1.08,5.75,1.7
			c1.91,0.62,3.77,1.38,5.67,2.03c1.4,0.48,2.85,0.82,4.24,1.32c1.89,0.68,3.83,1.31,5.62,2.21c4.23,2.12,8.76,3.25,13.33,4.24
			c3.24,0.7,6.32,1.82,9.44,2.88c1.2,0.41,2.41,0.76,3.62,1.13c2.18,0.67,4.37,1.32,6.53,2.05c0.37,0.13,0.62,0.62,0.93,0.94
			c-0.35,0.18-0.69,0.49-1.04,0.5c-0.89,0.04-1.82,0.07-2.67-0.13c-3.31-0.77-6.6-1.65-9.91-2.44c-3.41-0.81-6.85-1.52-10.27-2.32
			c-4.5-1.05-9.11-1.56-13.5-3.14c-1.39-0.5-2.89-0.67-4.32-1.08c-0.96-0.28-1.86-0.79-2.83-1.06c-3.99-1.12-7.97-2.27-12-3.25
			c-1.79-0.43-3.68-0.47-5.53-0.71c-0.9-0.12-1.79-0.27-2.68-0.43c-0.94-0.16-1.88-0.35-2.82-0.52c-3.93-0.68-7.87-1.27-11.78-2.06
			c-4.79-0.97-9.54-2.1-14.31-3.17c-1.6-0.36-3.21-0.67-4.79-1.1c-3.31-0.89-6.7-1.11-10.08-1.42c-3.61-0.33-7.18-0.92-10.64-2.03
			c-2.72-0.87-5.53-1.54-8.14-2.67c-3.55-1.53-7.07-3.22-9.86-6.04c-1.05-1.06-1.82-2.31-1.97-3.87c-0.06-0.62-0.27-1.23-0.43-1.9
			c-1.41-0.12-2.57,0.4-3.57,1.18c-2.09,1.62-4.25,3.2-6.12,5.05c-2.12,2.09-4.74,3.82-5.62,6.94c-0.55,0.14-1.05,0.27-1.56,0.4
			c-0.4-1.46-0.76-2.83-1.16-4.19c-0.59-2.04-1.26-4.05-1.77-6.11c-0.31-1.23-0.42-2.52-0.53-3.79c-0.1-1.07,0.08-1.22,1.45-1.53
			c0.01,4.44,1.19,8.61,2.74,12.68c0.25-0.05,0.4-0.03,0.44-0.09c2.31-3.08,5.05-5.71,8.1-8.04c0.8-0.61,1.54-1.29,2.35-1.88
			c0.73-0.53,1.49-1.05,2.3-1.43c0.81-0.39,1.7-0.6,2.57-0.9c0.26-2.38,1.31-4.41,2.67-6.31c1.28-1.78,2.68-3.41,4.42-4.78
			c1.32-1.05,2.83-1.48,4.41-1.64c2.07-0.21,4.15-0.09,6.09,0.85c0.28,0.14,0.6,0.24,0.91,0.29c2.6,0.35,4.32,3.65,3.13,6.03
			c-0.17,0.33-0.3,0.69-0.4,1.05c-0.34,1.2-1.19,1.84-2.32,2.19c-2.63,0.82-5.32,1.35-8.07,1.62c-3.22,0.32-6.46,0.65-9.58,2
			c0.54,3.03,1.8,5.51,4.63,7.01c1.92,1.02,3.72,2.29,5.7,3.14c2.67,1.15,5.45,2.07,8.22,2.97c1.76,0.57,3.58,0.99,5.41,1.31
			c3.03,0.54,6.08,1.19,9.14,1.34c3.07,0.15,5.96,0.92,8.92,1.55c3.43,0.73,6.87,1.45,10.3,2.21c1.66,0.37,3.29,0.88,4.95,1.23
			c2.65,0.56,5.31,1.06,7.97,1.55c3.39,0.62,6.78,1.23,10.19,1.78c1.99,0.32,3.99,0.56,5.99,0.8c2.97,0.35,5.83,1.17,8.67,2.06
			c2.79,0.87,5.57,1.74,8.38,2.55c2.75,0.79,5.5,1.56,8.29,2.22c4.03,0.96,8.09,1.82,12.25,2.75c0,0.27,0,0.59,0,0.91
			c0.6,0.35,0.83,0.14,1.07-0.43c0.08-0.19,0.73-0.15,1.43-0.27c-0.72-0.24-1.14-0.4-1.58-0.51c-2.16-0.56-4.31-1.16-6.48-1.64
			c-3.66-0.8-7.04-2.33-10.47-3.75c-1.91-0.79-3.9-1.37-5.87-2.03c-1.91-0.64-3.83-1.24-5.73-1.9c-1.4-0.48-2.77-1.07-4.18-1.51
			c-3.11-0.99-6.3-1.74-9.36-2.9c-2.86-1.08-5.71-2.22-8.59-3.25c-2.25-0.8-4.55-1.44-6.8-2.21c-1.66-0.57-3.28-1.23-4.91-1.86
			c-2.76-1.07-5.5-2.22-8.3-3.19c-1.03-0.36-2.2-0.43-3.31-0.42c-3.25,0.02-6.49-0.12-9.64-0.97c-1.42-0.38-2.81-0.96-4.15-1.56
			c-1.45-0.66-2.87-1.41-4.25-2.2c-0.72-0.42-1.38-0.98-2-1.55c-0.48-0.44-0.27-1.27,0.46-1.75c2.9-1.93,5.97-3.41,9.55-3.5
			c1.59-0.04,3.18-0.18,4.77-0.21c3.01-0.06,5.88,0.84,8.8,1.37c0.39,0.07,0.71,0.51,1.15,0.85c-0.86,0.74-1.7,0.78-2.54,0.8
			c-1.86,0.05-3.72,0.01-5.58,0.14c-1.1,0.08-2.21,0.35-3.27,0.68c-1,0.31-1.15,0.93-0.36,1.61c1.76,1.51,3.56,2.99,5.8,3.77
			c0.5,0.17,0.97,0.42,1.47,0.59c1.36,0.47,2.73,0.76,4.2,0.76c3.94,0.01,7.89,0.07,11.82,0.31c2.81,0.18,5.59,0.73,8.4,1.04
			c3.86,0.42,7.73,0.73,11.59,1.14c2.9,0.31,5.8,0.71,8.69,1.09c0.95,0.12,1.89,0.3,2.84,0.45c2.51,0.37,5.02,0.74,7.47,1.1
			c0.21,0.56-0.15,1.34,0.93,1.08c0.88-0.21,1.78,0.04,2.69,0.36c0.99,0.35,2.14,0.25,3.17,0.52c1.84,0.47,3.63,1.14,5.47,1.61
			c3.39,0.86,6.81,1.62,10.22,2.43c0.83,0.2,1.67,0.34,2.47,0.61c3.73,1.23,7.43,2.54,11.17,3.72c2.79,0.88,5.62,1.65,8.45,2.39
			c3.24,0.85,6.49,1.67,9.76,2.39c4.05,0.89,8.12,1.66,12.38,2.53c-0.19-0.31-0.23-0.49-0.32-0.52c-1.52-0.6-3.08-1.13-4.57-1.79
			c-1.46-0.64-2.92-1.29-4.27-2.13c-2.13-1.34-4.33-2.4-6.85-2.8c-1.09-0.17-2.13-0.63-3.18-1c-3.6-1.25-7.23-2.44-10.79-3.82
			c-2.17-0.84-4.23-1.99-6.34-2.99c-0.86-0.41-1.74-0.78-2.61-1.17c-2.79-1.23-5.53-2.59-8.51-3.36c-1.08-0.28-2.04-1.01-3.08-1.49
			c-1.87-0.87-3.71-1.8-5.71-2.38c-1.88-0.54-3.72-1.27-5.53-2.04c-2.97-1.28-5.85-2.74-8.84-3.96c-1.66-0.67-3.46-0.98-5.2-1.48
			c-1.07-0.31-2.15-0.6-3.17-1.02c-2.05-0.86-4.06-1.81-6.1-2.71c-0.29-0.13-0.6-0.22-0.91-0.28c-2.91-0.5-5.58-1.69-8.3-2.75
			c-1.63-0.63-3.36-0.96-5.04-1.47c-0.66-0.2-1.33-0.43-1.91-0.79c-2.19-1.36-4.59-2.05-7.1-2.58c-2.97-0.63-5.8-1.72-8.56-3
			c-0.57-0.27-1.17-0.48-1.78-0.66c-1.8-0.54-3.35-1.56-4.98-2.45c-2.78-1.53-5.51-3.19-8.5-4.27c-1.13-0.4-1.97-1.19-3.06-1.59
			c-1.74-0.63-3.48-1.3-5.18-2.02c-1.75-0.74-3.5-1.51-5.19-2.38c-4.06-2.09-8.18-4.02-12.67-5.01c-0.62-0.14-1.52-0.1-1.37-1.16
			c0.09-0.66,0.86-0.84,1.88-0.46c2.78,1.04,5.59,2.03,8.33,3.16c1.36,0.56,2.54,1.58,3.91,2.08c2.68,0.99,5.06,2.64,7.87,3.36
			c2.35,0.6,4.49,1.84,6.64,3c3.6,1.93,7.26,3.76,10.91,5.59c0.85,0.43,1.78,0.7,2.68,1.02c3.53,1.29,6.91,2.95,10.65,3.74
			c2.24,0.48,4.33,1.63,6.5,2.44c1.03,0.39,2.1,0.67,3.14,1.03c2.05,0.71,4.09,1.45,6.13,2.18c0.65,0.23,1.28,0.54,1.95,0.67
			c2.62,0.52,5.09,1.4,7.55,2.46c3.09,1.33,6.25,2.51,9.56,3.29c1.73,0.41,3.34,1.35,4.99,2.06c2.2,0.95,4.36,1.97,6.58,2.85
			c2.32,0.92,4.72,1.63,7.01,2.59c1.99,0.84,3.88,1.92,5.84,2.85c0.76,0.36,1.56,0.67,2.37,0.85c1.92,0.45,3.7,1.21,5.45,2.12
			c1.45,0.76,3.04,1.28,4.47,2.09c4.04,2.3,8.43,3.68,12.81,5.13c2.06,0.68,4.09,1.52,6.19,2.04c2.97,0.74,5.72,1.84,8.29,3.52
			c1.49,0.97,3.21,1.64,4.88,2.28c3.17,1.22,6.38,2.34,9.58,3.48C500.38,346.22,501.24,347.14,502.4,348.22z M324.81,312.57
			c2.01-0.43,3.81-0.88,5.63-1.19c3.25-0.54,6.51-0.98,9.76-1.5c1.79-0.29,3.09-1.12,3.62-3.04c0.39-1.43,0.11-3.02-1.24-3.7
			c-2.85-1.45-5.88-2.2-9.07-1.34c-0.89,0.24-1.81,0.75-2.45,1.4c-1.53,1.54-3.04,3.13-4.3,4.89
			C325.86,309.34,325,310.74,324.81,312.57z M367.84,322.49c0.01-0.09,0.03-0.18,0.04-0.26c-0.55-0.35-1.11-0.71-1.66-1.06
			c-0.57-0.37-1.17-0.71-1.71-1.13c-0.88-0.67-1.79-1.32-2.55-2.11c-0.79-0.83-0.68-1.47,0.05-2.35c1.01-1.23,2.43-1.39,3.85-1.6
			c0.53-0.08,1.06-0.13,1.59-0.19c-0.01-0.11-0.03-0.22-0.04-0.33c-1.4-0.11-2.8-0.06-4.22-0.04c-2.79,0.04-5.5,0.24-8.06,1.46
			c-1.17,0.56-2.47,0.92-3.25,2.04c0.43,0.59,0.82,1.13,1.25,1.72c0.27,0,0.75-0.15,1.06,0.02c1.53,0.85,3.12,1.52,4.83,1.95
			c1.9,0.47,3.76,1.1,5.67,1.55C365.7,322.4,366.78,322.39,367.84,322.49z"/>
		<path d="M472.59,705.7c-2.07-0.93-3.91-2.3-6.17-2.77c-0.68-0.14-1.29-0.63-1.93-0.96c-0.09-0.05-0.19-0.17-0.25-0.15
			c-1.75,0.58-2.7-1.01-4.02-1.55c-1.29-0.53-2.43-1.48-3.59-2.3c-1.81-1.28-3.58-2.62-5.37-3.93c-0.29-0.22-0.67-0.4-0.83-0.69
			c-0.15-0.27-0.21-0.81-0.04-0.99c0.23-0.26,0.85-0.51,1.06-0.38c1.62,1,3.47,0.94,5.23,1.26c2.23,0.42,4.51,0.55,6.66,1.44
			c0.91,0.38,1.97,0.42,2.97,0.59c1.51,0.26,3.02,0.55,4.54,0.75c4.31,0.56,8.62,1.09,12.93,1.63c0.37,0.05,0.74,0.11,1.09,0.21
			c3.5,1.06,6.96,2.19,10.25,3.82c1.07,0.53,2.32,0.74,3.51,0.99c2.29,0.48,4.65,0.68,6.87,1.38c2.62,0.82,5.12,2.05,7.68,3.09
			c0.88,0.36,1.78,0.67,2.67,1.01c2.83,1.08,5.64,2.2,8.48,3.23c2.24,0.81,4.49,1.62,6.79,2.23c3.17,0.84,6.37,1.54,9.63,2.01
			c0.67,0.1,1.33,0.32,2,0.46c1.97,0.43,3.93,0.93,5.92,1.26c1.37,0.22,2.34,1.17,3.56,1.65c3.19,1.25,5.73,3.62,8.73,5.19
			c1.03,0.54,2.09,1.02,3.18,1.42c1.94,0.71,3.88,1.47,5.88,1.96c2.11,0.52,4.29,0.73,6.43,1.12c1.13,0.21,2.25,0.52,3.39,0.78
			c0.01,1.03-0.65,1.27-1.24,1.61c-1.85-1.15-3.98-1.08-5.97-1.54c-2.37-0.55-4.74-1.1-7.11-1.67c-3.74-0.91-6.7-3.29-9.89-5.25
			c-3.6-2.21-7.39-3.92-11.61-4.71c-2.92-0.55-5.89-0.92-8.77-1.59c-3.04-0.71-5.98-1.84-8.96-2.8c-0.4-0.13-0.8-0.29-1.19-0.43
			c-1.85-0.67-3.69-1.35-5.54-2.02c-2.44-0.89-4.89-1.73-7.3-2.68c-1.43-0.56-2.77-1.34-4.2-1.91c-1.37-0.54-2.78-1.01-4.21-1.35
			c-1.86-0.44-3.75-0.77-5.64-1.07c-2.13-0.33-4.07-1.15-6.02-2.04c-2.02-0.92-4.15-1.61-6.27-2.31c-3.79-1.24-7.77-1.16-11.67-1.59
			c-1.05-0.12-2.09-0.33-3.13-0.52c-1.98-0.37-3.96-0.74-5.92-1.15c-1.13-0.24-2.27-0.49-3.36-0.87c-2.09-0.72-4.26-0.81-6.43-1.01
			c-0.14-0.01-0.29,0.07-0.53,0.14c1.8,1.89,4,3.14,6.04,4.61c2.02,1.45,4.29,2.28,6.6,2.84c1.71,0.42,3.35,0.98,4.95,1.62
			c1.6,0.63,3.06,1.6,4.73,2.5c-0.49,0.59-0.82,0.97-1.1,1.31c-2.42-0.27-4.78-0.5-7.13-0.79c-1.21-0.15-2.44-0.27-3.4-1.17
			c-1.42-1.32-3.26-1.74-5.05-2.25c-3.36-0.96-6.71-1.96-10.1-2.82c-1.43-0.36-2.94-0.38-4.4-0.62c-1.4-0.23-2.8-0.48-4.17-0.86
			c-2.93-0.81-5.66-2.09-8.28-3.6c-2.75-1.59-5.46-3.27-8.31-4.66c-2.22-1.08-4.64-1.74-6.96-2.63c-1.68-0.64-3.32-1.38-5.01-2.02
			c-2.53-0.95-5.08-1.83-7.77-2.24c-2.86-0.43-5.23-1.98-7.64-3.45c-1.26-0.77-2.55-1.49-3.8-2.27c-0.59-0.36-1.17-0.75-1.68-1.21
			c-1.77-1.61-3.88-2.84-6.14-3.14c-2.23-0.29-4.43-0.98-6.78-0.73c-2.75,0.3-5.49-0.22-8.23-0.69c-2.03-0.35-3.98-1.31-6.11-0.97
			c-2.08,0.33-4.16,0.71-6.23,1.1c-3.86,0.73-7.62,1.95-11.58,2.2c-2.43,0.15-4.84,0.51-7.52,0.81c1.67,1.1,3.16,2.04,4.62,3.05
			c1.35,0.94,2.72,1.87,3.96,2.94c1.49,1.28,3.23,2.03,5,2.76c0.64,0.26,1.41,0.36,1.9,0.78c1.42,1.24,3.18,1.74,4.89,2.22
			c1.42,0.4,2.94,0.47,4.42,0.6c2.73,0.23,5.29,1.04,7.77,2.15c0.46,0.2,0.84,0.56,1.37,0.92c-0.49,0.46-0.87,0.82-1.37,1.29
			c-1.57-1.7-3.89-1.72-5.81-2.67c-0.31-0.15-0.72-0.1-1.09-0.13c-2.22-0.18-4.44-0.27-6.61-0.93c-1.33-0.41-2.55-0.92-3.75-1.64
			c-1.73-1.03-3.63-1.76-5.44-2.65c-0.48-0.23-0.97-0.48-1.36-0.82c-2.77-2.44-5.93-4.3-9.01-6.29c-0.18-0.12-0.35-0.24-0.54-0.35
			c-1.26-0.76-2.45-1.05-4.03-0.64c-2.72,0.71-5.54,1.16-8.35,1.39c-1.99,0.16-4.02-0.2-6.03-0.38c-2.54-0.23-5.07-0.7-7.61-0.71
			c-4.62-0.03-9.24,0.16-13.86,0.36c-1.36,0.06-2.71,0.49-4.07,0.69c-0.68,0.1-1.37,0.13-2.06,0.12c-0.65-0.01-0.99-0.45-0.9-1.05
			c0.08-0.57,0.48-0.62,1.07-0.6c1.1,0.03,2.21-0.2,3.32-0.26c4.03-0.21,8.07-0.38,12.1-0.57c1.33-0.06,2.65-0.16,3.98-0.19
			c0.85-0.02,1.71-0.02,2.55,0.07c3.01,0.32,6.02,0.8,9.04,0.99c1.73,0.11,3.5-0.18,5.23-0.4c1.73-0.22,3.45-0.56,5.39-0.89
			c-0.34-0.32-0.51-0.55-0.73-0.68c-2.81-1.6-5.64-3.17-8.44-4.79c-0.78-0.45-1.49-1.03-2.19-1.61c-1.43-1.18-2.86-2.37-4.23-3.62
			c-1.27-1.15-2.15-2.61-2.89-4.15c-1.06-2.21-2.6-3.98-4.79-5.16c-1.02-0.55-2.03-1.15-2.96-1.83c-2.88-2.12-6.1-3.14-9.65-3.37
			c-2.09-0.14-4.19-0.35-6.22-1.07c-1.02-0.36-2.18-0.41-3.28-0.4c-2.61,0.01-5.21,0.13-7.82,0.22c-2.71,0.1-5.43,0.25-8.14,0.34
			c-0.72,0.02-1.29,0.25-1.52,0.93c-0.54,1.59-1.17,3.14-1.08,4.91c0.03,0.68-0.49,1.38-0.83,2.24c-0.4-0.35-0.62-0.49-0.77-0.68
			c-1.45-1.82-3.07-3.42-4.86-4.95c-2.89-2.49-6.18-4.01-9.61-5.49c-2.03-0.87-4.11-1.5-6.22-1.91c-2.1-0.4-4.33-0.38-6.48-0.23
			c-3.18,0.22-6.27,0.97-9.22,2.22c-0.29,0.12-0.62,0.19-0.88,0.37c-1.52,1.1-3.25,1.71-5.04,2.24c-1.77,0.52-3.51,1.18-5.2,1.92
			c-1.2,0.53-2.28,1.34-3.45,1.95c-2.78,1.45-5.61,2.81-8.38,4.28c-2.63,1.39-5.21,2.88-7.82,4.3c-1.93,1.05-3.98,1.74-6.14,2.14
			c-5.19,0.97-9.89,3.11-14.37,5.86c-1.79,1.1-3.81,1.86-5.81,2.57c-1.99,0.71-4.06,1.23-6.12,1.72c-1.3,0.31-2.64,0.4-3.92-0.2
			c-0.18-0.08-0.32-0.26-0.48-0.4c0.32-0.93,1.07-0.9,1.73-0.76c2.09,0.43,3.98-0.3,5.91-0.86c0.87-0.25,1.73-0.52,2.59-0.79
			c0.25-0.08,0.53-0.13,0.75-0.27c2.31-1.41,5.04-2.04,7.17-3.8c0.24-0.2,0.55-0.33,0.83-0.46c1.56-0.75,3.08-1.65,4.71-2.22
			c2.34-0.82,4.73-1.62,7.17-2.04c2.2-0.38,4.18-1.16,6.11-2.18c3.27-1.73,6.5-3.53,9.77-5.28c1.86-1,3.76-1.92,5.61-2.92
			c3.69-1.99,7.39-3.92,11.49-4.99c0.69-0.18,1.3-0.68,1.95-1.02c2.96-1.54,6.15-2.39,9.44-2.72c2.88-0.29,5.83-0.46,8.68,0.14
			c2.27,0.48,4.46,1.34,6.64,2.15c1.73,0.65,3.44,1.4,5.07,2.27c1.34,0.72,2.55,1.68,3.82,2.54c0.65,0.44,1.33,0.84,1.95,1.32
			c0.83,0.64,1.62,1.33,2.52,2.07c0.2-0.61,0.44-1.33,0.68-2.04c0.17-0.5,0.22-1.08,0.53-1.47c1.31-1.71,0.79-2.2,3.76-2.14
			c4.41,0.09,8.83-0.21,13.24-0.33c1.32-0.04,2.65-0.07,3.97-0.04c1.22,0.03,2.38,0.33,3.57,0.68c1.77,0.52,3.65,0.66,5.49,0.94
			c2.63,0.41,5.26,0.79,7.54,2.35c1.89,1.29,3.85,2.48,5.7,3.81c1.47,1.06,2.73,2.36,3.56,4.03c1.47,2.95,3.53,5.35,6.2,7.37
			c2.58,1.96,5.3,3.62,8.14,5.13c1.41,0.75,2.82,1.52,4.12,2.43c1.19,0.83,2.45,0.96,3.79,0.83c3.75-0.35,7.5-0.68,11.24-1.14
			c1.68-0.2,3.34-0.69,5-1.04c2.96-0.63,5.91-1.32,8.89-1.84c1.13-0.2,2.35-0.1,3.49,0.08c2.88,0.47,5.72,1.16,8.61,1.59
			c1.62,0.24,3.29,0.1,4.94,0.17c3.68,0.15,7.25,0.74,10.42,2.82c1.64,1.08,3.26,2.19,4.93,3.22c1.93,1.19,3.85,2.42,5.87,3.42
			c1.31,0.65,2.79,0.99,4.23,1.34c3.31,0.8,6.57,1.71,9.71,3.07c1.8,0.78,3.63,1.54,5.49,2.14c2.79,0.91,5.35,2.22,7.87,3.7
			c3.01,1.78,5.99,3.65,9.3,4.9c3.16,1.19,6.48,1.66,9.78,2.22c0.83,0.14,1.67,0.3,2.48,0.52c1.84,0.5,3.66,1.03,5.49,1.56
			c1.94,0.55,3.86,1.14,5.81,1.65c1.46,0.38,2.77,1.03,4.04,1.84c1.17,0.75,2.49,1.16,3.91,1.22
			C471.32,705.6,471.96,705.66,472.59,705.7z"/>
		<path d="M367.4,444.08c0.69,0.78,0.71,1.43-0.01,2.33c-0.57,0.7-0.71,1.75-1.07,2.63c-0.79,1.91-1.54,3.84-2.42,5.71
			c-1.01,2.15-1.39,4.44-1.78,6.74c-0.11,0.63-0.19,1.27-0.4,1.87c-0.78,2.34-0.77,4.68-0.34,7.09c0.58,3.25,0.74,6.52,0.66,9.83
			c-0.07,2.81-0.46,5.59-0.55,8.39c-0.01,0.32-0.07,0.66,0.02,0.96c0.95,3.03,0.37,6.13,0.44,9.2c0.05,2.27,0.03,4.54,0.01,6.82
			c-0.01,0.9-0.15,1.81-0.09,2.7c0.09,1.37,0.3,2.74,0.44,4.11c0.17,1.64,0.37,3.27,0.48,4.91c0.18,2.65,0.31,5.3,0.44,7.96
			c0.04,0.79,0.02,1.59-0.04,2.38c-0.13,1.87-0.08,3.71,0.54,5.52c0.71,2.08,0.9,4.27,0.92,6.45c0.04,2.93,0.02,5.85,0.87,8.7
			c0.06,0.2,0.08,0.42,0.08,0.63c-0.07,2.64-0.15,5.28-0.21,7.93c0,0.21,0.08,0.42,0.14,0.62c0.64,2.3,0.39,4.65,0.42,6.99
			c0.03,2.43,0.12,4.86,0.17,7.29c0.03,1.32,0.16,2.65,0.05,3.96c-0.17,2.09,0.17,4.13,0.31,6.19c0.15,2.06,0.08,4.14,0.02,6.21
			c-0.05,2.01-0.29,4.02-0.27,6.03c0.01,1.42-0.19,2.77-0.68,4.06c-0.23,0.61-0.21,1.08,0.01,1.67c0.32,0.83,0.54,1.71,0.77,2.58
			c0.25,0.9-0.5,1.85-1.48,1.79c-2.22-0.14-4.44-0.31-6.65-0.55c-0.92-0.1-1.78-0.09-2.66,0.25c-1.3,0.5-1.76,0.31-2.08-1.01
			c-0.26-1.07-0.36-2.19-0.39-3.29c-0.04-1.64,0.02-3.28,0.1-4.92c0.27-5.47,0.56-10.93,0.84-16.4c0.03-0.64,0.05-1.28,0.05-1.91
			c-0.01-3.08,0-6.16-0.04-9.24c-0.03-2.44-0.2-4.88-0.17-7.31c0.03-2.34,0.24-4.67,0.36-7.01c0.07-1.33,0.12-2.65,0.17-3.98
			c0.15-3.99,0.36-7.97,0.42-11.96c0.05-3.45-0.05-6.9-0.11-10.35c-0.1-5.32-0.19-10.63-0.34-15.95c-0.06-2.29-0.26-4.57-0.38-6.86
			c-0.18-3.45-0.34-6.9-0.55-10.35c-0.03-0.55-0.31-1.08-0.48-1.62c-0.14-0.45-0.38-0.89-0.41-1.35c-0.19-2.72-0.59-5.36-1.4-8
			c-0.79-2.57-1.06-5.3-1.53-7.97c-0.22-1.25-0.34-2.51-0.58-3.75c-0.93-4.67-0.24-9.21,1.05-13.7c0.71-2.45,1.45-4.9,2.36-7.28
			c0.54-1.42,1.37-2.76,2.19-4.05c0.6-0.93,1.37-1.77,2.15-2.56c0.43-0.44,1.05-0.71,1.57-1.04c0.85,0.74,0.9,1.48,0.1,2.04
			c-3,2.1-4.54,5.08-5.35,8.56c-0.26,1.12-0.66,2.21-1.11,3.27c-1.25,2.99-1.86,6.15-1.88,9.33c-0.04,4.89,0.87,9.69,2.01,14.45
			c0.76,3.2,1.27,6.45,1.88,9.69c0.05,0.26-0.01,0.56,0.09,0.79c1.33,3.1,0.83,6.4,1.05,9.61c0.27,4.03,0.46,8.07,0.66,12.11
			c0.08,1.54,0.1,3.08,0.12,4.63c0.06,3.83-0.04,7.67,0.19,11.48c0.44,7.47-0.2,14.91-0.42,22.35c-0.13,4.47-0.44,8.94-0.46,13.4
			c-0.02,4.42,0.26,8.83,0.32,13.25c0.02,1.75-0.19,3.5-0.3,5.25c-0.07,1.12-0.2,2.23-0.19,3.35c0.01,1.75-0.09,3.49-0.26,5.24
			c-0.22,2.24-0.05,4.52-0.05,6.87c1.51,0.23,2.98,0.48,4.45,0.68c0.89,0.12,1.8,0.17,2.7,0.22c1.42,0.08,2.22-0.44,2.47-1.87
			c0.27-1.56,0.42-3.15,0.48-4.73c0.11-2.92,0.17-5.84,0.16-8.76c-0.01-1.86-0.27-3.71-0.3-5.57c-0.07-3.43-0.04-6.87-0.08-10.3
			c-0.04-2.69,0.12-5.43-0.28-8.07c-0.37-2.51-0.24-4.99-0.31-7.48c-0.06-2.13-0.08-4.24-0.52-6.35c-0.23-1.08-0.23-2.23-0.19-3.34
			c0.13-3.21-0.29-6.33-1.09-9.45c-0.43-1.66-0.31-3.47-0.39-5.22c-0.06-1.21,0.13-2.46-0.08-3.64c-0.41-2.28-0.32-4.55-0.3-6.84
			c0.01-1.37-0.13-2.77-0.42-4.12c-0.45-2.11-0.54-4.22-0.49-6.36c0.03-1.38-0.08-2.76-0.07-4.14c0.01-2.29,0.13-4.58,0.09-6.86
			c-0.03-1.86-0.29-3.71-0.34-5.56c-0.04-1.53,0.09-3.07,0.15-4.61c0.03-0.85,0.09-1.7,0.12-2.55c0.06-1.91,0.24-3.83,0.14-5.74
			c-0.12-2.17-0.37-4.35-0.79-6.48c-0.44-2.2-0.26-4.34,0.14-6.49c0.39-2.14,0.81-4.28,1.25-6.42c0.51-2.52,1.69-4.81,2.63-7.17
			c0.64-1.62,1.46-3.17,2.1-4.79c0.31-0.79,0.71-1.39,1.5-1.72C367.43,444.12,367.4,444.08,367.4,444.08z"/>
		<path d="M609.39,421.29c-0.89-0.7-1.8-1.33-2.6-2.08c-1.94-1.8-4.11-3.38-5.54-5.66c-1.95-3.12-3.68-6.34-3.95-10.14
			c-0.1-1.42-0.51-2.82-0.68-4.24c-0.12-0.99-0.09-2.01-0.13-3.01c-0.03-0.79-0.06-1.57-0.09-2.39c-0.51-0.11-0.86-0.18-1.21-0.27
			c-2.74-0.72-5.45-1.6-7.31-3.86c-1.97-2.38-1.95-2.31,0.53-4.12c2.39-1.74,5.51-0.59,6.89,2.39c0.45,0.96,0.92,1.92,1.39,2.87
			c0.09,0.19,0.23,0.35,0.36,0.54c3.67-1.75,5.03-4.96,5.47-8.67c0.26-2.16,0.44-4.36,0.37-6.53c-0.08-2.49-0.54-4.94-1.22-7.36
			c-1.27-4.54-3.56-8.65-5.14-13.04c-1.28-3.57-2.9-6.98-4.62-10.32c-1.88-3.65-3.61-7.35-4.82-11.26c-0.96-3.1-1.51-6.31-1.81-9.55
			c-0.19-2.07-0.47-4.12-0.71-6.18c-0.32-2.72-0.08-5.42,0.21-8.12c0.25-2.32,0.49-4.64,0.81-6.95c0.23-1.63,0.63-3.23,0.89-4.85
			c0.79-5.01,1.14-10.06,1.01-15.13c-0.07-2.49-0.46-4.94-1.11-7.38c-1.03-3.86-2.29-7.62-3.97-11.24
			c-0.04-0.09-0.03-0.22-0.09-0.31c-1.12-1.85-2.25-3.7-3.37-5.56c-0.27-0.45-0.55-0.89-0.77-1.37c-0.59-1.3-1.18-2.6-1.72-3.92
			c-1.19-2.94-2.37-5.89-3.52-8.86c-0.46-1.19-0.89-2.39-1.23-3.62c-0.45-1.64-0.76-3.32-1.2-4.96c-1.4-5.11-1.7-10.37-2.21-15.6
			c-0.21-2.16-0.53-4.34-1.04-6.45c-0.92-3.82-2.04-7.6-3.05-11.4c-1.09-4.07-2.82-7.88-4.74-11.62c-1.63-3.18-3.81-6-5.93-8.85
			c-3.63-4.87-7.02-9.89-9.68-15.37c-1.18-2.44-2.27-4.92-3.49-7.33c-1.43-2.85-2.98-5.64-4.43-8.48c-0.58-1.13-1.15-2.3-1.47-3.52
			c-0.87-3.33-2.47-6.33-3.93-9.4c-0.46-0.95-1-1.87-1.5-2.8c-0.58-1.07-0.95-2.36-1.05-3.79c-0.01-0.11,0.18-0.23,0.34-0.43
			c0.68,0.45,0.91,1.1,1.13,1.82c0.22,0.75,0.55,1.49,0.93,2.18c1.76,3.22,3.47,6.47,4.67,9.94c0.8,2.32,1.83,4.52,2.89,6.72
			c1.98,4.11,3.9,8.25,5.95,12.32c1.26,2.51,2.72,4.93,4.09,7.39c0.34,0.6,0.62,1.24,1.02,1.81c2.66,3.79,5.35,7.55,8.01,11.33
			c1.78,2.52,3.29,5.19,4.64,7.97c2.04,4.18,3.44,8.58,4.59,13.07c0.71,2.78,1.55,5.53,2.18,8.32c0.5,2.23,0.83,4.5,1.11,6.77
			c0.45,3.59,0.72,7.2,1.2,10.79c0.23,1.73,0.69,3.44,1.15,5.13c0.79,2.92,1.62,5.84,2.52,8.73c0.33,1.06,1.05,2,1.34,3.06
			c0.84,3.05,2.63,5.68,3.68,8.64c0.49,1.37,1.28,2.71,2.2,3.85c1.87,2.34,2.79,5.14,3.84,7.84c2.13,5.48,3.58,11.12,3.25,17.11
			c-0.3,5.53-0.49,11.07-1.67,16.5c-1.06,4.87-1.42,9.79-1.25,14.73c0.15,4.36,0.87,8.67,1.59,12.99c0.74,4.45,2.64,8.41,4.46,12.43
			c1.43,3.15,3.1,6.18,4.5,9.34c1.72,3.89,3.37,7.82,4.88,11.79c1.2,3.15,2.23,6.37,2.62,9.76c0.44,3.89,0.46,7.76-0.43,11.58
			c-0.62,2.63-1.69,5.05-4.15,6.55c-0.36,0.22-0.68,0.52-1.03,0.76c-0.52,0.35-0.61,0.83-0.51,1.4c0.1,0.57,0.32,1.16,0.26,1.72
			c-0.37,3.48,0.47,6.85,1.01,10.23c0.21,1.33,0.8,2.64,1.41,3.86c1.62,3.21,3.67,6.09,6.66,8.2c0.69,0.49,1.41,0.93,2.07,1.45
			C609.92,419.8,609.95,420.07,609.39,421.29z M595.68,391.85c-0.91-1.82-1.56-3.49-2.8-4.81c-1.02-1.08-2.98-1.05-4.01-0.1
			c-0.62,0.57-0.59,1.05-0.09,1.63C590.52,390.6,592.76,391.58,595.68,391.85z"/>
		<path d="M594.07,735.26c1.53,0.05,2.82,0.07,4.1,0.13c1.9,0.09,3.79,0.19,5.68,0.29c2.86,0.15,5.72,0.34,8.58,0.45
			c1.57,0.06,3.15-0.04,4.73-0.03c1.53,0.02,3.07,0.09,4.6,0.13c1.06,0.03,2.13,0.05,3.19,0.07c4.2,0.06,8.39,0.08,12.56-0.54
			c1.09-0.16,2.25-0.12,3.35,0.01c3.85,0.46,7.63-0.28,11.43-0.59c0.21-0.02,0.43-0.12,0.63-0.09c2.04,0.3,4.08,0.61,6.19,0.93
			c-0.07,0.93-0.65,1.33-1.36,1.17c-3.09-0.71-6.19-0.43-9.29-0.17c-0.58,0.05-1.15,0.17-1.73,0.21c-0.89,0.07-1.79,0.19-2.68,0.13
			c-3.46-0.23-6.91-0.01-10.36,0.17c-3.29,0.17-6.58,0.17-9.87,0.36c-1.02,0.06-1.94-0.09-2.93-0.26c-1.24-0.21-2.54-0.08-3.82-0.1
			c-2.12-0.02-4.24-0.01-6.35-0.08c-3.14-0.1-6.28-0.17-9.4-0.43c-3.22-0.27-6.43-0.47-9.64-0.94c-4.26-0.63-8.6-0.67-12.92-0.38
			c-1.46,0.1-2.89,0.45-4.35,0.64c-1.47,0.19-2.94,0.42-4.41,0.48c-3.72,0.17-7.43,0.1-11.14-0.22c-0.63-0.05-1.25-0.29-1.88-0.34
			c-1.96-0.16-3.92-0.23-5.88-0.41c-2.76-0.25-5.53-0.06-8.28-0.16c-2.95-0.1-5.85,0.08-8.77,0.22c-2.28,0.11-4.56,0.37-6.83,0.33
			c-2.85-0.05-5.7-0.26-8.54-0.54c-2.74-0.26-5.46-0.8-8.21-1.02c-2.37-0.19-4.77-0.08-7.16-0.13c-0.79-0.02-1.61,0-2.37-0.17
			c-2.21-0.51-4.44-0.35-6.66-0.36c-1.64-0.01-3.29-0.05-4.93,0.05c-1.64,0.1-3.27,0.34-4.91,0.53c-2.47,0.3-4.94,0.66-7.41,0.92
			c-3.54,0.37-7.09,0.71-10.64,0.99c-3.07,0.25-6.15,0.51-9.23,0.56c-4.88,0.08-9.77-0.12-14.65,0.03
			c-3.48,0.11-6.89-0.47-10.34-0.6c-3.88-0.15-7.66-1.06-11.5-1.54c-2.26-0.28-4.55-0.25-6.83-0.4c-2.59-0.18-5.18-0.42-7.78-0.6
			c-2.53-0.17-5.06-0.3-7.59-0.44c-0.21-0.01-0.44,0.1-0.62,0.03c-2.47-0.86-4.99-0.31-7.49-0.26c-3.72,0.08-7.43,0.15-11.15-0.01
			c-1.49-0.07-2.96,0.07-4.33,0.8c-0.4,0.21-0.93,0.2-1.4,0.24c-0.69,0.06-0.92-0.35-0.95-0.94c2.68-2.02,5.74-1.76,8.74-1.48
			c2.46,0.23,4.89,0.13,7.34,0.01c0.79-0.04,1.58,0.01,2.38-0.01c2.54-0.05,5.07-0.2,7.6,0.37c1.22,0.27,2.54,0.1,3.81,0.17
			c2.7,0.15,5.4,0.33,8.11,0.49c1.01,0.06,2.02,0.17,3.03,0.15c3.15-0.08,6.23,0.48,9.33,0.85c4.2,0.5,8.34,1.5,12.62,1.45
			c2.49-0.02,4.97,0.35,7.47,0.46c1.32,0.05,2.65-0.16,3.98-0.14c2.71,0.04,5.42,0.24,8.13,0.2c2.65-0.04,5.29-0.24,7.93-0.47
			c2.22-0.19,4.42-0.55,6.63-0.77c0.94-0.09,1.95,0.19,2.84-0.04c3.08-0.78,6.24-0.55,9.35-0.96c2.95-0.39,5.91-0.77,8.88-0.92
			c3.08-0.16,6.19-0.26,9.24,0.04c3.4,0.34,6.79,0.1,10.17,0.32c0.16,0.01,0.32-0.01,0.48,0.01c1.71,0.3,3.41,0.68,5.14,0.88
			c2.36,0.28,4.74,0.45,7.11,0.6c2.17,0.14,4.35,0.21,6.53,0.26c1.05,0.02,2.11-0.09,3.17-0.17c1.22-0.09,2.43-0.21,3.64-0.32
			c1.11-0.1,2.21-0.26,3.32-0.31c0.78-0.03,1.57,0.08,2.36,0.12c0.26,0.02,0.53,0.05,0.79,0.05c2.23-0.05,4.46-0.14,6.69-0.15
			c0.84,0,1.68,0.21,2.51,0.31c2.52,0.31,5.03,0.73,7.56,0.89c3.92,0.26,7.85,0.57,11.78,0.06c2.25-0.29,4.49-0.75,6.75-0.97
			c2.16-0.21,4.33-0.33,6.5-0.27c2.81,0.08,5.61,0.35,8.41,0.61C593.36,734.79,593.85,735.16,594.07,735.26z"/>
		<path d="M213.35,260.19c-1.89,0.05-3.14,1.31-4.48,2.3c-2.22,1.65-4.37,3.38-6.5,5.14c-0.73,0.6-1.3,1.4-1.97,2.08
			c-2.89,2.88-5.83,5.71-8.68,8.62c-0.91,0.93-1.62,2.07-2.43,3.1c-0.19,0.24-0.41,0.51-0.67,0.6c-0.32,0.11-0.69,0.04-1.04,0.05
			c0.02-0.38-0.12-0.89,0.08-1.13c1.07-1.38,2.1-2.84,3.38-4.01c2.03-1.86,4.09-3.68,5.96-5.72c3.52-3.85,7.32-7.39,11.7-10.26
			c1.11-0.73,2.29-1.36,3.4-2.08c1.64-1.06,3.26-2.17,4.89-3.26c0.31-0.21,0.64-0.5,0.97-0.52c0.36-0.03,0.83,0.12,1.07,0.37
			c0.14,0.14,0.02,0.73-0.17,0.95c-0.41,0.48-0.91,0.89-1.43,1.26c-2,1.46-2.87,3.49-3.05,5.89c-0.18,2.28-0.49,4.56-0.48,6.84
			c0.01,2.11-0.91,3.9-1.51,5.81c-0.48,1.55-0.79,3.16-1.08,4.75c-0.49,2.72-0.91,5.46-1.33,8.19c-0.08,0.49-0.01,1.01,0.27,1.66
			c0.76-0.83,1.53-1.65,2.27-2.5c2.37-2.71,4.34-5.77,6.99-8.24c0.23-0.22,0.45-0.46,0.62-0.73c1.75-2.65,4.29-4.52,6.54-6.67
			c2.78-2.65,6.22-4.21,9.64-5.78c1.25-0.57,2.48-1.19,3.75-1.7c0.32-0.13,0.82-0.04,1.14,0.13c0.47,0.25,0.29,0.69,0.11,1.11
			c-1.04,2.54-2.24,5.04-3.01,7.66c-0.72,2.47-1.16,5.02-1.23,7.65c-0.06,2.35,0.04,4.66,0.29,6.99c0.04,0.37,0.02,0.75-0.04,1.12
			c-0.64,3.7,0.65,7.14,1.47,10.64c0.02,0.07,0.14,0.12,0.3,0.25c0.27-0.46,0.53-0.9,0.79-1.35c1.17-1.96,2.23-4,3.56-5.85
			c1.39-1.94,2.95-3.78,4.58-5.51c1.49-1.58,3.14-3.01,4.8-4.4c1.37-1.15,2.82-2.24,4.33-3.21c2.19-1.41,4.47-2.68,6.7-4.03
			c0.66-0.4,1.26-0.62,1.83,0.34c-0.68,1.35-1.19,2.82-1.05,4.47c0.05,0.59-0.27,1.25-0.53,1.82c-1.3,2.86-1.51,5.93-1.73,8.99
			c-0.08,1.11-0.02,2.24-0.16,3.34c-0.24,1.96,0.5,3.78,0.78,5.66c0.14,0.96,0.52,1.94,1.38,2.63c0.55,0.44,0.54,1.17,0.07,1.29
			c-0.37,0.1-1.07-0.05-1.22-0.32c-0.6-1.08-1.04-2.25-1.53-3.39c-1.15-2.7-1-5.51-0.66-8.33c0.12-1.04,0.14-2.09,0.67-3.08
			c0.23-0.42,0.12-1.03,0.11-1.56c-0.01-0.41,0.76-0.93-0.15-1.24c0.2-1.2,0.18-2.49,0.65-3.57c0.63-1.45,0.94-2.9,1.08-4.61
			c-3.13,1.2-6,2.71-8.49,4.83c-2.43,2.06-4.76,4.24-7.01,6.49c-1.11,1.11-2.02,2.46-2.88,3.79c-1.3,2-2.5,4.07-3.69,6.14
			c-0.55,0.96-0.96,2-1.46,3.08c-0.44,0.1-0.97,0.22-1.51,0.35c-0.08-0.08-0.19-0.15-0.21-0.23c-0.79-3.61-1.58-7.21-2.36-10.83
			c-0.05-0.25-0.05-0.55,0.03-0.79c0.71-2.14,0.19-4.28,0.02-6.42c-0.24-2.88-0.15-5.73,0.54-8.54c0.4-1.64,0.72-3.31,1.21-4.93
			c0.4-1.31,1.01-2.57,1.53-3.84c-0.12-0.07-0.23-0.17-0.3-0.15c-3.54,1.12-7.09,2.2-9.87,4.9c-1.76,1.7-3.68,3.22-5.45,4.9
			c-0.88,0.83-1.59,1.82-2.39,2.73c-0.67,0.75-1.39,1.47-2.03,2.24c-0.78,0.94-1.5,1.93-2.27,2.88c-1.46,1.81-2.95,3.6-4.42,5.41
			c-0.76,0.94-2.15,1.77-3.85,2.21c-0.06-0.29-0.16-0.58-0.16-0.86c0.07-2.01,0.25-4.01,0.65-6c0.56-2.8,0.82-5.65,1.36-8.45
			c0.26-1.34,0.76-2.67,1.36-3.91c0.63-1.3,0.69-2.7,0.7-4.03c0.02-1.55,0.22-3.02,0.5-4.53
			C213.23,263.68,213.22,261.97,213.35,260.19z"/>
		<path d="M291,260.14c-0.76,0.47-1.4,0.61-2.18,0.47c-2.68-0.47-5.24-1.28-7.73-2.35c-0.2-0.08-0.39-0.18-0.59-0.25
			c-2.29-0.81-4.63-1.51-6.87-2.43c-3.75-1.54-7.7-2.38-11.57-3.51c-1.1-0.32-2.1-0.98-3.17-1.43c-2.24-0.95-4.49-1.88-6.75-2.81
			c-2.06-0.85-4.13-1.66-6.19-2.52c-1.13-0.47-2.21-1.04-3.35-1.49c-2.31-0.92-4.67-1.73-6.96-2.71c-1.29-0.55-2.46-1.37-3.7-2.05
			c-0.2-0.11-0.45-0.14-0.69-0.18c-0.51-0.09-1.05-0.08-1.53-0.25c-3.24-1.17-6.47-2.37-9.69-3.59c-0.54-0.2-1.02-0.56-1.55-0.79
			c-1.59-0.68-3.2-1.31-4.8-1.98c-1.9-0.8-3.77-1.66-5.68-2.43c-1.86-0.75-3.76-1.41-5.64-2.11c-2.33-0.87-4.68-1.7-6.99-2.62
			c-0.49-0.19-0.85-0.7-1.35-1.14c0.59-0.56,0.93-0.81,1.62-0.41c1.5,0.87,3.02,1.58,4.82,1.88c1.25,0.21,2.54,0.93,3.8,1.43
			c3.15,1.25,6.21,2.77,9.41,3.9c2.52,0.89,4.93,1.93,7.31,3.11c1.13,0.56,2.38,0.89,3.56,1.35c1.88,0.72,3.74,1.45,5.62,2.18
			c3.3,1.28,6.62,2.51,9.89,3.85c2.59,1.07,5.11,2.3,7.69,3.41c1.61,0.69,3.21,1.45,4.88,1.92c2.58,0.73,4.88,2.07,7.34,3.06
			c0.88,0.35,1.77,0.67,2.67,0.96c4.7,1.51,9.43,2.91,14.09,4.52c3.1,1.07,6.09,2.48,9.32,3.17c1.49,0.32,2.95,0.79,4.41,1.24
			C290.66,259.6,290.78,259.88,291,260.14z"/>
		<path class="st5" d="M504.6,594.62c0.22,0.17,0.44,0.33,0.66,0.51c0.01,0.01-0.11,0.2-0.12,0.2c-0.26-0.11-0.51-0.23-0.77-0.35
			C504.45,594.86,504.53,594.74,504.6,594.62z"/>
		<path class="st5" d="M488.3,142.76c0.34-0.26,0.68-0.52,1.02-0.78"/>
		<path d="M402.17,421.01c1.09-1.38,2.1-2.6,3.03-3.88c1.27-1.76,2.54-3.54,3.69-5.37c1.22-1.93,0.67-3.13-1.56-3.74
			c-2.63-0.72-5.04-0.07-7.28,1.25c-2.04,1.2-3.65,2.91-4.98,4.85c-0.47,0.68-0.72,1.54-0.97,2.34c-0.6,1.98-1.31,2.49-3.3,2.48
			c-1.48,0-2.97,0.21-4.45,0.19c-1.96-0.02-3.91-0.18-5.87-0.28c-1.48-0.07-2.97-0.15-4.45-0.2c-1.19-0.04-1.37-0.24-1.29-1.43
			c0.08-1.33,0.31-2.67,0.17-3.98c-0.25-2.33,1.15-3.67,2.67-4.93c0.76-0.63,1.74-0.99,2.56-1.56c0.78-0.54,1.5-1.18,2.21-1.82
			c1.7-1.55,3.68-2.63,5.82-3.42c1.23-0.46,2.42-1.07,3.69-1.34c1.44-0.31,2.95-0.32,4.43-0.47c1.79-0.18,3.59-0.4,5.38-0.57
			c1.3-0.12,2.61-0.26,3.92-0.25c1.81,0.02,3.62,0.11,5.42,0.29c0.71,0.07,1.43,0.4,2.08,0.73c1.37,0.7,2.8,1.15,4.31,1.5
			c3.26,0.76,5.47,2.81,6.28,6.08c0.25,1,0.24,2.17-0.35,3.23c-0.93,1.69-1.95,3.29-3.37,4.61c-0.41,0.38-0.81,0.77-1.06,1.37
			c0.84-0.29,1.65-0.72,2.51-0.86c1.99-0.3,4.01-0.63,6.01-0.63c1.72,0,3.43,0.45,5.15,0.7c0.78,0.11,1.57,0.16,2.34,0.29
			c1.09,0.19,2.18,0.42,3.26,0.64c0.36,0.07,0.72,0.24,1.08,0.23c2-0.07,3.67,0.87,5.36,1.74c0.75,0.39,1.55,0.68,2.29,1.08
			c1.26,0.68,2.49,1.41,3.31,2.65c0.29,0.44,0.61,0.89,1.02,1.2c2.03,1.51,2.65,4.51,0.85,6.77c-1.84,2.31-4.11,4.12-6.67,5.61
			c-2.34,1.36-4.91,1.87-7.5,2.35c-0.41,0.07-0.85-0.03-1.27-0.01c-0.8,0.03-1.6,0.05-2.38,0.16c-1.68,0.23-3.34,0.59-5.03,0.74
			c-0.92,0.08-1.87-0.2-2.81-0.28c-1.27-0.11-2.54-0.18-3.81-0.29c-0.93-0.08-1.86-0.2-3.04-0.32c0.24-0.73,0.33-1.24,0.57-1.67
			c0.33-0.6,0.76-1.15,1.18-1.7c0.75-1,1.33-2.07,1.32-3.35c-0.01-0.79,0.37-1.16,1.1-1.3c1.03-0.19,2.07-0.37,3.09-0.63
			c2-0.51,4-1.05,5.98-1.65c0.64-0.2,1.28-0.56,1.79-1c0.87-0.74,0.67-1.57-0.42-1.82c-2.18-0.51-4.38-0.84-6.63-0.54
			c-2.21,0.29-4.47,0.27-6.57,1.16c-0.43,0.18-0.85,0.39-1.28,0.58c-1.3,0.59-2.58,1.23-3.91,1.73c-0.35,0.13-0.89-0.11-1.3-0.29
			c-0.66-0.29-1.25-0.81-1.93-0.97c-1.79-0.43-3.3-1.42-4.95-2.13c-1.78-0.77-2.95-2.35-4.74-3.02
			C402.53,421.73,402.35,421.24,402.17,421.01z"/>
		<path d="M432.44,399.25c1.1-1.47,1.96-2.58,3.92-2.91c2.46-0.41,4.92-0.47,7.37-0.8c1.56-0.21,3.19-0.11,4.76,0.07
			c3.16,0.37,6.3,0.91,9.46,1.34c2.63,0.36,4.95,1.53,7.22,2.79c2.13,1.19,4.24,2.41,6.27,3.76c3.72,2.48,7.05,5.46,10.34,8.47
			c0.46,0.42,0.83,0.96,1.19,1.48c1.48,2.14,2.77,4.39,3.86,6.76c0.58,1.27,0.4,2.3-0.33,3.43c-1.18,1.81-2.68,3.21-4.84,3.53
			c-2.56,0.38-5.17,0.44-7.74,0.8c-3.01,0.43-5.42-1.15-8-2.17c-1.96-0.78-3.73-1.92-5.86-2.41c-1.7-0.39-3.09-1.63-4.17-3.04
			c-1.49-1.94-3.36-3.38-5.39-4.68c-2.1-1.34-4.31-2.48-6.19-4.18c-1-0.91-2.35-1.41-3.48-2.19c-0.6-0.41-1.05-1.03-1.56-1.56
			c-0.15-0.15-0.26-0.45-0.41-0.46c-1.48-0.15-1.42-1.49-1.92-2.4c-0.25-0.46-0.43-0.98-0.75-1.36
			C435,402.12,433.76,400.75,432.44,399.25z M450.22,404.18c0.39,0.64,0.63,1.22,1.03,1.64c1.49,1.57,3.4,2.71,4.57,4.62
			c0.15,0.25,0.51,0.36,0.75,0.56c0.23,0.2,0.52,0.4,0.64,0.67c0.43,0.93,1.24,1.42,2.05,1.91c1.91,1.15,3.8,2.35,5.77,3.4
			c1.06,0.57,2.22,1,3.39,1.26c1.28,0.29,2.63,0.35,3.95,0.44c1.42,0.09,1.81-0.3,1.7-1.75c-0.04-0.56-0.16-1.26-0.51-1.63
			c-1.24-1.28-2.51-2.59-3.95-3.62c-2.02-1.43-4.26-2.55-6.31-3.94c-1.13-0.76-2.31-1.28-3.61-1.61c-0.41-0.1-0.81-0.23-1.21-0.38
			c-1.6-0.63-3.19-1.3-4.88-1.68C452.54,403.84,451.52,403.82,450.22,404.18z"/>
		<path d="M300.17,305.3c-1.42-3.85,0.63-7.33,1.21-11.19c-0.55,0.4-0.97,0.62-1.28,0.95c-1.06,1.11-2.23,2.08-3.52,2.93
			c-0.78,0.52-1.4,1.27-2.1,1.92c-0.15,0.14-0.3,0.4-0.46,0.41c-0.39,0.03-0.84,0.03-1.17-0.15c-0.13-0.07-0.09-0.72,0.08-0.97
			c0.28-0.43,0.7-0.79,1.11-1.12c2.23-1.81,4.42-3.66,6.73-5.36c1.05-0.77,2.33-1.24,3.54-1.76c0.25-0.11,0.77,0.04,0.97,0.25
			c0.32,0.34,0.23,0.78-0.18,1.1c-3.11,2.45-3.22,6.19-4.06,9.59c-0.18,0.73,0.07,1.57,0.12,2.37
			C301.2,304.92,300.97,305.3,300.17,305.3z"/>
		<path d="M326.5,275.94c-0.24,0.05-0.49,0.2-0.7,0.15c-1.64-0.42-3.35-0.69-4.87-1.39c-2.12-0.98-4.71-0.88-6.49-2.83
			c0.41-0.65,0.88-0.83,1.57-0.41c0.39,0.24,0.81,0.44,1.23,0.6c2.21,0.87,4.43,1.75,6.65,2.59c0.87,0.33,1.76,0.58,2.65,0.87
			C326.52,275.66,326.51,275.8,326.5,275.94z"/>
		<path d="M308.08,290.58c-0.35-0.79,0.11-1.03,0.54-1.53C308.86,289.89,308.48,290.16,308.08,290.58z"/>
	</g>
</g>
</svg>
